G04 #@! TF.GenerationSoftware,KiCad,Pcbnew,(5.1.6-0-10_14)*
G04 #@! TF.CreationDate,2021-05-03T13:34:44+01:00*
G04 #@! TF.ProjectId,WiFive55,57694669-7665-4353-952e-6b696361645f,0.14*
G04 #@! TF.SameCoordinates,Original*
G04 #@! TF.FileFunction,Legend,Bot*
G04 #@! TF.FilePolarity,Positive*
%FSLAX46Y46*%
G04 Gerber Fmt 4.6, Leading zero omitted, Abs format (unit mm)*
G04 Created by KiCad (PCBNEW (5.1.6-0-10_14)) date 2021-05-03 13:34:44*
%MOMM*%
%LPD*%
G01*
G04 APERTURE LIST*
%ADD10C,0.150000*%
%ADD11C,0.120000*%
G04 APERTURE END LIST*
D10*
X120334018Y-63764420D02*
X120334018Y-62764420D01*
X119762589Y-63764420D01*
X119762589Y-62764420D01*
X119286399Y-63669182D02*
X119238780Y-63716801D01*
X119286399Y-63764420D01*
X119334018Y-63716801D01*
X119286399Y-63669182D01*
X119286399Y-63764420D01*
X118381637Y-63716801D02*
X118476875Y-63764420D01*
X118667351Y-63764420D01*
X118762589Y-63716801D01*
X118810208Y-63669182D01*
X118857827Y-63573944D01*
X118857827Y-63288230D01*
X118810208Y-63192992D01*
X118762589Y-63145373D01*
X118667351Y-63097754D01*
X118476875Y-63097754D01*
X118381637Y-63145373D01*
X117953065Y-63764420D02*
X117953065Y-62764420D01*
X117524494Y-63764420D02*
X117524494Y-63240611D01*
X117572113Y-63145373D01*
X117667351Y-63097754D01*
X117810208Y-63097754D01*
X117905446Y-63145373D01*
X117953065Y-63192992D01*
X116334018Y-63716801D02*
X116238780Y-63764420D01*
X116048303Y-63764420D01*
X115953065Y-63716801D01*
X115905446Y-63621563D01*
X115905446Y-63573944D01*
X115953065Y-63478706D01*
X116048303Y-63431087D01*
X116191160Y-63431087D01*
X116286399Y-63383468D01*
X116334018Y-63288230D01*
X116334018Y-63240611D01*
X116286399Y-63145373D01*
X116191160Y-63097754D01*
X116048303Y-63097754D01*
X115953065Y-63145373D01*
X115048303Y-63764420D02*
X115048303Y-62764420D01*
X115048303Y-63716801D02*
X115143541Y-63764420D01*
X115334018Y-63764420D01*
X115429256Y-63716801D01*
X115476875Y-63669182D01*
X115524494Y-63573944D01*
X115524494Y-63288230D01*
X115476875Y-63192992D01*
X115429256Y-63145373D01*
X115334018Y-63097754D01*
X115143541Y-63097754D01*
X115048303Y-63145373D01*
X114143541Y-63097754D02*
X114143541Y-63907278D01*
X114191160Y-64002516D01*
X114238780Y-64050135D01*
X114334018Y-64097754D01*
X114476875Y-64097754D01*
X114572113Y-64050135D01*
X114143541Y-63716801D02*
X114238780Y-63764420D01*
X114429256Y-63764420D01*
X114524494Y-63716801D01*
X114572113Y-63669182D01*
X114619732Y-63573944D01*
X114619732Y-63288230D01*
X114572113Y-63192992D01*
X114524494Y-63145373D01*
X114429256Y-63097754D01*
X114238780Y-63097754D01*
X114143541Y-63145373D01*
X134794523Y-91512380D02*
X135127857Y-91036190D01*
X135365952Y-91512380D02*
X135365952Y-90512380D01*
X134985000Y-90512380D01*
X134889761Y-90560000D01*
X134842142Y-90607619D01*
X134794523Y-90702857D01*
X134794523Y-90845714D01*
X134842142Y-90940952D01*
X134889761Y-90988571D01*
X134985000Y-91036190D01*
X135365952Y-91036190D01*
X133985000Y-91464761D02*
X134080238Y-91512380D01*
X134270714Y-91512380D01*
X134365952Y-91464761D01*
X134413571Y-91369523D01*
X134413571Y-90988571D01*
X134365952Y-90893333D01*
X134270714Y-90845714D01*
X134080238Y-90845714D01*
X133985000Y-90893333D01*
X133937380Y-90988571D01*
X133937380Y-91083809D01*
X134413571Y-91179047D01*
X133080238Y-90845714D02*
X133080238Y-91655238D01*
X133127857Y-91750476D01*
X133175476Y-91798095D01*
X133270714Y-91845714D01*
X133413571Y-91845714D01*
X133508809Y-91798095D01*
X133080238Y-91464761D02*
X133175476Y-91512380D01*
X133365952Y-91512380D01*
X133461190Y-91464761D01*
X133508809Y-91417142D01*
X133556428Y-91321904D01*
X133556428Y-91036190D01*
X133508809Y-90940952D01*
X133461190Y-90893333D01*
X133365952Y-90845714D01*
X133175476Y-90845714D01*
X133080238Y-90893333D01*
X132604047Y-91417142D02*
X132556428Y-91464761D01*
X132604047Y-91512380D01*
X132651666Y-91464761D01*
X132604047Y-91417142D01*
X132604047Y-91512380D01*
X135651666Y-94812380D02*
X135651666Y-94145714D01*
X135651666Y-93812380D02*
X135699285Y-93860000D01*
X135651666Y-93907619D01*
X135604047Y-93860000D01*
X135651666Y-93812380D01*
X135651666Y-93907619D01*
X134270714Y-94812380D02*
X134365952Y-94764761D01*
X134413571Y-94717142D01*
X134461190Y-94621904D01*
X134461190Y-94336190D01*
X134413571Y-94240952D01*
X134365952Y-94193333D01*
X134270714Y-94145714D01*
X134127857Y-94145714D01*
X134032619Y-94193333D01*
X133985000Y-94240952D01*
X133937380Y-94336190D01*
X133937380Y-94621904D01*
X133985000Y-94717142D01*
X134032619Y-94764761D01*
X134127857Y-94812380D01*
X134270714Y-94812380D01*
X132318333Y-94145714D02*
X132318333Y-94955238D01*
X132365952Y-95050476D01*
X132413571Y-95098095D01*
X132508809Y-95145714D01*
X132651666Y-95145714D01*
X132746904Y-95098095D01*
X132318333Y-94764761D02*
X132413571Y-94812380D01*
X132604047Y-94812380D01*
X132699285Y-94764761D01*
X132746904Y-94717142D01*
X132794523Y-94621904D01*
X132794523Y-94336190D01*
X132746904Y-94240952D01*
X132699285Y-94193333D01*
X132604047Y-94145714D01*
X132413571Y-94145714D01*
X132318333Y-94193333D01*
X116276428Y-53419523D02*
X116276428Y-54181428D01*
X115990714Y-54562380D02*
X116657380Y-54800476D01*
X115990714Y-55038571D01*
X116609761Y-55800476D02*
X116657380Y-55705238D01*
X116657380Y-55514761D01*
X116609761Y-55419523D01*
X116514523Y-55371904D01*
X116133571Y-55371904D01*
X116038333Y-55419523D01*
X115990714Y-55514761D01*
X115990714Y-55705238D01*
X116038333Y-55800476D01*
X116133571Y-55848095D01*
X116228809Y-55848095D01*
X116324047Y-55371904D01*
X110261428Y-53419523D02*
X110261428Y-54181428D01*
X110642380Y-53800476D02*
X109880476Y-53800476D01*
X109975714Y-54562380D02*
X110642380Y-54800476D01*
X109975714Y-55038571D01*
X110594761Y-55800476D02*
X110642380Y-55705238D01*
X110642380Y-55514761D01*
X110594761Y-55419523D01*
X110499523Y-55371904D01*
X110118571Y-55371904D01*
X110023333Y-55419523D01*
X109975714Y-55514761D01*
X109975714Y-55705238D01*
X110023333Y-55800476D01*
X110118571Y-55848095D01*
X110213809Y-55848095D01*
X110309047Y-55371904D01*
X126499761Y-68652380D02*
X126499761Y-67652380D01*
X125928333Y-68652380D01*
X125928333Y-67652380D01*
X125452142Y-68557142D02*
X125404523Y-68604761D01*
X125452142Y-68652380D01*
X125499761Y-68604761D01*
X125452142Y-68557142D01*
X125452142Y-68652380D01*
X124547380Y-68604761D02*
X124642619Y-68652380D01*
X124833095Y-68652380D01*
X124928333Y-68604761D01*
X124975952Y-68557142D01*
X125023571Y-68461904D01*
X125023571Y-68176190D01*
X124975952Y-68080952D01*
X124928333Y-68033333D01*
X124833095Y-67985714D01*
X124642619Y-67985714D01*
X124547380Y-68033333D01*
X124118809Y-68652380D02*
X124118809Y-67652380D01*
X123690238Y-68652380D02*
X123690238Y-68128571D01*
X123737857Y-68033333D01*
X123833095Y-67985714D01*
X123975952Y-67985714D01*
X124071190Y-68033333D01*
X124118809Y-68080952D01*
X125737857Y-71952380D02*
X125737857Y-70952380D01*
X125737857Y-71904761D02*
X125833095Y-71952380D01*
X126023571Y-71952380D01*
X126118809Y-71904761D01*
X126166428Y-71857142D01*
X126214047Y-71761904D01*
X126214047Y-71476190D01*
X126166428Y-71380952D01*
X126118809Y-71333333D01*
X126023571Y-71285714D01*
X125833095Y-71285714D01*
X125737857Y-71333333D01*
X124833095Y-71285714D02*
X124833095Y-72095238D01*
X124880714Y-72190476D01*
X124928333Y-72238095D01*
X125023571Y-72285714D01*
X125166428Y-72285714D01*
X125261666Y-72238095D01*
X124833095Y-71904761D02*
X124928333Y-71952380D01*
X125118809Y-71952380D01*
X125214047Y-71904761D01*
X125261666Y-71857142D01*
X125309285Y-71761904D01*
X125309285Y-71476190D01*
X125261666Y-71380952D01*
X125214047Y-71333333D01*
X125118809Y-71285714D01*
X124928333Y-71285714D01*
X124833095Y-71333333D01*
X124404523Y-71904761D02*
X124309285Y-71952380D01*
X124118809Y-71952380D01*
X124023571Y-71904761D01*
X123975952Y-71809523D01*
X123975952Y-71761904D01*
X124023571Y-71666666D01*
X124118809Y-71619047D01*
X124261666Y-71619047D01*
X124356904Y-71571428D01*
X124404523Y-71476190D01*
X124404523Y-71428571D01*
X124356904Y-71333333D01*
X124261666Y-71285714D01*
X124118809Y-71285714D01*
X124023571Y-71333333D01*
X134000714Y-68652380D02*
X134000714Y-67652380D01*
X133619761Y-67652380D01*
X133524523Y-67700000D01*
X133476904Y-67747619D01*
X133429285Y-67842857D01*
X133429285Y-67985714D01*
X133476904Y-68080952D01*
X133524523Y-68128571D01*
X133619761Y-68176190D01*
X134000714Y-68176190D01*
X133000714Y-68652380D02*
X133000714Y-67652380D01*
X132429285Y-68652380D01*
X132429285Y-67652380D01*
X131953095Y-68652380D02*
X131953095Y-67652380D01*
X131572142Y-67652380D01*
X131476904Y-67700000D01*
X131429285Y-67747619D01*
X131381666Y-67842857D01*
X131381666Y-67985714D01*
X131429285Y-68080952D01*
X131476904Y-68128571D01*
X131572142Y-68176190D01*
X131953095Y-68176190D01*
X133357857Y-71904761D02*
X133453095Y-71952380D01*
X133643571Y-71952380D01*
X133738809Y-71904761D01*
X133786428Y-71857142D01*
X133834047Y-71761904D01*
X133834047Y-71476190D01*
X133786428Y-71380952D01*
X133738809Y-71333333D01*
X133643571Y-71285714D01*
X133453095Y-71285714D01*
X133357857Y-71333333D01*
X132929285Y-71952380D02*
X132929285Y-70952380D01*
X132929285Y-71333333D02*
X132834047Y-71285714D01*
X132643571Y-71285714D01*
X132548333Y-71333333D01*
X132500714Y-71380952D01*
X132453095Y-71476190D01*
X132453095Y-71761904D01*
X132500714Y-71857142D01*
X132548333Y-71904761D01*
X132643571Y-71952380D01*
X132834047Y-71952380D01*
X132929285Y-71904761D01*
X131643571Y-71904761D02*
X131738809Y-71952380D01*
X131929285Y-71952380D01*
X132024523Y-71904761D01*
X132072142Y-71809523D01*
X132072142Y-71428571D01*
X132024523Y-71333333D01*
X131929285Y-71285714D01*
X131738809Y-71285714D01*
X131643571Y-71333333D01*
X131595952Y-71428571D01*
X131595952Y-71523809D01*
X132072142Y-71619047D01*
X106767380Y-74919047D02*
X106767380Y-75490476D01*
X107767380Y-75204761D02*
X106767380Y-75204761D01*
X106767380Y-75728571D02*
X107767380Y-76395238D01*
X106767380Y-76395238D02*
X107767380Y-75728571D01*
X107767380Y-77157142D02*
X107005476Y-77157142D01*
X107195952Y-76966666D02*
X107005476Y-77157142D01*
X107195952Y-77347619D01*
X107005476Y-85023809D02*
X107767380Y-85023809D01*
X107576904Y-85214285D02*
X107767380Y-85023809D01*
X107576904Y-84833333D01*
X107767380Y-86452380D02*
X107291190Y-86119047D01*
X107767380Y-85880952D02*
X106767380Y-85880952D01*
X106767380Y-86261904D01*
X106815000Y-86357142D01*
X106862619Y-86404761D01*
X106957857Y-86452380D01*
X107100714Y-86452380D01*
X107195952Y-86404761D01*
X107243571Y-86357142D01*
X107291190Y-86261904D01*
X107291190Y-85880952D01*
X106767380Y-86785714D02*
X107767380Y-87452380D01*
X106767380Y-87452380D02*
X107767380Y-86785714D01*
X101052380Y-55308571D02*
X102052380Y-55641904D01*
X101052380Y-55975238D01*
X102052380Y-56308571D02*
X101385714Y-56308571D01*
X101052380Y-56308571D02*
X101100000Y-56260952D01*
X101147619Y-56308571D01*
X101100000Y-56356190D01*
X101052380Y-56308571D01*
X101147619Y-56308571D01*
X101957142Y-57896190D02*
X102004761Y-57943809D01*
X102052380Y-57896190D01*
X102004761Y-57848571D01*
X101957142Y-57896190D01*
X102052380Y-57896190D01*
X101671428Y-57896190D02*
X101100000Y-57848571D01*
X101052380Y-57896190D01*
X101100000Y-57943809D01*
X101671428Y-57896190D01*
X101052380Y-57896190D01*
X101052380Y-58562857D02*
X101052380Y-58753333D01*
X101100000Y-58848571D01*
X101195238Y-58943809D01*
X101385714Y-58991428D01*
X101719047Y-58991428D01*
X101909523Y-58943809D01*
X102004761Y-58848571D01*
X102052380Y-58753333D01*
X102052380Y-58562857D01*
X102004761Y-58467619D01*
X101909523Y-58372380D01*
X101719047Y-58324761D01*
X101385714Y-58324761D01*
X101195238Y-58372380D01*
X101100000Y-58467619D01*
X101052380Y-58562857D01*
X101052380Y-60864761D02*
X101052380Y-61055238D01*
X101100000Y-61150476D01*
X101195238Y-61245714D01*
X101385714Y-61293333D01*
X101719047Y-61293333D01*
X101909523Y-61245714D01*
X102004761Y-61150476D01*
X102052380Y-61055238D01*
X102052380Y-60864761D01*
X102004761Y-60769523D01*
X101909523Y-60674285D01*
X101719047Y-60626666D01*
X101385714Y-60626666D01*
X101195238Y-60674285D01*
X101100000Y-60769523D01*
X101052380Y-60864761D01*
X101957142Y-63119047D02*
X102004761Y-63166666D01*
X102052380Y-63119047D01*
X102004761Y-63071428D01*
X101957142Y-63119047D01*
X102052380Y-63119047D01*
X101671428Y-63119047D02*
X101100000Y-63071428D01*
X101052380Y-63119047D01*
X101100000Y-63166666D01*
X101671428Y-63119047D01*
X101052380Y-63119047D01*
X101052380Y-63452380D02*
X101052380Y-64023809D01*
X102052380Y-63738095D02*
X101052380Y-63738095D01*
X101100000Y-66301904D02*
X101052380Y-66206666D01*
X101052380Y-66063809D01*
X101100000Y-65920952D01*
X101195238Y-65825714D01*
X101290476Y-65778095D01*
X101480952Y-65730476D01*
X101623809Y-65730476D01*
X101814285Y-65778095D01*
X101909523Y-65825714D01*
X102004761Y-65920952D01*
X102052380Y-66063809D01*
X102052380Y-66159047D01*
X102004761Y-66301904D01*
X101957142Y-66349523D01*
X101623809Y-66349523D01*
X101623809Y-66159047D01*
X101385714Y-75414285D02*
X101385714Y-76128571D01*
X100957142Y-75700000D02*
X102242857Y-75414285D01*
X101814285Y-76033333D02*
X101814285Y-75319047D01*
X102242857Y-75747619D02*
X100957142Y-76033333D01*
X102052380Y-76985714D02*
X102052380Y-76414285D01*
X102052380Y-76700000D02*
X101052380Y-76700000D01*
X101195238Y-76604761D01*
X101290476Y-76509523D01*
X101338095Y-76414285D01*
X101528571Y-78525714D02*
X101528571Y-78859047D01*
X102052380Y-79001904D02*
X102052380Y-78525714D01*
X101052380Y-78525714D01*
X101052380Y-79001904D01*
X101957142Y-80780000D02*
X102004761Y-80827619D01*
X102052380Y-80780000D01*
X102004761Y-80732380D01*
X101957142Y-80780000D01*
X102052380Y-80780000D01*
X101671428Y-80780000D02*
X101100000Y-80732380D01*
X101052380Y-80780000D01*
X101100000Y-80827619D01*
X101671428Y-80780000D01*
X101052380Y-80780000D01*
X102052380Y-81827619D02*
X101576190Y-81494285D01*
X102052380Y-81256190D02*
X101052380Y-81256190D01*
X101052380Y-81637142D01*
X101100000Y-81732380D01*
X101147619Y-81780000D01*
X101242857Y-81827619D01*
X101385714Y-81827619D01*
X101480952Y-81780000D01*
X101528571Y-81732380D01*
X101576190Y-81637142D01*
X101576190Y-81256190D01*
X101052380Y-83034285D02*
X102052380Y-83367619D01*
X101052380Y-83700952D01*
X102052380Y-84177142D02*
X102004761Y-84081904D01*
X101957142Y-84034285D01*
X101861904Y-83986666D01*
X101576190Y-83986666D01*
X101480952Y-84034285D01*
X101433333Y-84081904D01*
X101385714Y-84177142D01*
X101385714Y-84320000D01*
X101433333Y-84415238D01*
X101480952Y-84462857D01*
X101576190Y-84510476D01*
X101861904Y-84510476D01*
X101957142Y-84462857D01*
X102004761Y-84415238D01*
X102052380Y-84320000D01*
X102052380Y-84177142D01*
X101385714Y-85574285D02*
X101385714Y-86288571D01*
X100957142Y-85860000D02*
X102242857Y-85574285D01*
X101814285Y-86193333D02*
X101814285Y-85479047D01*
X102242857Y-85907619D02*
X100957142Y-86193333D01*
X101052380Y-86526666D02*
X101052380Y-87145714D01*
X101433333Y-86812380D01*
X101433333Y-86955238D01*
X101480952Y-87050476D01*
X101528571Y-87098095D01*
X101623809Y-87145714D01*
X101861904Y-87145714D01*
X101957142Y-87098095D01*
X102004761Y-87050476D01*
X102052380Y-86955238D01*
X102052380Y-86669523D01*
X102004761Y-86574285D01*
X101957142Y-86526666D01*
X101385714Y-88114285D02*
X101385714Y-88828571D01*
X100957142Y-88400000D02*
X102242857Y-88114285D01*
X101814285Y-88733333D02*
X101814285Y-88019047D01*
X102242857Y-88447619D02*
X100957142Y-88733333D01*
X101052380Y-89352380D02*
X101052380Y-89447619D01*
X101100000Y-89542857D01*
X101147619Y-89590476D01*
X101242857Y-89638095D01*
X101433333Y-89685714D01*
X101671428Y-89685714D01*
X101861904Y-89638095D01*
X101957142Y-89590476D01*
X102004761Y-89542857D01*
X102052380Y-89447619D01*
X102052380Y-89352380D01*
X102004761Y-89257142D01*
X101957142Y-89209523D01*
X101861904Y-89161904D01*
X101671428Y-89114285D01*
X101433333Y-89114285D01*
X101242857Y-89161904D01*
X101147619Y-89209523D01*
X101100000Y-89257142D01*
X101052380Y-89352380D01*
X101385714Y-90654285D02*
X101385714Y-91368571D01*
X100957142Y-90940000D02*
X102242857Y-90654285D01*
X101814285Y-91273333D02*
X101814285Y-90559047D01*
X102242857Y-90987619D02*
X100957142Y-91273333D01*
X101147619Y-91654285D02*
X101100000Y-91701904D01*
X101052380Y-91797142D01*
X101052380Y-92035238D01*
X101100000Y-92130476D01*
X101147619Y-92178095D01*
X101242857Y-92225714D01*
X101338095Y-92225714D01*
X101480952Y-92178095D01*
X102052380Y-91606666D01*
X102052380Y-92225714D01*
X101100000Y-94241904D02*
X101052380Y-94146666D01*
X101052380Y-94003809D01*
X101100000Y-93860952D01*
X101195238Y-93765714D01*
X101290476Y-93718095D01*
X101480952Y-93670476D01*
X101623809Y-93670476D01*
X101814285Y-93718095D01*
X101909523Y-93765714D01*
X102004761Y-93860952D01*
X102052380Y-94003809D01*
X102052380Y-94099047D01*
X102004761Y-94241904D01*
X101957142Y-94289523D01*
X101623809Y-94289523D01*
X101623809Y-94099047D01*
X141232380Y-76740000D02*
X140232380Y-76740000D01*
X140232380Y-77120952D01*
X140280000Y-77216190D01*
X140327619Y-77263809D01*
X140422857Y-77311428D01*
X140565714Y-77311428D01*
X140660952Y-77263809D01*
X140708571Y-77216190D01*
X140756190Y-77120952D01*
X140756190Y-76740000D01*
X141232380Y-77740000D02*
X140565714Y-77740000D01*
X140756190Y-77740000D02*
X140660952Y-77787619D01*
X140613333Y-77835238D01*
X140565714Y-77930476D01*
X140565714Y-78025714D01*
X141232380Y-78501904D02*
X141184761Y-78406666D01*
X141137142Y-78359047D01*
X141041904Y-78311428D01*
X140756190Y-78311428D01*
X140660952Y-78359047D01*
X140613333Y-78406666D01*
X140565714Y-78501904D01*
X140565714Y-78644761D01*
X140613333Y-78740000D01*
X140660952Y-78787619D01*
X140756190Y-78835238D01*
X141041904Y-78835238D01*
X141137142Y-78787619D01*
X141184761Y-78740000D01*
X141232380Y-78644761D01*
X141232380Y-78501904D01*
X140565714Y-79692380D02*
X141375238Y-79692380D01*
X141470476Y-79644761D01*
X141518095Y-79597142D01*
X141565714Y-79501904D01*
X141565714Y-79359047D01*
X141518095Y-79263809D01*
X141184761Y-79692380D02*
X141232380Y-79597142D01*
X141232380Y-79406666D01*
X141184761Y-79311428D01*
X141137142Y-79263809D01*
X141041904Y-79216190D01*
X140756190Y-79216190D01*
X140660952Y-79263809D01*
X140613333Y-79311428D01*
X140565714Y-79406666D01*
X140565714Y-79597142D01*
X140613333Y-79692380D01*
X140184761Y-80882857D02*
X141470476Y-80025714D01*
X141882380Y-76263809D02*
X141882380Y-76835238D01*
X142882380Y-76549523D02*
X141882380Y-76549523D01*
X142882380Y-77168571D02*
X142215714Y-77168571D01*
X142406190Y-77168571D02*
X142310952Y-77216190D01*
X142263333Y-77263809D01*
X142215714Y-77359047D01*
X142215714Y-77454285D01*
X142882380Y-77787619D02*
X142215714Y-77787619D01*
X141882380Y-77787619D02*
X141930000Y-77740000D01*
X141977619Y-77787619D01*
X141930000Y-77835238D01*
X141882380Y-77787619D01*
X141977619Y-77787619D01*
X142215714Y-78692380D02*
X143025238Y-78692380D01*
X143120476Y-78644761D01*
X143168095Y-78597142D01*
X143215714Y-78501904D01*
X143215714Y-78359047D01*
X143168095Y-78263809D01*
X142834761Y-78692380D02*
X142882380Y-78597142D01*
X142882380Y-78406666D01*
X142834761Y-78311428D01*
X142787142Y-78263809D01*
X142691904Y-78216190D01*
X142406190Y-78216190D01*
X142310952Y-78263809D01*
X142263333Y-78311428D01*
X142215714Y-78406666D01*
X142215714Y-78597142D01*
X142263333Y-78692380D01*
X142215714Y-79597142D02*
X143025238Y-79597142D01*
X143120476Y-79549523D01*
X143168095Y-79501904D01*
X143215714Y-79406666D01*
X143215714Y-79263809D01*
X143168095Y-79168571D01*
X142834761Y-79597142D02*
X142882380Y-79501904D01*
X142882380Y-79311428D01*
X142834761Y-79216190D01*
X142787142Y-79168571D01*
X142691904Y-79120952D01*
X142406190Y-79120952D01*
X142310952Y-79168571D01*
X142263333Y-79216190D01*
X142215714Y-79311428D01*
X142215714Y-79501904D01*
X142263333Y-79597142D01*
X142834761Y-80454285D02*
X142882380Y-80359047D01*
X142882380Y-80168571D01*
X142834761Y-80073333D01*
X142739523Y-80025714D01*
X142358571Y-80025714D01*
X142263333Y-80073333D01*
X142215714Y-80168571D01*
X142215714Y-80359047D01*
X142263333Y-80454285D01*
X142358571Y-80501904D01*
X142453809Y-80501904D01*
X142549047Y-80025714D01*
X142882380Y-80930476D02*
X142215714Y-80930476D01*
X142406190Y-80930476D02*
X142310952Y-80978095D01*
X142263333Y-81025714D01*
X142215714Y-81120952D01*
X142215714Y-81216190D01*
X142057380Y-89566904D02*
X141581190Y-89233571D01*
X142057380Y-88995476D02*
X141057380Y-88995476D01*
X141057380Y-89376428D01*
X141105000Y-89471666D01*
X141152619Y-89519285D01*
X141247857Y-89566904D01*
X141390714Y-89566904D01*
X141485952Y-89519285D01*
X141533571Y-89471666D01*
X141581190Y-89376428D01*
X141581190Y-88995476D01*
X142009761Y-90376428D02*
X142057380Y-90281190D01*
X142057380Y-90090714D01*
X142009761Y-89995476D01*
X141914523Y-89947857D01*
X141533571Y-89947857D01*
X141438333Y-89995476D01*
X141390714Y-90090714D01*
X141390714Y-90281190D01*
X141438333Y-90376428D01*
X141533571Y-90424047D01*
X141628809Y-90424047D01*
X141724047Y-89947857D01*
X142009761Y-90805000D02*
X142057380Y-90900238D01*
X142057380Y-91090714D01*
X142009761Y-91185952D01*
X141914523Y-91233571D01*
X141866904Y-91233571D01*
X141771666Y-91185952D01*
X141724047Y-91090714D01*
X141724047Y-90947857D01*
X141676428Y-90852619D01*
X141581190Y-90805000D01*
X141533571Y-90805000D01*
X141438333Y-90852619D01*
X141390714Y-90947857D01*
X141390714Y-91090714D01*
X141438333Y-91185952D01*
X142009761Y-92043095D02*
X142057380Y-91947857D01*
X142057380Y-91757380D01*
X142009761Y-91662142D01*
X141914523Y-91614523D01*
X141533571Y-91614523D01*
X141438333Y-91662142D01*
X141390714Y-91757380D01*
X141390714Y-91947857D01*
X141438333Y-92043095D01*
X141533571Y-92090714D01*
X141628809Y-92090714D01*
X141724047Y-91614523D01*
X141390714Y-92376428D02*
X141390714Y-92757380D01*
X141057380Y-92519285D02*
X141914523Y-92519285D01*
X142009761Y-92566904D01*
X142057380Y-92662142D01*
X142057380Y-92757380D01*
X141422380Y-53975714D02*
X140422380Y-53975714D01*
X141422380Y-54547142D01*
X140422380Y-54547142D01*
X141327142Y-55594761D02*
X141374761Y-55547142D01*
X141422380Y-55404285D01*
X141422380Y-55309047D01*
X141374761Y-55166190D01*
X141279523Y-55070952D01*
X141184285Y-55023333D01*
X140993809Y-54975714D01*
X140850952Y-54975714D01*
X140660476Y-55023333D01*
X140565238Y-55070952D01*
X140470000Y-55166190D01*
X140422380Y-55309047D01*
X140422380Y-55404285D01*
X140470000Y-55547142D01*
X140517619Y-55594761D01*
X141327142Y-58880476D02*
X141374761Y-58832857D01*
X141422380Y-58690000D01*
X141422380Y-58594761D01*
X141374761Y-58451904D01*
X141279523Y-58356666D01*
X141184285Y-58309047D01*
X140993809Y-58261428D01*
X140850952Y-58261428D01*
X140660476Y-58309047D01*
X140565238Y-58356666D01*
X140470000Y-58451904D01*
X140422380Y-58594761D01*
X140422380Y-58690000D01*
X140470000Y-58832857D01*
X140517619Y-58880476D01*
X140422380Y-59499523D02*
X140422380Y-59690000D01*
X140470000Y-59785238D01*
X140565238Y-59880476D01*
X140755714Y-59928095D01*
X141089047Y-59928095D01*
X141279523Y-59880476D01*
X141374761Y-59785238D01*
X141422380Y-59690000D01*
X141422380Y-59499523D01*
X141374761Y-59404285D01*
X141279523Y-59309047D01*
X141089047Y-59261428D01*
X140755714Y-59261428D01*
X140565238Y-59309047D01*
X140470000Y-59404285D01*
X140422380Y-59499523D01*
X141422380Y-60356666D02*
X140422380Y-60356666D01*
X141136666Y-60690000D01*
X140422380Y-61023333D01*
X141422380Y-61023333D01*
X141422380Y-63785238D02*
X140422380Y-63785238D01*
X141422380Y-64356666D01*
X140422380Y-64356666D01*
X140422380Y-65023333D02*
X140422380Y-65213809D01*
X140470000Y-65309047D01*
X140565238Y-65404285D01*
X140755714Y-65451904D01*
X141089047Y-65451904D01*
X141279523Y-65404285D01*
X141374761Y-65309047D01*
X141422380Y-65213809D01*
X141422380Y-65023333D01*
X141374761Y-64928095D01*
X141279523Y-64832857D01*
X141089047Y-64785238D01*
X140755714Y-64785238D01*
X140565238Y-64832857D01*
X140470000Y-64928095D01*
X140422380Y-65023333D01*
D11*
X111825000Y-60595000D02*
X110425000Y-60595000D01*
X109725000Y-61295000D02*
X109725000Y-61895000D01*
X110425000Y-62595000D02*
X111825000Y-62595000D01*
X112525000Y-61895000D02*
X112525000Y-61295000D01*
X112525000Y-61295000D02*
G75*
G03*
X111825000Y-60595000I-700000J0D01*
G01*
X111825000Y-62595000D02*
G75*
G03*
X112525000Y-61895000I0J700000D01*
G01*
X109725000Y-61895000D02*
G75*
G03*
X110425000Y-62595000I700000J0D01*
G01*
X110425000Y-60595000D02*
G75*
G03*
X109725000Y-61295000I0J-700000D01*
G01*
X124315000Y-75900000D02*
X124315000Y-76500000D01*
X126415000Y-75200000D02*
X125015000Y-75200000D01*
X127115000Y-76500000D02*
X127115000Y-75900000D01*
X125015000Y-77200000D02*
X126415000Y-77200000D01*
X124315000Y-76500000D02*
G75*
G03*
X125015000Y-77200000I700000J0D01*
G01*
X125015000Y-75200000D02*
G75*
G03*
X124315000Y-75900000I0J-700000D01*
G01*
X127115000Y-75900000D02*
G75*
G03*
X126415000Y-75200000I-700000J0D01*
G01*
X126415000Y-77200000D02*
G75*
G03*
X127115000Y-76500000I0J700000D01*
G01*
X127115000Y-85390000D02*
X127115000Y-84790000D01*
X125015000Y-86090000D02*
X126415000Y-86090000D01*
X124315000Y-84790000D02*
X124315000Y-85390000D01*
X126415000Y-84090000D02*
X125015000Y-84090000D01*
X127115000Y-84790000D02*
G75*
G03*
X126415000Y-84090000I-700000J0D01*
G01*
X126415000Y-86090000D02*
G75*
G03*
X127115000Y-85390000I0J700000D01*
G01*
X124315000Y-85390000D02*
G75*
G03*
X125015000Y-86090000I700000J0D01*
G01*
X125015000Y-84090000D02*
G75*
G03*
X124315000Y-84790000I0J-700000D01*
G01*
X127130000Y-80945000D02*
X127130000Y-80345000D01*
X125030000Y-81645000D02*
X126430000Y-81645000D01*
X124330000Y-80345000D02*
X124330000Y-80945000D01*
X126430000Y-79645000D02*
X125030000Y-79645000D01*
X127130000Y-80345000D02*
G75*
G03*
X126430000Y-79645000I-700000J0D01*
G01*
X126430000Y-81645000D02*
G75*
G03*
X127130000Y-80945000I0J700000D01*
G01*
X124330000Y-80945000D02*
G75*
G03*
X125030000Y-81645000I700000J0D01*
G01*
X125030000Y-79645000D02*
G75*
G03*
X124330000Y-80345000I0J-700000D01*
G01*
X130680000Y-80345000D02*
X130680000Y-80945000D01*
X132780000Y-79645000D02*
X131380000Y-79645000D01*
X133480000Y-80945000D02*
X133480000Y-80345000D01*
X131380000Y-81645000D02*
X132780000Y-81645000D01*
X130680000Y-80945000D02*
G75*
G03*
X131380000Y-81645000I700000J0D01*
G01*
X131380000Y-79645000D02*
G75*
G03*
X130680000Y-80345000I0J-700000D01*
G01*
X133480000Y-80345000D02*
G75*
G03*
X132780000Y-79645000I-700000J0D01*
G01*
X132780000Y-81645000D02*
G75*
G03*
X133480000Y-80945000I0J700000D01*
G01*
X130680000Y-75900000D02*
X130680000Y-76500000D01*
X132780000Y-75200000D02*
X131380000Y-75200000D01*
X133480000Y-76500000D02*
X133480000Y-75900000D01*
X131380000Y-77200000D02*
X132780000Y-77200000D01*
X130680000Y-76500000D02*
G75*
G03*
X131380000Y-77200000I700000J0D01*
G01*
X131380000Y-75200000D02*
G75*
G03*
X130680000Y-75900000I0J-700000D01*
G01*
X133480000Y-75900000D02*
G75*
G03*
X132780000Y-75200000I-700000J0D01*
G01*
X132780000Y-77200000D02*
G75*
G03*
X133480000Y-76500000I0J700000D01*
G01*
X119945000Y-86290000D02*
X119645000Y-86590000D01*
X120245000Y-86590000D02*
X119645000Y-86590000D01*
X119945000Y-86290000D02*
X120245000Y-86590000D01*
X120795000Y-85390000D02*
X120795000Y-84790000D01*
X117345000Y-86090000D02*
X120145000Y-86090000D01*
X116695000Y-84790000D02*
X116695000Y-85390000D01*
X120145000Y-84090000D02*
X117345000Y-84090000D01*
X120795000Y-84790000D02*
G75*
G03*
X120095000Y-84090000I-700000J0D01*
G01*
X120095000Y-86090000D02*
G75*
G03*
X120795000Y-85390000I0J700000D01*
G01*
X116695000Y-85390000D02*
G75*
G03*
X117395000Y-86090000I700000J0D01*
G01*
X117395000Y-84090000D02*
G75*
G03*
X116695000Y-84790000I0J-700000D01*
G01*
X117345000Y-81645000D02*
X120145000Y-81645000D01*
X120795000Y-80945000D02*
X120795000Y-80345000D01*
X120145000Y-79645000D02*
X117345000Y-79645000D01*
X116695000Y-80345000D02*
X116695000Y-80945000D01*
X116695000Y-80945000D02*
G75*
G03*
X117395000Y-81645000I700000J0D01*
G01*
X117395000Y-79645000D02*
G75*
G03*
X116695000Y-80345000I0J-700000D01*
G01*
X120795000Y-80345000D02*
G75*
G03*
X120095000Y-79645000I-700000J0D01*
G01*
X120095000Y-81645000D02*
G75*
G03*
X120795000Y-80945000I0J700000D01*
G01*
X120145000Y-75200000D02*
X117345000Y-75200000D01*
X116695000Y-75900000D02*
X116695000Y-76500000D01*
X117345000Y-77200000D02*
X120145000Y-77200000D01*
X120795000Y-76500000D02*
X120795000Y-75900000D01*
X120795000Y-75900000D02*
G75*
G03*
X120095000Y-75200000I-700000J0D01*
G01*
X120095000Y-77200000D02*
G75*
G03*
X120795000Y-76500000I0J700000D01*
G01*
X116695000Y-76500000D02*
G75*
G03*
X117395000Y-77200000I700000J0D01*
G01*
X117395000Y-75200000D02*
G75*
G03*
X116695000Y-75900000I0J-700000D01*
G01*
X132780000Y-84090000D02*
X131380000Y-84090000D01*
X130680000Y-84790000D02*
X130680000Y-85390000D01*
X131380000Y-86090000D02*
X132780000Y-86090000D01*
X133480000Y-85390000D02*
X133480000Y-84790000D01*
X133480000Y-84790000D02*
G75*
G03*
X132780000Y-84090000I-700000J0D01*
G01*
X132780000Y-86090000D02*
G75*
G03*
X133480000Y-85390000I0J700000D01*
G01*
X130680000Y-85390000D02*
G75*
G03*
X131380000Y-86090000I700000J0D01*
G01*
X131380000Y-84090000D02*
G75*
G03*
X130680000Y-84790000I0J-700000D01*
G01*
D10*
X108624523Y-61047380D02*
X108624523Y-61761666D01*
X108672142Y-61904523D01*
X108767380Y-61999761D01*
X108910238Y-62047380D01*
X109005476Y-62047380D01*
X108148333Y-62047380D02*
X108148333Y-61047380D01*
X107767380Y-61047380D01*
X107672142Y-61095000D01*
X107624523Y-61142619D01*
X107576904Y-61237857D01*
X107576904Y-61380714D01*
X107624523Y-61475952D01*
X107672142Y-61523571D01*
X107767380Y-61571190D01*
X108148333Y-61571190D01*
X106624523Y-62047380D02*
X107195952Y-62047380D01*
X106910238Y-62047380D02*
X106910238Y-61047380D01*
X107005476Y-61190238D01*
X107100714Y-61285476D01*
X107195952Y-61333095D01*
X106243571Y-61142619D02*
X106195952Y-61095000D01*
X106100714Y-61047380D01*
X105862619Y-61047380D01*
X105767380Y-61095000D01*
X105719761Y-61142619D01*
X105672142Y-61237857D01*
X105672142Y-61333095D01*
X105719761Y-61475952D01*
X106291190Y-62047380D01*
X105672142Y-62047380D01*
X126563333Y-73747380D02*
X126563333Y-74461666D01*
X126610952Y-74604523D01*
X126706190Y-74699761D01*
X126849047Y-74747380D01*
X126944285Y-74747380D01*
X126087142Y-74747380D02*
X126087142Y-73747380D01*
X125706190Y-73747380D01*
X125610952Y-73795000D01*
X125563333Y-73842619D01*
X125515714Y-73937857D01*
X125515714Y-74080714D01*
X125563333Y-74175952D01*
X125610952Y-74223571D01*
X125706190Y-74271190D01*
X126087142Y-74271190D01*
X125039523Y-74747380D02*
X124849047Y-74747380D01*
X124753809Y-74699761D01*
X124706190Y-74652142D01*
X124610952Y-74509285D01*
X124563333Y-74318809D01*
X124563333Y-73937857D01*
X124610952Y-73842619D01*
X124658571Y-73795000D01*
X124753809Y-73747380D01*
X124944285Y-73747380D01*
X125039523Y-73795000D01*
X125087142Y-73842619D01*
X125134761Y-73937857D01*
X125134761Y-74175952D01*
X125087142Y-74271190D01*
X125039523Y-74318809D01*
X124944285Y-74366428D01*
X124753809Y-74366428D01*
X124658571Y-74318809D01*
X124610952Y-74271190D01*
X124563333Y-74175952D01*
X126548333Y-82742380D02*
X126548333Y-83456666D01*
X126595952Y-83599523D01*
X126691190Y-83694761D01*
X126834047Y-83742380D01*
X126929285Y-83742380D01*
X126072142Y-83742380D02*
X126072142Y-82742380D01*
X125691190Y-82742380D01*
X125595952Y-82790000D01*
X125548333Y-82837619D01*
X125500714Y-82932857D01*
X125500714Y-83075714D01*
X125548333Y-83170952D01*
X125595952Y-83218571D01*
X125691190Y-83266190D01*
X126072142Y-83266190D01*
X125167380Y-82742380D02*
X124500714Y-82742380D01*
X124929285Y-83742380D01*
X126563333Y-78297380D02*
X126563333Y-79011666D01*
X126610952Y-79154523D01*
X126706190Y-79249761D01*
X126849047Y-79297380D01*
X126944285Y-79297380D01*
X126087142Y-79297380D02*
X126087142Y-78297380D01*
X125706190Y-78297380D01*
X125610952Y-78345000D01*
X125563333Y-78392619D01*
X125515714Y-78487857D01*
X125515714Y-78630714D01*
X125563333Y-78725952D01*
X125610952Y-78773571D01*
X125706190Y-78821190D01*
X126087142Y-78821190D01*
X124658571Y-78297380D02*
X124849047Y-78297380D01*
X124944285Y-78345000D01*
X124991904Y-78392619D01*
X125087142Y-78535476D01*
X125134761Y-78725952D01*
X125134761Y-79106904D01*
X125087142Y-79202142D01*
X125039523Y-79249761D01*
X124944285Y-79297380D01*
X124753809Y-79297380D01*
X124658571Y-79249761D01*
X124610952Y-79202142D01*
X124563333Y-79106904D01*
X124563333Y-78868809D01*
X124610952Y-78773571D01*
X124658571Y-78725952D01*
X124753809Y-78678333D01*
X124944285Y-78678333D01*
X125039523Y-78725952D01*
X125087142Y-78773571D01*
X125134761Y-78868809D01*
X132913333Y-78192380D02*
X132913333Y-78906666D01*
X132960952Y-79049523D01*
X133056190Y-79144761D01*
X133199047Y-79192380D01*
X133294285Y-79192380D01*
X132437142Y-79192380D02*
X132437142Y-78192380D01*
X132056190Y-78192380D01*
X131960952Y-78240000D01*
X131913333Y-78287619D01*
X131865714Y-78382857D01*
X131865714Y-78525714D01*
X131913333Y-78620952D01*
X131960952Y-78668571D01*
X132056190Y-78716190D01*
X132437142Y-78716190D01*
X131008571Y-78525714D02*
X131008571Y-79192380D01*
X131246666Y-78144761D02*
X131484761Y-78859047D01*
X130865714Y-78859047D01*
X132913333Y-73747380D02*
X132913333Y-74461666D01*
X132960952Y-74604523D01*
X133056190Y-74699761D01*
X133199047Y-74747380D01*
X133294285Y-74747380D01*
X132437142Y-74747380D02*
X132437142Y-73747380D01*
X132056190Y-73747380D01*
X131960952Y-73795000D01*
X131913333Y-73842619D01*
X131865714Y-73937857D01*
X131865714Y-74080714D01*
X131913333Y-74175952D01*
X131960952Y-74223571D01*
X132056190Y-74271190D01*
X132437142Y-74271190D01*
X131532380Y-73747380D02*
X130913333Y-73747380D01*
X131246666Y-74128333D01*
X131103809Y-74128333D01*
X131008571Y-74175952D01*
X130960952Y-74223571D01*
X130913333Y-74318809D01*
X130913333Y-74556904D01*
X130960952Y-74652142D01*
X131008571Y-74699761D01*
X131103809Y-74747380D01*
X131389523Y-74747380D01*
X131484761Y-74699761D01*
X131532380Y-74652142D01*
X119578333Y-82637380D02*
X119578333Y-83351666D01*
X119625952Y-83494523D01*
X119721190Y-83589761D01*
X119864047Y-83637380D01*
X119959285Y-83637380D01*
X119102142Y-83637380D02*
X119102142Y-82637380D01*
X118721190Y-82637380D01*
X118625952Y-82685000D01*
X118578333Y-82732619D01*
X118530714Y-82827857D01*
X118530714Y-82970714D01*
X118578333Y-83065952D01*
X118625952Y-83113571D01*
X118721190Y-83161190D01*
X119102142Y-83161190D01*
X118149761Y-82732619D02*
X118102142Y-82685000D01*
X118006904Y-82637380D01*
X117768809Y-82637380D01*
X117673571Y-82685000D01*
X117625952Y-82732619D01*
X117578333Y-82827857D01*
X117578333Y-82923095D01*
X117625952Y-83065952D01*
X118197380Y-83637380D01*
X117578333Y-83637380D01*
X119578333Y-78192380D02*
X119578333Y-78906666D01*
X119625952Y-79049523D01*
X119721190Y-79144761D01*
X119864047Y-79192380D01*
X119959285Y-79192380D01*
X119102142Y-79192380D02*
X119102142Y-78192380D01*
X118721190Y-78192380D01*
X118625952Y-78240000D01*
X118578333Y-78287619D01*
X118530714Y-78382857D01*
X118530714Y-78525714D01*
X118578333Y-78620952D01*
X118625952Y-78668571D01*
X118721190Y-78716190D01*
X119102142Y-78716190D01*
X117578333Y-79192380D02*
X118149761Y-79192380D01*
X117864047Y-79192380D02*
X117864047Y-78192380D01*
X117959285Y-78335238D01*
X118054523Y-78430476D01*
X118149761Y-78478095D01*
X115859285Y-81097380D02*
X116430714Y-81097380D01*
X116145000Y-81097380D02*
X116145000Y-80097380D01*
X116240238Y-80240238D01*
X116335476Y-80335476D01*
X116430714Y-80383095D01*
X121678333Y-80097380D02*
X121059285Y-80097380D01*
X121392619Y-80478333D01*
X121249761Y-80478333D01*
X121154523Y-80525952D01*
X121106904Y-80573571D01*
X121059285Y-80668809D01*
X121059285Y-80906904D01*
X121106904Y-81002142D01*
X121154523Y-81049761D01*
X121249761Y-81097380D01*
X121535476Y-81097380D01*
X121630714Y-81049761D01*
X121678333Y-81002142D01*
X119578333Y-73747380D02*
X119578333Y-74461666D01*
X119625952Y-74604523D01*
X119721190Y-74699761D01*
X119864047Y-74747380D01*
X119959285Y-74747380D01*
X119102142Y-74747380D02*
X119102142Y-73747380D01*
X118721190Y-73747380D01*
X118625952Y-73795000D01*
X118578333Y-73842619D01*
X118530714Y-73937857D01*
X118530714Y-74080714D01*
X118578333Y-74175952D01*
X118625952Y-74223571D01*
X118721190Y-74271190D01*
X119102142Y-74271190D01*
X117959285Y-74175952D02*
X118054523Y-74128333D01*
X118102142Y-74080714D01*
X118149761Y-73985476D01*
X118149761Y-73937857D01*
X118102142Y-73842619D01*
X118054523Y-73795000D01*
X117959285Y-73747380D01*
X117768809Y-73747380D01*
X117673571Y-73795000D01*
X117625952Y-73842619D01*
X117578333Y-73937857D01*
X117578333Y-73985476D01*
X117625952Y-74080714D01*
X117673571Y-74128333D01*
X117768809Y-74175952D01*
X117959285Y-74175952D01*
X118054523Y-74223571D01*
X118102142Y-74271190D01*
X118149761Y-74366428D01*
X118149761Y-74556904D01*
X118102142Y-74652142D01*
X118054523Y-74699761D01*
X117959285Y-74747380D01*
X117768809Y-74747380D01*
X117673571Y-74699761D01*
X117625952Y-74652142D01*
X117578333Y-74556904D01*
X117578333Y-74366428D01*
X117625952Y-74271190D01*
X117673571Y-74223571D01*
X117768809Y-74175952D01*
X121059285Y-76652380D02*
X121630714Y-76652380D01*
X121345000Y-76652380D02*
X121345000Y-75652380D01*
X121440238Y-75795238D01*
X121535476Y-75890476D01*
X121630714Y-75938095D01*
X116478333Y-75652380D02*
X115859285Y-75652380D01*
X116192619Y-76033333D01*
X116049761Y-76033333D01*
X115954523Y-76080952D01*
X115906904Y-76128571D01*
X115859285Y-76223809D01*
X115859285Y-76461904D01*
X115906904Y-76557142D01*
X115954523Y-76604761D01*
X116049761Y-76652380D01*
X116335476Y-76652380D01*
X116430714Y-76604761D01*
X116478333Y-76557142D01*
X132913333Y-82637380D02*
X132913333Y-83351666D01*
X132960952Y-83494523D01*
X133056190Y-83589761D01*
X133199047Y-83637380D01*
X133294285Y-83637380D01*
X132437142Y-83637380D02*
X132437142Y-82637380D01*
X132056190Y-82637380D01*
X131960952Y-82685000D01*
X131913333Y-82732619D01*
X131865714Y-82827857D01*
X131865714Y-82970714D01*
X131913333Y-83065952D01*
X131960952Y-83113571D01*
X132056190Y-83161190D01*
X132437142Y-83161190D01*
X130960952Y-82637380D02*
X131437142Y-82637380D01*
X131484761Y-83113571D01*
X131437142Y-83065952D01*
X131341904Y-83018333D01*
X131103809Y-83018333D01*
X131008571Y-83065952D01*
X130960952Y-83113571D01*
X130913333Y-83208809D01*
X130913333Y-83446904D01*
X130960952Y-83542142D01*
X131008571Y-83589761D01*
X131103809Y-83637380D01*
X131341904Y-83637380D01*
X131437142Y-83589761D01*
X131484761Y-83542142D01*
M02*
