M48
INCH,TZ
T1C0.0157
T2C0.0236
T3C0.0276
T4C0.0315
T5C0.0354
T6C0.0394
T7C0.0400
T8C0.0433
T9C0.0450
T10C0.0512
T11C0.0598
T12C0.1575
T13C0.1260
%
G90
G05
T1
X40250Y-19750
X45250Y-25250
X48750Y-19750
X56750Y-19750
T2
X42009Y-19452
X42009Y-18548
X42648Y-17909
X42648Y-20091
X43552Y-17909
X43552Y-20091
X44191Y-19452
X44191Y-18548
X46463Y-28000
X47250Y-28000
X53009Y-19452
X53009Y-18548
X53648Y-17909
X53648Y-20091
X54552Y-17909
X54552Y-20091
X55191Y-19452
X55191Y-18548
T3
X43000Y-27500
X43000Y-28500
X45500Y-27500
X45500Y-28500
X50750Y-29000
X50750Y-30000
X48250Y-31250
X48250Y-32250
X48250Y-33500
X48250Y-34500
X44250Y-27500
X44250Y-28500
X48250Y-29000
X48250Y-30000
X50750Y-31250
X50750Y-32250
X50750Y-33500
X50750Y-34500
T4
X49266Y-36250
X50250Y-36250
X51750Y-36750
X52750Y-36750
X53750Y-36750
X51250Y-27500
X52250Y-27500
X53250Y-27500
X51516Y-35250
X52500Y-35250
X44750Y-35750
X44750Y-36734
X41750Y-23250
X41750Y-26250
X42750Y-23250
X42750Y-26250
X43750Y-23250
X43750Y-26250
X44750Y-23250
X44750Y-26250
X48250Y-27500
X49250Y-27500
X50250Y-27500
X46000Y-36250
X46984Y-36250
T5
X53500Y-31250
X53500Y-32250
X53500Y-33500
X53500Y-34500
X53500Y-28750
X53500Y-29750
X40750Y-21000
X41750Y-21000
T6
X50100Y-23500
X45100Y-21000
X45100Y-22000
X49100Y-23500
X46100Y-23500
X41500Y-30000
X41500Y-31000
X41500Y-32000
X41500Y-33000
X41500Y-34000
X41500Y-35000
X41500Y-36000
X41500Y-37000
X40500Y-22000
X40500Y-23000
X40500Y-24000
X40500Y-25000
X40500Y-26000
X54100Y-23500
X53100Y-23500
X40500Y-30000
X40500Y-31000
X40500Y-32000
X40500Y-33000
X40500Y-34000
X40500Y-35000
X40500Y-36000
X40500Y-37000
X52100Y-23500
X43850Y-21000
X43850Y-22000
T7
X43750Y-30250
X43750Y-31250
X43750Y-32250
X43750Y-33250
X44750Y-30250
X44750Y-31250
X44750Y-32250
X44750Y-33250
T8
X42303Y-25250
X43303Y-25250
X44303Y-25250
T9
X54750Y-34000
X54750Y-37000
X55750Y-34000
X56750Y-34000
X56750Y-37000
X54750Y-29750
X54750Y-32750
X55750Y-32750
X56750Y-29750
X56750Y-32750
T10
X47100Y-23500
X47887Y-21138
X47887Y-25862
X52691Y-21138
X52691Y-25862
T11
X56375Y-21500
X56375Y-23500
X56375Y-25500
T12
X43100Y-19000
X54100Y-19000
T13
X56000Y-28000
X41000Y-28000
T0
M30
