G04 #@! TF.GenerationSoftware,KiCad,Pcbnew,(5.1.6-0-10_14)*
G04 #@! TF.CreationDate,2021-05-03T13:34:44+01:00*
G04 #@! TF.ProjectId,WiFive55,57694669-7665-4353-952e-6b696361645f,0.14*
G04 #@! TF.SameCoordinates,Original*
G04 #@! TF.FileFunction,Soldermask,Bot*
G04 #@! TF.FilePolarity,Negative*
%FSLAX46Y46*%
G04 Gerber Fmt 4.6, Leading zero omitted, Abs format (unit mm)*
G04 Created by KiCad (PCBNEW (5.1.6-0-10_14)) date 2021-05-03 13:34:44*
%MOMM*%
%LPD*%
G01*
G04 APERTURE LIST*
%ADD10C,2.000000*%
%ADD11C,1.600000*%
%ADD12R,1.600000X1.600000*%
%ADD13C,1.200000*%
%ADD14R,1.200000X1.200000*%
%ADD15O,1.400000X1.400000*%
%ADD16C,1.400000*%
%ADD17C,0.900000*%
%ADD18C,8.000000*%
%ADD19O,1.905000X2.000000*%
%ADD20R,1.905000X2.000000*%
%ADD21R,1.500000X1.500000*%
%ADD22C,1.500000*%
%ADD23C,0.100000*%
%ADD24O,1.700000X1.700000*%
%ADD25R,1.700000X1.700000*%
%ADD26O,1.727200X1.727200*%
%ADD27R,1.727200X1.727200*%
%ADD28C,3.200000*%
%ADD29O,1.600000X1.600000*%
%ADD30R,1.000000X1.500000*%
%ADD31C,1.800000*%
%ADD32R,1.800000X1.800000*%
%ADD33C,3.000000*%
%ADD34R,3.000000X3.000000*%
%ADD35O,1.800000X1.800000*%
%ADD36C,1.778000*%
G04 APERTURE END LIST*
D10*
X137414000Y-59690000D03*
X134874000Y-59690000D03*
X132334000Y-59690000D03*
X127254000Y-59690000D03*
X124714000Y-59690000D03*
X117094000Y-59690000D03*
D11*
X119340000Y-92075000D03*
D12*
X116840000Y-92075000D03*
D11*
X125135000Y-92075000D03*
D12*
X127635000Y-92075000D03*
D13*
X118015000Y-71120000D03*
D14*
X120015000Y-71120000D03*
D15*
X115570000Y-69850000D03*
D16*
X115570000Y-72390000D03*
D17*
X138562050Y-45488362D03*
X136265950Y-45488361D03*
X134642362Y-47111950D03*
X134642361Y-49408050D03*
X136265950Y-51031638D03*
X138562050Y-51031639D03*
X140185638Y-49408050D03*
X140185639Y-47111950D03*
D18*
X137414000Y-48260000D03*
D17*
X110622050Y-45488362D03*
X108325950Y-45488361D03*
X106702362Y-47111950D03*
X106702361Y-49408050D03*
X108325950Y-51031638D03*
X110622050Y-51031639D03*
X112245638Y-49408050D03*
X112245639Y-47111950D03*
D18*
X109474000Y-48260000D03*
D19*
X112530000Y-64135000D03*
X109990000Y-64135000D03*
D20*
X107450000Y-64135000D03*
D21*
X135255000Y-69850000D03*
D22*
X130175000Y-69850000D03*
X132715000Y-69850000D03*
D21*
X127635000Y-69850000D03*
D22*
X122555000Y-69850000D03*
X125095000Y-69850000D03*
D23*
G36*
X110475000Y-62344398D02*
G01*
X110450466Y-62344398D01*
X110401635Y-62339588D01*
X110353510Y-62330016D01*
X110306555Y-62315772D01*
X110261222Y-62296995D01*
X110217949Y-62273864D01*
X110177150Y-62246604D01*
X110139221Y-62215476D01*
X110104524Y-62180779D01*
X110073396Y-62142850D01*
X110046136Y-62102051D01*
X110023005Y-62058778D01*
X110004228Y-62013445D01*
X109989984Y-61966490D01*
X109980412Y-61918365D01*
X109975602Y-61869534D01*
X109975602Y-61845000D01*
X109975000Y-61845000D01*
X109975000Y-61345000D01*
X109975602Y-61345000D01*
X109975602Y-61320466D01*
X109980412Y-61271635D01*
X109989984Y-61223510D01*
X110004228Y-61176555D01*
X110023005Y-61131222D01*
X110046136Y-61087949D01*
X110073396Y-61047150D01*
X110104524Y-61009221D01*
X110139221Y-60974524D01*
X110177150Y-60943396D01*
X110217949Y-60916136D01*
X110261222Y-60893005D01*
X110306555Y-60874228D01*
X110353510Y-60859984D01*
X110401635Y-60850412D01*
X110450466Y-60845602D01*
X110475000Y-60845602D01*
X110475000Y-60845000D01*
X110975000Y-60845000D01*
X110975000Y-62345000D01*
X110475000Y-62345000D01*
X110475000Y-62344398D01*
G37*
G36*
X111275000Y-60845000D02*
G01*
X111775000Y-60845000D01*
X111775000Y-60845602D01*
X111799534Y-60845602D01*
X111848365Y-60850412D01*
X111896490Y-60859984D01*
X111943445Y-60874228D01*
X111988778Y-60893005D01*
X112032051Y-60916136D01*
X112072850Y-60943396D01*
X112110779Y-60974524D01*
X112145476Y-61009221D01*
X112176604Y-61047150D01*
X112203864Y-61087949D01*
X112226995Y-61131222D01*
X112245772Y-61176555D01*
X112260016Y-61223510D01*
X112269588Y-61271635D01*
X112274398Y-61320466D01*
X112274398Y-61345000D01*
X112275000Y-61345000D01*
X112275000Y-61845000D01*
X112274398Y-61845000D01*
X112274398Y-61869534D01*
X112269588Y-61918365D01*
X112260016Y-61966490D01*
X112245772Y-62013445D01*
X112226995Y-62058778D01*
X112203864Y-62102051D01*
X112176604Y-62142850D01*
X112145476Y-62180779D01*
X112110779Y-62215476D01*
X112072850Y-62246604D01*
X112032051Y-62273864D01*
X111988778Y-62296995D01*
X111943445Y-62315772D01*
X111896490Y-62330016D01*
X111848365Y-62339588D01*
X111799534Y-62344398D01*
X111775000Y-62344398D01*
X111775000Y-62345000D01*
X111275000Y-62345000D01*
X111275000Y-60845000D01*
G37*
D24*
X111379000Y-53340000D03*
D25*
X111379000Y-55880000D03*
D24*
X114554000Y-53340000D03*
D25*
X114554000Y-55880000D03*
D15*
X122555000Y-85090000D03*
D16*
X122555000Y-87630000D03*
D15*
X122555000Y-73660000D03*
D16*
X122555000Y-76200000D03*
D15*
X128905000Y-73660000D03*
D16*
X128905000Y-76200000D03*
D15*
X128905000Y-79375000D03*
D16*
X128905000Y-81915000D03*
D15*
X128905000Y-85090000D03*
D16*
X128905000Y-87630000D03*
D15*
X112395000Y-69850000D03*
D16*
X112395000Y-72390000D03*
D15*
X122555000Y-79375000D03*
D16*
X122555000Y-81915000D03*
D15*
X109220000Y-69850000D03*
D16*
X109220000Y-72390000D03*
D23*
G36*
X125565000Y-76950000D02*
G01*
X125065000Y-76950000D01*
X125065000Y-76949398D01*
X125040466Y-76949398D01*
X124991635Y-76944588D01*
X124943510Y-76935016D01*
X124896555Y-76920772D01*
X124851222Y-76901995D01*
X124807949Y-76878864D01*
X124767150Y-76851604D01*
X124729221Y-76820476D01*
X124694524Y-76785779D01*
X124663396Y-76747850D01*
X124636136Y-76707051D01*
X124613005Y-76663778D01*
X124594228Y-76618445D01*
X124579984Y-76571490D01*
X124570412Y-76523365D01*
X124565602Y-76474534D01*
X124565602Y-76450000D01*
X124565000Y-76450000D01*
X124565000Y-75950000D01*
X124565602Y-75950000D01*
X124565602Y-75925466D01*
X124570412Y-75876635D01*
X124579984Y-75828510D01*
X124594228Y-75781555D01*
X124613005Y-75736222D01*
X124636136Y-75692949D01*
X124663396Y-75652150D01*
X124694524Y-75614221D01*
X124729221Y-75579524D01*
X124767150Y-75548396D01*
X124807949Y-75521136D01*
X124851222Y-75498005D01*
X124896555Y-75479228D01*
X124943510Y-75464984D01*
X124991635Y-75455412D01*
X125040466Y-75450602D01*
X125065000Y-75450602D01*
X125065000Y-75450000D01*
X125565000Y-75450000D01*
X125565000Y-76950000D01*
G37*
G36*
X126365000Y-75450602D02*
G01*
X126389534Y-75450602D01*
X126438365Y-75455412D01*
X126486490Y-75464984D01*
X126533445Y-75479228D01*
X126578778Y-75498005D01*
X126622051Y-75521136D01*
X126662850Y-75548396D01*
X126700779Y-75579524D01*
X126735476Y-75614221D01*
X126766604Y-75652150D01*
X126793864Y-75692949D01*
X126816995Y-75736222D01*
X126835772Y-75781555D01*
X126850016Y-75828510D01*
X126859588Y-75876635D01*
X126864398Y-75925466D01*
X126864398Y-75950000D01*
X126865000Y-75950000D01*
X126865000Y-76450000D01*
X126864398Y-76450000D01*
X126864398Y-76474534D01*
X126859588Y-76523365D01*
X126850016Y-76571490D01*
X126835772Y-76618445D01*
X126816995Y-76663778D01*
X126793864Y-76707051D01*
X126766604Y-76747850D01*
X126735476Y-76785779D01*
X126700779Y-76820476D01*
X126662850Y-76851604D01*
X126622051Y-76878864D01*
X126578778Y-76901995D01*
X126533445Y-76920772D01*
X126486490Y-76935016D01*
X126438365Y-76944588D01*
X126389534Y-76949398D01*
X126365000Y-76949398D01*
X126365000Y-76950000D01*
X125865000Y-76950000D01*
X125865000Y-75450000D01*
X126365000Y-75450000D01*
X126365000Y-75450602D01*
G37*
G36*
X125865000Y-84340000D02*
G01*
X126365000Y-84340000D01*
X126365000Y-84340602D01*
X126389534Y-84340602D01*
X126438365Y-84345412D01*
X126486490Y-84354984D01*
X126533445Y-84369228D01*
X126578778Y-84388005D01*
X126622051Y-84411136D01*
X126662850Y-84438396D01*
X126700779Y-84469524D01*
X126735476Y-84504221D01*
X126766604Y-84542150D01*
X126793864Y-84582949D01*
X126816995Y-84626222D01*
X126835772Y-84671555D01*
X126850016Y-84718510D01*
X126859588Y-84766635D01*
X126864398Y-84815466D01*
X126864398Y-84840000D01*
X126865000Y-84840000D01*
X126865000Y-85340000D01*
X126864398Y-85340000D01*
X126864398Y-85364534D01*
X126859588Y-85413365D01*
X126850016Y-85461490D01*
X126835772Y-85508445D01*
X126816995Y-85553778D01*
X126793864Y-85597051D01*
X126766604Y-85637850D01*
X126735476Y-85675779D01*
X126700779Y-85710476D01*
X126662850Y-85741604D01*
X126622051Y-85768864D01*
X126578778Y-85791995D01*
X126533445Y-85810772D01*
X126486490Y-85825016D01*
X126438365Y-85834588D01*
X126389534Y-85839398D01*
X126365000Y-85839398D01*
X126365000Y-85840000D01*
X125865000Y-85840000D01*
X125865000Y-84340000D01*
G37*
G36*
X125065000Y-85839398D02*
G01*
X125040466Y-85839398D01*
X124991635Y-85834588D01*
X124943510Y-85825016D01*
X124896555Y-85810772D01*
X124851222Y-85791995D01*
X124807949Y-85768864D01*
X124767150Y-85741604D01*
X124729221Y-85710476D01*
X124694524Y-85675779D01*
X124663396Y-85637850D01*
X124636136Y-85597051D01*
X124613005Y-85553778D01*
X124594228Y-85508445D01*
X124579984Y-85461490D01*
X124570412Y-85413365D01*
X124565602Y-85364534D01*
X124565602Y-85340000D01*
X124565000Y-85340000D01*
X124565000Y-84840000D01*
X124565602Y-84840000D01*
X124565602Y-84815466D01*
X124570412Y-84766635D01*
X124579984Y-84718510D01*
X124594228Y-84671555D01*
X124613005Y-84626222D01*
X124636136Y-84582949D01*
X124663396Y-84542150D01*
X124694524Y-84504221D01*
X124729221Y-84469524D01*
X124767150Y-84438396D01*
X124807949Y-84411136D01*
X124851222Y-84388005D01*
X124896555Y-84369228D01*
X124943510Y-84354984D01*
X124991635Y-84345412D01*
X125040466Y-84340602D01*
X125065000Y-84340602D01*
X125065000Y-84340000D01*
X125565000Y-84340000D01*
X125565000Y-85840000D01*
X125065000Y-85840000D01*
X125065000Y-85839398D01*
G37*
G36*
X125880000Y-79895000D02*
G01*
X126380000Y-79895000D01*
X126380000Y-79895602D01*
X126404534Y-79895602D01*
X126453365Y-79900412D01*
X126501490Y-79909984D01*
X126548445Y-79924228D01*
X126593778Y-79943005D01*
X126637051Y-79966136D01*
X126677850Y-79993396D01*
X126715779Y-80024524D01*
X126750476Y-80059221D01*
X126781604Y-80097150D01*
X126808864Y-80137949D01*
X126831995Y-80181222D01*
X126850772Y-80226555D01*
X126865016Y-80273510D01*
X126874588Y-80321635D01*
X126879398Y-80370466D01*
X126879398Y-80395000D01*
X126880000Y-80395000D01*
X126880000Y-80895000D01*
X126879398Y-80895000D01*
X126879398Y-80919534D01*
X126874588Y-80968365D01*
X126865016Y-81016490D01*
X126850772Y-81063445D01*
X126831995Y-81108778D01*
X126808864Y-81152051D01*
X126781604Y-81192850D01*
X126750476Y-81230779D01*
X126715779Y-81265476D01*
X126677850Y-81296604D01*
X126637051Y-81323864D01*
X126593778Y-81346995D01*
X126548445Y-81365772D01*
X126501490Y-81380016D01*
X126453365Y-81389588D01*
X126404534Y-81394398D01*
X126380000Y-81394398D01*
X126380000Y-81395000D01*
X125880000Y-81395000D01*
X125880000Y-79895000D01*
G37*
G36*
X125080000Y-81394398D02*
G01*
X125055466Y-81394398D01*
X125006635Y-81389588D01*
X124958510Y-81380016D01*
X124911555Y-81365772D01*
X124866222Y-81346995D01*
X124822949Y-81323864D01*
X124782150Y-81296604D01*
X124744221Y-81265476D01*
X124709524Y-81230779D01*
X124678396Y-81192850D01*
X124651136Y-81152051D01*
X124628005Y-81108778D01*
X124609228Y-81063445D01*
X124594984Y-81016490D01*
X124585412Y-80968365D01*
X124580602Y-80919534D01*
X124580602Y-80895000D01*
X124580000Y-80895000D01*
X124580000Y-80395000D01*
X124580602Y-80395000D01*
X124580602Y-80370466D01*
X124585412Y-80321635D01*
X124594984Y-80273510D01*
X124609228Y-80226555D01*
X124628005Y-80181222D01*
X124651136Y-80137949D01*
X124678396Y-80097150D01*
X124709524Y-80059221D01*
X124744221Y-80024524D01*
X124782150Y-79993396D01*
X124822949Y-79966136D01*
X124866222Y-79943005D01*
X124911555Y-79924228D01*
X124958510Y-79909984D01*
X125006635Y-79900412D01*
X125055466Y-79895602D01*
X125080000Y-79895602D01*
X125080000Y-79895000D01*
X125580000Y-79895000D01*
X125580000Y-81395000D01*
X125080000Y-81395000D01*
X125080000Y-81394398D01*
G37*
D21*
X131445000Y-93345000D03*
D22*
X136525000Y-93345000D03*
X133985000Y-93345000D03*
D23*
G36*
X132730000Y-79895602D02*
G01*
X132754534Y-79895602D01*
X132803365Y-79900412D01*
X132851490Y-79909984D01*
X132898445Y-79924228D01*
X132943778Y-79943005D01*
X132987051Y-79966136D01*
X133027850Y-79993396D01*
X133065779Y-80024524D01*
X133100476Y-80059221D01*
X133131604Y-80097150D01*
X133158864Y-80137949D01*
X133181995Y-80181222D01*
X133200772Y-80226555D01*
X133215016Y-80273510D01*
X133224588Y-80321635D01*
X133229398Y-80370466D01*
X133229398Y-80395000D01*
X133230000Y-80395000D01*
X133230000Y-80895000D01*
X133229398Y-80895000D01*
X133229398Y-80919534D01*
X133224588Y-80968365D01*
X133215016Y-81016490D01*
X133200772Y-81063445D01*
X133181995Y-81108778D01*
X133158864Y-81152051D01*
X133131604Y-81192850D01*
X133100476Y-81230779D01*
X133065779Y-81265476D01*
X133027850Y-81296604D01*
X132987051Y-81323864D01*
X132943778Y-81346995D01*
X132898445Y-81365772D01*
X132851490Y-81380016D01*
X132803365Y-81389588D01*
X132754534Y-81394398D01*
X132730000Y-81394398D01*
X132730000Y-81395000D01*
X132230000Y-81395000D01*
X132230000Y-79895000D01*
X132730000Y-79895000D01*
X132730000Y-79895602D01*
G37*
G36*
X131930000Y-81395000D02*
G01*
X131430000Y-81395000D01*
X131430000Y-81394398D01*
X131405466Y-81394398D01*
X131356635Y-81389588D01*
X131308510Y-81380016D01*
X131261555Y-81365772D01*
X131216222Y-81346995D01*
X131172949Y-81323864D01*
X131132150Y-81296604D01*
X131094221Y-81265476D01*
X131059524Y-81230779D01*
X131028396Y-81192850D01*
X131001136Y-81152051D01*
X130978005Y-81108778D01*
X130959228Y-81063445D01*
X130944984Y-81016490D01*
X130935412Y-80968365D01*
X130930602Y-80919534D01*
X130930602Y-80895000D01*
X130930000Y-80895000D01*
X130930000Y-80395000D01*
X130930602Y-80395000D01*
X130930602Y-80370466D01*
X130935412Y-80321635D01*
X130944984Y-80273510D01*
X130959228Y-80226555D01*
X130978005Y-80181222D01*
X131001136Y-80137949D01*
X131028396Y-80097150D01*
X131059524Y-80059221D01*
X131094221Y-80024524D01*
X131132150Y-79993396D01*
X131172949Y-79966136D01*
X131216222Y-79943005D01*
X131261555Y-79924228D01*
X131308510Y-79909984D01*
X131356635Y-79900412D01*
X131405466Y-79895602D01*
X131430000Y-79895602D01*
X131430000Y-79895000D01*
X131930000Y-79895000D01*
X131930000Y-81395000D01*
G37*
G36*
X132730000Y-75450602D02*
G01*
X132754534Y-75450602D01*
X132803365Y-75455412D01*
X132851490Y-75464984D01*
X132898445Y-75479228D01*
X132943778Y-75498005D01*
X132987051Y-75521136D01*
X133027850Y-75548396D01*
X133065779Y-75579524D01*
X133100476Y-75614221D01*
X133131604Y-75652150D01*
X133158864Y-75692949D01*
X133181995Y-75736222D01*
X133200772Y-75781555D01*
X133215016Y-75828510D01*
X133224588Y-75876635D01*
X133229398Y-75925466D01*
X133229398Y-75950000D01*
X133230000Y-75950000D01*
X133230000Y-76450000D01*
X133229398Y-76450000D01*
X133229398Y-76474534D01*
X133224588Y-76523365D01*
X133215016Y-76571490D01*
X133200772Y-76618445D01*
X133181995Y-76663778D01*
X133158864Y-76707051D01*
X133131604Y-76747850D01*
X133100476Y-76785779D01*
X133065779Y-76820476D01*
X133027850Y-76851604D01*
X132987051Y-76878864D01*
X132943778Y-76901995D01*
X132898445Y-76920772D01*
X132851490Y-76935016D01*
X132803365Y-76944588D01*
X132754534Y-76949398D01*
X132730000Y-76949398D01*
X132730000Y-76950000D01*
X132230000Y-76950000D01*
X132230000Y-75450000D01*
X132730000Y-75450000D01*
X132730000Y-75450602D01*
G37*
G36*
X131930000Y-76950000D02*
G01*
X131430000Y-76950000D01*
X131430000Y-76949398D01*
X131405466Y-76949398D01*
X131356635Y-76944588D01*
X131308510Y-76935016D01*
X131261555Y-76920772D01*
X131216222Y-76901995D01*
X131172949Y-76878864D01*
X131132150Y-76851604D01*
X131094221Y-76820476D01*
X131059524Y-76785779D01*
X131028396Y-76747850D01*
X131001136Y-76707051D01*
X130978005Y-76663778D01*
X130959228Y-76618445D01*
X130944984Y-76571490D01*
X130935412Y-76523365D01*
X130930602Y-76474534D01*
X130930602Y-76450000D01*
X130930000Y-76450000D01*
X130930000Y-75950000D01*
X130930602Y-75950000D01*
X130930602Y-75925466D01*
X130935412Y-75876635D01*
X130944984Y-75828510D01*
X130959228Y-75781555D01*
X130978005Y-75736222D01*
X131001136Y-75692949D01*
X131028396Y-75652150D01*
X131059524Y-75614221D01*
X131094221Y-75579524D01*
X131132150Y-75548396D01*
X131172949Y-75521136D01*
X131216222Y-75498005D01*
X131261555Y-75479228D01*
X131308510Y-75464984D01*
X131356635Y-75455412D01*
X131405466Y-75450602D01*
X131430000Y-75450602D01*
X131430000Y-75450000D01*
X131930000Y-75450000D01*
X131930000Y-76950000D01*
G37*
D24*
X105410000Y-76200000D03*
X105410000Y-78740000D03*
X105410000Y-81280000D03*
X105410000Y-83820000D03*
X105410000Y-86360000D03*
X105410000Y-88900000D03*
X105410000Y-91440000D03*
D25*
X105410000Y-93980000D03*
D24*
X102870000Y-76200000D03*
X102870000Y-78740000D03*
X102870000Y-81280000D03*
X102870000Y-83820000D03*
X102870000Y-86360000D03*
X102870000Y-88900000D03*
X102870000Y-91440000D03*
D25*
X102870000Y-93980000D03*
D24*
X102870000Y-55880000D03*
X102870000Y-58420000D03*
X102870000Y-60960000D03*
X102870000Y-63500000D03*
D25*
X102870000Y-66040000D03*
D26*
X113665000Y-84455000D03*
X111125000Y-84455000D03*
X113665000Y-81915000D03*
X111125000Y-81915000D03*
X113665000Y-79375000D03*
X111125000Y-79375000D03*
X113665000Y-76835000D03*
D27*
X111125000Y-76835000D03*
D28*
X142240000Y-71120000D03*
X104140000Y-71120000D03*
D11*
X113665000Y-93305000D03*
X113665000Y-90805000D03*
D29*
X106045000Y-59055000D03*
X113665000Y-66675000D03*
X108585000Y-59055000D03*
X111125000Y-66675000D03*
X111125000Y-59055000D03*
X108585000Y-66675000D03*
X113665000Y-59055000D03*
D12*
X106045000Y-66675000D03*
D23*
G36*
X119495000Y-84340000D02*
G01*
X120045000Y-84340000D01*
X120045000Y-84340602D01*
X120069534Y-84340602D01*
X120118365Y-84345412D01*
X120166490Y-84354984D01*
X120213445Y-84369228D01*
X120258778Y-84388005D01*
X120302051Y-84411136D01*
X120342850Y-84438396D01*
X120380779Y-84469524D01*
X120415476Y-84504221D01*
X120446604Y-84542150D01*
X120473864Y-84582949D01*
X120496995Y-84626222D01*
X120515772Y-84671555D01*
X120530016Y-84718510D01*
X120539588Y-84766635D01*
X120544398Y-84815466D01*
X120544398Y-84840000D01*
X120545000Y-84840000D01*
X120545000Y-85340000D01*
X120544398Y-85340000D01*
X120544398Y-85364534D01*
X120539588Y-85413365D01*
X120530016Y-85461490D01*
X120515772Y-85508445D01*
X120496995Y-85553778D01*
X120473864Y-85597051D01*
X120446604Y-85637850D01*
X120415476Y-85675779D01*
X120380779Y-85710476D01*
X120342850Y-85741604D01*
X120302051Y-85768864D01*
X120258778Y-85791995D01*
X120213445Y-85810772D01*
X120166490Y-85825016D01*
X120118365Y-85834588D01*
X120069534Y-85839398D01*
X120045000Y-85839398D01*
X120045000Y-85840000D01*
X119495000Y-85840000D01*
X119495000Y-84340000D01*
G37*
D30*
X118745000Y-85090000D03*
D23*
G36*
X117445000Y-85839398D02*
G01*
X117420466Y-85839398D01*
X117371635Y-85834588D01*
X117323510Y-85825016D01*
X117276555Y-85810772D01*
X117231222Y-85791995D01*
X117187949Y-85768864D01*
X117147150Y-85741604D01*
X117109221Y-85710476D01*
X117074524Y-85675779D01*
X117043396Y-85637850D01*
X117016136Y-85597051D01*
X116993005Y-85553778D01*
X116974228Y-85508445D01*
X116959984Y-85461490D01*
X116950412Y-85413365D01*
X116945602Y-85364534D01*
X116945602Y-85340000D01*
X116945000Y-85340000D01*
X116945000Y-84840000D01*
X116945602Y-84840000D01*
X116945602Y-84815466D01*
X116950412Y-84766635D01*
X116959984Y-84718510D01*
X116974228Y-84671555D01*
X116993005Y-84626222D01*
X117016136Y-84582949D01*
X117043396Y-84542150D01*
X117074524Y-84504221D01*
X117109221Y-84469524D01*
X117147150Y-84438396D01*
X117187949Y-84411136D01*
X117231222Y-84388005D01*
X117276555Y-84369228D01*
X117323510Y-84354984D01*
X117371635Y-84345412D01*
X117420466Y-84340602D01*
X117445000Y-84340602D01*
X117445000Y-84340000D01*
X117995000Y-84340000D01*
X117995000Y-85840000D01*
X117445000Y-85840000D01*
X117445000Y-85839398D01*
G37*
D31*
X103505000Y-53340000D03*
D32*
X106045000Y-53340000D03*
D33*
X143192500Y-64770000D03*
X143192500Y-59690000D03*
D34*
X143192500Y-54610000D03*
D35*
X135890000Y-73025000D03*
D32*
X135890000Y-75565000D03*
D35*
X135890000Y-85090000D03*
D32*
X135890000Y-87630000D03*
D35*
X135890000Y-79375000D03*
D32*
X135890000Y-81915000D03*
D30*
X118745000Y-80645000D03*
D23*
G36*
X120045000Y-79895602D02*
G01*
X120069534Y-79895602D01*
X120118365Y-79900412D01*
X120166490Y-79909984D01*
X120213445Y-79924228D01*
X120258778Y-79943005D01*
X120302051Y-79966136D01*
X120342850Y-79993396D01*
X120380779Y-80024524D01*
X120415476Y-80059221D01*
X120446604Y-80097150D01*
X120473864Y-80137949D01*
X120496995Y-80181222D01*
X120515772Y-80226555D01*
X120530016Y-80273510D01*
X120539588Y-80321635D01*
X120544398Y-80370466D01*
X120544398Y-80395000D01*
X120545000Y-80395000D01*
X120545000Y-80895000D01*
X120544398Y-80895000D01*
X120544398Y-80919534D01*
X120539588Y-80968365D01*
X120530016Y-81016490D01*
X120515772Y-81063445D01*
X120496995Y-81108778D01*
X120473864Y-81152051D01*
X120446604Y-81192850D01*
X120415476Y-81230779D01*
X120380779Y-81265476D01*
X120342850Y-81296604D01*
X120302051Y-81323864D01*
X120258778Y-81346995D01*
X120213445Y-81365772D01*
X120166490Y-81380016D01*
X120118365Y-81389588D01*
X120069534Y-81394398D01*
X120045000Y-81394398D01*
X120045000Y-81395000D01*
X119495000Y-81395000D01*
X119495000Y-79895000D01*
X120045000Y-79895000D01*
X120045000Y-79895602D01*
G37*
G36*
X117995000Y-81395000D02*
G01*
X117445000Y-81395000D01*
X117445000Y-81394398D01*
X117420466Y-81394398D01*
X117371635Y-81389588D01*
X117323510Y-81380016D01*
X117276555Y-81365772D01*
X117231222Y-81346995D01*
X117187949Y-81323864D01*
X117147150Y-81296604D01*
X117109221Y-81265476D01*
X117074524Y-81230779D01*
X117043396Y-81192850D01*
X117016136Y-81152051D01*
X116993005Y-81108778D01*
X116974228Y-81063445D01*
X116959984Y-81016490D01*
X116950412Y-80968365D01*
X116945602Y-80919534D01*
X116945602Y-80895000D01*
X116945000Y-80895000D01*
X116945000Y-80395000D01*
X116945602Y-80395000D01*
X116945602Y-80370466D01*
X116950412Y-80321635D01*
X116959984Y-80273510D01*
X116974228Y-80226555D01*
X116993005Y-80181222D01*
X117016136Y-80137949D01*
X117043396Y-80097150D01*
X117074524Y-80059221D01*
X117109221Y-80024524D01*
X117147150Y-79993396D01*
X117187949Y-79966136D01*
X117231222Y-79943005D01*
X117276555Y-79924228D01*
X117323510Y-79909984D01*
X117371635Y-79900412D01*
X117420466Y-79895602D01*
X117445000Y-79895602D01*
X117445000Y-79895000D01*
X117995000Y-79895000D01*
X117995000Y-81395000D01*
G37*
D30*
X118745000Y-76200000D03*
D23*
G36*
X117445000Y-76949398D02*
G01*
X117420466Y-76949398D01*
X117371635Y-76944588D01*
X117323510Y-76935016D01*
X117276555Y-76920772D01*
X117231222Y-76901995D01*
X117187949Y-76878864D01*
X117147150Y-76851604D01*
X117109221Y-76820476D01*
X117074524Y-76785779D01*
X117043396Y-76747850D01*
X117016136Y-76707051D01*
X116993005Y-76663778D01*
X116974228Y-76618445D01*
X116959984Y-76571490D01*
X116950412Y-76523365D01*
X116945602Y-76474534D01*
X116945602Y-76450000D01*
X116945000Y-76450000D01*
X116945000Y-75950000D01*
X116945602Y-75950000D01*
X116945602Y-75925466D01*
X116950412Y-75876635D01*
X116959984Y-75828510D01*
X116974228Y-75781555D01*
X116993005Y-75736222D01*
X117016136Y-75692949D01*
X117043396Y-75652150D01*
X117074524Y-75614221D01*
X117109221Y-75579524D01*
X117147150Y-75548396D01*
X117187949Y-75521136D01*
X117231222Y-75498005D01*
X117276555Y-75479228D01*
X117323510Y-75464984D01*
X117371635Y-75455412D01*
X117420466Y-75450602D01*
X117445000Y-75450602D01*
X117445000Y-75450000D01*
X117995000Y-75450000D01*
X117995000Y-76950000D01*
X117445000Y-76950000D01*
X117445000Y-76949398D01*
G37*
G36*
X119495000Y-75450000D02*
G01*
X120045000Y-75450000D01*
X120045000Y-75450602D01*
X120069534Y-75450602D01*
X120118365Y-75455412D01*
X120166490Y-75464984D01*
X120213445Y-75479228D01*
X120258778Y-75498005D01*
X120302051Y-75521136D01*
X120342850Y-75548396D01*
X120380779Y-75579524D01*
X120415476Y-75614221D01*
X120446604Y-75652150D01*
X120473864Y-75692949D01*
X120496995Y-75736222D01*
X120515772Y-75781555D01*
X120530016Y-75828510D01*
X120539588Y-75876635D01*
X120544398Y-75925466D01*
X120544398Y-75950000D01*
X120545000Y-75950000D01*
X120545000Y-76450000D01*
X120544398Y-76450000D01*
X120544398Y-76474534D01*
X120539588Y-76523365D01*
X120530016Y-76571490D01*
X120515772Y-76618445D01*
X120496995Y-76663778D01*
X120473864Y-76707051D01*
X120446604Y-76747850D01*
X120415476Y-76785779D01*
X120380779Y-76820476D01*
X120342850Y-76851604D01*
X120302051Y-76878864D01*
X120258778Y-76901995D01*
X120213445Y-76920772D01*
X120166490Y-76935016D01*
X120118365Y-76944588D01*
X120069534Y-76949398D01*
X120045000Y-76949398D01*
X120045000Y-76950000D01*
X119495000Y-76950000D01*
X119495000Y-75450000D01*
G37*
G36*
X131430000Y-85839398D02*
G01*
X131405466Y-85839398D01*
X131356635Y-85834588D01*
X131308510Y-85825016D01*
X131261555Y-85810772D01*
X131216222Y-85791995D01*
X131172949Y-85768864D01*
X131132150Y-85741604D01*
X131094221Y-85710476D01*
X131059524Y-85675779D01*
X131028396Y-85637850D01*
X131001136Y-85597051D01*
X130978005Y-85553778D01*
X130959228Y-85508445D01*
X130944984Y-85461490D01*
X130935412Y-85413365D01*
X130930602Y-85364534D01*
X130930602Y-85340000D01*
X130930000Y-85340000D01*
X130930000Y-84840000D01*
X130930602Y-84840000D01*
X130930602Y-84815466D01*
X130935412Y-84766635D01*
X130944984Y-84718510D01*
X130959228Y-84671555D01*
X130978005Y-84626222D01*
X131001136Y-84582949D01*
X131028396Y-84542150D01*
X131059524Y-84504221D01*
X131094221Y-84469524D01*
X131132150Y-84438396D01*
X131172949Y-84411136D01*
X131216222Y-84388005D01*
X131261555Y-84369228D01*
X131308510Y-84354984D01*
X131356635Y-84345412D01*
X131405466Y-84340602D01*
X131430000Y-84340602D01*
X131430000Y-84340000D01*
X131930000Y-84340000D01*
X131930000Y-85840000D01*
X131430000Y-85840000D01*
X131430000Y-85839398D01*
G37*
G36*
X132230000Y-84340000D02*
G01*
X132730000Y-84340000D01*
X132730000Y-84340602D01*
X132754534Y-84340602D01*
X132803365Y-84345412D01*
X132851490Y-84354984D01*
X132898445Y-84369228D01*
X132943778Y-84388005D01*
X132987051Y-84411136D01*
X133027850Y-84438396D01*
X133065779Y-84469524D01*
X133100476Y-84504221D01*
X133131604Y-84542150D01*
X133158864Y-84582949D01*
X133181995Y-84626222D01*
X133200772Y-84671555D01*
X133215016Y-84718510D01*
X133224588Y-84766635D01*
X133229398Y-84815466D01*
X133229398Y-84840000D01*
X133230000Y-84840000D01*
X133230000Y-85340000D01*
X133229398Y-85340000D01*
X133229398Y-85364534D01*
X133224588Y-85413365D01*
X133215016Y-85461490D01*
X133200772Y-85508445D01*
X133181995Y-85553778D01*
X133158864Y-85597051D01*
X133131604Y-85637850D01*
X133100476Y-85675779D01*
X133065779Y-85710476D01*
X133027850Y-85741604D01*
X132987051Y-85768864D01*
X132943778Y-85791995D01*
X132898445Y-85810772D01*
X132851490Y-85825016D01*
X132803365Y-85834588D01*
X132754534Y-85839398D01*
X132730000Y-85839398D01*
X132730000Y-85840000D01*
X132230000Y-85840000D01*
X132230000Y-84340000D01*
G37*
D36*
X144145000Y-86360000D03*
X141605000Y-86360000D03*
X139065000Y-86360000D03*
X139065000Y-93980000D03*
X144145000Y-93980000D03*
X139065000Y-83185000D03*
X141605000Y-83185000D03*
X144145000Y-83185000D03*
X144145000Y-75565000D03*
X139065000Y-75565000D03*
D33*
X119634000Y-59690000D03*
X121634000Y-53690000D03*
X133834000Y-53690000D03*
X133834000Y-65690000D03*
X121634000Y-65690000D03*
D11*
X130850000Y-89535000D03*
X133350000Y-89535000D03*
M02*
