G04 #@! TF.GenerationSoftware,KiCad,Pcbnew,(5.1.6-0-10_14)*
G04 #@! TF.CreationDate,2021-05-03T13:34:44+01:00*
G04 #@! TF.ProjectId,WiFive55,57694669-7665-4353-952e-6b696361645f,0.14*
G04 #@! TF.SameCoordinates,Original*
G04 #@! TF.FileFunction,Soldermask,Top*
G04 #@! TF.FilePolarity,Negative*
%FSLAX46Y46*%
G04 Gerber Fmt 4.6, Leading zero omitted, Abs format (unit mm)*
G04 Created by KiCad (PCBNEW (5.1.6-0-10_14)) date 2021-05-03 13:34:44*
%MOMM*%
%LPD*%
G01*
G04 APERTURE LIST*
%ADD10C,2.000000*%
%ADD11C,1.600000*%
%ADD12R,1.600000X1.600000*%
%ADD13C,1.200000*%
%ADD14R,1.200000X1.200000*%
%ADD15O,1.400000X1.400000*%
%ADD16C,1.400000*%
%ADD17C,0.900000*%
%ADD18C,8.000000*%
%ADD19O,1.905000X2.000000*%
%ADD20R,1.905000X2.000000*%
%ADD21R,1.500000X1.500000*%
%ADD22C,1.500000*%
%ADD23O,1.700000X1.700000*%
%ADD24R,1.700000X1.700000*%
%ADD25C,1.000000*%
%ADD26O,1.727200X1.727200*%
%ADD27R,1.727200X1.727200*%
%ADD28C,3.200000*%
%ADD29O,1.600000X1.600000*%
%ADD30C,1.800000*%
%ADD31R,1.800000X1.800000*%
%ADD32C,3.000000*%
%ADD33R,3.000000X3.000000*%
%ADD34O,1.800000X1.800000*%
%ADD35C,1.778000*%
G04 APERTURE END LIST*
D10*
X137414000Y-59690000D03*
X134874000Y-59690000D03*
X132334000Y-59690000D03*
X127254000Y-59690000D03*
X124714000Y-59690000D03*
X117094000Y-59690000D03*
D11*
X119340000Y-92075000D03*
D12*
X116840000Y-92075000D03*
D11*
X125135000Y-92075000D03*
D12*
X127635000Y-92075000D03*
D13*
X118015000Y-71120000D03*
D14*
X120015000Y-71120000D03*
D15*
X115570000Y-69850000D03*
D16*
X115570000Y-72390000D03*
D17*
X138562050Y-45488362D03*
X136265950Y-45488361D03*
X134642362Y-47111950D03*
X134642361Y-49408050D03*
X136265950Y-51031638D03*
X138562050Y-51031639D03*
X140185638Y-49408050D03*
X140185639Y-47111950D03*
D18*
X137414000Y-48260000D03*
D17*
X110622050Y-45488362D03*
X108325950Y-45488361D03*
X106702362Y-47111950D03*
X106702361Y-49408050D03*
X108325950Y-51031638D03*
X110622050Y-51031639D03*
X112245638Y-49408050D03*
X112245639Y-47111950D03*
D18*
X109474000Y-48260000D03*
G36*
G01*
X109030000Y-52590000D02*
X109030000Y-54090000D01*
G75*
G02*
X108780000Y-54340000I-250000J0D01*
G01*
X108280000Y-54340000D01*
G75*
G02*
X108030000Y-54090000I0J250000D01*
G01*
X108030000Y-52590000D01*
G75*
G02*
X108280000Y-52340000I250000J0D01*
G01*
X108780000Y-52340000D01*
G75*
G02*
X109030000Y-52590000I0J-250000D01*
G01*
G37*
G36*
G01*
X138930000Y-52590000D02*
X138930000Y-54090000D01*
G75*
G02*
X138680000Y-54340000I-250000J0D01*
G01*
X138180000Y-54340000D01*
G75*
G02*
X137930000Y-54090000I0J250000D01*
G01*
X137930000Y-52590000D01*
G75*
G02*
X138180000Y-52340000I250000J0D01*
G01*
X138680000Y-52340000D01*
G75*
G02*
X138930000Y-52590000I0J-250000D01*
G01*
G37*
D19*
X112530000Y-64135000D03*
X109990000Y-64135000D03*
D20*
X107450000Y-64135000D03*
D21*
X135255000Y-69850000D03*
D22*
X130175000Y-69850000D03*
X132715000Y-69850000D03*
D21*
X127635000Y-69850000D03*
D22*
X122555000Y-69850000D03*
X125095000Y-69850000D03*
D23*
X111379000Y-53340000D03*
D24*
X111379000Y-55880000D03*
D23*
X114554000Y-53340000D03*
D24*
X114554000Y-55880000D03*
D15*
X122555000Y-85090000D03*
D16*
X122555000Y-87630000D03*
D15*
X122555000Y-73660000D03*
D16*
X122555000Y-76200000D03*
D15*
X128905000Y-73660000D03*
D16*
X128905000Y-76200000D03*
D15*
X128905000Y-79375000D03*
D16*
X128905000Y-81915000D03*
D15*
X128905000Y-85090000D03*
D16*
X128905000Y-87630000D03*
D15*
X112395000Y-69850000D03*
D16*
X112395000Y-72390000D03*
D15*
X122555000Y-79375000D03*
D16*
X122555000Y-81915000D03*
D15*
X109220000Y-69850000D03*
D16*
X109220000Y-72390000D03*
D25*
X139065000Y-55880000D03*
X108585000Y-92075000D03*
X139065000Y-92075000D03*
D21*
X131445000Y-93345000D03*
D22*
X136525000Y-93345000D03*
X133985000Y-93345000D03*
D23*
X105410000Y-76200000D03*
X105410000Y-78740000D03*
X105410000Y-81280000D03*
X105410000Y-83820000D03*
X105410000Y-86360000D03*
X105410000Y-88900000D03*
X105410000Y-91440000D03*
D24*
X105410000Y-93980000D03*
D23*
X102870000Y-76200000D03*
X102870000Y-78740000D03*
X102870000Y-81280000D03*
X102870000Y-83820000D03*
X102870000Y-86360000D03*
X102870000Y-88900000D03*
X102870000Y-91440000D03*
D24*
X102870000Y-93980000D03*
D23*
X102870000Y-55880000D03*
X102870000Y-58420000D03*
X102870000Y-60960000D03*
X102870000Y-63500000D03*
D24*
X102870000Y-66040000D03*
D26*
X113665000Y-84455000D03*
X111125000Y-84455000D03*
X113665000Y-81915000D03*
X111125000Y-81915000D03*
X113665000Y-79375000D03*
X111125000Y-79375000D03*
X113665000Y-76835000D03*
D27*
X111125000Y-76835000D03*
D28*
X142240000Y-71120000D03*
X104140000Y-71120000D03*
D11*
X113665000Y-93305000D03*
X113665000Y-90805000D03*
D29*
X106045000Y-59055000D03*
X113665000Y-66675000D03*
X108585000Y-59055000D03*
X111125000Y-66675000D03*
X111125000Y-59055000D03*
X108585000Y-66675000D03*
X113665000Y-59055000D03*
D12*
X106045000Y-66675000D03*
D30*
X103505000Y-53340000D03*
D31*
X106045000Y-53340000D03*
D32*
X143192500Y-64770000D03*
X143192500Y-59690000D03*
D33*
X143192500Y-54610000D03*
D34*
X135890000Y-73025000D03*
D31*
X135890000Y-75565000D03*
D34*
X135890000Y-85090000D03*
D31*
X135890000Y-87630000D03*
D34*
X135890000Y-79375000D03*
D31*
X135890000Y-81915000D03*
D35*
X144145000Y-86360000D03*
X141605000Y-86360000D03*
X139065000Y-86360000D03*
X139065000Y-93980000D03*
X144145000Y-93980000D03*
X139065000Y-83185000D03*
X141605000Y-83185000D03*
X144145000Y-83185000D03*
X144145000Y-75565000D03*
X139065000Y-75565000D03*
D32*
X119634000Y-59690000D03*
X121634000Y-53690000D03*
X133834000Y-53690000D03*
X133834000Y-65690000D03*
X121634000Y-65690000D03*
D11*
X130850000Y-89535000D03*
X133350000Y-89535000D03*
M02*
