G04 #@! TF.GenerationSoftware,KiCad,Pcbnew,(5.1.6-0-10_14)*
G04 #@! TF.CreationDate,2021-05-08T14:10:43+01:00*
G04 #@! TF.ProjectId,WiFive55,57694669-7665-4353-952e-6b696361645f,0.14*
G04 #@! TF.SameCoordinates,Original*
G04 #@! TF.FileFunction,Copper,L1,Top*
G04 #@! TF.FilePolarity,Positive*
%FSLAX46Y46*%
G04 Gerber Fmt 4.6, Leading zero omitted, Abs format (unit mm)*
G04 Created by KiCad (PCBNEW (5.1.6-0-10_14)) date 2021-05-08 14:10:43*
%MOMM*%
%LPD*%
G01*
G04 APERTURE LIST*
G04 #@! TA.AperFunction,ComponentPad*
%ADD10C,2.000000*%
G04 #@! TD*
G04 #@! TA.AperFunction,ComponentPad*
%ADD11C,1.600000*%
G04 #@! TD*
G04 #@! TA.AperFunction,ComponentPad*
%ADD12R,1.600000X1.600000*%
G04 #@! TD*
G04 #@! TA.AperFunction,ComponentPad*
%ADD13C,1.200000*%
G04 #@! TD*
G04 #@! TA.AperFunction,ComponentPad*
%ADD14R,1.200000X1.200000*%
G04 #@! TD*
G04 #@! TA.AperFunction,ComponentPad*
%ADD15O,1.400000X1.400000*%
G04 #@! TD*
G04 #@! TA.AperFunction,ComponentPad*
%ADD16C,1.400000*%
G04 #@! TD*
G04 #@! TA.AperFunction,ComponentPad*
%ADD17C,0.900000*%
G04 #@! TD*
G04 #@! TA.AperFunction,ComponentPad*
%ADD18C,8.000000*%
G04 #@! TD*
G04 #@! TA.AperFunction,ComponentPad*
%ADD19O,1.905000X2.000000*%
G04 #@! TD*
G04 #@! TA.AperFunction,ComponentPad*
%ADD20R,1.905000X2.000000*%
G04 #@! TD*
G04 #@! TA.AperFunction,ComponentPad*
%ADD21R,1.500000X1.500000*%
G04 #@! TD*
G04 #@! TA.AperFunction,ComponentPad*
%ADD22C,1.500000*%
G04 #@! TD*
G04 #@! TA.AperFunction,ComponentPad*
%ADD23O,1.700000X1.700000*%
G04 #@! TD*
G04 #@! TA.AperFunction,ComponentPad*
%ADD24R,1.700000X1.700000*%
G04 #@! TD*
G04 #@! TA.AperFunction,SMDPad,CuDef*
%ADD25C,0.500000*%
G04 #@! TD*
G04 #@! TA.AperFunction,ComponentPad*
%ADD26O,1.727200X1.727200*%
G04 #@! TD*
G04 #@! TA.AperFunction,ComponentPad*
%ADD27R,1.727200X1.727200*%
G04 #@! TD*
G04 #@! TA.AperFunction,ComponentPad*
%ADD28O,1.600000X1.600000*%
G04 #@! TD*
G04 #@! TA.AperFunction,ComponentPad*
%ADD29C,1.800000*%
G04 #@! TD*
G04 #@! TA.AperFunction,ComponentPad*
%ADD30R,1.800000X1.800000*%
G04 #@! TD*
G04 #@! TA.AperFunction,ComponentPad*
%ADD31C,3.000000*%
G04 #@! TD*
G04 #@! TA.AperFunction,ComponentPad*
%ADD32R,3.000000X3.000000*%
G04 #@! TD*
G04 #@! TA.AperFunction,ComponentPad*
%ADD33O,1.800000X1.800000*%
G04 #@! TD*
G04 #@! TA.AperFunction,ComponentPad*
%ADD34C,1.778000*%
G04 #@! TD*
G04 #@! TA.AperFunction,ViaPad*
%ADD35C,0.600000*%
G04 #@! TD*
G04 #@! TA.AperFunction,Conductor*
%ADD36C,0.250000*%
G04 #@! TD*
G04 #@! TA.AperFunction,Conductor*
%ADD37C,0.400000*%
G04 #@! TD*
G04 #@! TA.AperFunction,Conductor*
%ADD38C,1.370000*%
G04 #@! TD*
G04 #@! TA.AperFunction,Conductor*
%ADD39C,0.530000*%
G04 #@! TD*
G04 #@! TA.AperFunction,Conductor*
%ADD40C,0.254000*%
G04 #@! TD*
G04 APERTURE END LIST*
D10*
X137414000Y-59690000D03*
X134874000Y-59690000D03*
X132334000Y-59690000D03*
X127254000Y-59690000D03*
X124714000Y-59690000D03*
X117094000Y-59690000D03*
D11*
X119340000Y-92075000D03*
D12*
X116840000Y-92075000D03*
D11*
X125135000Y-92075000D03*
D12*
X127635000Y-92075000D03*
D13*
X118015000Y-71120000D03*
D14*
X120015000Y-71120000D03*
D15*
X115570000Y-69850000D03*
D16*
X115570000Y-72390000D03*
D17*
X138562050Y-45488362D03*
X136265950Y-45488361D03*
X134642362Y-47111950D03*
X134642361Y-49408050D03*
X136265950Y-51031638D03*
X138562050Y-51031639D03*
X140185638Y-49408050D03*
X140185639Y-47111950D03*
D18*
X137414000Y-48260000D03*
D17*
X110622050Y-45488362D03*
X108325950Y-45488361D03*
X106702362Y-47111950D03*
X106702361Y-49408050D03*
X108325950Y-51031638D03*
X110622050Y-51031639D03*
X112245638Y-49408050D03*
X112245639Y-47111950D03*
D18*
X109474000Y-48260000D03*
G04 #@! TA.AperFunction,SMDPad,CuDef*
G36*
G01*
X109030000Y-52590000D02*
X109030000Y-54090000D01*
G75*
G02*
X108780000Y-54340000I-250000J0D01*
G01*
X108280000Y-54340000D01*
G75*
G02*
X108030000Y-54090000I0J250000D01*
G01*
X108030000Y-52590000D01*
G75*
G02*
X108280000Y-52340000I250000J0D01*
G01*
X108780000Y-52340000D01*
G75*
G02*
X109030000Y-52590000I0J-250000D01*
G01*
G37*
G04 #@! TD.AperFunction*
G04 #@! TA.AperFunction,SMDPad,CuDef*
G36*
G01*
X138930000Y-52590000D02*
X138930000Y-54090000D01*
G75*
G02*
X138680000Y-54340000I-250000J0D01*
G01*
X138180000Y-54340000D01*
G75*
G02*
X137930000Y-54090000I0J250000D01*
G01*
X137930000Y-52590000D01*
G75*
G02*
X138180000Y-52340000I250000J0D01*
G01*
X138680000Y-52340000D01*
G75*
G02*
X138930000Y-52590000I0J-250000D01*
G01*
G37*
G04 #@! TD.AperFunction*
D19*
X112530000Y-64135000D03*
X109990000Y-64135000D03*
D20*
X107450000Y-64135000D03*
D21*
X135255000Y-69850000D03*
D22*
X130175000Y-69850000D03*
X132715000Y-69850000D03*
D21*
X127635000Y-69850000D03*
D22*
X122555000Y-69850000D03*
X125095000Y-69850000D03*
D23*
X111379000Y-53340000D03*
D24*
X111379000Y-55880000D03*
D23*
X114554000Y-53340000D03*
D24*
X114554000Y-55880000D03*
D15*
X122555000Y-85090000D03*
D16*
X122555000Y-87630000D03*
D15*
X122555000Y-73660000D03*
D16*
X122555000Y-76200000D03*
D15*
X128905000Y-73660000D03*
D16*
X128905000Y-76200000D03*
D15*
X128905000Y-79375000D03*
D16*
X128905000Y-81915000D03*
D15*
X128905000Y-85090000D03*
D16*
X128905000Y-87630000D03*
D15*
X112395000Y-69850000D03*
D16*
X112395000Y-72390000D03*
D15*
X122555000Y-79375000D03*
D16*
X122555000Y-81915000D03*
D15*
X109220000Y-69850000D03*
D16*
X109220000Y-72390000D03*
D25*
X139065000Y-55880000D03*
X108585000Y-92075000D03*
X139065000Y-92075000D03*
D21*
X131445000Y-93345000D03*
D22*
X136525000Y-93345000D03*
X133985000Y-93345000D03*
D23*
X105410000Y-76200000D03*
X105410000Y-78740000D03*
X105410000Y-81280000D03*
X105410000Y-83820000D03*
X105410000Y-86360000D03*
X105410000Y-88900000D03*
X105410000Y-91440000D03*
D24*
X105410000Y-93980000D03*
D23*
X102870000Y-76200000D03*
X102870000Y-78740000D03*
X102870000Y-81280000D03*
X102870000Y-83820000D03*
X102870000Y-86360000D03*
X102870000Y-88900000D03*
X102870000Y-91440000D03*
D24*
X102870000Y-93980000D03*
D23*
X102870000Y-55880000D03*
X102870000Y-58420000D03*
X102870000Y-60960000D03*
X102870000Y-63500000D03*
D24*
X102870000Y-66040000D03*
D26*
X113665000Y-84455000D03*
X111125000Y-84455000D03*
X113665000Y-81915000D03*
X111125000Y-81915000D03*
X113665000Y-79375000D03*
X111125000Y-79375000D03*
X113665000Y-76835000D03*
D27*
X111125000Y-76835000D03*
D11*
X113665000Y-93305000D03*
X113665000Y-90805000D03*
D28*
X106045000Y-59055000D03*
X113665000Y-66675000D03*
X108585000Y-59055000D03*
X111125000Y-66675000D03*
X111125000Y-59055000D03*
X108585000Y-66675000D03*
X113665000Y-59055000D03*
D12*
X106045000Y-66675000D03*
D29*
X103505000Y-53340000D03*
D30*
X106045000Y-53340000D03*
D31*
X143192500Y-64770000D03*
X143192500Y-59690000D03*
D32*
X143192500Y-54610000D03*
D33*
X135890000Y-73025000D03*
D30*
X135890000Y-75565000D03*
D33*
X135890000Y-85090000D03*
D30*
X135890000Y-87630000D03*
D33*
X135890000Y-79375000D03*
D30*
X135890000Y-81915000D03*
D34*
X144145000Y-86360000D03*
X141605000Y-86360000D03*
X139065000Y-86360000D03*
X139065000Y-93980000D03*
X144145000Y-93980000D03*
X139065000Y-83185000D03*
X141605000Y-83185000D03*
X144145000Y-83185000D03*
X144145000Y-75565000D03*
X139065000Y-75565000D03*
D31*
X119634000Y-59690000D03*
X121634000Y-53690000D03*
X133834000Y-53690000D03*
X133834000Y-65690000D03*
X121634000Y-65690000D03*
D11*
X130850000Y-89535000D03*
X133350000Y-89535000D03*
D35*
X144145000Y-50165000D03*
X102235000Y-50165000D03*
X114935000Y-64135000D03*
X123825000Y-50165000D03*
D36*
X137414000Y-57785000D02*
X137414000Y-59690000D01*
D37*
X100965000Y-73025000D02*
X100965000Y-83185000D01*
X100965000Y-73660000D02*
X100965000Y-73025000D01*
X100965000Y-83185000D02*
X101600000Y-83820000D01*
X100965000Y-73025000D02*
X100965000Y-55245000D01*
X100965000Y-55245000D02*
X102870000Y-53340000D01*
X130175000Y-74930000D02*
X128905000Y-76200000D01*
X130175000Y-69850000D02*
X130175000Y-74930000D01*
X128270000Y-85090000D02*
X128905000Y-85090000D01*
X116840000Y-90170000D02*
X117475000Y-89535000D01*
X116840000Y-92075000D02*
X116840000Y-90170000D01*
X123825000Y-89535000D02*
X128270000Y-85090000D01*
X120650000Y-89535000D02*
X123825000Y-89535000D01*
X121285000Y-89535000D02*
X120650000Y-89535000D01*
X120650000Y-89535000D02*
X117475000Y-89535000D01*
X101600000Y-83820000D02*
X102870000Y-83820000D01*
X100965000Y-94575002D02*
X101619999Y-95230001D01*
X101619999Y-95230001D02*
X116185001Y-95230001D01*
X116840000Y-94615000D02*
X116840000Y-92075000D01*
X116205000Y-95250000D02*
X116840000Y-94615000D01*
X100965000Y-84455000D02*
X100965000Y-94575002D01*
X116185001Y-95230001D02*
X116205000Y-95250000D01*
X101600000Y-83820000D02*
X100965000Y-84455000D01*
X103505000Y-53340000D02*
X102870000Y-53340000D01*
X131445000Y-94615000D02*
X130810000Y-95250000D01*
X133350000Y-89535000D02*
X131445000Y-91440000D01*
X131445000Y-91440000D02*
X131445000Y-93345000D01*
X131445000Y-94615000D02*
X131445000Y-93345000D01*
X142855999Y-95269001D02*
X132099001Y-95269001D01*
X132099001Y-95269001D02*
X131445000Y-94615000D01*
X144145000Y-93980000D02*
X142855999Y-95269001D01*
X105410000Y-76200000D02*
X105410000Y-78740000D01*
X105410000Y-78740000D02*
X105410000Y-81280000D01*
X105410000Y-81280000D02*
X105410000Y-83820000D01*
X105410000Y-83820000D02*
X105410000Y-86360000D01*
X119285000Y-69850000D02*
X122555000Y-69850000D01*
X118015000Y-71120000D02*
X119285000Y-69850000D01*
X118015000Y-72485000D02*
X116600020Y-73899980D01*
X118015000Y-71120000D02*
X118015000Y-72485000D01*
X116600020Y-73899980D02*
X113665000Y-76835000D01*
X125135000Y-92075000D02*
X125135000Y-94655000D01*
X125135000Y-94655000D02*
X125730000Y-95250000D01*
X125730000Y-95250000D02*
X130810000Y-95250000D01*
X114865001Y-92104999D02*
X114865001Y-88969999D01*
X113665000Y-93305000D02*
X114865001Y-92104999D01*
X116205000Y-87630000D02*
X117475000Y-87630000D01*
X114865001Y-88969999D02*
X116205000Y-87630000D01*
X117475000Y-87630000D02*
X117059998Y-87630000D01*
X122555000Y-87630000D02*
X117475000Y-87630000D01*
D38*
X104605001Y-64304999D02*
X102870000Y-66040000D01*
X104605001Y-63434497D02*
X104605001Y-64304999D01*
X105789499Y-62249999D02*
X104605001Y-63434497D01*
X110652135Y-62249999D02*
X112530000Y-64127864D01*
X107969999Y-62249999D02*
X110652135Y-62249999D01*
X107969999Y-62249999D02*
X105789499Y-62249999D01*
D37*
X112599999Y-64065001D02*
X112530000Y-64135000D01*
X112530000Y-64135000D02*
X114935000Y-64135000D01*
X114935000Y-64135000D02*
X114935000Y-64135000D01*
X107896271Y-72863795D02*
X107896271Y-70431271D01*
X108932456Y-73899980D02*
X107896271Y-72863795D01*
X116600020Y-73899980D02*
X108932456Y-73899980D01*
X105092500Y-68262500D02*
X105727500Y-68262500D01*
X102870000Y-66040000D02*
X105092500Y-68262500D01*
X107896271Y-70431271D02*
X105727500Y-68262500D01*
D39*
X112534999Y-64130001D02*
X112530000Y-64135000D01*
X112399999Y-64004999D02*
X112399999Y-58034001D01*
X112399999Y-58034001D02*
X114554000Y-55880000D01*
X112530000Y-64135000D02*
X112399999Y-64004999D01*
D36*
X123580001Y-76832997D02*
X123580001Y-75707999D01*
X122555000Y-81915000D02*
X121529999Y-80889999D01*
X123580001Y-75707999D02*
X122678501Y-74806499D01*
X121529999Y-80889999D02*
X121529999Y-78882999D01*
X121529999Y-78882999D02*
X123580001Y-76832997D01*
X120015000Y-72637002D02*
X120015000Y-71120000D01*
X122184497Y-74806499D02*
X120015000Y-72637002D01*
X122678501Y-74806499D02*
X122184497Y-74806499D01*
X111125000Y-76835000D02*
X109314999Y-75024999D01*
X104045001Y-75024999D02*
X102870000Y-76200000D01*
X109314999Y-75024999D02*
X104869999Y-75024999D01*
X104869999Y-75024999D02*
X104045001Y-75024999D01*
X104869999Y-75024999D02*
X104680001Y-75024999D01*
X122555000Y-76200000D02*
X119380000Y-79375000D01*
X119380000Y-79375000D02*
X113665000Y-79375000D01*
D37*
X137190001Y-74264999D02*
X135890000Y-75565000D01*
X137190001Y-73055001D02*
X137190001Y-74264999D01*
X137190001Y-73649001D02*
X137190001Y-73055001D01*
X115004999Y-67875001D02*
X110420001Y-67875001D01*
X117190000Y-65690000D02*
X120745000Y-65690000D01*
X115004999Y-67875001D02*
X117190000Y-65690000D01*
X137190001Y-73055001D02*
X137190001Y-62895001D01*
X137190001Y-62895001D02*
X137190001Y-62834999D01*
X124810000Y-65690000D02*
X126715000Y-65690000D01*
X117825000Y-65690000D02*
X124810000Y-65690000D01*
X137190001Y-62260001D02*
X137160000Y-62230000D01*
X137190001Y-62895001D02*
X137190001Y-62260001D01*
X138430000Y-48895000D02*
X138220010Y-48685010D01*
X138430000Y-53340000D02*
X138430000Y-48895000D01*
X134874000Y-62230000D02*
X134874000Y-59690000D01*
X135255000Y-62230000D02*
X137160000Y-62230000D01*
X129255000Y-65690000D02*
X124810000Y-65690000D01*
X133350000Y-62230000D02*
X129890000Y-65690000D01*
X129890000Y-65690000D02*
X129255000Y-65690000D01*
X135255000Y-62230000D02*
X133350000Y-62230000D01*
X137160000Y-62230000D02*
X139065000Y-62230000D01*
X139065000Y-62230000D02*
X140335000Y-60960000D01*
X138430000Y-53340000D02*
X140335000Y-55245000D01*
X140335000Y-60960000D02*
X140335000Y-55245000D01*
X109920001Y-67875001D02*
X108720000Y-66675000D01*
X110420001Y-67875001D02*
X109920001Y-67875001D01*
D36*
X131975001Y-88409999D02*
X130850000Y-89535000D01*
X133890001Y-88409999D02*
X139065000Y-93584998D01*
X139065000Y-93584998D02*
X139065000Y-93980000D01*
X131975001Y-88409999D02*
X133890001Y-88409999D01*
X128412999Y-84064999D02*
X129397001Y-84064999D01*
X125912987Y-86565011D02*
X128412999Y-84064999D01*
X130850000Y-85517998D02*
X130850000Y-89535000D01*
X109936399Y-85025529D02*
X111475881Y-86565011D01*
X111475881Y-86565011D02*
X125912987Y-86565011D01*
X109936399Y-83103601D02*
X109936399Y-85025529D01*
X129397001Y-84064999D02*
X130850000Y-85517998D01*
X111125000Y-81915000D02*
X109936399Y-83103601D01*
X111125000Y-66675000D02*
X113665000Y-66675000D01*
X109999999Y-65549999D02*
X108679999Y-65549999D01*
X117157500Y-63817500D02*
X117475000Y-63500000D01*
X117157500Y-63817500D02*
X118110000Y-62865000D01*
D37*
X108530000Y-49585000D02*
X109429990Y-48685010D01*
X108530000Y-53340000D02*
X108530000Y-49585000D01*
D36*
X129540000Y-57150000D02*
X130175000Y-57150000D01*
X125475000Y-57150000D02*
X129540000Y-57150000D01*
X129540000Y-57150000D02*
X132715000Y-57150000D01*
X132334000Y-59690000D02*
X132334000Y-57150000D01*
X132715000Y-57150000D02*
X137160000Y-57150000D01*
X137541000Y-57785000D02*
X136906000Y-57150000D01*
X117157500Y-63817500D02*
X115425001Y-65549999D01*
D37*
X103485002Y-58420000D02*
X102870000Y-58420000D01*
X107922500Y-53982502D02*
X103485002Y-58420000D01*
X107922500Y-53947500D02*
X107922500Y-53982502D01*
X107922500Y-53947500D02*
X108530000Y-53340000D01*
D36*
X108440001Y-65549999D02*
X108179999Y-65549999D01*
X115425001Y-65549999D02*
X108440001Y-65549999D01*
X108044999Y-65549999D02*
X108440001Y-65549999D01*
X107459999Y-68089999D02*
X107459999Y-66134999D01*
X107459999Y-66134999D02*
X108044999Y-65549999D01*
X109220000Y-69850000D02*
X107459999Y-68089999D01*
X118110000Y-62865000D02*
X121539000Y-62865000D01*
X122174000Y-54230000D02*
X121634000Y-53690000D01*
X122174000Y-62230000D02*
X122174000Y-54230000D01*
X121539000Y-62865000D02*
X122174000Y-62230000D01*
X122015000Y-53690000D02*
X125475000Y-57150000D01*
X123580001Y-72634999D02*
X122555000Y-73660000D01*
X126935003Y-72634999D02*
X126120001Y-72634999D01*
X126120001Y-72634999D02*
X123580001Y-72634999D01*
X128905000Y-71755000D02*
X128025001Y-72634999D01*
X128905000Y-69215000D02*
X128905000Y-71755000D01*
X129345001Y-68774999D02*
X128905000Y-69215000D01*
X131639999Y-68774999D02*
X129345001Y-68774999D01*
X128025001Y-72634999D02*
X126120001Y-72634999D01*
X132715000Y-69850000D02*
X131639999Y-68774999D01*
X122555000Y-79375000D02*
X125095000Y-79375000D01*
X125095000Y-79375000D02*
X127000000Y-77470000D01*
X135255000Y-71367002D02*
X135255000Y-69850000D01*
X129152002Y-77470000D02*
X135255000Y-71367002D01*
X127000000Y-77470000D02*
X129152002Y-77470000D01*
X110554471Y-78186399D02*
X112313601Y-78186399D01*
X109036379Y-79704491D02*
X110554471Y-78186399D01*
X109036379Y-87178621D02*
X109036379Y-79704491D01*
X134375001Y-80400001D02*
X135890000Y-81915000D01*
X127878589Y-80400001D02*
X134375001Y-80400001D01*
X125338589Y-82940001D02*
X127878589Y-80400001D01*
X119298601Y-80563601D02*
X121675001Y-82940001D01*
X113094471Y-80563601D02*
X119298601Y-80563601D01*
X121675001Y-82940001D02*
X125338589Y-82940001D01*
X112313601Y-79782731D02*
X113094471Y-80563601D01*
X112313601Y-78186399D02*
X112313601Y-79782731D01*
X108490001Y-87724999D02*
X109036379Y-87178621D01*
X104045001Y-87724999D02*
X102870000Y-88900000D01*
X104869999Y-87724999D02*
X104045001Y-87724999D01*
X104680001Y-87724999D02*
X104869999Y-87724999D01*
X104869999Y-87724999D02*
X108490001Y-87724999D01*
X112313601Y-75711399D02*
X112313601Y-78186399D01*
X111177191Y-74574989D02*
X112313601Y-75711399D01*
X102514989Y-74574989D02*
X111177191Y-74574989D01*
X101600000Y-73660000D02*
X102514989Y-74574989D01*
X101600000Y-64770000D02*
X101600000Y-73660000D01*
X102870000Y-63500000D02*
X101600000Y-64770000D01*
X133740001Y-82940001D02*
X135890000Y-85090000D01*
X126120001Y-84064999D02*
X127244999Y-82940001D01*
X127244999Y-82940001D02*
X133740001Y-82940001D01*
X114055001Y-84064999D02*
X126120001Y-84064999D01*
X113665000Y-84455000D02*
X114055001Y-84064999D01*
D39*
X115869001Y-54655001D02*
X114554000Y-53340000D01*
X115869001Y-57102001D02*
X115869001Y-54655001D01*
X115776001Y-57195001D02*
X114699499Y-57195001D01*
X115869001Y-57102001D02*
X115776001Y-57195001D01*
X113665000Y-58229500D02*
X113665000Y-59055000D01*
X114699499Y-57195001D02*
X113665000Y-58229500D01*
D36*
X115932487Y-68324989D02*
X126109989Y-68324989D01*
X109220000Y-72390000D02*
X110245001Y-71364999D01*
X110880001Y-68824999D02*
X115432477Y-68824999D01*
X126109989Y-68324989D02*
X127635000Y-69850000D01*
X110245001Y-69459999D02*
X110880001Y-68824999D01*
X115432477Y-68824999D02*
X115932487Y-68324989D01*
X110245001Y-71364999D02*
X110245001Y-69459999D01*
D38*
X103089999Y-60740001D02*
X102870000Y-60960000D01*
X107034999Y-60740001D02*
X103089999Y-60740001D01*
X108720000Y-59055000D02*
X107034999Y-60740001D01*
D39*
X106045000Y-58674000D02*
X106045000Y-59055000D01*
X111379000Y-53340000D02*
X106045000Y-58674000D01*
D36*
X102305999Y-90075001D02*
X101694999Y-89464001D01*
X109486389Y-89166389D02*
X108577777Y-90075001D01*
X109486389Y-81794481D02*
X109486389Y-89166389D01*
X110554471Y-80726399D02*
X109486389Y-81794481D01*
X111695529Y-80726399D02*
X110554471Y-80726399D01*
X112476399Y-81507269D02*
X111695529Y-80726399D01*
X101694999Y-89464001D02*
X101694999Y-87535001D01*
X108577777Y-90075001D02*
X102305999Y-90075001D01*
X112476399Y-85025529D02*
X112476399Y-81507269D01*
X113565871Y-86115001D02*
X112476399Y-85025529D01*
X131650011Y-83390011D02*
X127431399Y-83390011D01*
X127431399Y-83390011D02*
X124706409Y-86115001D01*
X101694999Y-87535001D02*
X102870000Y-86360000D01*
X124706409Y-86115001D02*
X113565871Y-86115001D01*
X135890000Y-87630000D02*
X131650011Y-83390011D01*
X135255000Y-79375000D02*
X139065000Y-75565000D01*
X115364989Y-83614989D02*
X113665000Y-81915000D01*
X128025001Y-80889999D02*
X125300011Y-83614989D01*
X132479997Y-80889999D02*
X128025001Y-80889999D01*
X125300011Y-83614989D02*
X115364989Y-83614989D01*
X137115001Y-80600001D02*
X137115001Y-83075001D01*
X134980009Y-83390011D02*
X132479997Y-80889999D01*
X135890000Y-79375000D02*
X137115001Y-80600001D01*
X136799991Y-83390011D02*
X134980009Y-83390011D01*
X137115001Y-83075001D02*
X136799991Y-83390011D01*
X125095000Y-69850000D02*
X124019999Y-68774999D01*
X116595001Y-69459999D02*
X117280001Y-68774999D01*
X116595001Y-71364999D02*
X116595001Y-69459999D01*
X115570000Y-72390000D02*
X116595001Y-71364999D01*
X117280001Y-68774999D02*
X124019999Y-68774999D01*
D40*
G36*
X137714449Y-83906885D02*
G01*
X137881232Y-84156493D01*
X138093507Y-84368768D01*
X138343115Y-84535551D01*
X138620466Y-84650434D01*
X138914899Y-84709000D01*
X139215101Y-84709000D01*
X139509534Y-84650434D01*
X139786885Y-84535551D01*
X140036493Y-84368768D01*
X140248768Y-84156493D01*
X140335000Y-84027438D01*
X140421232Y-84156493D01*
X140633507Y-84368768D01*
X140883115Y-84535551D01*
X141160466Y-84650434D01*
X141454899Y-84709000D01*
X141755101Y-84709000D01*
X142049534Y-84650434D01*
X142326885Y-84535551D01*
X142576493Y-84368768D01*
X142788768Y-84156493D01*
X142875000Y-84027438D01*
X142961232Y-84156493D01*
X143173507Y-84368768D01*
X143423115Y-84535551D01*
X143700466Y-84650434D01*
X143994899Y-84709000D01*
X144295101Y-84709000D01*
X144589534Y-84650434D01*
X144866885Y-84535551D01*
X145116493Y-84368768D01*
X145328768Y-84156493D01*
X145390001Y-84064852D01*
X145390001Y-85480148D01*
X145328768Y-85388507D01*
X145116493Y-85176232D01*
X144866885Y-85009449D01*
X144589534Y-84894566D01*
X144295101Y-84836000D01*
X143994899Y-84836000D01*
X143700466Y-84894566D01*
X143423115Y-85009449D01*
X143173507Y-85176232D01*
X142961232Y-85388507D01*
X142875000Y-85517562D01*
X142788768Y-85388507D01*
X142576493Y-85176232D01*
X142326885Y-85009449D01*
X142049534Y-84894566D01*
X141755101Y-84836000D01*
X141454899Y-84836000D01*
X141160466Y-84894566D01*
X140883115Y-85009449D01*
X140633507Y-85176232D01*
X140421232Y-85388507D01*
X140335000Y-85517562D01*
X140248768Y-85388507D01*
X140036493Y-85176232D01*
X139786885Y-85009449D01*
X139509534Y-84894566D01*
X139215101Y-84836000D01*
X138914899Y-84836000D01*
X138620466Y-84894566D01*
X138343115Y-85009449D01*
X138093507Y-85176232D01*
X137881232Y-85388507D01*
X137714449Y-85638115D01*
X137599566Y-85915466D01*
X137541000Y-86209899D01*
X137541000Y-86510101D01*
X137599566Y-86804534D01*
X137714449Y-87081885D01*
X137881232Y-87331493D01*
X138093507Y-87543768D01*
X138343115Y-87710551D01*
X138620466Y-87825434D01*
X138914899Y-87884000D01*
X139215101Y-87884000D01*
X139509534Y-87825434D01*
X139786885Y-87710551D01*
X140036493Y-87543768D01*
X140248768Y-87331493D01*
X140335000Y-87202438D01*
X140421232Y-87331493D01*
X140633507Y-87543768D01*
X140883115Y-87710551D01*
X141160466Y-87825434D01*
X141454899Y-87884000D01*
X141755101Y-87884000D01*
X142049534Y-87825434D01*
X142326885Y-87710551D01*
X142576493Y-87543768D01*
X142788768Y-87331493D01*
X142875000Y-87202438D01*
X142961232Y-87331493D01*
X143173507Y-87543768D01*
X143423115Y-87710551D01*
X143700466Y-87825434D01*
X143994899Y-87884000D01*
X144295101Y-87884000D01*
X144589534Y-87825434D01*
X144866885Y-87710551D01*
X145116493Y-87543768D01*
X145328768Y-87331493D01*
X145390001Y-87239852D01*
X145390001Y-93164806D01*
X145201231Y-93103374D01*
X144324605Y-93980000D01*
X145201231Y-94856626D01*
X145390001Y-94795194D01*
X145390001Y-95217715D01*
X145389335Y-95224513D01*
X145384699Y-95225000D01*
X144960195Y-95225000D01*
X145021626Y-95036231D01*
X144145000Y-94159605D01*
X143268374Y-95036231D01*
X143329805Y-95225000D01*
X139944853Y-95225000D01*
X140036493Y-95163768D01*
X140248768Y-94951493D01*
X140415551Y-94701885D01*
X140530434Y-94424534D01*
X140589000Y-94130101D01*
X140589000Y-94046988D01*
X142615092Y-94046988D01*
X142657557Y-94344171D01*
X142757184Y-94627359D01*
X142835711Y-94774273D01*
X143088769Y-94856626D01*
X143965395Y-93980000D01*
X143088769Y-93103374D01*
X142835711Y-93185727D01*
X142705914Y-93456418D01*
X142631420Y-93747230D01*
X142615092Y-94046988D01*
X140589000Y-94046988D01*
X140589000Y-93829899D01*
X140530434Y-93535466D01*
X140415551Y-93258115D01*
X140248768Y-93008507D01*
X140164030Y-92923769D01*
X143268374Y-92923769D01*
X144145000Y-93800395D01*
X145021626Y-92923769D01*
X144939273Y-92670711D01*
X144668582Y-92540914D01*
X144377770Y-92466420D01*
X144078012Y-92450092D01*
X143780829Y-92492557D01*
X143497641Y-92592184D01*
X143350727Y-92670711D01*
X143268374Y-92923769D01*
X140164030Y-92923769D01*
X140036493Y-92796232D01*
X139786885Y-92629449D01*
X139764974Y-92620373D01*
X139849277Y-92494205D01*
X139915990Y-92333145D01*
X139950000Y-92162165D01*
X139950000Y-91987835D01*
X139915990Y-91816855D01*
X139849277Y-91655795D01*
X139752424Y-91510845D01*
X139629155Y-91387576D01*
X139484205Y-91290723D01*
X139323145Y-91224010D01*
X139152165Y-91190000D01*
X138977835Y-91190000D01*
X138806855Y-91224010D01*
X138645795Y-91290723D01*
X138500845Y-91387576D01*
X138377576Y-91510845D01*
X138280723Y-91655795D01*
X138260184Y-91705380D01*
X135722875Y-89168072D01*
X136790000Y-89168072D01*
X136914482Y-89155812D01*
X137034180Y-89119502D01*
X137144494Y-89060537D01*
X137241185Y-88981185D01*
X137320537Y-88884494D01*
X137379502Y-88774180D01*
X137415812Y-88654482D01*
X137428072Y-88530000D01*
X137428072Y-86730000D01*
X137415812Y-86605518D01*
X137379502Y-86485820D01*
X137320537Y-86375506D01*
X137241185Y-86278815D01*
X137144494Y-86199463D01*
X137034180Y-86140498D01*
X137015873Y-86134944D01*
X137082312Y-86068505D01*
X137250299Y-85817095D01*
X137366011Y-85537743D01*
X137425000Y-85241184D01*
X137425000Y-84938816D01*
X137366011Y-84642257D01*
X137250299Y-84362905D01*
X137082312Y-84111495D01*
X137072394Y-84101577D01*
X137092238Y-84095557D01*
X137224267Y-84024985D01*
X137339992Y-83930012D01*
X137363794Y-83901009D01*
X137610023Y-83654780D01*
X137714449Y-83906885D01*
G37*
X137714449Y-83906885D02*
X137881232Y-84156493D01*
X138093507Y-84368768D01*
X138343115Y-84535551D01*
X138620466Y-84650434D01*
X138914899Y-84709000D01*
X139215101Y-84709000D01*
X139509534Y-84650434D01*
X139786885Y-84535551D01*
X140036493Y-84368768D01*
X140248768Y-84156493D01*
X140335000Y-84027438D01*
X140421232Y-84156493D01*
X140633507Y-84368768D01*
X140883115Y-84535551D01*
X141160466Y-84650434D01*
X141454899Y-84709000D01*
X141755101Y-84709000D01*
X142049534Y-84650434D01*
X142326885Y-84535551D01*
X142576493Y-84368768D01*
X142788768Y-84156493D01*
X142875000Y-84027438D01*
X142961232Y-84156493D01*
X143173507Y-84368768D01*
X143423115Y-84535551D01*
X143700466Y-84650434D01*
X143994899Y-84709000D01*
X144295101Y-84709000D01*
X144589534Y-84650434D01*
X144866885Y-84535551D01*
X145116493Y-84368768D01*
X145328768Y-84156493D01*
X145390001Y-84064852D01*
X145390001Y-85480148D01*
X145328768Y-85388507D01*
X145116493Y-85176232D01*
X144866885Y-85009449D01*
X144589534Y-84894566D01*
X144295101Y-84836000D01*
X143994899Y-84836000D01*
X143700466Y-84894566D01*
X143423115Y-85009449D01*
X143173507Y-85176232D01*
X142961232Y-85388507D01*
X142875000Y-85517562D01*
X142788768Y-85388507D01*
X142576493Y-85176232D01*
X142326885Y-85009449D01*
X142049534Y-84894566D01*
X141755101Y-84836000D01*
X141454899Y-84836000D01*
X141160466Y-84894566D01*
X140883115Y-85009449D01*
X140633507Y-85176232D01*
X140421232Y-85388507D01*
X140335000Y-85517562D01*
X140248768Y-85388507D01*
X140036493Y-85176232D01*
X139786885Y-85009449D01*
X139509534Y-84894566D01*
X139215101Y-84836000D01*
X138914899Y-84836000D01*
X138620466Y-84894566D01*
X138343115Y-85009449D01*
X138093507Y-85176232D01*
X137881232Y-85388507D01*
X137714449Y-85638115D01*
X137599566Y-85915466D01*
X137541000Y-86209899D01*
X137541000Y-86510101D01*
X137599566Y-86804534D01*
X137714449Y-87081885D01*
X137881232Y-87331493D01*
X138093507Y-87543768D01*
X138343115Y-87710551D01*
X138620466Y-87825434D01*
X138914899Y-87884000D01*
X139215101Y-87884000D01*
X139509534Y-87825434D01*
X139786885Y-87710551D01*
X140036493Y-87543768D01*
X140248768Y-87331493D01*
X140335000Y-87202438D01*
X140421232Y-87331493D01*
X140633507Y-87543768D01*
X140883115Y-87710551D01*
X141160466Y-87825434D01*
X141454899Y-87884000D01*
X141755101Y-87884000D01*
X142049534Y-87825434D01*
X142326885Y-87710551D01*
X142576493Y-87543768D01*
X142788768Y-87331493D01*
X142875000Y-87202438D01*
X142961232Y-87331493D01*
X143173507Y-87543768D01*
X143423115Y-87710551D01*
X143700466Y-87825434D01*
X143994899Y-87884000D01*
X144295101Y-87884000D01*
X144589534Y-87825434D01*
X144866885Y-87710551D01*
X145116493Y-87543768D01*
X145328768Y-87331493D01*
X145390001Y-87239852D01*
X145390001Y-93164806D01*
X145201231Y-93103374D01*
X144324605Y-93980000D01*
X145201231Y-94856626D01*
X145390001Y-94795194D01*
X145390001Y-95217715D01*
X145389335Y-95224513D01*
X145384699Y-95225000D01*
X144960195Y-95225000D01*
X145021626Y-95036231D01*
X144145000Y-94159605D01*
X143268374Y-95036231D01*
X143329805Y-95225000D01*
X139944853Y-95225000D01*
X140036493Y-95163768D01*
X140248768Y-94951493D01*
X140415551Y-94701885D01*
X140530434Y-94424534D01*
X140589000Y-94130101D01*
X140589000Y-94046988D01*
X142615092Y-94046988D01*
X142657557Y-94344171D01*
X142757184Y-94627359D01*
X142835711Y-94774273D01*
X143088769Y-94856626D01*
X143965395Y-93980000D01*
X143088769Y-93103374D01*
X142835711Y-93185727D01*
X142705914Y-93456418D01*
X142631420Y-93747230D01*
X142615092Y-94046988D01*
X140589000Y-94046988D01*
X140589000Y-93829899D01*
X140530434Y-93535466D01*
X140415551Y-93258115D01*
X140248768Y-93008507D01*
X140164030Y-92923769D01*
X143268374Y-92923769D01*
X144145000Y-93800395D01*
X145021626Y-92923769D01*
X144939273Y-92670711D01*
X144668582Y-92540914D01*
X144377770Y-92466420D01*
X144078012Y-92450092D01*
X143780829Y-92492557D01*
X143497641Y-92592184D01*
X143350727Y-92670711D01*
X143268374Y-92923769D01*
X140164030Y-92923769D01*
X140036493Y-92796232D01*
X139786885Y-92629449D01*
X139764974Y-92620373D01*
X139849277Y-92494205D01*
X139915990Y-92333145D01*
X139950000Y-92162165D01*
X139950000Y-91987835D01*
X139915990Y-91816855D01*
X139849277Y-91655795D01*
X139752424Y-91510845D01*
X139629155Y-91387576D01*
X139484205Y-91290723D01*
X139323145Y-91224010D01*
X139152165Y-91190000D01*
X138977835Y-91190000D01*
X138806855Y-91224010D01*
X138645795Y-91290723D01*
X138500845Y-91387576D01*
X138377576Y-91510845D01*
X138280723Y-91655795D01*
X138260184Y-91705380D01*
X135722875Y-89168072D01*
X136790000Y-89168072D01*
X136914482Y-89155812D01*
X137034180Y-89119502D01*
X137144494Y-89060537D01*
X137241185Y-88981185D01*
X137320537Y-88884494D01*
X137379502Y-88774180D01*
X137415812Y-88654482D01*
X137428072Y-88530000D01*
X137428072Y-86730000D01*
X137415812Y-86605518D01*
X137379502Y-86485820D01*
X137320537Y-86375506D01*
X137241185Y-86278815D01*
X137144494Y-86199463D01*
X137034180Y-86140498D01*
X137015873Y-86134944D01*
X137082312Y-86068505D01*
X137250299Y-85817095D01*
X137366011Y-85537743D01*
X137425000Y-85241184D01*
X137425000Y-84938816D01*
X137366011Y-84642257D01*
X137250299Y-84362905D01*
X137082312Y-84111495D01*
X137072394Y-84101577D01*
X137092238Y-84095557D01*
X137224267Y-84024985D01*
X137339992Y-83930012D01*
X137363794Y-83901009D01*
X137610023Y-83654780D01*
X137714449Y-83906885D01*
G36*
X128272641Y-86273061D02*
G01*
X128482530Y-86360000D01*
X128272641Y-86446939D01*
X128053987Y-86593038D01*
X127868038Y-86778987D01*
X127721939Y-86997641D01*
X127621304Y-87240595D01*
X127570000Y-87498514D01*
X127570000Y-87761486D01*
X127621304Y-88019405D01*
X127721939Y-88262359D01*
X127868038Y-88481013D01*
X128053987Y-88666962D01*
X128272641Y-88813061D01*
X128515595Y-88913696D01*
X128773514Y-88965000D01*
X129036486Y-88965000D01*
X129294405Y-88913696D01*
X129537359Y-88813061D01*
X129662311Y-88729571D01*
X129578320Y-88855273D01*
X129470147Y-89116426D01*
X129415000Y-89393665D01*
X129415000Y-89676335D01*
X129470147Y-89953574D01*
X129578320Y-90214727D01*
X129735363Y-90449759D01*
X129935241Y-90649637D01*
X130170273Y-90806680D01*
X130431426Y-90914853D01*
X130708665Y-90970000D01*
X130991335Y-90970000D01*
X131268574Y-90914853D01*
X131529727Y-90806680D01*
X131764759Y-90649637D01*
X131886694Y-90527702D01*
X132536903Y-90527702D01*
X132608486Y-90771671D01*
X132863996Y-90892571D01*
X133138184Y-90961300D01*
X133420512Y-90975217D01*
X133700130Y-90933787D01*
X133966292Y-90838603D01*
X134091514Y-90771671D01*
X134163097Y-90527702D01*
X133350000Y-89714605D01*
X132536903Y-90527702D01*
X131886694Y-90527702D01*
X131964637Y-90449759D01*
X132098692Y-90249131D01*
X132113329Y-90276514D01*
X132357298Y-90348097D01*
X133170395Y-89535000D01*
X133156253Y-89520858D01*
X133335858Y-89341253D01*
X133350000Y-89355395D01*
X133364143Y-89341253D01*
X133543748Y-89520858D01*
X133529605Y-89535000D01*
X134342702Y-90348097D01*
X134586671Y-90276514D01*
X134617198Y-90211998D01*
X136369081Y-91963880D01*
X136121011Y-92013225D01*
X135868957Y-92117629D01*
X135642114Y-92269201D01*
X135449201Y-92462114D01*
X135297629Y-92688957D01*
X135255000Y-92791873D01*
X135212371Y-92688957D01*
X135060799Y-92462114D01*
X134867886Y-92269201D01*
X134641043Y-92117629D01*
X134388989Y-92013225D01*
X134121411Y-91960000D01*
X133848589Y-91960000D01*
X133581011Y-92013225D01*
X133328957Y-92117629D01*
X133102114Y-92269201D01*
X132909201Y-92462114D01*
X132831445Y-92578483D01*
X132820812Y-92470518D01*
X132784502Y-92350820D01*
X132725537Y-92240506D01*
X132646185Y-92143815D01*
X132549494Y-92064463D01*
X132439180Y-92005498D01*
X132319482Y-91969188D01*
X132195000Y-91956928D01*
X131730750Y-91960000D01*
X131572000Y-92118750D01*
X131572000Y-93218000D01*
X131592000Y-93218000D01*
X131592000Y-93472000D01*
X131572000Y-93472000D01*
X131572000Y-94571250D01*
X131730750Y-94730000D01*
X132195000Y-94733072D01*
X132319482Y-94720812D01*
X132439180Y-94684502D01*
X132549494Y-94625537D01*
X132646185Y-94546185D01*
X132725537Y-94449494D01*
X132784502Y-94339180D01*
X132820812Y-94219482D01*
X132831445Y-94111517D01*
X132909201Y-94227886D01*
X133102114Y-94420799D01*
X133328957Y-94572371D01*
X133581011Y-94676775D01*
X133848589Y-94730000D01*
X134121411Y-94730000D01*
X134388989Y-94676775D01*
X134641043Y-94572371D01*
X134867886Y-94420799D01*
X135060799Y-94227886D01*
X135212371Y-94001043D01*
X135255000Y-93898127D01*
X135297629Y-94001043D01*
X135449201Y-94227886D01*
X135642114Y-94420799D01*
X135868957Y-94572371D01*
X136121011Y-94676775D01*
X136388589Y-94730000D01*
X136661411Y-94730000D01*
X136928989Y-94676775D01*
X137181043Y-94572371D01*
X137407886Y-94420799D01*
X137567145Y-94261540D01*
X137599566Y-94424534D01*
X137714449Y-94701885D01*
X137881232Y-94951493D01*
X138093507Y-95163768D01*
X138185147Y-95225000D01*
X117412931Y-95225000D01*
X117433291Y-95208291D01*
X117461619Y-95173774D01*
X117537636Y-95081146D01*
X117615172Y-94936087D01*
X117622657Y-94911413D01*
X117662918Y-94778689D01*
X117675000Y-94656019D01*
X117675000Y-94656018D01*
X117679040Y-94615000D01*
X117675000Y-94573982D01*
X117675000Y-94095000D01*
X130056928Y-94095000D01*
X130069188Y-94219482D01*
X130105498Y-94339180D01*
X130164463Y-94449494D01*
X130243815Y-94546185D01*
X130340506Y-94625537D01*
X130450820Y-94684502D01*
X130570518Y-94720812D01*
X130695000Y-94733072D01*
X131159250Y-94730000D01*
X131318000Y-94571250D01*
X131318000Y-93472000D01*
X130218750Y-93472000D01*
X130060000Y-93630750D01*
X130056928Y-94095000D01*
X117675000Y-94095000D01*
X117675000Y-93509625D01*
X117764482Y-93500812D01*
X117884180Y-93464502D01*
X117994494Y-93405537D01*
X118091185Y-93326185D01*
X118170537Y-93229494D01*
X118229502Y-93119180D01*
X118245117Y-93067702D01*
X118526903Y-93067702D01*
X118598486Y-93311671D01*
X118853996Y-93432571D01*
X119128184Y-93501300D01*
X119410512Y-93515217D01*
X119690130Y-93473787D01*
X119956292Y-93378603D01*
X120081514Y-93311671D01*
X120153097Y-93067702D01*
X124321903Y-93067702D01*
X124393486Y-93311671D01*
X124648996Y-93432571D01*
X124923184Y-93501300D01*
X125205512Y-93515217D01*
X125485130Y-93473787D01*
X125751292Y-93378603D01*
X125876514Y-93311671D01*
X125948097Y-93067702D01*
X125135000Y-92254605D01*
X124321903Y-93067702D01*
X120153097Y-93067702D01*
X119340000Y-92254605D01*
X118526903Y-93067702D01*
X118245117Y-93067702D01*
X118265812Y-92999482D01*
X118278072Y-92875000D01*
X118278072Y-92867785D01*
X118347298Y-92888097D01*
X119160395Y-92075000D01*
X119519605Y-92075000D01*
X120332702Y-92888097D01*
X120576671Y-92816514D01*
X120697571Y-92561004D01*
X120766300Y-92286816D01*
X120773265Y-92145512D01*
X123694783Y-92145512D01*
X123736213Y-92425130D01*
X123831397Y-92691292D01*
X123898329Y-92816514D01*
X124142298Y-92888097D01*
X124955395Y-92075000D01*
X125314605Y-92075000D01*
X126127702Y-92888097D01*
X126196928Y-92867785D01*
X126196928Y-92875000D01*
X126209188Y-92999482D01*
X126245498Y-93119180D01*
X126304463Y-93229494D01*
X126383815Y-93326185D01*
X126480506Y-93405537D01*
X126590820Y-93464502D01*
X126710518Y-93500812D01*
X126835000Y-93513072D01*
X128435000Y-93513072D01*
X128559482Y-93500812D01*
X128679180Y-93464502D01*
X128789494Y-93405537D01*
X128886185Y-93326185D01*
X128965537Y-93229494D01*
X129024502Y-93119180D01*
X129060812Y-92999482D01*
X129073072Y-92875000D01*
X129073072Y-92595000D01*
X130056928Y-92595000D01*
X130060000Y-93059250D01*
X130218750Y-93218000D01*
X131318000Y-93218000D01*
X131318000Y-92118750D01*
X131159250Y-91960000D01*
X130695000Y-91956928D01*
X130570518Y-91969188D01*
X130450820Y-92005498D01*
X130340506Y-92064463D01*
X130243815Y-92143815D01*
X130164463Y-92240506D01*
X130105498Y-92350820D01*
X130069188Y-92470518D01*
X130056928Y-92595000D01*
X129073072Y-92595000D01*
X129073072Y-91275000D01*
X129060812Y-91150518D01*
X129024502Y-91030820D01*
X128965537Y-90920506D01*
X128886185Y-90823815D01*
X128789494Y-90744463D01*
X128679180Y-90685498D01*
X128559482Y-90649188D01*
X128435000Y-90636928D01*
X126835000Y-90636928D01*
X126710518Y-90649188D01*
X126590820Y-90685498D01*
X126480506Y-90744463D01*
X126383815Y-90823815D01*
X126304463Y-90920506D01*
X126245498Y-91030820D01*
X126209188Y-91150518D01*
X126196928Y-91275000D01*
X126196928Y-91282215D01*
X126127702Y-91261903D01*
X125314605Y-92075000D01*
X124955395Y-92075000D01*
X124142298Y-91261903D01*
X123898329Y-91333486D01*
X123777429Y-91588996D01*
X123708700Y-91863184D01*
X123694783Y-92145512D01*
X120773265Y-92145512D01*
X120780217Y-92004488D01*
X120738787Y-91724870D01*
X120643603Y-91458708D01*
X120576671Y-91333486D01*
X120332702Y-91261903D01*
X119519605Y-92075000D01*
X119160395Y-92075000D01*
X118347298Y-91261903D01*
X118278072Y-91282215D01*
X118278072Y-91275000D01*
X118265812Y-91150518D01*
X118245118Y-91082298D01*
X118526903Y-91082298D01*
X119340000Y-91895395D01*
X120153097Y-91082298D01*
X124321903Y-91082298D01*
X125135000Y-91895395D01*
X125948097Y-91082298D01*
X125876514Y-90838329D01*
X125621004Y-90717429D01*
X125346816Y-90648700D01*
X125064488Y-90634783D01*
X124784870Y-90676213D01*
X124518708Y-90771397D01*
X124393486Y-90838329D01*
X124321903Y-91082298D01*
X120153097Y-91082298D01*
X120081514Y-90838329D01*
X119826004Y-90717429D01*
X119551816Y-90648700D01*
X119269488Y-90634783D01*
X118989870Y-90676213D01*
X118723708Y-90771397D01*
X118598486Y-90838329D01*
X118526903Y-91082298D01*
X118245118Y-91082298D01*
X118229502Y-91030820D01*
X118170537Y-90920506D01*
X118091185Y-90823815D01*
X117994494Y-90744463D01*
X117884180Y-90685498D01*
X117764482Y-90649188D01*
X117675000Y-90640375D01*
X117675000Y-90515868D01*
X117820868Y-90370000D01*
X123783982Y-90370000D01*
X123825000Y-90374040D01*
X123866018Y-90370000D01*
X123866019Y-90370000D01*
X123988689Y-90357918D01*
X124146087Y-90310172D01*
X124291146Y-90232636D01*
X124418291Y-90128291D01*
X124444446Y-90096421D01*
X128269743Y-86271125D01*
X128272641Y-86273061D01*
G37*
X128272641Y-86273061D02*
X128482530Y-86360000D01*
X128272641Y-86446939D01*
X128053987Y-86593038D01*
X127868038Y-86778987D01*
X127721939Y-86997641D01*
X127621304Y-87240595D01*
X127570000Y-87498514D01*
X127570000Y-87761486D01*
X127621304Y-88019405D01*
X127721939Y-88262359D01*
X127868038Y-88481013D01*
X128053987Y-88666962D01*
X128272641Y-88813061D01*
X128515595Y-88913696D01*
X128773514Y-88965000D01*
X129036486Y-88965000D01*
X129294405Y-88913696D01*
X129537359Y-88813061D01*
X129662311Y-88729571D01*
X129578320Y-88855273D01*
X129470147Y-89116426D01*
X129415000Y-89393665D01*
X129415000Y-89676335D01*
X129470147Y-89953574D01*
X129578320Y-90214727D01*
X129735363Y-90449759D01*
X129935241Y-90649637D01*
X130170273Y-90806680D01*
X130431426Y-90914853D01*
X130708665Y-90970000D01*
X130991335Y-90970000D01*
X131268574Y-90914853D01*
X131529727Y-90806680D01*
X131764759Y-90649637D01*
X131886694Y-90527702D01*
X132536903Y-90527702D01*
X132608486Y-90771671D01*
X132863996Y-90892571D01*
X133138184Y-90961300D01*
X133420512Y-90975217D01*
X133700130Y-90933787D01*
X133966292Y-90838603D01*
X134091514Y-90771671D01*
X134163097Y-90527702D01*
X133350000Y-89714605D01*
X132536903Y-90527702D01*
X131886694Y-90527702D01*
X131964637Y-90449759D01*
X132098692Y-90249131D01*
X132113329Y-90276514D01*
X132357298Y-90348097D01*
X133170395Y-89535000D01*
X133156253Y-89520858D01*
X133335858Y-89341253D01*
X133350000Y-89355395D01*
X133364143Y-89341253D01*
X133543748Y-89520858D01*
X133529605Y-89535000D01*
X134342702Y-90348097D01*
X134586671Y-90276514D01*
X134617198Y-90211998D01*
X136369081Y-91963880D01*
X136121011Y-92013225D01*
X135868957Y-92117629D01*
X135642114Y-92269201D01*
X135449201Y-92462114D01*
X135297629Y-92688957D01*
X135255000Y-92791873D01*
X135212371Y-92688957D01*
X135060799Y-92462114D01*
X134867886Y-92269201D01*
X134641043Y-92117629D01*
X134388989Y-92013225D01*
X134121411Y-91960000D01*
X133848589Y-91960000D01*
X133581011Y-92013225D01*
X133328957Y-92117629D01*
X133102114Y-92269201D01*
X132909201Y-92462114D01*
X132831445Y-92578483D01*
X132820812Y-92470518D01*
X132784502Y-92350820D01*
X132725537Y-92240506D01*
X132646185Y-92143815D01*
X132549494Y-92064463D01*
X132439180Y-92005498D01*
X132319482Y-91969188D01*
X132195000Y-91956928D01*
X131730750Y-91960000D01*
X131572000Y-92118750D01*
X131572000Y-93218000D01*
X131592000Y-93218000D01*
X131592000Y-93472000D01*
X131572000Y-93472000D01*
X131572000Y-94571250D01*
X131730750Y-94730000D01*
X132195000Y-94733072D01*
X132319482Y-94720812D01*
X132439180Y-94684502D01*
X132549494Y-94625537D01*
X132646185Y-94546185D01*
X132725537Y-94449494D01*
X132784502Y-94339180D01*
X132820812Y-94219482D01*
X132831445Y-94111517D01*
X132909201Y-94227886D01*
X133102114Y-94420799D01*
X133328957Y-94572371D01*
X133581011Y-94676775D01*
X133848589Y-94730000D01*
X134121411Y-94730000D01*
X134388989Y-94676775D01*
X134641043Y-94572371D01*
X134867886Y-94420799D01*
X135060799Y-94227886D01*
X135212371Y-94001043D01*
X135255000Y-93898127D01*
X135297629Y-94001043D01*
X135449201Y-94227886D01*
X135642114Y-94420799D01*
X135868957Y-94572371D01*
X136121011Y-94676775D01*
X136388589Y-94730000D01*
X136661411Y-94730000D01*
X136928989Y-94676775D01*
X137181043Y-94572371D01*
X137407886Y-94420799D01*
X137567145Y-94261540D01*
X137599566Y-94424534D01*
X137714449Y-94701885D01*
X137881232Y-94951493D01*
X138093507Y-95163768D01*
X138185147Y-95225000D01*
X117412931Y-95225000D01*
X117433291Y-95208291D01*
X117461619Y-95173774D01*
X117537636Y-95081146D01*
X117615172Y-94936087D01*
X117622657Y-94911413D01*
X117662918Y-94778689D01*
X117675000Y-94656019D01*
X117675000Y-94656018D01*
X117679040Y-94615000D01*
X117675000Y-94573982D01*
X117675000Y-94095000D01*
X130056928Y-94095000D01*
X130069188Y-94219482D01*
X130105498Y-94339180D01*
X130164463Y-94449494D01*
X130243815Y-94546185D01*
X130340506Y-94625537D01*
X130450820Y-94684502D01*
X130570518Y-94720812D01*
X130695000Y-94733072D01*
X131159250Y-94730000D01*
X131318000Y-94571250D01*
X131318000Y-93472000D01*
X130218750Y-93472000D01*
X130060000Y-93630750D01*
X130056928Y-94095000D01*
X117675000Y-94095000D01*
X117675000Y-93509625D01*
X117764482Y-93500812D01*
X117884180Y-93464502D01*
X117994494Y-93405537D01*
X118091185Y-93326185D01*
X118170537Y-93229494D01*
X118229502Y-93119180D01*
X118245117Y-93067702D01*
X118526903Y-93067702D01*
X118598486Y-93311671D01*
X118853996Y-93432571D01*
X119128184Y-93501300D01*
X119410512Y-93515217D01*
X119690130Y-93473787D01*
X119956292Y-93378603D01*
X120081514Y-93311671D01*
X120153097Y-93067702D01*
X124321903Y-93067702D01*
X124393486Y-93311671D01*
X124648996Y-93432571D01*
X124923184Y-93501300D01*
X125205512Y-93515217D01*
X125485130Y-93473787D01*
X125751292Y-93378603D01*
X125876514Y-93311671D01*
X125948097Y-93067702D01*
X125135000Y-92254605D01*
X124321903Y-93067702D01*
X120153097Y-93067702D01*
X119340000Y-92254605D01*
X118526903Y-93067702D01*
X118245117Y-93067702D01*
X118265812Y-92999482D01*
X118278072Y-92875000D01*
X118278072Y-92867785D01*
X118347298Y-92888097D01*
X119160395Y-92075000D01*
X119519605Y-92075000D01*
X120332702Y-92888097D01*
X120576671Y-92816514D01*
X120697571Y-92561004D01*
X120766300Y-92286816D01*
X120773265Y-92145512D01*
X123694783Y-92145512D01*
X123736213Y-92425130D01*
X123831397Y-92691292D01*
X123898329Y-92816514D01*
X124142298Y-92888097D01*
X124955395Y-92075000D01*
X125314605Y-92075000D01*
X126127702Y-92888097D01*
X126196928Y-92867785D01*
X126196928Y-92875000D01*
X126209188Y-92999482D01*
X126245498Y-93119180D01*
X126304463Y-93229494D01*
X126383815Y-93326185D01*
X126480506Y-93405537D01*
X126590820Y-93464502D01*
X126710518Y-93500812D01*
X126835000Y-93513072D01*
X128435000Y-93513072D01*
X128559482Y-93500812D01*
X128679180Y-93464502D01*
X128789494Y-93405537D01*
X128886185Y-93326185D01*
X128965537Y-93229494D01*
X129024502Y-93119180D01*
X129060812Y-92999482D01*
X129073072Y-92875000D01*
X129073072Y-92595000D01*
X130056928Y-92595000D01*
X130060000Y-93059250D01*
X130218750Y-93218000D01*
X131318000Y-93218000D01*
X131318000Y-92118750D01*
X131159250Y-91960000D01*
X130695000Y-91956928D01*
X130570518Y-91969188D01*
X130450820Y-92005498D01*
X130340506Y-92064463D01*
X130243815Y-92143815D01*
X130164463Y-92240506D01*
X130105498Y-92350820D01*
X130069188Y-92470518D01*
X130056928Y-92595000D01*
X129073072Y-92595000D01*
X129073072Y-91275000D01*
X129060812Y-91150518D01*
X129024502Y-91030820D01*
X128965537Y-90920506D01*
X128886185Y-90823815D01*
X128789494Y-90744463D01*
X128679180Y-90685498D01*
X128559482Y-90649188D01*
X128435000Y-90636928D01*
X126835000Y-90636928D01*
X126710518Y-90649188D01*
X126590820Y-90685498D01*
X126480506Y-90744463D01*
X126383815Y-90823815D01*
X126304463Y-90920506D01*
X126245498Y-91030820D01*
X126209188Y-91150518D01*
X126196928Y-91275000D01*
X126196928Y-91282215D01*
X126127702Y-91261903D01*
X125314605Y-92075000D01*
X124955395Y-92075000D01*
X124142298Y-91261903D01*
X123898329Y-91333486D01*
X123777429Y-91588996D01*
X123708700Y-91863184D01*
X123694783Y-92145512D01*
X120773265Y-92145512D01*
X120780217Y-92004488D01*
X120738787Y-91724870D01*
X120643603Y-91458708D01*
X120576671Y-91333486D01*
X120332702Y-91261903D01*
X119519605Y-92075000D01*
X119160395Y-92075000D01*
X118347298Y-91261903D01*
X118278072Y-91282215D01*
X118278072Y-91275000D01*
X118265812Y-91150518D01*
X118245118Y-91082298D01*
X118526903Y-91082298D01*
X119340000Y-91895395D01*
X120153097Y-91082298D01*
X124321903Y-91082298D01*
X125135000Y-91895395D01*
X125948097Y-91082298D01*
X125876514Y-90838329D01*
X125621004Y-90717429D01*
X125346816Y-90648700D01*
X125064488Y-90634783D01*
X124784870Y-90676213D01*
X124518708Y-90771397D01*
X124393486Y-90838329D01*
X124321903Y-91082298D01*
X120153097Y-91082298D01*
X120081514Y-90838329D01*
X119826004Y-90717429D01*
X119551816Y-90648700D01*
X119269488Y-90634783D01*
X118989870Y-90676213D01*
X118723708Y-90771397D01*
X118598486Y-90838329D01*
X118526903Y-91082298D01*
X118245118Y-91082298D01*
X118229502Y-91030820D01*
X118170537Y-90920506D01*
X118091185Y-90823815D01*
X117994494Y-90744463D01*
X117884180Y-90685498D01*
X117764482Y-90649188D01*
X117675000Y-90640375D01*
X117675000Y-90515868D01*
X117820868Y-90370000D01*
X123783982Y-90370000D01*
X123825000Y-90374040D01*
X123866018Y-90370000D01*
X123866019Y-90370000D01*
X123988689Y-90357918D01*
X124146087Y-90310172D01*
X124291146Y-90232636D01*
X124418291Y-90128291D01*
X124444446Y-90096421D01*
X128269743Y-86271125D01*
X128272641Y-86273061D01*
G36*
X110912082Y-87076014D02*
G01*
X110935880Y-87105012D01*
X111051605Y-87199985D01*
X111183634Y-87270557D01*
X111326895Y-87314014D01*
X111438548Y-87325011D01*
X111438557Y-87325011D01*
X111475880Y-87328687D01*
X111513203Y-87325011D01*
X121255257Y-87325011D01*
X121226817Y-87441740D01*
X121215610Y-87704473D01*
X121255875Y-87964344D01*
X121346065Y-88211366D01*
X121399963Y-88312203D01*
X121633731Y-88371664D01*
X122375395Y-87630000D01*
X122361253Y-87615858D01*
X122540858Y-87436253D01*
X122555000Y-87450395D01*
X122569143Y-87436253D01*
X122748748Y-87615858D01*
X122734605Y-87630000D01*
X123476269Y-88371664D01*
X123710037Y-88312203D01*
X123820934Y-88073758D01*
X123883183Y-87818260D01*
X123894390Y-87555527D01*
X123858673Y-87325011D01*
X124854122Y-87325011D01*
X123479133Y-88700000D01*
X123258833Y-88700000D01*
X123296664Y-88551269D01*
X122555000Y-87809605D01*
X121813336Y-88551269D01*
X121851167Y-88700000D01*
X117516018Y-88700000D01*
X117475000Y-88695960D01*
X117433982Y-88700000D01*
X117433981Y-88700000D01*
X117311311Y-88712082D01*
X117182966Y-88751015D01*
X117153913Y-88759828D01*
X117008854Y-88837364D01*
X116932286Y-88900202D01*
X116881709Y-88941709D01*
X116855562Y-88973569D01*
X116278573Y-89550559D01*
X116246710Y-89576709D01*
X116187381Y-89649002D01*
X116142364Y-89703855D01*
X116064828Y-89848914D01*
X116017082Y-90006312D01*
X116000960Y-90170000D01*
X116005001Y-90211028D01*
X116005001Y-90640375D01*
X115915518Y-90649188D01*
X115795820Y-90685498D01*
X115685506Y-90744463D01*
X115588815Y-90823815D01*
X115509463Y-90920506D01*
X115450498Y-91030820D01*
X115414188Y-91150518D01*
X115401928Y-91275000D01*
X115401928Y-92875000D01*
X115414188Y-92999482D01*
X115450498Y-93119180D01*
X115509463Y-93229494D01*
X115588815Y-93326185D01*
X115685506Y-93405537D01*
X115795820Y-93464502D01*
X115915518Y-93500812D01*
X116005000Y-93509625D01*
X116005000Y-94269132D01*
X115879131Y-94395001D01*
X114449548Y-94395001D01*
X114478097Y-94297702D01*
X113665000Y-93484605D01*
X112851903Y-94297702D01*
X112880452Y-94395001D01*
X106895704Y-94395001D01*
X106895000Y-94265750D01*
X106736250Y-94107000D01*
X105537000Y-94107000D01*
X105537000Y-94127000D01*
X105283000Y-94127000D01*
X105283000Y-94107000D01*
X102997000Y-94107000D01*
X102997000Y-94127000D01*
X102743000Y-94127000D01*
X102743000Y-94107000D01*
X102723000Y-94107000D01*
X102723000Y-93853000D01*
X102743000Y-93853000D01*
X102743000Y-93833000D01*
X102997000Y-93833000D01*
X102997000Y-93853000D01*
X105283000Y-93853000D01*
X105283000Y-91567000D01*
X105537000Y-91567000D01*
X105537000Y-93853000D01*
X106736250Y-93853000D01*
X106895000Y-93694250D01*
X106896735Y-93375512D01*
X112224783Y-93375512D01*
X112266213Y-93655130D01*
X112361397Y-93921292D01*
X112428329Y-94046514D01*
X112672298Y-94118097D01*
X113485395Y-93305000D01*
X113844605Y-93305000D01*
X114657702Y-94118097D01*
X114901671Y-94046514D01*
X115022571Y-93791004D01*
X115091300Y-93516816D01*
X115105217Y-93234488D01*
X115063787Y-92954870D01*
X114968603Y-92688708D01*
X114901671Y-92563486D01*
X114657702Y-92491903D01*
X113844605Y-93305000D01*
X113485395Y-93305000D01*
X112672298Y-92491903D01*
X112428329Y-92563486D01*
X112307429Y-92818996D01*
X112238700Y-93093184D01*
X112224783Y-93375512D01*
X106896735Y-93375512D01*
X106898072Y-93130000D01*
X106885812Y-93005518D01*
X106849502Y-92885820D01*
X106790537Y-92775506D01*
X106711185Y-92678815D01*
X106614494Y-92599463D01*
X106504180Y-92540498D01*
X106423534Y-92516034D01*
X106507588Y-92440269D01*
X106681641Y-92206920D01*
X106785993Y-91987835D01*
X107700000Y-91987835D01*
X107700000Y-92162165D01*
X107734010Y-92333145D01*
X107800723Y-92494205D01*
X107897576Y-92639155D01*
X108020845Y-92762424D01*
X108165795Y-92859277D01*
X108326855Y-92925990D01*
X108497835Y-92960000D01*
X108672165Y-92960000D01*
X108843145Y-92925990D01*
X109004205Y-92859277D01*
X109149155Y-92762424D01*
X109272424Y-92639155D01*
X109369277Y-92494205D01*
X109435990Y-92333145D01*
X109470000Y-92162165D01*
X109470000Y-91987835D01*
X109435990Y-91816855D01*
X109369277Y-91655795D01*
X109272424Y-91510845D01*
X109149155Y-91387576D01*
X109004205Y-91290723D01*
X108843145Y-91224010D01*
X108672165Y-91190000D01*
X108497835Y-91190000D01*
X108326855Y-91224010D01*
X108165795Y-91290723D01*
X108020845Y-91387576D01*
X107897576Y-91510845D01*
X107800723Y-91655795D01*
X107734010Y-91816855D01*
X107700000Y-91987835D01*
X106785993Y-91987835D01*
X106806825Y-91944099D01*
X106851476Y-91796890D01*
X106730155Y-91567000D01*
X105537000Y-91567000D01*
X105283000Y-91567000D01*
X105263000Y-91567000D01*
X105263000Y-91313000D01*
X105283000Y-91313000D01*
X105283000Y-91293000D01*
X105537000Y-91293000D01*
X105537000Y-91313000D01*
X106730155Y-91313000D01*
X106851476Y-91083110D01*
X106806825Y-90935901D01*
X106758765Y-90835001D01*
X108540455Y-90835001D01*
X108577777Y-90838677D01*
X108615099Y-90835001D01*
X108615110Y-90835001D01*
X108726763Y-90824004D01*
X108870024Y-90780547D01*
X109002053Y-90709975D01*
X109058481Y-90663665D01*
X112230000Y-90663665D01*
X112230000Y-90946335D01*
X112285147Y-91223574D01*
X112393320Y-91484727D01*
X112550363Y-91719759D01*
X112750241Y-91919637D01*
X112950869Y-92053692D01*
X112923486Y-92068329D01*
X112851903Y-92312298D01*
X113665000Y-93125395D01*
X114478097Y-92312298D01*
X114406514Y-92068329D01*
X114377659Y-92054676D01*
X114579759Y-91919637D01*
X114779637Y-91719759D01*
X114936680Y-91484727D01*
X115044853Y-91223574D01*
X115100000Y-90946335D01*
X115100000Y-90663665D01*
X115044853Y-90386426D01*
X114936680Y-90125273D01*
X114779637Y-89890241D01*
X114579759Y-89690363D01*
X114344727Y-89533320D01*
X114083574Y-89425147D01*
X113806335Y-89370000D01*
X113523665Y-89370000D01*
X113246426Y-89425147D01*
X112985273Y-89533320D01*
X112750241Y-89690363D01*
X112550363Y-89890241D01*
X112393320Y-90125273D01*
X112285147Y-90386426D01*
X112230000Y-90663665D01*
X109058481Y-90663665D01*
X109117778Y-90615002D01*
X109141580Y-90585999D01*
X109997397Y-89730184D01*
X110026390Y-89706390D01*
X110050184Y-89677397D01*
X110050188Y-89677393D01*
X110121362Y-89590666D01*
X110121363Y-89590665D01*
X110191935Y-89458636D01*
X110235392Y-89315375D01*
X110246389Y-89203722D01*
X110246389Y-89203713D01*
X110250065Y-89166390D01*
X110246389Y-89129067D01*
X110246389Y-86410321D01*
X110912082Y-87076014D01*
G37*
X110912082Y-87076014D02*
X110935880Y-87105012D01*
X111051605Y-87199985D01*
X111183634Y-87270557D01*
X111326895Y-87314014D01*
X111438548Y-87325011D01*
X111438557Y-87325011D01*
X111475880Y-87328687D01*
X111513203Y-87325011D01*
X121255257Y-87325011D01*
X121226817Y-87441740D01*
X121215610Y-87704473D01*
X121255875Y-87964344D01*
X121346065Y-88211366D01*
X121399963Y-88312203D01*
X121633731Y-88371664D01*
X122375395Y-87630000D01*
X122361253Y-87615858D01*
X122540858Y-87436253D01*
X122555000Y-87450395D01*
X122569143Y-87436253D01*
X122748748Y-87615858D01*
X122734605Y-87630000D01*
X123476269Y-88371664D01*
X123710037Y-88312203D01*
X123820934Y-88073758D01*
X123883183Y-87818260D01*
X123894390Y-87555527D01*
X123858673Y-87325011D01*
X124854122Y-87325011D01*
X123479133Y-88700000D01*
X123258833Y-88700000D01*
X123296664Y-88551269D01*
X122555000Y-87809605D01*
X121813336Y-88551269D01*
X121851167Y-88700000D01*
X117516018Y-88700000D01*
X117475000Y-88695960D01*
X117433982Y-88700000D01*
X117433981Y-88700000D01*
X117311311Y-88712082D01*
X117182966Y-88751015D01*
X117153913Y-88759828D01*
X117008854Y-88837364D01*
X116932286Y-88900202D01*
X116881709Y-88941709D01*
X116855562Y-88973569D01*
X116278573Y-89550559D01*
X116246710Y-89576709D01*
X116187381Y-89649002D01*
X116142364Y-89703855D01*
X116064828Y-89848914D01*
X116017082Y-90006312D01*
X116000960Y-90170000D01*
X116005001Y-90211028D01*
X116005001Y-90640375D01*
X115915518Y-90649188D01*
X115795820Y-90685498D01*
X115685506Y-90744463D01*
X115588815Y-90823815D01*
X115509463Y-90920506D01*
X115450498Y-91030820D01*
X115414188Y-91150518D01*
X115401928Y-91275000D01*
X115401928Y-92875000D01*
X115414188Y-92999482D01*
X115450498Y-93119180D01*
X115509463Y-93229494D01*
X115588815Y-93326185D01*
X115685506Y-93405537D01*
X115795820Y-93464502D01*
X115915518Y-93500812D01*
X116005000Y-93509625D01*
X116005000Y-94269132D01*
X115879131Y-94395001D01*
X114449548Y-94395001D01*
X114478097Y-94297702D01*
X113665000Y-93484605D01*
X112851903Y-94297702D01*
X112880452Y-94395001D01*
X106895704Y-94395001D01*
X106895000Y-94265750D01*
X106736250Y-94107000D01*
X105537000Y-94107000D01*
X105537000Y-94127000D01*
X105283000Y-94127000D01*
X105283000Y-94107000D01*
X102997000Y-94107000D01*
X102997000Y-94127000D01*
X102743000Y-94127000D01*
X102743000Y-94107000D01*
X102723000Y-94107000D01*
X102723000Y-93853000D01*
X102743000Y-93853000D01*
X102743000Y-93833000D01*
X102997000Y-93833000D01*
X102997000Y-93853000D01*
X105283000Y-93853000D01*
X105283000Y-91567000D01*
X105537000Y-91567000D01*
X105537000Y-93853000D01*
X106736250Y-93853000D01*
X106895000Y-93694250D01*
X106896735Y-93375512D01*
X112224783Y-93375512D01*
X112266213Y-93655130D01*
X112361397Y-93921292D01*
X112428329Y-94046514D01*
X112672298Y-94118097D01*
X113485395Y-93305000D01*
X113844605Y-93305000D01*
X114657702Y-94118097D01*
X114901671Y-94046514D01*
X115022571Y-93791004D01*
X115091300Y-93516816D01*
X115105217Y-93234488D01*
X115063787Y-92954870D01*
X114968603Y-92688708D01*
X114901671Y-92563486D01*
X114657702Y-92491903D01*
X113844605Y-93305000D01*
X113485395Y-93305000D01*
X112672298Y-92491903D01*
X112428329Y-92563486D01*
X112307429Y-92818996D01*
X112238700Y-93093184D01*
X112224783Y-93375512D01*
X106896735Y-93375512D01*
X106898072Y-93130000D01*
X106885812Y-93005518D01*
X106849502Y-92885820D01*
X106790537Y-92775506D01*
X106711185Y-92678815D01*
X106614494Y-92599463D01*
X106504180Y-92540498D01*
X106423534Y-92516034D01*
X106507588Y-92440269D01*
X106681641Y-92206920D01*
X106785993Y-91987835D01*
X107700000Y-91987835D01*
X107700000Y-92162165D01*
X107734010Y-92333145D01*
X107800723Y-92494205D01*
X107897576Y-92639155D01*
X108020845Y-92762424D01*
X108165795Y-92859277D01*
X108326855Y-92925990D01*
X108497835Y-92960000D01*
X108672165Y-92960000D01*
X108843145Y-92925990D01*
X109004205Y-92859277D01*
X109149155Y-92762424D01*
X109272424Y-92639155D01*
X109369277Y-92494205D01*
X109435990Y-92333145D01*
X109470000Y-92162165D01*
X109470000Y-91987835D01*
X109435990Y-91816855D01*
X109369277Y-91655795D01*
X109272424Y-91510845D01*
X109149155Y-91387576D01*
X109004205Y-91290723D01*
X108843145Y-91224010D01*
X108672165Y-91190000D01*
X108497835Y-91190000D01*
X108326855Y-91224010D01*
X108165795Y-91290723D01*
X108020845Y-91387576D01*
X107897576Y-91510845D01*
X107800723Y-91655795D01*
X107734010Y-91816855D01*
X107700000Y-91987835D01*
X106785993Y-91987835D01*
X106806825Y-91944099D01*
X106851476Y-91796890D01*
X106730155Y-91567000D01*
X105537000Y-91567000D01*
X105283000Y-91567000D01*
X105263000Y-91567000D01*
X105263000Y-91313000D01*
X105283000Y-91313000D01*
X105283000Y-91293000D01*
X105537000Y-91293000D01*
X105537000Y-91313000D01*
X106730155Y-91313000D01*
X106851476Y-91083110D01*
X106806825Y-90935901D01*
X106758765Y-90835001D01*
X108540455Y-90835001D01*
X108577777Y-90838677D01*
X108615099Y-90835001D01*
X108615110Y-90835001D01*
X108726763Y-90824004D01*
X108870024Y-90780547D01*
X109002053Y-90709975D01*
X109058481Y-90663665D01*
X112230000Y-90663665D01*
X112230000Y-90946335D01*
X112285147Y-91223574D01*
X112393320Y-91484727D01*
X112550363Y-91719759D01*
X112750241Y-91919637D01*
X112950869Y-92053692D01*
X112923486Y-92068329D01*
X112851903Y-92312298D01*
X113665000Y-93125395D01*
X114478097Y-92312298D01*
X114406514Y-92068329D01*
X114377659Y-92054676D01*
X114579759Y-91919637D01*
X114779637Y-91719759D01*
X114936680Y-91484727D01*
X115044853Y-91223574D01*
X115100000Y-90946335D01*
X115100000Y-90663665D01*
X115044853Y-90386426D01*
X114936680Y-90125273D01*
X114779637Y-89890241D01*
X114579759Y-89690363D01*
X114344727Y-89533320D01*
X114083574Y-89425147D01*
X113806335Y-89370000D01*
X113523665Y-89370000D01*
X113246426Y-89425147D01*
X112985273Y-89533320D01*
X112750241Y-89690363D01*
X112550363Y-89890241D01*
X112393320Y-90125273D01*
X112285147Y-90386426D01*
X112230000Y-90663665D01*
X109058481Y-90663665D01*
X109117778Y-90615002D01*
X109141580Y-90585999D01*
X109997397Y-89730184D01*
X110026390Y-89706390D01*
X110050184Y-89677397D01*
X110050188Y-89677393D01*
X110121362Y-89590666D01*
X110121363Y-89590665D01*
X110191935Y-89458636D01*
X110235392Y-89315375D01*
X110246389Y-89203722D01*
X110246389Y-89203713D01*
X110250065Y-89166390D01*
X110246389Y-89129067D01*
X110246389Y-86410321D01*
X110912082Y-87076014D01*
G36*
X108726390Y-88851586D02*
G01*
X108262975Y-89315001D01*
X106833850Y-89315001D01*
X106851476Y-89256890D01*
X106730155Y-89027000D01*
X105537000Y-89027000D01*
X105537000Y-89047000D01*
X105283000Y-89047000D01*
X105283000Y-89027000D01*
X105263000Y-89027000D01*
X105263000Y-88773000D01*
X105283000Y-88773000D01*
X105283000Y-88753000D01*
X105537000Y-88753000D01*
X105537000Y-88773000D01*
X106730155Y-88773000D01*
X106851476Y-88543110D01*
X106833850Y-88484999D01*
X108452679Y-88484999D01*
X108490001Y-88488675D01*
X108527323Y-88484999D01*
X108527334Y-88484999D01*
X108638987Y-88474002D01*
X108726390Y-88447489D01*
X108726390Y-88851586D01*
G37*
X108726390Y-88851586D02*
X108262975Y-89315001D01*
X106833850Y-89315001D01*
X106851476Y-89256890D01*
X106730155Y-89027000D01*
X105537000Y-89027000D01*
X105537000Y-89047000D01*
X105283000Y-89047000D01*
X105283000Y-89027000D01*
X105263000Y-89027000D01*
X105263000Y-88773000D01*
X105283000Y-88773000D01*
X105283000Y-88753000D01*
X105537000Y-88753000D01*
X105537000Y-88773000D01*
X106730155Y-88773000D01*
X106851476Y-88543110D01*
X106833850Y-88484999D01*
X108452679Y-88484999D01*
X108490001Y-88488675D01*
X108527323Y-88484999D01*
X108527334Y-88484999D01*
X108638987Y-88474002D01*
X108726390Y-88447489D01*
X108726390Y-88851586D01*
G36*
X109623328Y-76408129D02*
G01*
X109623328Y-77698600D01*
X109635588Y-77823082D01*
X109671898Y-77942780D01*
X109689799Y-77976269D01*
X108525377Y-79140692D01*
X108496379Y-79164490D01*
X108472581Y-79193488D01*
X108472580Y-79193489D01*
X108401405Y-79280215D01*
X108330833Y-79412245D01*
X108287377Y-79555506D01*
X108272703Y-79704491D01*
X108276380Y-79741823D01*
X108276379Y-86863819D01*
X108175200Y-86964999D01*
X106758765Y-86964999D01*
X106806825Y-86864099D01*
X106851476Y-86716890D01*
X106730155Y-86487000D01*
X105537000Y-86487000D01*
X105537000Y-86507000D01*
X105283000Y-86507000D01*
X105283000Y-86487000D01*
X105263000Y-86487000D01*
X105263000Y-86233000D01*
X105283000Y-86233000D01*
X105283000Y-83947000D01*
X105537000Y-83947000D01*
X105537000Y-86233000D01*
X106730155Y-86233000D01*
X106851476Y-86003110D01*
X106806825Y-85855901D01*
X106681641Y-85593080D01*
X106507588Y-85359731D01*
X106291355Y-85164822D01*
X106165745Y-85090000D01*
X106291355Y-85015178D01*
X106507588Y-84820269D01*
X106681641Y-84586920D01*
X106806825Y-84324099D01*
X106851476Y-84176890D01*
X106730155Y-83947000D01*
X105537000Y-83947000D01*
X105283000Y-83947000D01*
X105263000Y-83947000D01*
X105263000Y-83693000D01*
X105283000Y-83693000D01*
X105283000Y-81407000D01*
X105537000Y-81407000D01*
X105537000Y-83693000D01*
X106730155Y-83693000D01*
X106851476Y-83463110D01*
X106806825Y-83315901D01*
X106681641Y-83053080D01*
X106507588Y-82819731D01*
X106291355Y-82624822D01*
X106165745Y-82550000D01*
X106291355Y-82475178D01*
X106507588Y-82280269D01*
X106681641Y-82046920D01*
X106806825Y-81784099D01*
X106851476Y-81636890D01*
X106730155Y-81407000D01*
X105537000Y-81407000D01*
X105283000Y-81407000D01*
X105263000Y-81407000D01*
X105263000Y-81153000D01*
X105283000Y-81153000D01*
X105283000Y-78867000D01*
X105537000Y-78867000D01*
X105537000Y-81153000D01*
X106730155Y-81153000D01*
X106851476Y-80923110D01*
X106806825Y-80775901D01*
X106681641Y-80513080D01*
X106507588Y-80279731D01*
X106291355Y-80084822D01*
X106165745Y-80010000D01*
X106291355Y-79935178D01*
X106507588Y-79740269D01*
X106681641Y-79506920D01*
X106806825Y-79244099D01*
X106851476Y-79096890D01*
X106730155Y-78867000D01*
X105537000Y-78867000D01*
X105283000Y-78867000D01*
X105263000Y-78867000D01*
X105263000Y-78613000D01*
X105283000Y-78613000D01*
X105283000Y-76327000D01*
X105537000Y-76327000D01*
X105537000Y-78613000D01*
X106730155Y-78613000D01*
X106851476Y-78383110D01*
X106806825Y-78235901D01*
X106681641Y-77973080D01*
X106507588Y-77739731D01*
X106291355Y-77544822D01*
X106165745Y-77470000D01*
X106291355Y-77395178D01*
X106507588Y-77200269D01*
X106681641Y-76966920D01*
X106806825Y-76704099D01*
X106851476Y-76556890D01*
X106730155Y-76327000D01*
X105537000Y-76327000D01*
X105283000Y-76327000D01*
X105263000Y-76327000D01*
X105263000Y-76073000D01*
X105283000Y-76073000D01*
X105283000Y-76053000D01*
X105537000Y-76053000D01*
X105537000Y-76073000D01*
X106730155Y-76073000D01*
X106851476Y-75843110D01*
X106833850Y-75784999D01*
X109000198Y-75784999D01*
X109623328Y-76408129D01*
G37*
X109623328Y-76408129D02*
X109623328Y-77698600D01*
X109635588Y-77823082D01*
X109671898Y-77942780D01*
X109689799Y-77976269D01*
X108525377Y-79140692D01*
X108496379Y-79164490D01*
X108472581Y-79193488D01*
X108472580Y-79193489D01*
X108401405Y-79280215D01*
X108330833Y-79412245D01*
X108287377Y-79555506D01*
X108272703Y-79704491D01*
X108276380Y-79741823D01*
X108276379Y-86863819D01*
X108175200Y-86964999D01*
X106758765Y-86964999D01*
X106806825Y-86864099D01*
X106851476Y-86716890D01*
X106730155Y-86487000D01*
X105537000Y-86487000D01*
X105537000Y-86507000D01*
X105283000Y-86507000D01*
X105283000Y-86487000D01*
X105263000Y-86487000D01*
X105263000Y-86233000D01*
X105283000Y-86233000D01*
X105283000Y-83947000D01*
X105537000Y-83947000D01*
X105537000Y-86233000D01*
X106730155Y-86233000D01*
X106851476Y-86003110D01*
X106806825Y-85855901D01*
X106681641Y-85593080D01*
X106507588Y-85359731D01*
X106291355Y-85164822D01*
X106165745Y-85090000D01*
X106291355Y-85015178D01*
X106507588Y-84820269D01*
X106681641Y-84586920D01*
X106806825Y-84324099D01*
X106851476Y-84176890D01*
X106730155Y-83947000D01*
X105537000Y-83947000D01*
X105283000Y-83947000D01*
X105263000Y-83947000D01*
X105263000Y-83693000D01*
X105283000Y-83693000D01*
X105283000Y-81407000D01*
X105537000Y-81407000D01*
X105537000Y-83693000D01*
X106730155Y-83693000D01*
X106851476Y-83463110D01*
X106806825Y-83315901D01*
X106681641Y-83053080D01*
X106507588Y-82819731D01*
X106291355Y-82624822D01*
X106165745Y-82550000D01*
X106291355Y-82475178D01*
X106507588Y-82280269D01*
X106681641Y-82046920D01*
X106806825Y-81784099D01*
X106851476Y-81636890D01*
X106730155Y-81407000D01*
X105537000Y-81407000D01*
X105283000Y-81407000D01*
X105263000Y-81407000D01*
X105263000Y-81153000D01*
X105283000Y-81153000D01*
X105283000Y-78867000D01*
X105537000Y-78867000D01*
X105537000Y-81153000D01*
X106730155Y-81153000D01*
X106851476Y-80923110D01*
X106806825Y-80775901D01*
X106681641Y-80513080D01*
X106507588Y-80279731D01*
X106291355Y-80084822D01*
X106165745Y-80010000D01*
X106291355Y-79935178D01*
X106507588Y-79740269D01*
X106681641Y-79506920D01*
X106806825Y-79244099D01*
X106851476Y-79096890D01*
X106730155Y-78867000D01*
X105537000Y-78867000D01*
X105283000Y-78867000D01*
X105263000Y-78867000D01*
X105263000Y-78613000D01*
X105283000Y-78613000D01*
X105283000Y-76327000D01*
X105537000Y-76327000D01*
X105537000Y-78613000D01*
X106730155Y-78613000D01*
X106851476Y-78383110D01*
X106806825Y-78235901D01*
X106681641Y-77973080D01*
X106507588Y-77739731D01*
X106291355Y-77544822D01*
X106165745Y-77470000D01*
X106291355Y-77395178D01*
X106507588Y-77200269D01*
X106681641Y-76966920D01*
X106806825Y-76704099D01*
X106851476Y-76556890D01*
X106730155Y-76327000D01*
X105537000Y-76327000D01*
X105283000Y-76327000D01*
X105263000Y-76327000D01*
X105263000Y-76073000D01*
X105283000Y-76073000D01*
X105283000Y-76053000D01*
X105537000Y-76053000D01*
X105537000Y-76073000D01*
X106730155Y-76073000D01*
X106851476Y-75843110D01*
X106833850Y-75784999D01*
X109000198Y-75784999D01*
X109623328Y-76408129D01*
G36*
X145389513Y-48920666D02*
G01*
X145390000Y-48925301D01*
X145390001Y-74749806D01*
X145201231Y-74688374D01*
X144324605Y-75565000D01*
X145201231Y-76441626D01*
X145390001Y-76380194D01*
X145390001Y-82305148D01*
X145328768Y-82213507D01*
X145116493Y-82001232D01*
X144866885Y-81834449D01*
X144589534Y-81719566D01*
X144295101Y-81661000D01*
X143994899Y-81661000D01*
X143700466Y-81719566D01*
X143423115Y-81834449D01*
X143173507Y-82001232D01*
X142961232Y-82213507D01*
X142875000Y-82342562D01*
X142788768Y-82213507D01*
X142576493Y-82001232D01*
X142326885Y-81834449D01*
X142049534Y-81719566D01*
X141755101Y-81661000D01*
X141454899Y-81661000D01*
X141160466Y-81719566D01*
X140883115Y-81834449D01*
X140633507Y-82001232D01*
X140421232Y-82213507D01*
X140335000Y-82342562D01*
X140248768Y-82213507D01*
X140036493Y-82001232D01*
X139786885Y-81834449D01*
X139509534Y-81719566D01*
X139215101Y-81661000D01*
X138914899Y-81661000D01*
X138620466Y-81719566D01*
X138343115Y-81834449D01*
X138093507Y-82001232D01*
X137881232Y-82213507D01*
X137875001Y-82222832D01*
X137875001Y-80637323D01*
X137878677Y-80600000D01*
X137875001Y-80562677D01*
X137875001Y-80562668D01*
X137864004Y-80451015D01*
X137820547Y-80307754D01*
X137799453Y-80268290D01*
X137749975Y-80175724D01*
X137678800Y-80088998D01*
X137655002Y-80060000D01*
X137626005Y-80036203D01*
X137373731Y-79783930D01*
X137425000Y-79526184D01*
X137425000Y-79223816D01*
X137366011Y-78927257D01*
X137250299Y-78647905D01*
X137172833Y-78531969D01*
X138665425Y-77039377D01*
X138914899Y-77089000D01*
X139215101Y-77089000D01*
X139509534Y-77030434D01*
X139786885Y-76915551D01*
X140036493Y-76748768D01*
X140164030Y-76621231D01*
X143268374Y-76621231D01*
X143350727Y-76874289D01*
X143621418Y-77004086D01*
X143912230Y-77078580D01*
X144211988Y-77094908D01*
X144509171Y-77052443D01*
X144792359Y-76952816D01*
X144939273Y-76874289D01*
X145021626Y-76621231D01*
X144145000Y-75744605D01*
X143268374Y-76621231D01*
X140164030Y-76621231D01*
X140248768Y-76536493D01*
X140415551Y-76286885D01*
X140530434Y-76009534D01*
X140589000Y-75715101D01*
X140589000Y-75631988D01*
X142615092Y-75631988D01*
X142657557Y-75929171D01*
X142757184Y-76212359D01*
X142835711Y-76359273D01*
X143088769Y-76441626D01*
X143965395Y-75565000D01*
X143088769Y-74688374D01*
X142835711Y-74770727D01*
X142705914Y-75041418D01*
X142631420Y-75332230D01*
X142615092Y-75631988D01*
X140589000Y-75631988D01*
X140589000Y-75414899D01*
X140530434Y-75120466D01*
X140415551Y-74843115D01*
X140248768Y-74593507D01*
X140164030Y-74508769D01*
X143268374Y-74508769D01*
X144145000Y-75385395D01*
X145021626Y-74508769D01*
X144939273Y-74255711D01*
X144668582Y-74125914D01*
X144377770Y-74051420D01*
X144078012Y-74035092D01*
X143780829Y-74077557D01*
X143497641Y-74177184D01*
X143350727Y-74255711D01*
X143268374Y-74508769D01*
X140164030Y-74508769D01*
X140036493Y-74381232D01*
X139786885Y-74214449D01*
X139509534Y-74099566D01*
X139215101Y-74041000D01*
X138914899Y-74041000D01*
X138620466Y-74099566D01*
X138343115Y-74214449D01*
X138093507Y-74381232D01*
X137998492Y-74476247D01*
X138012919Y-74428688D01*
X138025001Y-74306018D01*
X138029041Y-74265000D01*
X138025001Y-74223981D01*
X138025001Y-70899872D01*
X140005000Y-70899872D01*
X140005000Y-71340128D01*
X140090890Y-71771925D01*
X140259369Y-72178669D01*
X140503962Y-72544729D01*
X140815271Y-72856038D01*
X141181331Y-73100631D01*
X141588075Y-73269110D01*
X142019872Y-73355000D01*
X142460128Y-73355000D01*
X142891925Y-73269110D01*
X143298669Y-73100631D01*
X143664729Y-72856038D01*
X143976038Y-72544729D01*
X144220631Y-72178669D01*
X144389110Y-71771925D01*
X144475000Y-71340128D01*
X144475000Y-70899872D01*
X144389110Y-70468075D01*
X144220631Y-70061331D01*
X143976038Y-69695271D01*
X143664729Y-69383962D01*
X143298669Y-69139369D01*
X142891925Y-68970890D01*
X142460128Y-68885000D01*
X142019872Y-68885000D01*
X141588075Y-68970890D01*
X141181331Y-69139369D01*
X140815271Y-69383962D01*
X140503962Y-69695271D01*
X140259369Y-70061331D01*
X140090890Y-70468075D01*
X140005000Y-70899872D01*
X138025001Y-70899872D01*
X138025001Y-68072000D01*
X144780000Y-68072000D01*
X144804776Y-68069560D01*
X144828601Y-68062333D01*
X144850557Y-68050597D01*
X144869803Y-68034803D01*
X144885597Y-68015557D01*
X144897333Y-67993601D01*
X144904560Y-67969776D01*
X144907000Y-67945000D01*
X144907000Y-66046968D01*
X145084512Y-65781302D01*
X145245453Y-65392756D01*
X145327500Y-64980279D01*
X145327500Y-64559721D01*
X145245453Y-64147244D01*
X145084512Y-63758698D01*
X144907000Y-63493032D01*
X144907000Y-60966968D01*
X145084512Y-60701302D01*
X145245453Y-60312756D01*
X145327500Y-59900279D01*
X145327500Y-59479721D01*
X145245453Y-59067244D01*
X145084512Y-58678698D01*
X144907000Y-58413032D01*
X144907000Y-56708505D01*
X144936680Y-56699502D01*
X145046994Y-56640537D01*
X145143685Y-56561185D01*
X145223037Y-56464494D01*
X145282002Y-56354180D01*
X145318312Y-56234482D01*
X145330572Y-56110000D01*
X145330572Y-53110000D01*
X145318312Y-52985518D01*
X145282002Y-52865820D01*
X145223037Y-52755506D01*
X145143685Y-52658815D01*
X145046994Y-52579463D01*
X144936680Y-52520498D01*
X144907000Y-52511495D01*
X144907000Y-51435000D01*
X144904525Y-51410049D01*
X144897264Y-51386235D01*
X144885498Y-51364295D01*
X144869677Y-51345072D01*
X144850409Y-51329305D01*
X144828436Y-51317599D01*
X144804602Y-51310406D01*
X144779822Y-51308000D01*
X140915463Y-51313417D01*
X141014240Y-51214640D01*
X141521484Y-50455496D01*
X141870880Y-49611980D01*
X142008523Y-48920000D01*
X145382725Y-48920000D01*
X145389513Y-48920666D01*
G37*
X145389513Y-48920666D02*
X145390000Y-48925301D01*
X145390001Y-74749806D01*
X145201231Y-74688374D01*
X144324605Y-75565000D01*
X145201231Y-76441626D01*
X145390001Y-76380194D01*
X145390001Y-82305148D01*
X145328768Y-82213507D01*
X145116493Y-82001232D01*
X144866885Y-81834449D01*
X144589534Y-81719566D01*
X144295101Y-81661000D01*
X143994899Y-81661000D01*
X143700466Y-81719566D01*
X143423115Y-81834449D01*
X143173507Y-82001232D01*
X142961232Y-82213507D01*
X142875000Y-82342562D01*
X142788768Y-82213507D01*
X142576493Y-82001232D01*
X142326885Y-81834449D01*
X142049534Y-81719566D01*
X141755101Y-81661000D01*
X141454899Y-81661000D01*
X141160466Y-81719566D01*
X140883115Y-81834449D01*
X140633507Y-82001232D01*
X140421232Y-82213507D01*
X140335000Y-82342562D01*
X140248768Y-82213507D01*
X140036493Y-82001232D01*
X139786885Y-81834449D01*
X139509534Y-81719566D01*
X139215101Y-81661000D01*
X138914899Y-81661000D01*
X138620466Y-81719566D01*
X138343115Y-81834449D01*
X138093507Y-82001232D01*
X137881232Y-82213507D01*
X137875001Y-82222832D01*
X137875001Y-80637323D01*
X137878677Y-80600000D01*
X137875001Y-80562677D01*
X137875001Y-80562668D01*
X137864004Y-80451015D01*
X137820547Y-80307754D01*
X137799453Y-80268290D01*
X137749975Y-80175724D01*
X137678800Y-80088998D01*
X137655002Y-80060000D01*
X137626005Y-80036203D01*
X137373731Y-79783930D01*
X137425000Y-79526184D01*
X137425000Y-79223816D01*
X137366011Y-78927257D01*
X137250299Y-78647905D01*
X137172833Y-78531969D01*
X138665425Y-77039377D01*
X138914899Y-77089000D01*
X139215101Y-77089000D01*
X139509534Y-77030434D01*
X139786885Y-76915551D01*
X140036493Y-76748768D01*
X140164030Y-76621231D01*
X143268374Y-76621231D01*
X143350727Y-76874289D01*
X143621418Y-77004086D01*
X143912230Y-77078580D01*
X144211988Y-77094908D01*
X144509171Y-77052443D01*
X144792359Y-76952816D01*
X144939273Y-76874289D01*
X145021626Y-76621231D01*
X144145000Y-75744605D01*
X143268374Y-76621231D01*
X140164030Y-76621231D01*
X140248768Y-76536493D01*
X140415551Y-76286885D01*
X140530434Y-76009534D01*
X140589000Y-75715101D01*
X140589000Y-75631988D01*
X142615092Y-75631988D01*
X142657557Y-75929171D01*
X142757184Y-76212359D01*
X142835711Y-76359273D01*
X143088769Y-76441626D01*
X143965395Y-75565000D01*
X143088769Y-74688374D01*
X142835711Y-74770727D01*
X142705914Y-75041418D01*
X142631420Y-75332230D01*
X142615092Y-75631988D01*
X140589000Y-75631988D01*
X140589000Y-75414899D01*
X140530434Y-75120466D01*
X140415551Y-74843115D01*
X140248768Y-74593507D01*
X140164030Y-74508769D01*
X143268374Y-74508769D01*
X144145000Y-75385395D01*
X145021626Y-74508769D01*
X144939273Y-74255711D01*
X144668582Y-74125914D01*
X144377770Y-74051420D01*
X144078012Y-74035092D01*
X143780829Y-74077557D01*
X143497641Y-74177184D01*
X143350727Y-74255711D01*
X143268374Y-74508769D01*
X140164030Y-74508769D01*
X140036493Y-74381232D01*
X139786885Y-74214449D01*
X139509534Y-74099566D01*
X139215101Y-74041000D01*
X138914899Y-74041000D01*
X138620466Y-74099566D01*
X138343115Y-74214449D01*
X138093507Y-74381232D01*
X137998492Y-74476247D01*
X138012919Y-74428688D01*
X138025001Y-74306018D01*
X138029041Y-74265000D01*
X138025001Y-74223981D01*
X138025001Y-70899872D01*
X140005000Y-70899872D01*
X140005000Y-71340128D01*
X140090890Y-71771925D01*
X140259369Y-72178669D01*
X140503962Y-72544729D01*
X140815271Y-72856038D01*
X141181331Y-73100631D01*
X141588075Y-73269110D01*
X142019872Y-73355000D01*
X142460128Y-73355000D01*
X142891925Y-73269110D01*
X143298669Y-73100631D01*
X143664729Y-72856038D01*
X143976038Y-72544729D01*
X144220631Y-72178669D01*
X144389110Y-71771925D01*
X144475000Y-71340128D01*
X144475000Y-70899872D01*
X144389110Y-70468075D01*
X144220631Y-70061331D01*
X143976038Y-69695271D01*
X143664729Y-69383962D01*
X143298669Y-69139369D01*
X142891925Y-68970890D01*
X142460128Y-68885000D01*
X142019872Y-68885000D01*
X141588075Y-68970890D01*
X141181331Y-69139369D01*
X140815271Y-69383962D01*
X140503962Y-69695271D01*
X140259369Y-70061331D01*
X140090890Y-70468075D01*
X140005000Y-70899872D01*
X138025001Y-70899872D01*
X138025001Y-68072000D01*
X144780000Y-68072000D01*
X144804776Y-68069560D01*
X144828601Y-68062333D01*
X144850557Y-68050597D01*
X144869803Y-68034803D01*
X144885597Y-68015557D01*
X144897333Y-67993601D01*
X144904560Y-67969776D01*
X144907000Y-67945000D01*
X144907000Y-66046968D01*
X145084512Y-65781302D01*
X145245453Y-65392756D01*
X145327500Y-64980279D01*
X145327500Y-64559721D01*
X145245453Y-64147244D01*
X145084512Y-63758698D01*
X144907000Y-63493032D01*
X144907000Y-60966968D01*
X145084512Y-60701302D01*
X145245453Y-60312756D01*
X145327500Y-59900279D01*
X145327500Y-59479721D01*
X145245453Y-59067244D01*
X145084512Y-58678698D01*
X144907000Y-58413032D01*
X144907000Y-56708505D01*
X144936680Y-56699502D01*
X145046994Y-56640537D01*
X145143685Y-56561185D01*
X145223037Y-56464494D01*
X145282002Y-56354180D01*
X145318312Y-56234482D01*
X145330572Y-56110000D01*
X145330572Y-53110000D01*
X145318312Y-52985518D01*
X145282002Y-52865820D01*
X145223037Y-52755506D01*
X145143685Y-52658815D01*
X145046994Y-52579463D01*
X144936680Y-52520498D01*
X144907000Y-52511495D01*
X144907000Y-51435000D01*
X144904525Y-51410049D01*
X144897264Y-51386235D01*
X144885498Y-51364295D01*
X144869677Y-51345072D01*
X144850409Y-51329305D01*
X144828436Y-51317599D01*
X144804602Y-51310406D01*
X144779822Y-51308000D01*
X140915463Y-51313417D01*
X141014240Y-51214640D01*
X141521484Y-50455496D01*
X141870880Y-49611980D01*
X142008523Y-48920000D01*
X145382725Y-48920000D01*
X145389513Y-48920666D01*
G36*
X112550363Y-59969759D02*
G01*
X112750241Y-60169637D01*
X112985273Y-60326680D01*
X113246426Y-60434853D01*
X113523665Y-60490000D01*
X113806335Y-60490000D01*
X114083574Y-60434853D01*
X114344727Y-60326680D01*
X114579759Y-60169637D01*
X114681000Y-60068396D01*
X114681000Y-61468000D01*
X114686161Y-61503835D01*
X114695493Y-61526916D01*
X114709149Y-61547733D01*
X114726603Y-61565486D01*
X114747186Y-61579493D01*
X117059463Y-62840735D01*
X116841510Y-63058689D01*
X116646503Y-63253696D01*
X116646497Y-63253701D01*
X115110200Y-64789999D01*
X113993749Y-64789999D01*
X114082378Y-64508863D01*
X113955570Y-64262000D01*
X112657000Y-64262000D01*
X112657000Y-64282000D01*
X112403000Y-64282000D01*
X112403000Y-64262000D01*
X112383000Y-64262000D01*
X112383000Y-64008000D01*
X112403000Y-64008000D01*
X112403000Y-62664406D01*
X112657000Y-62664406D01*
X112657000Y-64008000D01*
X113955570Y-64008000D01*
X114082378Y-63761137D01*
X113988879Y-63464554D01*
X113839316Y-63191911D01*
X113639437Y-62953685D01*
X113396923Y-62759031D01*
X113121094Y-62615429D01*
X112902980Y-62544437D01*
X112657000Y-62664406D01*
X112403000Y-62664406D01*
X112157020Y-62544437D01*
X111938906Y-62615429D01*
X111663077Y-62759031D01*
X111420563Y-62953685D01*
X111265163Y-63138899D01*
X111117963Y-62959537D01*
X110876234Y-62761155D01*
X110600448Y-62613745D01*
X110301203Y-62522970D01*
X109990000Y-62492319D01*
X109678796Y-62522970D01*
X109379551Y-62613745D01*
X109103765Y-62761155D01*
X108977905Y-62864446D01*
X108933037Y-62780506D01*
X108853685Y-62683815D01*
X108756994Y-62604463D01*
X108646680Y-62545498D01*
X108526982Y-62509188D01*
X108402500Y-62496928D01*
X106497500Y-62496928D01*
X106373018Y-62509188D01*
X106253320Y-62545498D01*
X106143006Y-62604463D01*
X106046315Y-62683815D01*
X105966963Y-62780506D01*
X105907998Y-62890820D01*
X105871688Y-63010518D01*
X105859428Y-63135000D01*
X105859428Y-65135000D01*
X105869467Y-65236928D01*
X105245000Y-65236928D01*
X105120518Y-65249188D01*
X105000820Y-65285498D01*
X104890506Y-65344463D01*
X104793815Y-65423815D01*
X104714463Y-65520506D01*
X104655498Y-65630820D01*
X104619188Y-65750518D01*
X104606928Y-65875000D01*
X104606928Y-67475000D01*
X104619188Y-67599482D01*
X104655498Y-67719180D01*
X104714463Y-67829494D01*
X104793815Y-67926185D01*
X104890506Y-68005537D01*
X105000820Y-68064502D01*
X105120518Y-68100812D01*
X105245000Y-68113072D01*
X106698596Y-68113072D01*
X106699999Y-68127321D01*
X106699999Y-68127331D01*
X106710996Y-68238984D01*
X106754453Y-68382245D01*
X106825025Y-68514275D01*
X106828267Y-68518225D01*
X106919998Y-68630000D01*
X106949002Y-68653803D01*
X107906355Y-69611157D01*
X107885000Y-69718514D01*
X107885000Y-69981486D01*
X107936304Y-70239405D01*
X108036939Y-70482359D01*
X108183038Y-70701013D01*
X108368987Y-70886962D01*
X108587641Y-71033061D01*
X108797530Y-71120000D01*
X108587641Y-71206939D01*
X108368987Y-71353038D01*
X108183038Y-71538987D01*
X108036939Y-71757641D01*
X107936304Y-72000595D01*
X107885000Y-72258514D01*
X107885000Y-72521486D01*
X107936304Y-72779405D01*
X108036939Y-73022359D01*
X108183038Y-73241013D01*
X108368987Y-73426962D01*
X108587641Y-73573061D01*
X108830595Y-73673696D01*
X109088514Y-73725000D01*
X109351486Y-73725000D01*
X109609405Y-73673696D01*
X109852359Y-73573061D01*
X110071013Y-73426962D01*
X110256962Y-73241013D01*
X110403061Y-73022359D01*
X110503696Y-72779405D01*
X110555000Y-72521486D01*
X110555000Y-72258514D01*
X110533645Y-72151157D01*
X110756005Y-71928797D01*
X110785002Y-71905000D01*
X110879975Y-71789275D01*
X110950547Y-71657246D01*
X110994004Y-71513985D01*
X111005001Y-71402332D01*
X111005001Y-71402323D01*
X111008677Y-71365000D01*
X111005001Y-71327677D01*
X111005001Y-69774800D01*
X111060000Y-69719801D01*
X111060000Y-69981486D01*
X111111304Y-70239405D01*
X111211939Y-70482359D01*
X111358038Y-70701013D01*
X111543987Y-70886962D01*
X111762641Y-71033061D01*
X111972530Y-71120000D01*
X111762641Y-71206939D01*
X111543987Y-71353038D01*
X111358038Y-71538987D01*
X111211939Y-71757641D01*
X111111304Y-72000595D01*
X111060000Y-72258514D01*
X111060000Y-72521486D01*
X111111304Y-72779405D01*
X111211939Y-73022359D01*
X111358038Y-73241013D01*
X111543987Y-73426962D01*
X111762641Y-73573061D01*
X112005595Y-73673696D01*
X112263514Y-73725000D01*
X112526486Y-73725000D01*
X112784405Y-73673696D01*
X113027359Y-73573061D01*
X113246013Y-73426962D01*
X113431962Y-73241013D01*
X113578061Y-73022359D01*
X113678696Y-72779405D01*
X113730000Y-72521486D01*
X113730000Y-72258514D01*
X113678696Y-72000595D01*
X113578061Y-71757641D01*
X113431962Y-71538987D01*
X113246013Y-71353038D01*
X113027359Y-71206939D01*
X112817470Y-71120000D01*
X113027359Y-71033061D01*
X113246013Y-70886962D01*
X113431962Y-70701013D01*
X113578061Y-70482359D01*
X113678696Y-70239405D01*
X113730000Y-69981486D01*
X113730000Y-69718514D01*
X113703442Y-69584999D01*
X114261558Y-69584999D01*
X114235000Y-69718514D01*
X114235000Y-69981486D01*
X114286304Y-70239405D01*
X114386939Y-70482359D01*
X114533038Y-70701013D01*
X114718987Y-70886962D01*
X114937641Y-71033061D01*
X115147530Y-71120000D01*
X114937641Y-71206939D01*
X114718987Y-71353038D01*
X114533038Y-71538987D01*
X114386939Y-71757641D01*
X114286304Y-72000595D01*
X114235000Y-72258514D01*
X114235000Y-72521486D01*
X114286304Y-72779405D01*
X114386939Y-73022359D01*
X114533038Y-73241013D01*
X114718987Y-73426962D01*
X114937641Y-73573061D01*
X115180595Y-73673696D01*
X115438514Y-73725000D01*
X115701486Y-73725000D01*
X115959405Y-73673696D01*
X116202359Y-73573061D01*
X116421013Y-73426962D01*
X116606962Y-73241013D01*
X116753061Y-73022359D01*
X116853696Y-72779405D01*
X116905000Y-72521486D01*
X116905000Y-72258514D01*
X116883645Y-72151157D01*
X117106005Y-71928797D01*
X117135002Y-71905000D01*
X117229975Y-71789275D01*
X117300547Y-71657246D01*
X117301591Y-71653804D01*
X117835395Y-71120000D01*
X117821253Y-71105858D01*
X118000858Y-70926253D01*
X118015000Y-70940395D01*
X118029143Y-70926253D01*
X118208748Y-71105858D01*
X118194605Y-71120000D01*
X118208748Y-71134143D01*
X118029143Y-71313748D01*
X118015000Y-71299605D01*
X117344841Y-71969764D01*
X117392148Y-72193348D01*
X117613516Y-72294237D01*
X117850313Y-72350000D01*
X118093438Y-72358495D01*
X118333549Y-72319395D01*
X118561418Y-72234202D01*
X118637852Y-72193348D01*
X118685158Y-71969766D01*
X118802264Y-72086872D01*
X118860142Y-72028994D01*
X118884463Y-72074494D01*
X118963815Y-72171185D01*
X119060506Y-72250537D01*
X119170820Y-72309502D01*
X119255000Y-72335038D01*
X119255000Y-72599679D01*
X119251324Y-72637002D01*
X119255000Y-72674324D01*
X119255000Y-72674334D01*
X119265997Y-72785987D01*
X119297947Y-72891313D01*
X119309454Y-72929248D01*
X119380026Y-73061278D01*
X119408687Y-73096201D01*
X119474999Y-73177003D01*
X119504003Y-73200806D01*
X121585111Y-75281914D01*
X121518038Y-75348987D01*
X121371939Y-75567641D01*
X121271304Y-75810595D01*
X121220000Y-76068514D01*
X121220000Y-76331486D01*
X121241355Y-76438843D01*
X119065199Y-78615000D01*
X114959535Y-78615000D01*
X114829039Y-78419698D01*
X114620302Y-78210961D01*
X114454897Y-78100441D01*
X114553488Y-78041817D01*
X114771854Y-77845293D01*
X114947684Y-77609944D01*
X115074222Y-77344814D01*
X115119958Y-77194026D01*
X114998817Y-76962000D01*
X113792000Y-76962000D01*
X113792000Y-76982000D01*
X113538000Y-76982000D01*
X113538000Y-76962000D01*
X113518000Y-76962000D01*
X113518000Y-76708000D01*
X113538000Y-76708000D01*
X113538000Y-75500536D01*
X113792000Y-75500536D01*
X113792000Y-76708000D01*
X114998817Y-76708000D01*
X115119958Y-76475974D01*
X115074222Y-76325186D01*
X114947684Y-76060056D01*
X114771854Y-75824707D01*
X114553488Y-75628183D01*
X114300978Y-75478036D01*
X114024027Y-75380037D01*
X113792000Y-75500536D01*
X113538000Y-75500536D01*
X113305973Y-75380037D01*
X113036235Y-75475484D01*
X113019147Y-75419152D01*
X112948575Y-75287123D01*
X112919001Y-75251087D01*
X112877400Y-75200395D01*
X112877396Y-75200391D01*
X112853602Y-75171398D01*
X112824610Y-75147605D01*
X111740994Y-74063991D01*
X111717192Y-74034988D01*
X111601467Y-73940015D01*
X111469438Y-73869443D01*
X111326177Y-73825986D01*
X111214524Y-73814989D01*
X111214513Y-73814989D01*
X111177191Y-73811313D01*
X111139869Y-73814989D01*
X102829791Y-73814989D01*
X102360000Y-73345199D01*
X102360000Y-72478935D01*
X102403962Y-72544729D01*
X102715271Y-72856038D01*
X103081331Y-73100631D01*
X103488075Y-73269110D01*
X103919872Y-73355000D01*
X104360128Y-73355000D01*
X104791925Y-73269110D01*
X105198669Y-73100631D01*
X105564729Y-72856038D01*
X105876038Y-72544729D01*
X106120631Y-72178669D01*
X106289110Y-71771925D01*
X106375000Y-71340128D01*
X106375000Y-70899872D01*
X106289110Y-70468075D01*
X106120631Y-70061331D01*
X105876038Y-69695271D01*
X105564729Y-69383962D01*
X105198669Y-69139369D01*
X104791925Y-68970890D01*
X104360128Y-68885000D01*
X103919872Y-68885000D01*
X103488075Y-68970890D01*
X103081331Y-69139369D01*
X102715271Y-69383962D01*
X102403962Y-69695271D01*
X102360000Y-69761065D01*
X102360000Y-67526221D01*
X102584250Y-67525000D01*
X102743000Y-67366250D01*
X102743000Y-66167000D01*
X102997000Y-66167000D01*
X102997000Y-67366250D01*
X103155750Y-67525000D01*
X103720000Y-67528072D01*
X103844482Y-67515812D01*
X103964180Y-67479502D01*
X104074494Y-67420537D01*
X104171185Y-67341185D01*
X104250537Y-67244494D01*
X104309502Y-67134180D01*
X104345812Y-67014482D01*
X104358072Y-66890000D01*
X104355000Y-66325750D01*
X104196250Y-66167000D01*
X102997000Y-66167000D01*
X102743000Y-66167000D01*
X102723000Y-66167000D01*
X102723000Y-65913000D01*
X102743000Y-65913000D01*
X102743000Y-65893000D01*
X102997000Y-65893000D01*
X102997000Y-65913000D01*
X104196250Y-65913000D01*
X104355000Y-65754250D01*
X104358072Y-65190000D01*
X104345812Y-65065518D01*
X104309502Y-64945820D01*
X104250537Y-64835506D01*
X104171185Y-64738815D01*
X104074494Y-64659463D01*
X103964180Y-64600498D01*
X103891620Y-64578487D01*
X104023475Y-64446632D01*
X104185990Y-64203411D01*
X104297932Y-63933158D01*
X104355000Y-63646260D01*
X104355000Y-63353740D01*
X104297932Y-63066842D01*
X104185990Y-62796589D01*
X104023475Y-62553368D01*
X103816632Y-62346525D01*
X103642240Y-62230000D01*
X103816632Y-62113475D01*
X103870106Y-62060001D01*
X106970161Y-62060001D01*
X107034999Y-62066387D01*
X107099837Y-62060001D01*
X107293764Y-62040901D01*
X107542585Y-61965422D01*
X107771900Y-61842851D01*
X107972896Y-61677898D01*
X108014236Y-61627525D01*
X109416479Y-60225283D01*
X109499759Y-60169637D01*
X109699637Y-59969759D01*
X109799325Y-59820566D01*
X109822849Y-59791901D01*
X109840330Y-59759197D01*
X109855000Y-59737241D01*
X110010363Y-59969759D01*
X110210241Y-60169637D01*
X110445273Y-60326680D01*
X110706426Y-60434853D01*
X110983665Y-60490000D01*
X111266335Y-60490000D01*
X111543574Y-60434853D01*
X111804727Y-60326680D01*
X112039759Y-60169637D01*
X112239637Y-59969759D01*
X112395000Y-59737241D01*
X112550363Y-59969759D01*
G37*
X112550363Y-59969759D02*
X112750241Y-60169637D01*
X112985273Y-60326680D01*
X113246426Y-60434853D01*
X113523665Y-60490000D01*
X113806335Y-60490000D01*
X114083574Y-60434853D01*
X114344727Y-60326680D01*
X114579759Y-60169637D01*
X114681000Y-60068396D01*
X114681000Y-61468000D01*
X114686161Y-61503835D01*
X114695493Y-61526916D01*
X114709149Y-61547733D01*
X114726603Y-61565486D01*
X114747186Y-61579493D01*
X117059463Y-62840735D01*
X116841510Y-63058689D01*
X116646503Y-63253696D01*
X116646497Y-63253701D01*
X115110200Y-64789999D01*
X113993749Y-64789999D01*
X114082378Y-64508863D01*
X113955570Y-64262000D01*
X112657000Y-64262000D01*
X112657000Y-64282000D01*
X112403000Y-64282000D01*
X112403000Y-64262000D01*
X112383000Y-64262000D01*
X112383000Y-64008000D01*
X112403000Y-64008000D01*
X112403000Y-62664406D01*
X112657000Y-62664406D01*
X112657000Y-64008000D01*
X113955570Y-64008000D01*
X114082378Y-63761137D01*
X113988879Y-63464554D01*
X113839316Y-63191911D01*
X113639437Y-62953685D01*
X113396923Y-62759031D01*
X113121094Y-62615429D01*
X112902980Y-62544437D01*
X112657000Y-62664406D01*
X112403000Y-62664406D01*
X112157020Y-62544437D01*
X111938906Y-62615429D01*
X111663077Y-62759031D01*
X111420563Y-62953685D01*
X111265163Y-63138899D01*
X111117963Y-62959537D01*
X110876234Y-62761155D01*
X110600448Y-62613745D01*
X110301203Y-62522970D01*
X109990000Y-62492319D01*
X109678796Y-62522970D01*
X109379551Y-62613745D01*
X109103765Y-62761155D01*
X108977905Y-62864446D01*
X108933037Y-62780506D01*
X108853685Y-62683815D01*
X108756994Y-62604463D01*
X108646680Y-62545498D01*
X108526982Y-62509188D01*
X108402500Y-62496928D01*
X106497500Y-62496928D01*
X106373018Y-62509188D01*
X106253320Y-62545498D01*
X106143006Y-62604463D01*
X106046315Y-62683815D01*
X105966963Y-62780506D01*
X105907998Y-62890820D01*
X105871688Y-63010518D01*
X105859428Y-63135000D01*
X105859428Y-65135000D01*
X105869467Y-65236928D01*
X105245000Y-65236928D01*
X105120518Y-65249188D01*
X105000820Y-65285498D01*
X104890506Y-65344463D01*
X104793815Y-65423815D01*
X104714463Y-65520506D01*
X104655498Y-65630820D01*
X104619188Y-65750518D01*
X104606928Y-65875000D01*
X104606928Y-67475000D01*
X104619188Y-67599482D01*
X104655498Y-67719180D01*
X104714463Y-67829494D01*
X104793815Y-67926185D01*
X104890506Y-68005537D01*
X105000820Y-68064502D01*
X105120518Y-68100812D01*
X105245000Y-68113072D01*
X106698596Y-68113072D01*
X106699999Y-68127321D01*
X106699999Y-68127331D01*
X106710996Y-68238984D01*
X106754453Y-68382245D01*
X106825025Y-68514275D01*
X106828267Y-68518225D01*
X106919998Y-68630000D01*
X106949002Y-68653803D01*
X107906355Y-69611157D01*
X107885000Y-69718514D01*
X107885000Y-69981486D01*
X107936304Y-70239405D01*
X108036939Y-70482359D01*
X108183038Y-70701013D01*
X108368987Y-70886962D01*
X108587641Y-71033061D01*
X108797530Y-71120000D01*
X108587641Y-71206939D01*
X108368987Y-71353038D01*
X108183038Y-71538987D01*
X108036939Y-71757641D01*
X107936304Y-72000595D01*
X107885000Y-72258514D01*
X107885000Y-72521486D01*
X107936304Y-72779405D01*
X108036939Y-73022359D01*
X108183038Y-73241013D01*
X108368987Y-73426962D01*
X108587641Y-73573061D01*
X108830595Y-73673696D01*
X109088514Y-73725000D01*
X109351486Y-73725000D01*
X109609405Y-73673696D01*
X109852359Y-73573061D01*
X110071013Y-73426962D01*
X110256962Y-73241013D01*
X110403061Y-73022359D01*
X110503696Y-72779405D01*
X110555000Y-72521486D01*
X110555000Y-72258514D01*
X110533645Y-72151157D01*
X110756005Y-71928797D01*
X110785002Y-71905000D01*
X110879975Y-71789275D01*
X110950547Y-71657246D01*
X110994004Y-71513985D01*
X111005001Y-71402332D01*
X111005001Y-71402323D01*
X111008677Y-71365000D01*
X111005001Y-71327677D01*
X111005001Y-69774800D01*
X111060000Y-69719801D01*
X111060000Y-69981486D01*
X111111304Y-70239405D01*
X111211939Y-70482359D01*
X111358038Y-70701013D01*
X111543987Y-70886962D01*
X111762641Y-71033061D01*
X111972530Y-71120000D01*
X111762641Y-71206939D01*
X111543987Y-71353038D01*
X111358038Y-71538987D01*
X111211939Y-71757641D01*
X111111304Y-72000595D01*
X111060000Y-72258514D01*
X111060000Y-72521486D01*
X111111304Y-72779405D01*
X111211939Y-73022359D01*
X111358038Y-73241013D01*
X111543987Y-73426962D01*
X111762641Y-73573061D01*
X112005595Y-73673696D01*
X112263514Y-73725000D01*
X112526486Y-73725000D01*
X112784405Y-73673696D01*
X113027359Y-73573061D01*
X113246013Y-73426962D01*
X113431962Y-73241013D01*
X113578061Y-73022359D01*
X113678696Y-72779405D01*
X113730000Y-72521486D01*
X113730000Y-72258514D01*
X113678696Y-72000595D01*
X113578061Y-71757641D01*
X113431962Y-71538987D01*
X113246013Y-71353038D01*
X113027359Y-71206939D01*
X112817470Y-71120000D01*
X113027359Y-71033061D01*
X113246013Y-70886962D01*
X113431962Y-70701013D01*
X113578061Y-70482359D01*
X113678696Y-70239405D01*
X113730000Y-69981486D01*
X113730000Y-69718514D01*
X113703442Y-69584999D01*
X114261558Y-69584999D01*
X114235000Y-69718514D01*
X114235000Y-69981486D01*
X114286304Y-70239405D01*
X114386939Y-70482359D01*
X114533038Y-70701013D01*
X114718987Y-70886962D01*
X114937641Y-71033061D01*
X115147530Y-71120000D01*
X114937641Y-71206939D01*
X114718987Y-71353038D01*
X114533038Y-71538987D01*
X114386939Y-71757641D01*
X114286304Y-72000595D01*
X114235000Y-72258514D01*
X114235000Y-72521486D01*
X114286304Y-72779405D01*
X114386939Y-73022359D01*
X114533038Y-73241013D01*
X114718987Y-73426962D01*
X114937641Y-73573061D01*
X115180595Y-73673696D01*
X115438514Y-73725000D01*
X115701486Y-73725000D01*
X115959405Y-73673696D01*
X116202359Y-73573061D01*
X116421013Y-73426962D01*
X116606962Y-73241013D01*
X116753061Y-73022359D01*
X116853696Y-72779405D01*
X116905000Y-72521486D01*
X116905000Y-72258514D01*
X116883645Y-72151157D01*
X117106005Y-71928797D01*
X117135002Y-71905000D01*
X117229975Y-71789275D01*
X117300547Y-71657246D01*
X117301591Y-71653804D01*
X117835395Y-71120000D01*
X117821253Y-71105858D01*
X118000858Y-70926253D01*
X118015000Y-70940395D01*
X118029143Y-70926253D01*
X118208748Y-71105858D01*
X118194605Y-71120000D01*
X118208748Y-71134143D01*
X118029143Y-71313748D01*
X118015000Y-71299605D01*
X117344841Y-71969764D01*
X117392148Y-72193348D01*
X117613516Y-72294237D01*
X117850313Y-72350000D01*
X118093438Y-72358495D01*
X118333549Y-72319395D01*
X118561418Y-72234202D01*
X118637852Y-72193348D01*
X118685158Y-71969766D01*
X118802264Y-72086872D01*
X118860142Y-72028994D01*
X118884463Y-72074494D01*
X118963815Y-72171185D01*
X119060506Y-72250537D01*
X119170820Y-72309502D01*
X119255000Y-72335038D01*
X119255000Y-72599679D01*
X119251324Y-72637002D01*
X119255000Y-72674324D01*
X119255000Y-72674334D01*
X119265997Y-72785987D01*
X119297947Y-72891313D01*
X119309454Y-72929248D01*
X119380026Y-73061278D01*
X119408687Y-73096201D01*
X119474999Y-73177003D01*
X119504003Y-73200806D01*
X121585111Y-75281914D01*
X121518038Y-75348987D01*
X121371939Y-75567641D01*
X121271304Y-75810595D01*
X121220000Y-76068514D01*
X121220000Y-76331486D01*
X121241355Y-76438843D01*
X119065199Y-78615000D01*
X114959535Y-78615000D01*
X114829039Y-78419698D01*
X114620302Y-78210961D01*
X114454897Y-78100441D01*
X114553488Y-78041817D01*
X114771854Y-77845293D01*
X114947684Y-77609944D01*
X115074222Y-77344814D01*
X115119958Y-77194026D01*
X114998817Y-76962000D01*
X113792000Y-76962000D01*
X113792000Y-76982000D01*
X113538000Y-76982000D01*
X113538000Y-76962000D01*
X113518000Y-76962000D01*
X113518000Y-76708000D01*
X113538000Y-76708000D01*
X113538000Y-75500536D01*
X113792000Y-75500536D01*
X113792000Y-76708000D01*
X114998817Y-76708000D01*
X115119958Y-76475974D01*
X115074222Y-76325186D01*
X114947684Y-76060056D01*
X114771854Y-75824707D01*
X114553488Y-75628183D01*
X114300978Y-75478036D01*
X114024027Y-75380037D01*
X113792000Y-75500536D01*
X113538000Y-75500536D01*
X113305973Y-75380037D01*
X113036235Y-75475484D01*
X113019147Y-75419152D01*
X112948575Y-75287123D01*
X112919001Y-75251087D01*
X112877400Y-75200395D01*
X112877396Y-75200391D01*
X112853602Y-75171398D01*
X112824610Y-75147605D01*
X111740994Y-74063991D01*
X111717192Y-74034988D01*
X111601467Y-73940015D01*
X111469438Y-73869443D01*
X111326177Y-73825986D01*
X111214524Y-73814989D01*
X111214513Y-73814989D01*
X111177191Y-73811313D01*
X111139869Y-73814989D01*
X102829791Y-73814989D01*
X102360000Y-73345199D01*
X102360000Y-72478935D01*
X102403962Y-72544729D01*
X102715271Y-72856038D01*
X103081331Y-73100631D01*
X103488075Y-73269110D01*
X103919872Y-73355000D01*
X104360128Y-73355000D01*
X104791925Y-73269110D01*
X105198669Y-73100631D01*
X105564729Y-72856038D01*
X105876038Y-72544729D01*
X106120631Y-72178669D01*
X106289110Y-71771925D01*
X106375000Y-71340128D01*
X106375000Y-70899872D01*
X106289110Y-70468075D01*
X106120631Y-70061331D01*
X105876038Y-69695271D01*
X105564729Y-69383962D01*
X105198669Y-69139369D01*
X104791925Y-68970890D01*
X104360128Y-68885000D01*
X103919872Y-68885000D01*
X103488075Y-68970890D01*
X103081331Y-69139369D01*
X102715271Y-69383962D01*
X102403962Y-69695271D01*
X102360000Y-69761065D01*
X102360000Y-67526221D01*
X102584250Y-67525000D01*
X102743000Y-67366250D01*
X102743000Y-66167000D01*
X102997000Y-66167000D01*
X102997000Y-67366250D01*
X103155750Y-67525000D01*
X103720000Y-67528072D01*
X103844482Y-67515812D01*
X103964180Y-67479502D01*
X104074494Y-67420537D01*
X104171185Y-67341185D01*
X104250537Y-67244494D01*
X104309502Y-67134180D01*
X104345812Y-67014482D01*
X104358072Y-66890000D01*
X104355000Y-66325750D01*
X104196250Y-66167000D01*
X102997000Y-66167000D01*
X102743000Y-66167000D01*
X102723000Y-66167000D01*
X102723000Y-65913000D01*
X102743000Y-65913000D01*
X102743000Y-65893000D01*
X102997000Y-65893000D01*
X102997000Y-65913000D01*
X104196250Y-65913000D01*
X104355000Y-65754250D01*
X104358072Y-65190000D01*
X104345812Y-65065518D01*
X104309502Y-64945820D01*
X104250537Y-64835506D01*
X104171185Y-64738815D01*
X104074494Y-64659463D01*
X103964180Y-64600498D01*
X103891620Y-64578487D01*
X104023475Y-64446632D01*
X104185990Y-64203411D01*
X104297932Y-63933158D01*
X104355000Y-63646260D01*
X104355000Y-63353740D01*
X104297932Y-63066842D01*
X104185990Y-62796589D01*
X104023475Y-62553368D01*
X103816632Y-62346525D01*
X103642240Y-62230000D01*
X103816632Y-62113475D01*
X103870106Y-62060001D01*
X106970161Y-62060001D01*
X107034999Y-62066387D01*
X107099837Y-62060001D01*
X107293764Y-62040901D01*
X107542585Y-61965422D01*
X107771900Y-61842851D01*
X107972896Y-61677898D01*
X108014236Y-61627525D01*
X109416479Y-60225283D01*
X109499759Y-60169637D01*
X109699637Y-59969759D01*
X109799325Y-59820566D01*
X109822849Y-59791901D01*
X109840330Y-59759197D01*
X109855000Y-59737241D01*
X110010363Y-59969759D01*
X110210241Y-60169637D01*
X110445273Y-60326680D01*
X110706426Y-60434853D01*
X110983665Y-60490000D01*
X111266335Y-60490000D01*
X111543574Y-60434853D01*
X111804727Y-60326680D01*
X112039759Y-60169637D01*
X112239637Y-59969759D01*
X112395000Y-59737241D01*
X112550363Y-59969759D01*
G36*
X121177750Y-69649960D02*
G01*
X121165188Y-69922492D01*
X121206035Y-70192238D01*
X121298723Y-70448832D01*
X121359140Y-70561863D01*
X121598007Y-70627388D01*
X122375395Y-69850000D01*
X122361253Y-69835858D01*
X122540858Y-69656253D01*
X122555000Y-69670395D01*
X122569143Y-69656253D01*
X122748748Y-69835858D01*
X122734605Y-69850000D01*
X123511993Y-70627388D01*
X123750860Y-70561863D01*
X123825164Y-70403523D01*
X123867629Y-70506043D01*
X124019201Y-70732886D01*
X124212114Y-70925799D01*
X124438957Y-71077371D01*
X124691011Y-71181775D01*
X124958589Y-71235000D01*
X125231411Y-71235000D01*
X125498989Y-71181775D01*
X125751043Y-71077371D01*
X125977886Y-70925799D01*
X126170799Y-70732886D01*
X126248555Y-70616517D01*
X126259188Y-70724482D01*
X126295498Y-70844180D01*
X126354463Y-70954494D01*
X126433815Y-71051185D01*
X126530506Y-71130537D01*
X126640820Y-71189502D01*
X126760518Y-71225812D01*
X126885000Y-71238072D01*
X128145001Y-71238072D01*
X128145001Y-71440197D01*
X127710200Y-71874999D01*
X123617323Y-71874999D01*
X123580000Y-71871323D01*
X123542677Y-71874999D01*
X123542668Y-71874999D01*
X123431015Y-71885996D01*
X123287754Y-71929453D01*
X123155725Y-72000025D01*
X123040000Y-72094998D01*
X123016202Y-72123996D01*
X122793843Y-72346355D01*
X122686486Y-72325000D01*
X122423514Y-72325000D01*
X122165595Y-72376304D01*
X121922641Y-72476939D01*
X121703987Y-72623038D01*
X121518038Y-72808987D01*
X121415398Y-72962599D01*
X120784849Y-72332050D01*
X120859180Y-72309502D01*
X120969494Y-72250537D01*
X121066185Y-72171185D01*
X121145537Y-72074494D01*
X121204502Y-71964180D01*
X121240812Y-71844482D01*
X121253072Y-71720000D01*
X121253072Y-70806993D01*
X121777612Y-70806993D01*
X121843137Y-71045860D01*
X122090116Y-71161760D01*
X122354960Y-71227250D01*
X122627492Y-71239812D01*
X122897238Y-71198965D01*
X123153832Y-71106277D01*
X123266863Y-71045860D01*
X123332388Y-70806993D01*
X122555000Y-70029605D01*
X121777612Y-70806993D01*
X121253072Y-70806993D01*
X121253072Y-70520000D01*
X121240812Y-70395518D01*
X121204502Y-70275820D01*
X121145537Y-70165506D01*
X121066185Y-70068815D01*
X120969494Y-69989463D01*
X120859180Y-69930498D01*
X120739482Y-69894188D01*
X120615000Y-69881928D01*
X119415000Y-69881928D01*
X119290518Y-69894188D01*
X119170820Y-69930498D01*
X119060506Y-69989463D01*
X118963815Y-70068815D01*
X118884463Y-70165506D01*
X118860142Y-70211006D01*
X118802264Y-70153128D01*
X118685158Y-70270234D01*
X118637852Y-70046652D01*
X118416484Y-69945763D01*
X118179687Y-69890000D01*
X117936562Y-69881505D01*
X117696451Y-69920605D01*
X117468582Y-70005798D01*
X117392148Y-70046652D01*
X117355001Y-70222217D01*
X117355001Y-69774800D01*
X117594803Y-69534999D01*
X121206177Y-69534999D01*
X121177750Y-69649960D01*
G37*
X121177750Y-69649960D02*
X121165188Y-69922492D01*
X121206035Y-70192238D01*
X121298723Y-70448832D01*
X121359140Y-70561863D01*
X121598007Y-70627388D01*
X122375395Y-69850000D01*
X122361253Y-69835858D01*
X122540858Y-69656253D01*
X122555000Y-69670395D01*
X122569143Y-69656253D01*
X122748748Y-69835858D01*
X122734605Y-69850000D01*
X123511993Y-70627388D01*
X123750860Y-70561863D01*
X123825164Y-70403523D01*
X123867629Y-70506043D01*
X124019201Y-70732886D01*
X124212114Y-70925799D01*
X124438957Y-71077371D01*
X124691011Y-71181775D01*
X124958589Y-71235000D01*
X125231411Y-71235000D01*
X125498989Y-71181775D01*
X125751043Y-71077371D01*
X125977886Y-70925799D01*
X126170799Y-70732886D01*
X126248555Y-70616517D01*
X126259188Y-70724482D01*
X126295498Y-70844180D01*
X126354463Y-70954494D01*
X126433815Y-71051185D01*
X126530506Y-71130537D01*
X126640820Y-71189502D01*
X126760518Y-71225812D01*
X126885000Y-71238072D01*
X128145001Y-71238072D01*
X128145001Y-71440197D01*
X127710200Y-71874999D01*
X123617323Y-71874999D01*
X123580000Y-71871323D01*
X123542677Y-71874999D01*
X123542668Y-71874999D01*
X123431015Y-71885996D01*
X123287754Y-71929453D01*
X123155725Y-72000025D01*
X123040000Y-72094998D01*
X123016202Y-72123996D01*
X122793843Y-72346355D01*
X122686486Y-72325000D01*
X122423514Y-72325000D01*
X122165595Y-72376304D01*
X121922641Y-72476939D01*
X121703987Y-72623038D01*
X121518038Y-72808987D01*
X121415398Y-72962599D01*
X120784849Y-72332050D01*
X120859180Y-72309502D01*
X120969494Y-72250537D01*
X121066185Y-72171185D01*
X121145537Y-72074494D01*
X121204502Y-71964180D01*
X121240812Y-71844482D01*
X121253072Y-71720000D01*
X121253072Y-70806993D01*
X121777612Y-70806993D01*
X121843137Y-71045860D01*
X122090116Y-71161760D01*
X122354960Y-71227250D01*
X122627492Y-71239812D01*
X122897238Y-71198965D01*
X123153832Y-71106277D01*
X123266863Y-71045860D01*
X123332388Y-70806993D01*
X122555000Y-70029605D01*
X121777612Y-70806993D01*
X121253072Y-70806993D01*
X121253072Y-70520000D01*
X121240812Y-70395518D01*
X121204502Y-70275820D01*
X121145537Y-70165506D01*
X121066185Y-70068815D01*
X120969494Y-69989463D01*
X120859180Y-69930498D01*
X120739482Y-69894188D01*
X120615000Y-69881928D01*
X119415000Y-69881928D01*
X119290518Y-69894188D01*
X119170820Y-69930498D01*
X119060506Y-69989463D01*
X118963815Y-70068815D01*
X118884463Y-70165506D01*
X118860142Y-70211006D01*
X118802264Y-70153128D01*
X118685158Y-70270234D01*
X118637852Y-70046652D01*
X118416484Y-69945763D01*
X118179687Y-69890000D01*
X117936562Y-69881505D01*
X117696451Y-69920605D01*
X117468582Y-70005798D01*
X117392148Y-70046652D01*
X117355001Y-70222217D01*
X117355001Y-69774800D01*
X117594803Y-69534999D01*
X121206177Y-69534999D01*
X121177750Y-69649960D01*
G36*
X132957120Y-49611980D02*
G01*
X133306516Y-50455496D01*
X133813760Y-51214640D01*
X133922341Y-51323221D01*
X117601822Y-51346100D01*
X117577224Y-51348540D01*
X117553399Y-51355767D01*
X117531443Y-51367503D01*
X117512197Y-51383297D01*
X117496403Y-51402543D01*
X117484667Y-51424499D01*
X117477440Y-51448324D01*
X117475000Y-51473100D01*
X117475000Y-56312608D01*
X116769001Y-56697698D01*
X116769001Y-54699204D01*
X116773355Y-54655000D01*
X116769001Y-54610794D01*
X116755978Y-54478570D01*
X116704515Y-54308920D01*
X116620944Y-54152569D01*
X116508476Y-54015526D01*
X116474136Y-53987344D01*
X116028058Y-53541266D01*
X116039000Y-53486260D01*
X116039000Y-53193740D01*
X115981932Y-52906842D01*
X115869990Y-52636589D01*
X115707475Y-52393368D01*
X115500632Y-52186525D01*
X115257411Y-52024010D01*
X114987158Y-51912068D01*
X114700260Y-51855000D01*
X114407740Y-51855000D01*
X114120842Y-51912068D01*
X113850589Y-52024010D01*
X113607368Y-52186525D01*
X113400525Y-52393368D01*
X113238010Y-52636589D01*
X113126068Y-52906842D01*
X113069000Y-53193740D01*
X113069000Y-53486260D01*
X113126068Y-53773158D01*
X113238010Y-54043411D01*
X113400525Y-54286632D01*
X113532380Y-54418487D01*
X113459820Y-54440498D01*
X113349506Y-54499463D01*
X113252815Y-54578815D01*
X113173463Y-54675506D01*
X113114498Y-54785820D01*
X113078188Y-54905518D01*
X113065928Y-55030000D01*
X113069000Y-55594250D01*
X113227750Y-55753000D01*
X114427000Y-55753000D01*
X114427000Y-55733000D01*
X114681000Y-55733000D01*
X114681000Y-55753000D01*
X114701000Y-55753000D01*
X114701000Y-56007000D01*
X114681000Y-56007000D01*
X114681000Y-56027000D01*
X114427000Y-56027000D01*
X114427000Y-56007000D01*
X113227750Y-56007000D01*
X113069000Y-56165750D01*
X113065928Y-56730000D01*
X113078188Y-56854482D01*
X113114498Y-56974180D01*
X113173463Y-57084494D01*
X113252815Y-57181185D01*
X113349506Y-57260537D01*
X113357108Y-57264600D01*
X113059865Y-57561843D01*
X113025525Y-57590025D01*
X112913057Y-57727069D01*
X112829486Y-57883420D01*
X112827967Y-57888428D01*
X112750241Y-57940363D01*
X112550363Y-58140241D01*
X112395000Y-58372759D01*
X112239637Y-58140241D01*
X112039759Y-57940363D01*
X111804727Y-57783320D01*
X111543574Y-57675147D01*
X111266335Y-57620000D01*
X110983665Y-57620000D01*
X110706426Y-57675147D01*
X110445273Y-57783320D01*
X110210241Y-57940363D01*
X110010363Y-58140241D01*
X109855000Y-58372759D01*
X109840326Y-58350798D01*
X109822849Y-58318100D01*
X109799328Y-58289440D01*
X109699637Y-58140241D01*
X109499759Y-57940363D01*
X109264727Y-57783320D01*
X109003574Y-57675147D01*
X108726335Y-57620000D01*
X108443665Y-57620000D01*
X108353946Y-57637846D01*
X109890928Y-56100865D01*
X109890928Y-56730000D01*
X109903188Y-56854482D01*
X109939498Y-56974180D01*
X109998463Y-57084494D01*
X110077815Y-57181185D01*
X110174506Y-57260537D01*
X110284820Y-57319502D01*
X110404518Y-57355812D01*
X110529000Y-57368072D01*
X112229000Y-57368072D01*
X112353482Y-57355812D01*
X112473180Y-57319502D01*
X112583494Y-57260537D01*
X112680185Y-57181185D01*
X112759537Y-57084494D01*
X112818502Y-56974180D01*
X112854812Y-56854482D01*
X112867072Y-56730000D01*
X112867072Y-55030000D01*
X112854812Y-54905518D01*
X112818502Y-54785820D01*
X112759537Y-54675506D01*
X112680185Y-54578815D01*
X112583494Y-54499463D01*
X112473180Y-54440498D01*
X112400620Y-54418487D01*
X112532475Y-54286632D01*
X112694990Y-54043411D01*
X112806932Y-53773158D01*
X112864000Y-53486260D01*
X112864000Y-53193740D01*
X112806932Y-52906842D01*
X112694990Y-52636589D01*
X112532475Y-52393368D01*
X112325632Y-52186525D01*
X112132976Y-52057796D01*
X112428640Y-51860240D01*
X113074240Y-51214640D01*
X113581484Y-50455496D01*
X113930880Y-49611980D01*
X114068523Y-48920000D01*
X132819477Y-48920000D01*
X132957120Y-49611980D01*
G37*
X132957120Y-49611980D02*
X133306516Y-50455496D01*
X133813760Y-51214640D01*
X133922341Y-51323221D01*
X117601822Y-51346100D01*
X117577224Y-51348540D01*
X117553399Y-51355767D01*
X117531443Y-51367503D01*
X117512197Y-51383297D01*
X117496403Y-51402543D01*
X117484667Y-51424499D01*
X117477440Y-51448324D01*
X117475000Y-51473100D01*
X117475000Y-56312608D01*
X116769001Y-56697698D01*
X116769001Y-54699204D01*
X116773355Y-54655000D01*
X116769001Y-54610794D01*
X116755978Y-54478570D01*
X116704515Y-54308920D01*
X116620944Y-54152569D01*
X116508476Y-54015526D01*
X116474136Y-53987344D01*
X116028058Y-53541266D01*
X116039000Y-53486260D01*
X116039000Y-53193740D01*
X115981932Y-52906842D01*
X115869990Y-52636589D01*
X115707475Y-52393368D01*
X115500632Y-52186525D01*
X115257411Y-52024010D01*
X114987158Y-51912068D01*
X114700260Y-51855000D01*
X114407740Y-51855000D01*
X114120842Y-51912068D01*
X113850589Y-52024010D01*
X113607368Y-52186525D01*
X113400525Y-52393368D01*
X113238010Y-52636589D01*
X113126068Y-52906842D01*
X113069000Y-53193740D01*
X113069000Y-53486260D01*
X113126068Y-53773158D01*
X113238010Y-54043411D01*
X113400525Y-54286632D01*
X113532380Y-54418487D01*
X113459820Y-54440498D01*
X113349506Y-54499463D01*
X113252815Y-54578815D01*
X113173463Y-54675506D01*
X113114498Y-54785820D01*
X113078188Y-54905518D01*
X113065928Y-55030000D01*
X113069000Y-55594250D01*
X113227750Y-55753000D01*
X114427000Y-55753000D01*
X114427000Y-55733000D01*
X114681000Y-55733000D01*
X114681000Y-55753000D01*
X114701000Y-55753000D01*
X114701000Y-56007000D01*
X114681000Y-56007000D01*
X114681000Y-56027000D01*
X114427000Y-56027000D01*
X114427000Y-56007000D01*
X113227750Y-56007000D01*
X113069000Y-56165750D01*
X113065928Y-56730000D01*
X113078188Y-56854482D01*
X113114498Y-56974180D01*
X113173463Y-57084494D01*
X113252815Y-57181185D01*
X113349506Y-57260537D01*
X113357108Y-57264600D01*
X113059865Y-57561843D01*
X113025525Y-57590025D01*
X112913057Y-57727069D01*
X112829486Y-57883420D01*
X112827967Y-57888428D01*
X112750241Y-57940363D01*
X112550363Y-58140241D01*
X112395000Y-58372759D01*
X112239637Y-58140241D01*
X112039759Y-57940363D01*
X111804727Y-57783320D01*
X111543574Y-57675147D01*
X111266335Y-57620000D01*
X110983665Y-57620000D01*
X110706426Y-57675147D01*
X110445273Y-57783320D01*
X110210241Y-57940363D01*
X110010363Y-58140241D01*
X109855000Y-58372759D01*
X109840326Y-58350798D01*
X109822849Y-58318100D01*
X109799328Y-58289440D01*
X109699637Y-58140241D01*
X109499759Y-57940363D01*
X109264727Y-57783320D01*
X109003574Y-57675147D01*
X108726335Y-57620000D01*
X108443665Y-57620000D01*
X108353946Y-57637846D01*
X109890928Y-56100865D01*
X109890928Y-56730000D01*
X109903188Y-56854482D01*
X109939498Y-56974180D01*
X109998463Y-57084494D01*
X110077815Y-57181185D01*
X110174506Y-57260537D01*
X110284820Y-57319502D01*
X110404518Y-57355812D01*
X110529000Y-57368072D01*
X112229000Y-57368072D01*
X112353482Y-57355812D01*
X112473180Y-57319502D01*
X112583494Y-57260537D01*
X112680185Y-57181185D01*
X112759537Y-57084494D01*
X112818502Y-56974180D01*
X112854812Y-56854482D01*
X112867072Y-56730000D01*
X112867072Y-55030000D01*
X112854812Y-54905518D01*
X112818502Y-54785820D01*
X112759537Y-54675506D01*
X112680185Y-54578815D01*
X112583494Y-54499463D01*
X112473180Y-54440498D01*
X112400620Y-54418487D01*
X112532475Y-54286632D01*
X112694990Y-54043411D01*
X112806932Y-53773158D01*
X112864000Y-53486260D01*
X112864000Y-53193740D01*
X112806932Y-52906842D01*
X112694990Y-52636589D01*
X112532475Y-52393368D01*
X112325632Y-52186525D01*
X112132976Y-52057796D01*
X112428640Y-51860240D01*
X113074240Y-51214640D01*
X113581484Y-50455496D01*
X113930880Y-49611980D01*
X114068523Y-48920000D01*
X132819477Y-48920000D01*
X132957120Y-49611980D01*
G36*
X105017120Y-49611980D02*
G01*
X105366516Y-50455496D01*
X105873760Y-51214640D01*
X106461048Y-51801928D01*
X105145000Y-51801928D01*
X105020518Y-51814188D01*
X104900820Y-51850498D01*
X104790506Y-51909463D01*
X104693815Y-51988815D01*
X104614463Y-52085506D01*
X104555498Y-52195820D01*
X104549944Y-52214127D01*
X104483505Y-52147688D01*
X104232095Y-51979701D01*
X103952743Y-51863989D01*
X103656184Y-51805000D01*
X103353816Y-51805000D01*
X103057257Y-51863989D01*
X102777905Y-51979701D01*
X102526495Y-52147688D01*
X102312688Y-52361495D01*
X102144701Y-52612905D01*
X102028989Y-52892257D01*
X102002201Y-53026930D01*
X100990000Y-54039132D01*
X100990000Y-48927275D01*
X100990666Y-48920487D01*
X100995301Y-48920000D01*
X104879477Y-48920000D01*
X105017120Y-49611980D01*
G37*
X105017120Y-49611980D02*
X105366516Y-50455496D01*
X105873760Y-51214640D01*
X106461048Y-51801928D01*
X105145000Y-51801928D01*
X105020518Y-51814188D01*
X104900820Y-51850498D01*
X104790506Y-51909463D01*
X104693815Y-51988815D01*
X104614463Y-52085506D01*
X104555498Y-52195820D01*
X104549944Y-52214127D01*
X104483505Y-52147688D01*
X104232095Y-51979701D01*
X103952743Y-51863989D01*
X103656184Y-51805000D01*
X103353816Y-51805000D01*
X103057257Y-51863989D01*
X102777905Y-51979701D01*
X102526495Y-52147688D01*
X102312688Y-52361495D01*
X102144701Y-52612905D01*
X102028989Y-52892257D01*
X102002201Y-53026930D01*
X100990000Y-54039132D01*
X100990000Y-48927275D01*
X100990666Y-48920487D01*
X100995301Y-48920000D01*
X104879477Y-48920000D01*
X105017120Y-49611980D01*
M02*
