G04 #@! TF.GenerationSoftware,KiCad,Pcbnew,(5.1.6-0-10_14)*
G04 #@! TF.CreationDate,2021-04-02T14:20:53+01:00*
G04 #@! TF.ProjectId,WiFive55,57694669-7665-4353-952e-6b696361645f,0.10*
G04 #@! TF.SameCoordinates,Original*
G04 #@! TF.FileFunction,Copper,L1,Top*
G04 #@! TF.FilePolarity,Positive*
%FSLAX46Y46*%
G04 Gerber Fmt 4.6, Leading zero omitted, Abs format (unit mm)*
G04 Created by KiCad (PCBNEW (5.1.6-0-10_14)) date 2021-04-02 14:20:53*
%MOMM*%
%LPD*%
G01*
G04 APERTURE LIST*
G04 #@! TA.AperFunction,ComponentPad*
%ADD10C,1.600000*%
G04 #@! TD*
G04 #@! TA.AperFunction,ComponentPad*
%ADD11R,1.600000X1.600000*%
G04 #@! TD*
G04 #@! TA.AperFunction,ComponentPad*
%ADD12C,1.200000*%
G04 #@! TD*
G04 #@! TA.AperFunction,ComponentPad*
%ADD13R,1.200000X1.200000*%
G04 #@! TD*
G04 #@! TA.AperFunction,ComponentPad*
%ADD14O,1.400000X1.400000*%
G04 #@! TD*
G04 #@! TA.AperFunction,ComponentPad*
%ADD15C,1.400000*%
G04 #@! TD*
G04 #@! TA.AperFunction,ComponentPad*
%ADD16C,0.900000*%
G04 #@! TD*
G04 #@! TA.AperFunction,ComponentPad*
%ADD17C,8.000000*%
G04 #@! TD*
G04 #@! TA.AperFunction,ComponentPad*
%ADD18O,1.905000X2.000000*%
G04 #@! TD*
G04 #@! TA.AperFunction,ComponentPad*
%ADD19R,1.905000X2.000000*%
G04 #@! TD*
G04 #@! TA.AperFunction,ComponentPad*
%ADD20R,1.500000X1.500000*%
G04 #@! TD*
G04 #@! TA.AperFunction,ComponentPad*
%ADD21C,1.500000*%
G04 #@! TD*
G04 #@! TA.AperFunction,ComponentPad*
%ADD22O,1.700000X1.700000*%
G04 #@! TD*
G04 #@! TA.AperFunction,ComponentPad*
%ADD23R,1.700000X1.700000*%
G04 #@! TD*
G04 #@! TA.AperFunction,SMDPad,CuDef*
%ADD24C,0.500000*%
G04 #@! TD*
G04 #@! TA.AperFunction,ComponentPad*
%ADD25O,1.727200X1.727200*%
G04 #@! TD*
G04 #@! TA.AperFunction,ComponentPad*
%ADD26R,1.727200X1.727200*%
G04 #@! TD*
G04 #@! TA.AperFunction,ComponentPad*
%ADD27O,1.600000X1.600000*%
G04 #@! TD*
G04 #@! TA.AperFunction,ComponentPad*
%ADD28C,1.800000*%
G04 #@! TD*
G04 #@! TA.AperFunction,ComponentPad*
%ADD29R,1.800000X1.800000*%
G04 #@! TD*
G04 #@! TA.AperFunction,ComponentPad*
%ADD30C,3.000000*%
G04 #@! TD*
G04 #@! TA.AperFunction,ComponentPad*
%ADD31R,3.000000X3.000000*%
G04 #@! TD*
G04 #@! TA.AperFunction,ComponentPad*
%ADD32O,1.800000X1.800000*%
G04 #@! TD*
G04 #@! TA.AperFunction,ComponentPad*
%ADD33O,2.000000X3.000000*%
G04 #@! TD*
G04 #@! TA.AperFunction,ComponentPad*
%ADD34R,2.000000X3.000000*%
G04 #@! TD*
G04 #@! TA.AperFunction,ComponentPad*
%ADD35C,1.778000*%
G04 #@! TD*
G04 #@! TA.AperFunction,Conductor*
%ADD36C,0.400000*%
G04 #@! TD*
G04 #@! TA.AperFunction,Conductor*
%ADD37C,0.800000*%
G04 #@! TD*
G04 #@! TA.AperFunction,Conductor*
%ADD38C,1.380000*%
G04 #@! TD*
G04 #@! TA.AperFunction,Conductor*
%ADD39C,1.370000*%
G04 #@! TD*
G04 #@! TA.AperFunction,Conductor*
%ADD40C,0.250000*%
G04 #@! TD*
G04 #@! TA.AperFunction,Conductor*
%ADD41C,0.254000*%
G04 #@! TD*
G04 APERTURE END LIST*
D10*
X119340000Y-92075000D03*
D11*
X116840000Y-92075000D03*
D10*
X125135000Y-92075000D03*
D11*
X127635000Y-92075000D03*
D12*
X118015000Y-71120000D03*
D13*
X120015000Y-71120000D03*
D14*
X122555000Y-90805000D03*
D15*
X122555000Y-93345000D03*
D14*
X115570000Y-69850000D03*
D15*
X115570000Y-72390000D03*
D16*
X135038680Y-50381320D03*
X137160000Y-51260000D03*
X139281320Y-50381320D03*
X140160000Y-48260000D03*
X139281320Y-46138680D03*
X137160000Y-45260000D03*
X135038680Y-46138680D03*
X134160000Y-48260000D03*
D17*
X137160000Y-48260000D03*
D16*
X107098680Y-50381320D03*
X109220000Y-51260000D03*
X111341320Y-50381320D03*
X112220000Y-48260000D03*
X111341320Y-46138680D03*
X109220000Y-45260000D03*
X107098680Y-46138680D03*
X106220000Y-48260000D03*
D17*
X109220000Y-48260000D03*
G04 #@! TA.AperFunction,SMDPad,CuDef*
G36*
G01*
X109700000Y-52590000D02*
X109700000Y-54090000D01*
G75*
G02*
X109450000Y-54340000I-250000J0D01*
G01*
X108950000Y-54340000D01*
G75*
G02*
X108700000Y-54090000I0J250000D01*
G01*
X108700000Y-52590000D01*
G75*
G02*
X108950000Y-52340000I250000J0D01*
G01*
X109450000Y-52340000D01*
G75*
G02*
X109700000Y-52590000I0J-250000D01*
G01*
G37*
G04 #@! TD.AperFunction*
G04 #@! TA.AperFunction,SMDPad,CuDef*
G36*
G01*
X137025000Y-52590000D02*
X137025000Y-54090000D01*
G75*
G02*
X136775000Y-54340000I-250000J0D01*
G01*
X136275000Y-54340000D01*
G75*
G02*
X136025000Y-54090000I0J250000D01*
G01*
X136025000Y-52590000D01*
G75*
G02*
X136275000Y-52340000I250000J0D01*
G01*
X136775000Y-52340000D01*
G75*
G02*
X137025000Y-52590000I0J-250000D01*
G01*
G37*
G04 #@! TD.AperFunction*
D18*
X113665000Y-64135000D03*
X111125000Y-64135000D03*
D19*
X108585000Y-64135000D03*
D20*
X135255000Y-69850000D03*
D21*
X130175000Y-69850000D03*
X132715000Y-69850000D03*
D20*
X127635000Y-69850000D03*
D21*
X122555000Y-69850000D03*
X125095000Y-69850000D03*
D22*
X111760000Y-53340000D03*
D23*
X111760000Y-55880000D03*
D22*
X114935000Y-53340000D03*
D23*
X114935000Y-55880000D03*
D14*
X122555000Y-85090000D03*
D15*
X122555000Y-87630000D03*
D14*
X122555000Y-73660000D03*
D15*
X122555000Y-76200000D03*
D14*
X128905000Y-73660000D03*
D15*
X128905000Y-76200000D03*
D14*
X128905000Y-79375000D03*
D15*
X128905000Y-81915000D03*
D14*
X128905000Y-85090000D03*
D15*
X128905000Y-87630000D03*
D14*
X112395000Y-69850000D03*
D15*
X112395000Y-72390000D03*
D14*
X122555000Y-79375000D03*
D15*
X122555000Y-81915000D03*
D14*
X109220000Y-69850000D03*
D15*
X109220000Y-72390000D03*
D24*
X139065000Y-56515000D03*
X108585000Y-92075000D03*
X139065000Y-92075000D03*
D20*
X131445000Y-93345000D03*
D21*
X136525000Y-93345000D03*
X133985000Y-93345000D03*
D22*
X106045000Y-76200000D03*
X106045000Y-78740000D03*
X106045000Y-81280000D03*
X106045000Y-83820000D03*
X106045000Y-86360000D03*
X106045000Y-88900000D03*
X106045000Y-91440000D03*
D23*
X106045000Y-93980000D03*
D22*
X103505000Y-76200000D03*
X103505000Y-78740000D03*
X103505000Y-81280000D03*
X103505000Y-83820000D03*
X103505000Y-86360000D03*
X103505000Y-88900000D03*
X103505000Y-91440000D03*
D23*
X103505000Y-93980000D03*
D22*
X103505000Y-55880000D03*
X103505000Y-58420000D03*
X103505000Y-60960000D03*
X103505000Y-63500000D03*
D23*
X103505000Y-66040000D03*
D25*
X113665000Y-84455000D03*
X111125000Y-84455000D03*
X113665000Y-81915000D03*
X111125000Y-81915000D03*
X113665000Y-79375000D03*
X111125000Y-79375000D03*
X113665000Y-76835000D03*
D26*
X111125000Y-76835000D03*
D10*
X113665000Y-93305000D03*
X113665000Y-90805000D03*
D27*
X107315000Y-59055000D03*
X114935000Y-66675000D03*
X109855000Y-59055000D03*
X112395000Y-66675000D03*
X112395000Y-59055000D03*
X109855000Y-66675000D03*
X114935000Y-59055000D03*
D11*
X107315000Y-66675000D03*
D28*
X104140000Y-53340000D03*
D29*
X106680000Y-53340000D03*
D30*
X142240000Y-64770000D03*
X142240000Y-59690000D03*
D31*
X142240000Y-54610000D03*
D32*
X135890000Y-73025000D03*
D29*
X135890000Y-75565000D03*
D32*
X135890000Y-85090000D03*
D29*
X135890000Y-87630000D03*
D32*
X135890000Y-79375000D03*
D29*
X135890000Y-81915000D03*
D33*
X134620000Y-59690000D03*
X132080000Y-59690000D03*
X124460000Y-59690000D03*
D34*
X119380000Y-59690000D03*
D35*
X144145000Y-86360000D03*
X141605000Y-86360000D03*
X139065000Y-86360000D03*
X139065000Y-93980000D03*
X144145000Y-93980000D03*
X139065000Y-83185000D03*
X141605000Y-83185000D03*
X144145000Y-83185000D03*
X144145000Y-75565000D03*
X139065000Y-75565000D03*
D30*
X119380000Y-59690000D03*
X121380000Y-53690000D03*
X133580000Y-53690000D03*
X133580000Y-65690000D03*
X121380000Y-65690000D03*
D10*
X130850000Y-89535000D03*
X133350000Y-89535000D03*
D36*
X100965000Y-73025000D02*
X100965000Y-83185000D01*
X100965000Y-73660000D02*
X100965000Y-73025000D01*
X101600000Y-83820000D02*
X103505000Y-83820000D01*
X100965000Y-83185000D02*
X101600000Y-83820000D01*
X100965000Y-73025000D02*
X100965000Y-55245000D01*
X102870000Y-53340000D02*
X104140000Y-53340000D01*
X100965000Y-55245000D02*
X102870000Y-53340000D01*
X130175000Y-74930000D02*
X128905000Y-76200000D01*
X130175000Y-69850000D02*
X130175000Y-74930000D01*
X128270000Y-85090000D02*
X128905000Y-85090000D01*
X122555000Y-90805000D02*
X128270000Y-85090000D01*
X122555000Y-90805000D02*
X121285000Y-89535000D01*
X100965000Y-93980000D02*
X102215001Y-95230001D01*
X102215001Y-95230001D02*
X114954999Y-95230001D01*
X100965000Y-84455000D02*
X100965000Y-93980000D01*
X101600000Y-83820000D02*
X100965000Y-84455000D01*
X116840000Y-90170000D02*
X117475000Y-89535000D01*
X116840000Y-92075000D02*
X116840000Y-90170000D01*
X121285000Y-89535000D02*
X117475000Y-89535000D01*
X116840000Y-92075000D02*
X116840000Y-94615000D01*
X116840000Y-94615000D02*
X116205000Y-95250000D01*
X116185001Y-95230001D02*
X114954999Y-95230001D01*
X116205000Y-95250000D02*
X116185001Y-95230001D01*
X131445000Y-94615000D02*
X130810000Y-95250000D01*
X133350000Y-89535000D02*
X131445000Y-91440000D01*
X131445000Y-91440000D02*
X131445000Y-93345000D01*
X131445000Y-94615000D02*
X131445000Y-93345000D01*
X142855999Y-95269001D02*
X132099001Y-95269001D01*
X132099001Y-95269001D02*
X131445000Y-94615000D01*
X144145000Y-93980000D02*
X142855999Y-95269001D01*
X106045000Y-76200000D02*
X106045000Y-78740000D01*
X106045000Y-78740000D02*
X106045000Y-81280000D01*
X106045000Y-81280000D02*
X106045000Y-83820000D01*
X106045000Y-83820000D02*
X106045000Y-86360000D01*
D37*
X103703002Y-66040000D02*
X103505000Y-66040000D01*
D38*
X113665000Y-64135000D02*
X113665000Y-64120793D01*
D39*
X105240001Y-64304999D02*
X103505000Y-66040000D01*
X105240001Y-63934497D02*
X105240001Y-64304999D01*
X106924499Y-62249999D02*
X105240001Y-63934497D01*
X111787135Y-62249999D02*
X106924499Y-62249999D01*
X112892510Y-63355374D02*
X111787135Y-62249999D01*
X112892510Y-63362510D02*
X112892510Y-63355374D01*
X113665000Y-64135000D02*
X112892510Y-63362510D01*
D37*
X116335001Y-57280001D02*
X114935000Y-55880000D01*
X116335001Y-61464999D02*
X116335001Y-57280001D01*
X113665000Y-64135000D02*
X116335001Y-61464999D01*
D36*
X119285000Y-69850000D02*
X122555000Y-69850000D01*
X118015000Y-71120000D02*
X119285000Y-69850000D01*
X118015000Y-72485000D02*
X116600020Y-73899980D01*
X118015000Y-71120000D02*
X118015000Y-72485000D01*
X116600020Y-73899980D02*
X113665000Y-76835000D01*
X107896271Y-69576273D02*
X104359998Y-66040000D01*
X108932456Y-73899980D02*
X107896271Y-72863795D01*
X104359998Y-66040000D02*
X103505000Y-66040000D01*
X107896271Y-72863795D02*
X107896271Y-69576273D01*
X116600020Y-73899980D02*
X108932456Y-73899980D01*
X125135000Y-92075000D02*
X125135000Y-94655000D01*
X125135000Y-94655000D02*
X125730000Y-95250000D01*
X125730000Y-95250000D02*
X130810000Y-95250000D01*
X114865001Y-92104999D02*
X114865001Y-88969999D01*
X113665000Y-93305000D02*
X114865001Y-92104999D01*
X116205000Y-87630000D02*
X117475000Y-87630000D01*
X114865001Y-88969999D02*
X116205000Y-87630000D01*
X117475000Y-87630000D02*
X117059998Y-87630000D01*
X122555000Y-87630000D02*
X117475000Y-87630000D01*
D40*
X123580001Y-76832997D02*
X123580001Y-75707999D01*
X122555000Y-81915000D02*
X121529999Y-80889999D01*
X123580001Y-75707999D02*
X122678501Y-74806499D01*
X121529999Y-80889999D02*
X121529999Y-78882999D01*
X121529999Y-78882999D02*
X123580001Y-76832997D01*
X120015000Y-72637002D02*
X120015000Y-71120000D01*
X122184497Y-74806499D02*
X120015000Y-72637002D01*
X122678501Y-74806499D02*
X122184497Y-74806499D01*
X103599999Y-76764001D02*
X103599999Y-75635999D01*
X104680001Y-75024999D02*
X103505000Y-76200000D01*
X109314999Y-75024999D02*
X104680001Y-75024999D01*
X111125000Y-76835000D02*
X109314999Y-75024999D01*
X122555000Y-76200000D02*
X119380000Y-79375000D01*
X119380000Y-79375000D02*
X113665000Y-79375000D01*
D36*
X122230001Y-66109999D02*
X122650000Y-65690000D01*
X137190001Y-74264999D02*
X135890000Y-75565000D01*
X137190001Y-73055001D02*
X137190001Y-74264999D01*
X137190001Y-73649001D02*
X137190001Y-73055001D01*
X121595001Y-66109999D02*
X122015000Y-65690000D01*
X121164999Y-65474999D02*
X121380000Y-65690000D01*
X126080000Y-65690000D02*
X121380000Y-65690000D01*
X132080000Y-59690000D02*
X126080000Y-65690000D01*
X117825000Y-65690000D02*
X121380000Y-65690000D01*
X115639999Y-67875001D02*
X117825000Y-65690000D01*
X111055001Y-67875001D02*
X115639999Y-67875001D01*
X109855000Y-66675000D02*
X111055001Y-67875001D01*
X132715000Y-60264998D02*
X132715000Y-59690000D01*
X135199903Y-61590010D02*
X133980010Y-61590010D01*
X136525000Y-60264913D02*
X135199903Y-61590010D01*
X133350000Y-60960000D02*
X137190001Y-64800001D01*
X137190001Y-73055001D02*
X137190001Y-64800001D01*
X133980010Y-61590010D02*
X133350000Y-60960000D01*
X133350000Y-60960000D02*
X132080000Y-59690000D01*
X136525000Y-60264913D02*
X136525000Y-52070000D01*
D40*
X131975001Y-88409999D02*
X130850000Y-89535000D01*
X133890001Y-88409999D02*
X139065000Y-93584998D01*
X139065000Y-93584998D02*
X139065000Y-93980000D01*
X131975001Y-88409999D02*
X133890001Y-88409999D01*
X128412999Y-84064999D02*
X129397001Y-84064999D01*
X125912987Y-86565011D02*
X128412999Y-84064999D01*
X130850000Y-85517998D02*
X130850000Y-89535000D01*
X109936399Y-85025529D02*
X111475881Y-86565011D01*
X111475881Y-86565011D02*
X125912987Y-86565011D01*
X109936399Y-83103601D02*
X109936399Y-85025529D01*
X129397001Y-84064999D02*
X130850000Y-85517998D01*
X111125000Y-81915000D02*
X109936399Y-83103601D01*
X112395000Y-66675000D02*
X114935000Y-66675000D01*
X108729999Y-67215001D02*
X108729999Y-66184999D01*
X128620000Y-53690000D02*
X121380000Y-53690000D01*
X134620000Y-59690000D02*
X128620000Y-53690000D01*
X121920000Y-61595000D02*
X118565011Y-64949989D01*
X121380000Y-54070000D02*
X121920000Y-54610000D01*
X121920000Y-54610000D02*
X121920000Y-61595000D01*
X121380000Y-53690000D02*
X121380000Y-54070000D01*
X109364999Y-65549999D02*
X117054979Y-65549999D01*
X118565011Y-64949989D02*
X117654989Y-64949989D01*
X108729999Y-66184999D02*
X109364999Y-65549999D01*
X117054979Y-65549999D02*
X117654989Y-64949989D01*
X104140000Y-58420000D02*
X103505000Y-58420000D01*
X103505000Y-58420000D02*
X104775000Y-57150000D01*
D36*
X109220000Y-52070000D02*
X109220000Y-56515000D01*
D40*
X109220000Y-56515000D02*
X108805011Y-56929989D01*
X104995011Y-56929989D02*
X103505000Y-58420000D01*
X108805011Y-56929989D02*
X104995011Y-56929989D01*
X109220000Y-69850000D02*
X109220000Y-67705002D01*
X109220000Y-67705002D02*
X109022499Y-67507501D01*
X108729999Y-67215001D02*
X109022499Y-67507501D01*
X123580001Y-72634999D02*
X122555000Y-73660000D01*
X126935003Y-72634999D02*
X126120001Y-72634999D01*
X126120001Y-72634999D02*
X123580001Y-72634999D01*
X128905000Y-71755000D02*
X128025001Y-72634999D01*
X128905000Y-69215000D02*
X128905000Y-71755000D01*
X129345001Y-68774999D02*
X128905000Y-69215000D01*
X131639999Y-68774999D02*
X129345001Y-68774999D01*
X128025001Y-72634999D02*
X126120001Y-72634999D01*
X132715000Y-69850000D02*
X131639999Y-68774999D01*
X122555000Y-79375000D02*
X125095000Y-79375000D01*
X125095000Y-79375000D02*
X127000000Y-77470000D01*
X135255000Y-71367002D02*
X135255000Y-69850000D01*
X129152002Y-77470000D02*
X135255000Y-71367002D01*
X127000000Y-77470000D02*
X129152002Y-77470000D01*
X110554471Y-78186399D02*
X112313601Y-78186399D01*
X109036379Y-79704491D02*
X110554471Y-78186399D01*
X109036379Y-87178621D02*
X109036379Y-79704491D01*
X134375001Y-80400001D02*
X135890000Y-81915000D01*
X127878589Y-80400001D02*
X134375001Y-80400001D01*
X125338589Y-82940001D02*
X127878589Y-80400001D01*
X119298601Y-80563601D02*
X121675001Y-82940001D01*
X113094471Y-80563601D02*
X119298601Y-80563601D01*
X121675001Y-82940001D02*
X125338589Y-82940001D01*
X112313601Y-79782731D02*
X113094471Y-80563601D01*
X112313601Y-78186399D02*
X112313601Y-79782731D01*
X108490001Y-87724999D02*
X109036379Y-87178621D01*
X104680001Y-87724999D02*
X108490001Y-87724999D01*
X103505000Y-88900000D02*
X104680001Y-87724999D01*
X102329999Y-64675001D02*
X103505000Y-63500000D01*
X102329999Y-67150001D02*
X102329999Y-64675001D01*
X102489998Y-67310000D02*
X102329999Y-67150001D01*
X107371261Y-69793739D02*
X104887522Y-67310000D01*
X104887522Y-67310000D02*
X102489998Y-67310000D01*
X112313601Y-75711399D02*
X111027192Y-74424990D01*
X107371261Y-73081261D02*
X107371261Y-69793739D01*
X108714990Y-74424990D02*
X107371261Y-73081261D01*
X111027192Y-74424990D02*
X108714990Y-74424990D01*
X112313601Y-78186399D02*
X112313601Y-75711399D01*
X134620000Y-83820000D02*
X135890000Y-85090000D01*
X133740001Y-82940001D02*
X134620000Y-83820000D01*
X126120001Y-84064999D02*
X127244999Y-82940001D01*
X127244999Y-82940001D02*
X133740001Y-82940001D01*
X114055001Y-84064999D02*
X126120001Y-84064999D01*
X113665000Y-84455000D02*
X114055001Y-84064999D01*
D37*
X114694998Y-53340000D02*
X114935000Y-53340000D01*
X113484999Y-54549999D02*
X114694998Y-53340000D01*
X113484999Y-57604999D02*
X113484999Y-54549999D01*
X114935000Y-59055000D02*
X113484999Y-57604999D01*
D40*
X115932487Y-68324989D02*
X126109989Y-68324989D01*
X109220000Y-72390000D02*
X110245001Y-71364999D01*
X110880001Y-68824999D02*
X115432477Y-68824999D01*
X126109989Y-68324989D02*
X127635000Y-69850000D01*
X110245001Y-69459999D02*
X110880001Y-68824999D01*
X115432477Y-68824999D02*
X115932487Y-68324989D01*
X110245001Y-71364999D02*
X110245001Y-69459999D01*
D39*
X103724999Y-60740001D02*
X103505000Y-60960000D01*
X108169999Y-60740001D02*
X103724999Y-60740001D01*
X109855000Y-59055000D02*
X108169999Y-60740001D01*
D40*
X107330000Y-59070000D02*
X107315000Y-59055000D01*
D37*
X108715001Y-57654999D02*
X107315000Y-59055000D01*
X109985001Y-57654999D02*
X108715001Y-57654999D01*
X110309999Y-57330001D02*
X109985001Y-57654999D01*
X110557919Y-53340000D02*
X110309999Y-53587920D01*
X110309999Y-53587920D02*
X110309999Y-57330001D01*
X111760000Y-53340000D02*
X110557919Y-53340000D01*
D40*
X132715000Y-84455000D02*
X135890000Y-87630000D01*
X127431399Y-83390011D02*
X131650011Y-83390011D01*
X124706409Y-86115001D02*
X127431399Y-83390011D01*
X113565871Y-86115001D02*
X124706409Y-86115001D01*
X112476399Y-81507269D02*
X112476399Y-85025529D01*
X111695529Y-80726399D02*
X112476399Y-81507269D01*
X102940999Y-90075001D02*
X108577777Y-90075001D01*
X110554471Y-80726399D02*
X111695529Y-80726399D01*
X131650011Y-83390011D02*
X132715000Y-84455000D01*
X109486389Y-81794481D02*
X110554471Y-80726399D01*
X102329999Y-87535001D02*
X102329999Y-89464001D01*
X108577777Y-90075001D02*
X109486389Y-89166389D01*
X102329999Y-89464001D02*
X102940999Y-90075001D01*
X103505000Y-86360000D02*
X102329999Y-87535001D01*
X112476399Y-85025529D02*
X113565871Y-86115001D01*
X109486389Y-89166389D02*
X109486389Y-81794481D01*
X135255000Y-79375000D02*
X139065000Y-75565000D01*
X115364989Y-83614989D02*
X113665000Y-81915000D01*
X128025001Y-80889999D02*
X125300011Y-83614989D01*
X132479997Y-80889999D02*
X128025001Y-80889999D01*
X125300011Y-83614989D02*
X115364989Y-83614989D01*
X137115001Y-80600001D02*
X137115001Y-83075001D01*
X134980009Y-83390011D02*
X132479997Y-80889999D01*
X135890000Y-79375000D02*
X137115001Y-80600001D01*
X136799991Y-83390011D02*
X134980009Y-83390011D01*
X137115001Y-83075001D02*
X136799991Y-83390011D01*
X125095000Y-69850000D02*
X124019999Y-68774999D01*
X116595001Y-69459999D02*
X117280001Y-68774999D01*
X116595001Y-71364999D02*
X116595001Y-69459999D01*
X115570000Y-72390000D02*
X116595001Y-71364999D01*
X117280001Y-68774999D02*
X124019999Y-68774999D01*
D41*
G36*
X137714449Y-83906885D02*
G01*
X137881232Y-84156493D01*
X138093507Y-84368768D01*
X138343115Y-84535551D01*
X138620466Y-84650434D01*
X138914899Y-84709000D01*
X139215101Y-84709000D01*
X139509534Y-84650434D01*
X139786885Y-84535551D01*
X140036493Y-84368768D01*
X140248768Y-84156493D01*
X140335000Y-84027438D01*
X140421232Y-84156493D01*
X140633507Y-84368768D01*
X140883115Y-84535551D01*
X141160466Y-84650434D01*
X141454899Y-84709000D01*
X141755101Y-84709000D01*
X142049534Y-84650434D01*
X142326885Y-84535551D01*
X142576493Y-84368768D01*
X142788768Y-84156493D01*
X142875000Y-84027438D01*
X142961232Y-84156493D01*
X143173507Y-84368768D01*
X143423115Y-84535551D01*
X143700466Y-84650434D01*
X143994899Y-84709000D01*
X144295101Y-84709000D01*
X144589534Y-84650434D01*
X144866885Y-84535551D01*
X145116493Y-84368768D01*
X145328768Y-84156493D01*
X145390001Y-84064852D01*
X145390001Y-85480148D01*
X145328768Y-85388507D01*
X145116493Y-85176232D01*
X144866885Y-85009449D01*
X144589534Y-84894566D01*
X144295101Y-84836000D01*
X143994899Y-84836000D01*
X143700466Y-84894566D01*
X143423115Y-85009449D01*
X143173507Y-85176232D01*
X142961232Y-85388507D01*
X142875000Y-85517562D01*
X142788768Y-85388507D01*
X142576493Y-85176232D01*
X142326885Y-85009449D01*
X142049534Y-84894566D01*
X141755101Y-84836000D01*
X141454899Y-84836000D01*
X141160466Y-84894566D01*
X140883115Y-85009449D01*
X140633507Y-85176232D01*
X140421232Y-85388507D01*
X140335000Y-85517562D01*
X140248768Y-85388507D01*
X140036493Y-85176232D01*
X139786885Y-85009449D01*
X139509534Y-84894566D01*
X139215101Y-84836000D01*
X138914899Y-84836000D01*
X138620466Y-84894566D01*
X138343115Y-85009449D01*
X138093507Y-85176232D01*
X137881232Y-85388507D01*
X137714449Y-85638115D01*
X137599566Y-85915466D01*
X137541000Y-86209899D01*
X137541000Y-86510101D01*
X137599566Y-86804534D01*
X137714449Y-87081885D01*
X137881232Y-87331493D01*
X138093507Y-87543768D01*
X138343115Y-87710551D01*
X138620466Y-87825434D01*
X138914899Y-87884000D01*
X139215101Y-87884000D01*
X139509534Y-87825434D01*
X139786885Y-87710551D01*
X140036493Y-87543768D01*
X140248768Y-87331493D01*
X140335000Y-87202438D01*
X140421232Y-87331493D01*
X140633507Y-87543768D01*
X140883115Y-87710551D01*
X141160466Y-87825434D01*
X141454899Y-87884000D01*
X141755101Y-87884000D01*
X142049534Y-87825434D01*
X142326885Y-87710551D01*
X142576493Y-87543768D01*
X142788768Y-87331493D01*
X142875000Y-87202438D01*
X142961232Y-87331493D01*
X143173507Y-87543768D01*
X143423115Y-87710551D01*
X143700466Y-87825434D01*
X143994899Y-87884000D01*
X144295101Y-87884000D01*
X144589534Y-87825434D01*
X144866885Y-87710551D01*
X145116493Y-87543768D01*
X145328768Y-87331493D01*
X145390001Y-87239852D01*
X145390001Y-93164806D01*
X145201231Y-93103374D01*
X144324605Y-93980000D01*
X145201231Y-94856626D01*
X145390001Y-94795194D01*
X145390001Y-95217715D01*
X145389335Y-95224513D01*
X145384699Y-95225000D01*
X144960195Y-95225000D01*
X145021626Y-95036231D01*
X144145000Y-94159605D01*
X143268374Y-95036231D01*
X143329805Y-95225000D01*
X139944853Y-95225000D01*
X140036493Y-95163768D01*
X140248768Y-94951493D01*
X140415551Y-94701885D01*
X140530434Y-94424534D01*
X140589000Y-94130101D01*
X140589000Y-94046988D01*
X142615092Y-94046988D01*
X142657557Y-94344171D01*
X142757184Y-94627359D01*
X142835711Y-94774273D01*
X143088769Y-94856626D01*
X143965395Y-93980000D01*
X143088769Y-93103374D01*
X142835711Y-93185727D01*
X142705914Y-93456418D01*
X142631420Y-93747230D01*
X142615092Y-94046988D01*
X140589000Y-94046988D01*
X140589000Y-93829899D01*
X140530434Y-93535466D01*
X140415551Y-93258115D01*
X140248768Y-93008507D01*
X140164030Y-92923769D01*
X143268374Y-92923769D01*
X144145000Y-93800395D01*
X145021626Y-92923769D01*
X144939273Y-92670711D01*
X144668582Y-92540914D01*
X144377770Y-92466420D01*
X144078012Y-92450092D01*
X143780829Y-92492557D01*
X143497641Y-92592184D01*
X143350727Y-92670711D01*
X143268374Y-92923769D01*
X140164030Y-92923769D01*
X140036493Y-92796232D01*
X139786885Y-92629449D01*
X139764974Y-92620373D01*
X139849277Y-92494205D01*
X139915990Y-92333145D01*
X139950000Y-92162165D01*
X139950000Y-91987835D01*
X139915990Y-91816855D01*
X139849277Y-91655795D01*
X139752424Y-91510845D01*
X139629155Y-91387576D01*
X139484205Y-91290723D01*
X139323145Y-91224010D01*
X139152165Y-91190000D01*
X138977835Y-91190000D01*
X138806855Y-91224010D01*
X138645795Y-91290723D01*
X138500845Y-91387576D01*
X138377576Y-91510845D01*
X138280723Y-91655795D01*
X138260184Y-91705380D01*
X135722875Y-89168072D01*
X136790000Y-89168072D01*
X136914482Y-89155812D01*
X137034180Y-89119502D01*
X137144494Y-89060537D01*
X137241185Y-88981185D01*
X137320537Y-88884494D01*
X137379502Y-88774180D01*
X137415812Y-88654482D01*
X137428072Y-88530000D01*
X137428072Y-86730000D01*
X137415812Y-86605518D01*
X137379502Y-86485820D01*
X137320537Y-86375506D01*
X137241185Y-86278815D01*
X137144494Y-86199463D01*
X137034180Y-86140498D01*
X137015873Y-86134944D01*
X137082312Y-86068505D01*
X137250299Y-85817095D01*
X137366011Y-85537743D01*
X137425000Y-85241184D01*
X137425000Y-84938816D01*
X137366011Y-84642257D01*
X137250299Y-84362905D01*
X137082312Y-84111495D01*
X137072394Y-84101577D01*
X137092238Y-84095557D01*
X137224267Y-84024985D01*
X137339992Y-83930012D01*
X137363794Y-83901009D01*
X137610023Y-83654780D01*
X137714449Y-83906885D01*
G37*
X137714449Y-83906885D02*
X137881232Y-84156493D01*
X138093507Y-84368768D01*
X138343115Y-84535551D01*
X138620466Y-84650434D01*
X138914899Y-84709000D01*
X139215101Y-84709000D01*
X139509534Y-84650434D01*
X139786885Y-84535551D01*
X140036493Y-84368768D01*
X140248768Y-84156493D01*
X140335000Y-84027438D01*
X140421232Y-84156493D01*
X140633507Y-84368768D01*
X140883115Y-84535551D01*
X141160466Y-84650434D01*
X141454899Y-84709000D01*
X141755101Y-84709000D01*
X142049534Y-84650434D01*
X142326885Y-84535551D01*
X142576493Y-84368768D01*
X142788768Y-84156493D01*
X142875000Y-84027438D01*
X142961232Y-84156493D01*
X143173507Y-84368768D01*
X143423115Y-84535551D01*
X143700466Y-84650434D01*
X143994899Y-84709000D01*
X144295101Y-84709000D01*
X144589534Y-84650434D01*
X144866885Y-84535551D01*
X145116493Y-84368768D01*
X145328768Y-84156493D01*
X145390001Y-84064852D01*
X145390001Y-85480148D01*
X145328768Y-85388507D01*
X145116493Y-85176232D01*
X144866885Y-85009449D01*
X144589534Y-84894566D01*
X144295101Y-84836000D01*
X143994899Y-84836000D01*
X143700466Y-84894566D01*
X143423115Y-85009449D01*
X143173507Y-85176232D01*
X142961232Y-85388507D01*
X142875000Y-85517562D01*
X142788768Y-85388507D01*
X142576493Y-85176232D01*
X142326885Y-85009449D01*
X142049534Y-84894566D01*
X141755101Y-84836000D01*
X141454899Y-84836000D01*
X141160466Y-84894566D01*
X140883115Y-85009449D01*
X140633507Y-85176232D01*
X140421232Y-85388507D01*
X140335000Y-85517562D01*
X140248768Y-85388507D01*
X140036493Y-85176232D01*
X139786885Y-85009449D01*
X139509534Y-84894566D01*
X139215101Y-84836000D01*
X138914899Y-84836000D01*
X138620466Y-84894566D01*
X138343115Y-85009449D01*
X138093507Y-85176232D01*
X137881232Y-85388507D01*
X137714449Y-85638115D01*
X137599566Y-85915466D01*
X137541000Y-86209899D01*
X137541000Y-86510101D01*
X137599566Y-86804534D01*
X137714449Y-87081885D01*
X137881232Y-87331493D01*
X138093507Y-87543768D01*
X138343115Y-87710551D01*
X138620466Y-87825434D01*
X138914899Y-87884000D01*
X139215101Y-87884000D01*
X139509534Y-87825434D01*
X139786885Y-87710551D01*
X140036493Y-87543768D01*
X140248768Y-87331493D01*
X140335000Y-87202438D01*
X140421232Y-87331493D01*
X140633507Y-87543768D01*
X140883115Y-87710551D01*
X141160466Y-87825434D01*
X141454899Y-87884000D01*
X141755101Y-87884000D01*
X142049534Y-87825434D01*
X142326885Y-87710551D01*
X142576493Y-87543768D01*
X142788768Y-87331493D01*
X142875000Y-87202438D01*
X142961232Y-87331493D01*
X143173507Y-87543768D01*
X143423115Y-87710551D01*
X143700466Y-87825434D01*
X143994899Y-87884000D01*
X144295101Y-87884000D01*
X144589534Y-87825434D01*
X144866885Y-87710551D01*
X145116493Y-87543768D01*
X145328768Y-87331493D01*
X145390001Y-87239852D01*
X145390001Y-93164806D01*
X145201231Y-93103374D01*
X144324605Y-93980000D01*
X145201231Y-94856626D01*
X145390001Y-94795194D01*
X145390001Y-95217715D01*
X145389335Y-95224513D01*
X145384699Y-95225000D01*
X144960195Y-95225000D01*
X145021626Y-95036231D01*
X144145000Y-94159605D01*
X143268374Y-95036231D01*
X143329805Y-95225000D01*
X139944853Y-95225000D01*
X140036493Y-95163768D01*
X140248768Y-94951493D01*
X140415551Y-94701885D01*
X140530434Y-94424534D01*
X140589000Y-94130101D01*
X140589000Y-94046988D01*
X142615092Y-94046988D01*
X142657557Y-94344171D01*
X142757184Y-94627359D01*
X142835711Y-94774273D01*
X143088769Y-94856626D01*
X143965395Y-93980000D01*
X143088769Y-93103374D01*
X142835711Y-93185727D01*
X142705914Y-93456418D01*
X142631420Y-93747230D01*
X142615092Y-94046988D01*
X140589000Y-94046988D01*
X140589000Y-93829899D01*
X140530434Y-93535466D01*
X140415551Y-93258115D01*
X140248768Y-93008507D01*
X140164030Y-92923769D01*
X143268374Y-92923769D01*
X144145000Y-93800395D01*
X145021626Y-92923769D01*
X144939273Y-92670711D01*
X144668582Y-92540914D01*
X144377770Y-92466420D01*
X144078012Y-92450092D01*
X143780829Y-92492557D01*
X143497641Y-92592184D01*
X143350727Y-92670711D01*
X143268374Y-92923769D01*
X140164030Y-92923769D01*
X140036493Y-92796232D01*
X139786885Y-92629449D01*
X139764974Y-92620373D01*
X139849277Y-92494205D01*
X139915990Y-92333145D01*
X139950000Y-92162165D01*
X139950000Y-91987835D01*
X139915990Y-91816855D01*
X139849277Y-91655795D01*
X139752424Y-91510845D01*
X139629155Y-91387576D01*
X139484205Y-91290723D01*
X139323145Y-91224010D01*
X139152165Y-91190000D01*
X138977835Y-91190000D01*
X138806855Y-91224010D01*
X138645795Y-91290723D01*
X138500845Y-91387576D01*
X138377576Y-91510845D01*
X138280723Y-91655795D01*
X138260184Y-91705380D01*
X135722875Y-89168072D01*
X136790000Y-89168072D01*
X136914482Y-89155812D01*
X137034180Y-89119502D01*
X137144494Y-89060537D01*
X137241185Y-88981185D01*
X137320537Y-88884494D01*
X137379502Y-88774180D01*
X137415812Y-88654482D01*
X137428072Y-88530000D01*
X137428072Y-86730000D01*
X137415812Y-86605518D01*
X137379502Y-86485820D01*
X137320537Y-86375506D01*
X137241185Y-86278815D01*
X137144494Y-86199463D01*
X137034180Y-86140498D01*
X137015873Y-86134944D01*
X137082312Y-86068505D01*
X137250299Y-85817095D01*
X137366011Y-85537743D01*
X137425000Y-85241184D01*
X137425000Y-84938816D01*
X137366011Y-84642257D01*
X137250299Y-84362905D01*
X137082312Y-84111495D01*
X137072394Y-84101577D01*
X137092238Y-84095557D01*
X137224267Y-84024985D01*
X137339992Y-83930012D01*
X137363794Y-83901009D01*
X137610023Y-83654780D01*
X137714449Y-83906885D01*
G36*
X128272641Y-86273061D02*
G01*
X128482530Y-86360000D01*
X128272641Y-86446939D01*
X128053987Y-86593038D01*
X127868038Y-86778987D01*
X127721939Y-86997641D01*
X127621304Y-87240595D01*
X127570000Y-87498514D01*
X127570000Y-87761486D01*
X127621304Y-88019405D01*
X127721939Y-88262359D01*
X127868038Y-88481013D01*
X128053987Y-88666962D01*
X128272641Y-88813061D01*
X128515595Y-88913696D01*
X128773514Y-88965000D01*
X129036486Y-88965000D01*
X129294405Y-88913696D01*
X129537359Y-88813061D01*
X129662311Y-88729571D01*
X129578320Y-88855273D01*
X129470147Y-89116426D01*
X129415000Y-89393665D01*
X129415000Y-89676335D01*
X129470147Y-89953574D01*
X129578320Y-90214727D01*
X129735363Y-90449759D01*
X129935241Y-90649637D01*
X130170273Y-90806680D01*
X130431426Y-90914853D01*
X130708665Y-90970000D01*
X130991335Y-90970000D01*
X131268574Y-90914853D01*
X131529727Y-90806680D01*
X131764759Y-90649637D01*
X131886694Y-90527702D01*
X132536903Y-90527702D01*
X132608486Y-90771671D01*
X132863996Y-90892571D01*
X133138184Y-90961300D01*
X133420512Y-90975217D01*
X133700130Y-90933787D01*
X133966292Y-90838603D01*
X134091514Y-90771671D01*
X134163097Y-90527702D01*
X133350000Y-89714605D01*
X132536903Y-90527702D01*
X131886694Y-90527702D01*
X131964637Y-90449759D01*
X132098692Y-90249131D01*
X132113329Y-90276514D01*
X132357298Y-90348097D01*
X133170395Y-89535000D01*
X133156253Y-89520858D01*
X133335858Y-89341253D01*
X133350000Y-89355395D01*
X133364143Y-89341253D01*
X133543748Y-89520858D01*
X133529605Y-89535000D01*
X134342702Y-90348097D01*
X134586671Y-90276514D01*
X134617198Y-90211998D01*
X136369081Y-91963880D01*
X136121011Y-92013225D01*
X135868957Y-92117629D01*
X135642114Y-92269201D01*
X135449201Y-92462114D01*
X135297629Y-92688957D01*
X135255000Y-92791873D01*
X135212371Y-92688957D01*
X135060799Y-92462114D01*
X134867886Y-92269201D01*
X134641043Y-92117629D01*
X134388989Y-92013225D01*
X134121411Y-91960000D01*
X133848589Y-91960000D01*
X133581011Y-92013225D01*
X133328957Y-92117629D01*
X133102114Y-92269201D01*
X132909201Y-92462114D01*
X132831445Y-92578483D01*
X132820812Y-92470518D01*
X132784502Y-92350820D01*
X132725537Y-92240506D01*
X132646185Y-92143815D01*
X132549494Y-92064463D01*
X132439180Y-92005498D01*
X132319482Y-91969188D01*
X132195000Y-91956928D01*
X131730750Y-91960000D01*
X131572000Y-92118750D01*
X131572000Y-93218000D01*
X131592000Y-93218000D01*
X131592000Y-93472000D01*
X131572000Y-93472000D01*
X131572000Y-94571250D01*
X131730750Y-94730000D01*
X132195000Y-94733072D01*
X132319482Y-94720812D01*
X132439180Y-94684502D01*
X132549494Y-94625537D01*
X132646185Y-94546185D01*
X132725537Y-94449494D01*
X132784502Y-94339180D01*
X132820812Y-94219482D01*
X132831445Y-94111517D01*
X132909201Y-94227886D01*
X133102114Y-94420799D01*
X133328957Y-94572371D01*
X133581011Y-94676775D01*
X133848589Y-94730000D01*
X134121411Y-94730000D01*
X134388989Y-94676775D01*
X134641043Y-94572371D01*
X134867886Y-94420799D01*
X135060799Y-94227886D01*
X135212371Y-94001043D01*
X135255000Y-93898127D01*
X135297629Y-94001043D01*
X135449201Y-94227886D01*
X135642114Y-94420799D01*
X135868957Y-94572371D01*
X136121011Y-94676775D01*
X136388589Y-94730000D01*
X136661411Y-94730000D01*
X136928989Y-94676775D01*
X137181043Y-94572371D01*
X137407886Y-94420799D01*
X137567145Y-94261540D01*
X137599566Y-94424534D01*
X137714449Y-94701885D01*
X137881232Y-94951493D01*
X138093507Y-95163768D01*
X138185147Y-95225000D01*
X117412931Y-95225000D01*
X117433291Y-95208291D01*
X117461619Y-95173774D01*
X117537636Y-95081146D01*
X117615172Y-94936087D01*
X117622657Y-94911413D01*
X117662918Y-94778689D01*
X117675000Y-94656019D01*
X117675000Y-94656018D01*
X117679040Y-94615000D01*
X117675000Y-94573982D01*
X117675000Y-93509625D01*
X117764482Y-93500812D01*
X117884180Y-93464502D01*
X117994494Y-93405537D01*
X118091185Y-93326185D01*
X118170537Y-93229494D01*
X118229502Y-93119180D01*
X118245117Y-93067702D01*
X118526903Y-93067702D01*
X118598486Y-93311671D01*
X118853996Y-93432571D01*
X119128184Y-93501300D01*
X119410512Y-93515217D01*
X119690130Y-93473787D01*
X119956292Y-93378603D01*
X120081514Y-93311671D01*
X120153097Y-93067702D01*
X119340000Y-92254605D01*
X118526903Y-93067702D01*
X118245117Y-93067702D01*
X118265812Y-92999482D01*
X118278072Y-92875000D01*
X118278072Y-92867785D01*
X118347298Y-92888097D01*
X119160395Y-92075000D01*
X119519605Y-92075000D01*
X120332702Y-92888097D01*
X120576671Y-92816514D01*
X120697571Y-92561004D01*
X120766300Y-92286816D01*
X120780217Y-92004488D01*
X120738787Y-91724870D01*
X120643603Y-91458708D01*
X120576671Y-91333486D01*
X120332702Y-91261903D01*
X119519605Y-92075000D01*
X119160395Y-92075000D01*
X118347298Y-91261903D01*
X118278072Y-91282215D01*
X118278072Y-91275000D01*
X118265812Y-91150518D01*
X118245118Y-91082298D01*
X118526903Y-91082298D01*
X119340000Y-91895395D01*
X120153097Y-91082298D01*
X120081514Y-90838329D01*
X119826004Y-90717429D01*
X119551816Y-90648700D01*
X119269488Y-90634783D01*
X118989870Y-90676213D01*
X118723708Y-90771397D01*
X118598486Y-90838329D01*
X118526903Y-91082298D01*
X118245118Y-91082298D01*
X118229502Y-91030820D01*
X118170537Y-90920506D01*
X118091185Y-90823815D01*
X117994494Y-90744463D01*
X117884180Y-90685498D01*
X117764482Y-90649188D01*
X117675000Y-90640375D01*
X117675000Y-90515868D01*
X117820868Y-90370000D01*
X120939133Y-90370000D01*
X121223757Y-90654625D01*
X121220000Y-90673514D01*
X121220000Y-90936486D01*
X121271304Y-91194405D01*
X121371939Y-91437359D01*
X121518038Y-91656013D01*
X121703987Y-91841962D01*
X121922641Y-91988061D01*
X122132530Y-92075000D01*
X121922641Y-92161939D01*
X121703987Y-92308038D01*
X121518038Y-92493987D01*
X121371939Y-92712641D01*
X121271304Y-92955595D01*
X121220000Y-93213514D01*
X121220000Y-93476486D01*
X121271304Y-93734405D01*
X121371939Y-93977359D01*
X121518038Y-94196013D01*
X121703987Y-94381962D01*
X121922641Y-94528061D01*
X122165595Y-94628696D01*
X122423514Y-94680000D01*
X122686486Y-94680000D01*
X122944405Y-94628696D01*
X123187359Y-94528061D01*
X123406013Y-94381962D01*
X123591962Y-94196013D01*
X123659456Y-94095000D01*
X130056928Y-94095000D01*
X130069188Y-94219482D01*
X130105498Y-94339180D01*
X130164463Y-94449494D01*
X130243815Y-94546185D01*
X130340506Y-94625537D01*
X130450820Y-94684502D01*
X130570518Y-94720812D01*
X130695000Y-94733072D01*
X131159250Y-94730000D01*
X131318000Y-94571250D01*
X131318000Y-93472000D01*
X130218750Y-93472000D01*
X130060000Y-93630750D01*
X130056928Y-94095000D01*
X123659456Y-94095000D01*
X123738061Y-93977359D01*
X123838696Y-93734405D01*
X123890000Y-93476486D01*
X123890000Y-93213514D01*
X123860996Y-93067702D01*
X124321903Y-93067702D01*
X124393486Y-93311671D01*
X124648996Y-93432571D01*
X124923184Y-93501300D01*
X125205512Y-93515217D01*
X125485130Y-93473787D01*
X125751292Y-93378603D01*
X125876514Y-93311671D01*
X125948097Y-93067702D01*
X125135000Y-92254605D01*
X124321903Y-93067702D01*
X123860996Y-93067702D01*
X123838696Y-92955595D01*
X123738061Y-92712641D01*
X123591962Y-92493987D01*
X123406013Y-92308038D01*
X123187359Y-92161939D01*
X123147701Y-92145512D01*
X123694783Y-92145512D01*
X123736213Y-92425130D01*
X123831397Y-92691292D01*
X123898329Y-92816514D01*
X124142298Y-92888097D01*
X124955395Y-92075000D01*
X125314605Y-92075000D01*
X126127702Y-92888097D01*
X126196928Y-92867785D01*
X126196928Y-92875000D01*
X126209188Y-92999482D01*
X126245498Y-93119180D01*
X126304463Y-93229494D01*
X126383815Y-93326185D01*
X126480506Y-93405537D01*
X126590820Y-93464502D01*
X126710518Y-93500812D01*
X126835000Y-93513072D01*
X128435000Y-93513072D01*
X128559482Y-93500812D01*
X128679180Y-93464502D01*
X128789494Y-93405537D01*
X128886185Y-93326185D01*
X128965537Y-93229494D01*
X129024502Y-93119180D01*
X129060812Y-92999482D01*
X129073072Y-92875000D01*
X129073072Y-92595000D01*
X130056928Y-92595000D01*
X130060000Y-93059250D01*
X130218750Y-93218000D01*
X131318000Y-93218000D01*
X131318000Y-92118750D01*
X131159250Y-91960000D01*
X130695000Y-91956928D01*
X130570518Y-91969188D01*
X130450820Y-92005498D01*
X130340506Y-92064463D01*
X130243815Y-92143815D01*
X130164463Y-92240506D01*
X130105498Y-92350820D01*
X130069188Y-92470518D01*
X130056928Y-92595000D01*
X129073072Y-92595000D01*
X129073072Y-91275000D01*
X129060812Y-91150518D01*
X129024502Y-91030820D01*
X128965537Y-90920506D01*
X128886185Y-90823815D01*
X128789494Y-90744463D01*
X128679180Y-90685498D01*
X128559482Y-90649188D01*
X128435000Y-90636928D01*
X126835000Y-90636928D01*
X126710518Y-90649188D01*
X126590820Y-90685498D01*
X126480506Y-90744463D01*
X126383815Y-90823815D01*
X126304463Y-90920506D01*
X126245498Y-91030820D01*
X126209188Y-91150518D01*
X126196928Y-91275000D01*
X126196928Y-91282215D01*
X126127702Y-91261903D01*
X125314605Y-92075000D01*
X124955395Y-92075000D01*
X124142298Y-91261903D01*
X123898329Y-91333486D01*
X123777429Y-91588996D01*
X123708700Y-91863184D01*
X123694783Y-92145512D01*
X123147701Y-92145512D01*
X122977470Y-92075000D01*
X123187359Y-91988061D01*
X123406013Y-91841962D01*
X123591962Y-91656013D01*
X123738061Y-91437359D01*
X123838696Y-91194405D01*
X123860995Y-91082298D01*
X124321903Y-91082298D01*
X125135000Y-91895395D01*
X125948097Y-91082298D01*
X125876514Y-90838329D01*
X125621004Y-90717429D01*
X125346816Y-90648700D01*
X125064488Y-90634783D01*
X124784870Y-90676213D01*
X124518708Y-90771397D01*
X124393486Y-90838329D01*
X124321903Y-91082298D01*
X123860995Y-91082298D01*
X123890000Y-90936486D01*
X123890000Y-90673514D01*
X123886243Y-90654625D01*
X128269744Y-86271125D01*
X128272641Y-86273061D01*
G37*
X128272641Y-86273061D02*
X128482530Y-86360000D01*
X128272641Y-86446939D01*
X128053987Y-86593038D01*
X127868038Y-86778987D01*
X127721939Y-86997641D01*
X127621304Y-87240595D01*
X127570000Y-87498514D01*
X127570000Y-87761486D01*
X127621304Y-88019405D01*
X127721939Y-88262359D01*
X127868038Y-88481013D01*
X128053987Y-88666962D01*
X128272641Y-88813061D01*
X128515595Y-88913696D01*
X128773514Y-88965000D01*
X129036486Y-88965000D01*
X129294405Y-88913696D01*
X129537359Y-88813061D01*
X129662311Y-88729571D01*
X129578320Y-88855273D01*
X129470147Y-89116426D01*
X129415000Y-89393665D01*
X129415000Y-89676335D01*
X129470147Y-89953574D01*
X129578320Y-90214727D01*
X129735363Y-90449759D01*
X129935241Y-90649637D01*
X130170273Y-90806680D01*
X130431426Y-90914853D01*
X130708665Y-90970000D01*
X130991335Y-90970000D01*
X131268574Y-90914853D01*
X131529727Y-90806680D01*
X131764759Y-90649637D01*
X131886694Y-90527702D01*
X132536903Y-90527702D01*
X132608486Y-90771671D01*
X132863996Y-90892571D01*
X133138184Y-90961300D01*
X133420512Y-90975217D01*
X133700130Y-90933787D01*
X133966292Y-90838603D01*
X134091514Y-90771671D01*
X134163097Y-90527702D01*
X133350000Y-89714605D01*
X132536903Y-90527702D01*
X131886694Y-90527702D01*
X131964637Y-90449759D01*
X132098692Y-90249131D01*
X132113329Y-90276514D01*
X132357298Y-90348097D01*
X133170395Y-89535000D01*
X133156253Y-89520858D01*
X133335858Y-89341253D01*
X133350000Y-89355395D01*
X133364143Y-89341253D01*
X133543748Y-89520858D01*
X133529605Y-89535000D01*
X134342702Y-90348097D01*
X134586671Y-90276514D01*
X134617198Y-90211998D01*
X136369081Y-91963880D01*
X136121011Y-92013225D01*
X135868957Y-92117629D01*
X135642114Y-92269201D01*
X135449201Y-92462114D01*
X135297629Y-92688957D01*
X135255000Y-92791873D01*
X135212371Y-92688957D01*
X135060799Y-92462114D01*
X134867886Y-92269201D01*
X134641043Y-92117629D01*
X134388989Y-92013225D01*
X134121411Y-91960000D01*
X133848589Y-91960000D01*
X133581011Y-92013225D01*
X133328957Y-92117629D01*
X133102114Y-92269201D01*
X132909201Y-92462114D01*
X132831445Y-92578483D01*
X132820812Y-92470518D01*
X132784502Y-92350820D01*
X132725537Y-92240506D01*
X132646185Y-92143815D01*
X132549494Y-92064463D01*
X132439180Y-92005498D01*
X132319482Y-91969188D01*
X132195000Y-91956928D01*
X131730750Y-91960000D01*
X131572000Y-92118750D01*
X131572000Y-93218000D01*
X131592000Y-93218000D01*
X131592000Y-93472000D01*
X131572000Y-93472000D01*
X131572000Y-94571250D01*
X131730750Y-94730000D01*
X132195000Y-94733072D01*
X132319482Y-94720812D01*
X132439180Y-94684502D01*
X132549494Y-94625537D01*
X132646185Y-94546185D01*
X132725537Y-94449494D01*
X132784502Y-94339180D01*
X132820812Y-94219482D01*
X132831445Y-94111517D01*
X132909201Y-94227886D01*
X133102114Y-94420799D01*
X133328957Y-94572371D01*
X133581011Y-94676775D01*
X133848589Y-94730000D01*
X134121411Y-94730000D01*
X134388989Y-94676775D01*
X134641043Y-94572371D01*
X134867886Y-94420799D01*
X135060799Y-94227886D01*
X135212371Y-94001043D01*
X135255000Y-93898127D01*
X135297629Y-94001043D01*
X135449201Y-94227886D01*
X135642114Y-94420799D01*
X135868957Y-94572371D01*
X136121011Y-94676775D01*
X136388589Y-94730000D01*
X136661411Y-94730000D01*
X136928989Y-94676775D01*
X137181043Y-94572371D01*
X137407886Y-94420799D01*
X137567145Y-94261540D01*
X137599566Y-94424534D01*
X137714449Y-94701885D01*
X137881232Y-94951493D01*
X138093507Y-95163768D01*
X138185147Y-95225000D01*
X117412931Y-95225000D01*
X117433291Y-95208291D01*
X117461619Y-95173774D01*
X117537636Y-95081146D01*
X117615172Y-94936087D01*
X117622657Y-94911413D01*
X117662918Y-94778689D01*
X117675000Y-94656019D01*
X117675000Y-94656018D01*
X117679040Y-94615000D01*
X117675000Y-94573982D01*
X117675000Y-93509625D01*
X117764482Y-93500812D01*
X117884180Y-93464502D01*
X117994494Y-93405537D01*
X118091185Y-93326185D01*
X118170537Y-93229494D01*
X118229502Y-93119180D01*
X118245117Y-93067702D01*
X118526903Y-93067702D01*
X118598486Y-93311671D01*
X118853996Y-93432571D01*
X119128184Y-93501300D01*
X119410512Y-93515217D01*
X119690130Y-93473787D01*
X119956292Y-93378603D01*
X120081514Y-93311671D01*
X120153097Y-93067702D01*
X119340000Y-92254605D01*
X118526903Y-93067702D01*
X118245117Y-93067702D01*
X118265812Y-92999482D01*
X118278072Y-92875000D01*
X118278072Y-92867785D01*
X118347298Y-92888097D01*
X119160395Y-92075000D01*
X119519605Y-92075000D01*
X120332702Y-92888097D01*
X120576671Y-92816514D01*
X120697571Y-92561004D01*
X120766300Y-92286816D01*
X120780217Y-92004488D01*
X120738787Y-91724870D01*
X120643603Y-91458708D01*
X120576671Y-91333486D01*
X120332702Y-91261903D01*
X119519605Y-92075000D01*
X119160395Y-92075000D01*
X118347298Y-91261903D01*
X118278072Y-91282215D01*
X118278072Y-91275000D01*
X118265812Y-91150518D01*
X118245118Y-91082298D01*
X118526903Y-91082298D01*
X119340000Y-91895395D01*
X120153097Y-91082298D01*
X120081514Y-90838329D01*
X119826004Y-90717429D01*
X119551816Y-90648700D01*
X119269488Y-90634783D01*
X118989870Y-90676213D01*
X118723708Y-90771397D01*
X118598486Y-90838329D01*
X118526903Y-91082298D01*
X118245118Y-91082298D01*
X118229502Y-91030820D01*
X118170537Y-90920506D01*
X118091185Y-90823815D01*
X117994494Y-90744463D01*
X117884180Y-90685498D01*
X117764482Y-90649188D01*
X117675000Y-90640375D01*
X117675000Y-90515868D01*
X117820868Y-90370000D01*
X120939133Y-90370000D01*
X121223757Y-90654625D01*
X121220000Y-90673514D01*
X121220000Y-90936486D01*
X121271304Y-91194405D01*
X121371939Y-91437359D01*
X121518038Y-91656013D01*
X121703987Y-91841962D01*
X121922641Y-91988061D01*
X122132530Y-92075000D01*
X121922641Y-92161939D01*
X121703987Y-92308038D01*
X121518038Y-92493987D01*
X121371939Y-92712641D01*
X121271304Y-92955595D01*
X121220000Y-93213514D01*
X121220000Y-93476486D01*
X121271304Y-93734405D01*
X121371939Y-93977359D01*
X121518038Y-94196013D01*
X121703987Y-94381962D01*
X121922641Y-94528061D01*
X122165595Y-94628696D01*
X122423514Y-94680000D01*
X122686486Y-94680000D01*
X122944405Y-94628696D01*
X123187359Y-94528061D01*
X123406013Y-94381962D01*
X123591962Y-94196013D01*
X123659456Y-94095000D01*
X130056928Y-94095000D01*
X130069188Y-94219482D01*
X130105498Y-94339180D01*
X130164463Y-94449494D01*
X130243815Y-94546185D01*
X130340506Y-94625537D01*
X130450820Y-94684502D01*
X130570518Y-94720812D01*
X130695000Y-94733072D01*
X131159250Y-94730000D01*
X131318000Y-94571250D01*
X131318000Y-93472000D01*
X130218750Y-93472000D01*
X130060000Y-93630750D01*
X130056928Y-94095000D01*
X123659456Y-94095000D01*
X123738061Y-93977359D01*
X123838696Y-93734405D01*
X123890000Y-93476486D01*
X123890000Y-93213514D01*
X123860996Y-93067702D01*
X124321903Y-93067702D01*
X124393486Y-93311671D01*
X124648996Y-93432571D01*
X124923184Y-93501300D01*
X125205512Y-93515217D01*
X125485130Y-93473787D01*
X125751292Y-93378603D01*
X125876514Y-93311671D01*
X125948097Y-93067702D01*
X125135000Y-92254605D01*
X124321903Y-93067702D01*
X123860996Y-93067702D01*
X123838696Y-92955595D01*
X123738061Y-92712641D01*
X123591962Y-92493987D01*
X123406013Y-92308038D01*
X123187359Y-92161939D01*
X123147701Y-92145512D01*
X123694783Y-92145512D01*
X123736213Y-92425130D01*
X123831397Y-92691292D01*
X123898329Y-92816514D01*
X124142298Y-92888097D01*
X124955395Y-92075000D01*
X125314605Y-92075000D01*
X126127702Y-92888097D01*
X126196928Y-92867785D01*
X126196928Y-92875000D01*
X126209188Y-92999482D01*
X126245498Y-93119180D01*
X126304463Y-93229494D01*
X126383815Y-93326185D01*
X126480506Y-93405537D01*
X126590820Y-93464502D01*
X126710518Y-93500812D01*
X126835000Y-93513072D01*
X128435000Y-93513072D01*
X128559482Y-93500812D01*
X128679180Y-93464502D01*
X128789494Y-93405537D01*
X128886185Y-93326185D01*
X128965537Y-93229494D01*
X129024502Y-93119180D01*
X129060812Y-92999482D01*
X129073072Y-92875000D01*
X129073072Y-92595000D01*
X130056928Y-92595000D01*
X130060000Y-93059250D01*
X130218750Y-93218000D01*
X131318000Y-93218000D01*
X131318000Y-92118750D01*
X131159250Y-91960000D01*
X130695000Y-91956928D01*
X130570518Y-91969188D01*
X130450820Y-92005498D01*
X130340506Y-92064463D01*
X130243815Y-92143815D01*
X130164463Y-92240506D01*
X130105498Y-92350820D01*
X130069188Y-92470518D01*
X130056928Y-92595000D01*
X129073072Y-92595000D01*
X129073072Y-91275000D01*
X129060812Y-91150518D01*
X129024502Y-91030820D01*
X128965537Y-90920506D01*
X128886185Y-90823815D01*
X128789494Y-90744463D01*
X128679180Y-90685498D01*
X128559482Y-90649188D01*
X128435000Y-90636928D01*
X126835000Y-90636928D01*
X126710518Y-90649188D01*
X126590820Y-90685498D01*
X126480506Y-90744463D01*
X126383815Y-90823815D01*
X126304463Y-90920506D01*
X126245498Y-91030820D01*
X126209188Y-91150518D01*
X126196928Y-91275000D01*
X126196928Y-91282215D01*
X126127702Y-91261903D01*
X125314605Y-92075000D01*
X124955395Y-92075000D01*
X124142298Y-91261903D01*
X123898329Y-91333486D01*
X123777429Y-91588996D01*
X123708700Y-91863184D01*
X123694783Y-92145512D01*
X123147701Y-92145512D01*
X122977470Y-92075000D01*
X123187359Y-91988061D01*
X123406013Y-91841962D01*
X123591962Y-91656013D01*
X123738061Y-91437359D01*
X123838696Y-91194405D01*
X123860995Y-91082298D01*
X124321903Y-91082298D01*
X125135000Y-91895395D01*
X125948097Y-91082298D01*
X125876514Y-90838329D01*
X125621004Y-90717429D01*
X125346816Y-90648700D01*
X125064488Y-90634783D01*
X124784870Y-90676213D01*
X124518708Y-90771397D01*
X124393486Y-90838329D01*
X124321903Y-91082298D01*
X123860995Y-91082298D01*
X123890000Y-90936486D01*
X123890000Y-90673514D01*
X123886243Y-90654625D01*
X128269744Y-86271125D01*
X128272641Y-86273061D01*
G36*
X110912082Y-87076014D02*
G01*
X110935880Y-87105012D01*
X111051605Y-87199985D01*
X111183634Y-87270557D01*
X111326895Y-87314014D01*
X111438548Y-87325011D01*
X111438557Y-87325011D01*
X111475880Y-87328687D01*
X111513203Y-87325011D01*
X121255257Y-87325011D01*
X121226817Y-87441740D01*
X121215610Y-87704473D01*
X121255875Y-87964344D01*
X121346065Y-88211366D01*
X121399963Y-88312203D01*
X121633731Y-88371664D01*
X122375395Y-87630000D01*
X122361253Y-87615858D01*
X122540858Y-87436253D01*
X122555000Y-87450395D01*
X122569143Y-87436253D01*
X122748748Y-87615858D01*
X122734605Y-87630000D01*
X123476269Y-88371664D01*
X123710037Y-88312203D01*
X123820934Y-88073758D01*
X123883183Y-87818260D01*
X123894390Y-87555527D01*
X123858673Y-87325011D01*
X124854121Y-87325011D01*
X122705375Y-89473757D01*
X122686486Y-89470000D01*
X122423514Y-89470000D01*
X122404625Y-89473757D01*
X121904446Y-88973579D01*
X121878291Y-88941709D01*
X121751146Y-88837364D01*
X121606087Y-88759828D01*
X121448689Y-88712082D01*
X121326019Y-88700000D01*
X121326018Y-88700000D01*
X121285000Y-88695960D01*
X121243982Y-88700000D01*
X117516018Y-88700000D01*
X117475000Y-88695960D01*
X117433982Y-88700000D01*
X117433981Y-88700000D01*
X117311311Y-88712082D01*
X117182966Y-88751015D01*
X117153913Y-88759828D01*
X117008854Y-88837364D01*
X116932286Y-88900202D01*
X116881709Y-88941709D01*
X116855562Y-88973569D01*
X116278573Y-89550559D01*
X116246710Y-89576709D01*
X116209591Y-89621939D01*
X116142364Y-89703855D01*
X116064828Y-89848914D01*
X116017082Y-90006312D01*
X116000960Y-90170000D01*
X116005001Y-90211028D01*
X116005001Y-90640375D01*
X115915518Y-90649188D01*
X115795820Y-90685498D01*
X115685506Y-90744463D01*
X115588815Y-90823815D01*
X115509463Y-90920506D01*
X115450498Y-91030820D01*
X115414188Y-91150518D01*
X115401928Y-91275000D01*
X115401928Y-92875000D01*
X115414188Y-92999482D01*
X115450498Y-93119180D01*
X115509463Y-93229494D01*
X115588815Y-93326185D01*
X115685506Y-93405537D01*
X115795820Y-93464502D01*
X115915518Y-93500812D01*
X116005001Y-93509625D01*
X116005001Y-94269131D01*
X115879131Y-94395001D01*
X114449548Y-94395001D01*
X114478097Y-94297702D01*
X113665000Y-93484605D01*
X112851903Y-94297702D01*
X112880452Y-94395001D01*
X107530704Y-94395001D01*
X107530000Y-94265750D01*
X107371250Y-94107000D01*
X106172000Y-94107000D01*
X106172000Y-94127000D01*
X105918000Y-94127000D01*
X105918000Y-94107000D01*
X103632000Y-94107000D01*
X103632000Y-94127000D01*
X103378000Y-94127000D01*
X103378000Y-94107000D01*
X103358000Y-94107000D01*
X103358000Y-93853000D01*
X103378000Y-93853000D01*
X103378000Y-93833000D01*
X103632000Y-93833000D01*
X103632000Y-93853000D01*
X105918000Y-93853000D01*
X105918000Y-91567000D01*
X106172000Y-91567000D01*
X106172000Y-93853000D01*
X107371250Y-93853000D01*
X107530000Y-93694250D01*
X107531735Y-93375512D01*
X112224783Y-93375512D01*
X112266213Y-93655130D01*
X112361397Y-93921292D01*
X112428329Y-94046514D01*
X112672298Y-94118097D01*
X113485395Y-93305000D01*
X113844605Y-93305000D01*
X114657702Y-94118097D01*
X114901671Y-94046514D01*
X115022571Y-93791004D01*
X115091300Y-93516816D01*
X115105217Y-93234488D01*
X115063787Y-92954870D01*
X114968603Y-92688708D01*
X114901671Y-92563486D01*
X114657702Y-92491903D01*
X113844605Y-93305000D01*
X113485395Y-93305000D01*
X112672298Y-92491903D01*
X112428329Y-92563486D01*
X112307429Y-92818996D01*
X112238700Y-93093184D01*
X112224783Y-93375512D01*
X107531735Y-93375512D01*
X107533072Y-93130000D01*
X107520812Y-93005518D01*
X107484502Y-92885820D01*
X107425537Y-92775506D01*
X107346185Y-92678815D01*
X107249494Y-92599463D01*
X107139180Y-92540498D01*
X107058534Y-92516034D01*
X107142588Y-92440269D01*
X107316641Y-92206920D01*
X107420993Y-91987835D01*
X107700000Y-91987835D01*
X107700000Y-92162165D01*
X107734010Y-92333145D01*
X107800723Y-92494205D01*
X107897576Y-92639155D01*
X108020845Y-92762424D01*
X108165795Y-92859277D01*
X108326855Y-92925990D01*
X108497835Y-92960000D01*
X108672165Y-92960000D01*
X108843145Y-92925990D01*
X109004205Y-92859277D01*
X109149155Y-92762424D01*
X109272424Y-92639155D01*
X109369277Y-92494205D01*
X109435990Y-92333145D01*
X109470000Y-92162165D01*
X109470000Y-91987835D01*
X109435990Y-91816855D01*
X109369277Y-91655795D01*
X109272424Y-91510845D01*
X109149155Y-91387576D01*
X109004205Y-91290723D01*
X108843145Y-91224010D01*
X108672165Y-91190000D01*
X108497835Y-91190000D01*
X108326855Y-91224010D01*
X108165795Y-91290723D01*
X108020845Y-91387576D01*
X107897576Y-91510845D01*
X107800723Y-91655795D01*
X107734010Y-91816855D01*
X107700000Y-91987835D01*
X107420993Y-91987835D01*
X107441825Y-91944099D01*
X107486476Y-91796890D01*
X107365155Y-91567000D01*
X106172000Y-91567000D01*
X105918000Y-91567000D01*
X105898000Y-91567000D01*
X105898000Y-91313000D01*
X105918000Y-91313000D01*
X105918000Y-91293000D01*
X106172000Y-91293000D01*
X106172000Y-91313000D01*
X107365155Y-91313000D01*
X107486476Y-91083110D01*
X107441825Y-90935901D01*
X107393765Y-90835001D01*
X108540455Y-90835001D01*
X108577777Y-90838677D01*
X108615099Y-90835001D01*
X108615110Y-90835001D01*
X108726763Y-90824004D01*
X108870024Y-90780547D01*
X109002053Y-90709975D01*
X109058481Y-90663665D01*
X112230000Y-90663665D01*
X112230000Y-90946335D01*
X112285147Y-91223574D01*
X112393320Y-91484727D01*
X112550363Y-91719759D01*
X112750241Y-91919637D01*
X112950869Y-92053692D01*
X112923486Y-92068329D01*
X112851903Y-92312298D01*
X113665000Y-93125395D01*
X114478097Y-92312298D01*
X114406514Y-92068329D01*
X114377659Y-92054676D01*
X114579759Y-91919637D01*
X114779637Y-91719759D01*
X114936680Y-91484727D01*
X115044853Y-91223574D01*
X115100000Y-90946335D01*
X115100000Y-90663665D01*
X115044853Y-90386426D01*
X114936680Y-90125273D01*
X114779637Y-89890241D01*
X114579759Y-89690363D01*
X114344727Y-89533320D01*
X114083574Y-89425147D01*
X113806335Y-89370000D01*
X113523665Y-89370000D01*
X113246426Y-89425147D01*
X112985273Y-89533320D01*
X112750241Y-89690363D01*
X112550363Y-89890241D01*
X112393320Y-90125273D01*
X112285147Y-90386426D01*
X112230000Y-90663665D01*
X109058481Y-90663665D01*
X109117778Y-90615002D01*
X109141580Y-90585999D01*
X109997398Y-89730183D01*
X110026390Y-89706390D01*
X110050184Y-89677397D01*
X110050188Y-89677393D01*
X110121362Y-89590666D01*
X110121363Y-89590665D01*
X110191935Y-89458636D01*
X110235392Y-89315375D01*
X110246389Y-89203722D01*
X110246389Y-89203713D01*
X110250065Y-89166390D01*
X110246389Y-89129067D01*
X110246389Y-88551269D01*
X121813336Y-88551269D01*
X121872797Y-88785037D01*
X122111242Y-88895934D01*
X122366740Y-88958183D01*
X122629473Y-88969390D01*
X122889344Y-88929125D01*
X123136366Y-88838935D01*
X123237203Y-88785037D01*
X123296664Y-88551269D01*
X122555000Y-87809605D01*
X121813336Y-88551269D01*
X110246389Y-88551269D01*
X110246389Y-86410321D01*
X110912082Y-87076014D01*
G37*
X110912082Y-87076014D02*
X110935880Y-87105012D01*
X111051605Y-87199985D01*
X111183634Y-87270557D01*
X111326895Y-87314014D01*
X111438548Y-87325011D01*
X111438557Y-87325011D01*
X111475880Y-87328687D01*
X111513203Y-87325011D01*
X121255257Y-87325011D01*
X121226817Y-87441740D01*
X121215610Y-87704473D01*
X121255875Y-87964344D01*
X121346065Y-88211366D01*
X121399963Y-88312203D01*
X121633731Y-88371664D01*
X122375395Y-87630000D01*
X122361253Y-87615858D01*
X122540858Y-87436253D01*
X122555000Y-87450395D01*
X122569143Y-87436253D01*
X122748748Y-87615858D01*
X122734605Y-87630000D01*
X123476269Y-88371664D01*
X123710037Y-88312203D01*
X123820934Y-88073758D01*
X123883183Y-87818260D01*
X123894390Y-87555527D01*
X123858673Y-87325011D01*
X124854121Y-87325011D01*
X122705375Y-89473757D01*
X122686486Y-89470000D01*
X122423514Y-89470000D01*
X122404625Y-89473757D01*
X121904446Y-88973579D01*
X121878291Y-88941709D01*
X121751146Y-88837364D01*
X121606087Y-88759828D01*
X121448689Y-88712082D01*
X121326019Y-88700000D01*
X121326018Y-88700000D01*
X121285000Y-88695960D01*
X121243982Y-88700000D01*
X117516018Y-88700000D01*
X117475000Y-88695960D01*
X117433982Y-88700000D01*
X117433981Y-88700000D01*
X117311311Y-88712082D01*
X117182966Y-88751015D01*
X117153913Y-88759828D01*
X117008854Y-88837364D01*
X116932286Y-88900202D01*
X116881709Y-88941709D01*
X116855562Y-88973569D01*
X116278573Y-89550559D01*
X116246710Y-89576709D01*
X116209591Y-89621939D01*
X116142364Y-89703855D01*
X116064828Y-89848914D01*
X116017082Y-90006312D01*
X116000960Y-90170000D01*
X116005001Y-90211028D01*
X116005001Y-90640375D01*
X115915518Y-90649188D01*
X115795820Y-90685498D01*
X115685506Y-90744463D01*
X115588815Y-90823815D01*
X115509463Y-90920506D01*
X115450498Y-91030820D01*
X115414188Y-91150518D01*
X115401928Y-91275000D01*
X115401928Y-92875000D01*
X115414188Y-92999482D01*
X115450498Y-93119180D01*
X115509463Y-93229494D01*
X115588815Y-93326185D01*
X115685506Y-93405537D01*
X115795820Y-93464502D01*
X115915518Y-93500812D01*
X116005001Y-93509625D01*
X116005001Y-94269131D01*
X115879131Y-94395001D01*
X114449548Y-94395001D01*
X114478097Y-94297702D01*
X113665000Y-93484605D01*
X112851903Y-94297702D01*
X112880452Y-94395001D01*
X107530704Y-94395001D01*
X107530000Y-94265750D01*
X107371250Y-94107000D01*
X106172000Y-94107000D01*
X106172000Y-94127000D01*
X105918000Y-94127000D01*
X105918000Y-94107000D01*
X103632000Y-94107000D01*
X103632000Y-94127000D01*
X103378000Y-94127000D01*
X103378000Y-94107000D01*
X103358000Y-94107000D01*
X103358000Y-93853000D01*
X103378000Y-93853000D01*
X103378000Y-93833000D01*
X103632000Y-93833000D01*
X103632000Y-93853000D01*
X105918000Y-93853000D01*
X105918000Y-91567000D01*
X106172000Y-91567000D01*
X106172000Y-93853000D01*
X107371250Y-93853000D01*
X107530000Y-93694250D01*
X107531735Y-93375512D01*
X112224783Y-93375512D01*
X112266213Y-93655130D01*
X112361397Y-93921292D01*
X112428329Y-94046514D01*
X112672298Y-94118097D01*
X113485395Y-93305000D01*
X113844605Y-93305000D01*
X114657702Y-94118097D01*
X114901671Y-94046514D01*
X115022571Y-93791004D01*
X115091300Y-93516816D01*
X115105217Y-93234488D01*
X115063787Y-92954870D01*
X114968603Y-92688708D01*
X114901671Y-92563486D01*
X114657702Y-92491903D01*
X113844605Y-93305000D01*
X113485395Y-93305000D01*
X112672298Y-92491903D01*
X112428329Y-92563486D01*
X112307429Y-92818996D01*
X112238700Y-93093184D01*
X112224783Y-93375512D01*
X107531735Y-93375512D01*
X107533072Y-93130000D01*
X107520812Y-93005518D01*
X107484502Y-92885820D01*
X107425537Y-92775506D01*
X107346185Y-92678815D01*
X107249494Y-92599463D01*
X107139180Y-92540498D01*
X107058534Y-92516034D01*
X107142588Y-92440269D01*
X107316641Y-92206920D01*
X107420993Y-91987835D01*
X107700000Y-91987835D01*
X107700000Y-92162165D01*
X107734010Y-92333145D01*
X107800723Y-92494205D01*
X107897576Y-92639155D01*
X108020845Y-92762424D01*
X108165795Y-92859277D01*
X108326855Y-92925990D01*
X108497835Y-92960000D01*
X108672165Y-92960000D01*
X108843145Y-92925990D01*
X109004205Y-92859277D01*
X109149155Y-92762424D01*
X109272424Y-92639155D01*
X109369277Y-92494205D01*
X109435990Y-92333145D01*
X109470000Y-92162165D01*
X109470000Y-91987835D01*
X109435990Y-91816855D01*
X109369277Y-91655795D01*
X109272424Y-91510845D01*
X109149155Y-91387576D01*
X109004205Y-91290723D01*
X108843145Y-91224010D01*
X108672165Y-91190000D01*
X108497835Y-91190000D01*
X108326855Y-91224010D01*
X108165795Y-91290723D01*
X108020845Y-91387576D01*
X107897576Y-91510845D01*
X107800723Y-91655795D01*
X107734010Y-91816855D01*
X107700000Y-91987835D01*
X107420993Y-91987835D01*
X107441825Y-91944099D01*
X107486476Y-91796890D01*
X107365155Y-91567000D01*
X106172000Y-91567000D01*
X105918000Y-91567000D01*
X105898000Y-91567000D01*
X105898000Y-91313000D01*
X105918000Y-91313000D01*
X105918000Y-91293000D01*
X106172000Y-91293000D01*
X106172000Y-91313000D01*
X107365155Y-91313000D01*
X107486476Y-91083110D01*
X107441825Y-90935901D01*
X107393765Y-90835001D01*
X108540455Y-90835001D01*
X108577777Y-90838677D01*
X108615099Y-90835001D01*
X108615110Y-90835001D01*
X108726763Y-90824004D01*
X108870024Y-90780547D01*
X109002053Y-90709975D01*
X109058481Y-90663665D01*
X112230000Y-90663665D01*
X112230000Y-90946335D01*
X112285147Y-91223574D01*
X112393320Y-91484727D01*
X112550363Y-91719759D01*
X112750241Y-91919637D01*
X112950869Y-92053692D01*
X112923486Y-92068329D01*
X112851903Y-92312298D01*
X113665000Y-93125395D01*
X114478097Y-92312298D01*
X114406514Y-92068329D01*
X114377659Y-92054676D01*
X114579759Y-91919637D01*
X114779637Y-91719759D01*
X114936680Y-91484727D01*
X115044853Y-91223574D01*
X115100000Y-90946335D01*
X115100000Y-90663665D01*
X115044853Y-90386426D01*
X114936680Y-90125273D01*
X114779637Y-89890241D01*
X114579759Y-89690363D01*
X114344727Y-89533320D01*
X114083574Y-89425147D01*
X113806335Y-89370000D01*
X113523665Y-89370000D01*
X113246426Y-89425147D01*
X112985273Y-89533320D01*
X112750241Y-89690363D01*
X112550363Y-89890241D01*
X112393320Y-90125273D01*
X112285147Y-90386426D01*
X112230000Y-90663665D01*
X109058481Y-90663665D01*
X109117778Y-90615002D01*
X109141580Y-90585999D01*
X109997398Y-89730183D01*
X110026390Y-89706390D01*
X110050184Y-89677397D01*
X110050188Y-89677393D01*
X110121362Y-89590666D01*
X110121363Y-89590665D01*
X110191935Y-89458636D01*
X110235392Y-89315375D01*
X110246389Y-89203722D01*
X110246389Y-89203713D01*
X110250065Y-89166390D01*
X110246389Y-89129067D01*
X110246389Y-88551269D01*
X121813336Y-88551269D01*
X121872797Y-88785037D01*
X122111242Y-88895934D01*
X122366740Y-88958183D01*
X122629473Y-88969390D01*
X122889344Y-88929125D01*
X123136366Y-88838935D01*
X123237203Y-88785037D01*
X123296664Y-88551269D01*
X122555000Y-87809605D01*
X121813336Y-88551269D01*
X110246389Y-88551269D01*
X110246389Y-86410321D01*
X110912082Y-87076014D01*
G36*
X108726389Y-88851586D02*
G01*
X108262975Y-89315001D01*
X107468850Y-89315001D01*
X107486476Y-89256890D01*
X107365155Y-89027000D01*
X106172000Y-89027000D01*
X106172000Y-89047000D01*
X105918000Y-89047000D01*
X105918000Y-89027000D01*
X105898000Y-89027000D01*
X105898000Y-88773000D01*
X105918000Y-88773000D01*
X105918000Y-88753000D01*
X106172000Y-88753000D01*
X106172000Y-88773000D01*
X107365155Y-88773000D01*
X107486476Y-88543110D01*
X107468850Y-88484999D01*
X108452679Y-88484999D01*
X108490001Y-88488675D01*
X108527323Y-88484999D01*
X108527334Y-88484999D01*
X108638987Y-88474002D01*
X108726389Y-88447489D01*
X108726389Y-88851586D01*
G37*
X108726389Y-88851586D02*
X108262975Y-89315001D01*
X107468850Y-89315001D01*
X107486476Y-89256890D01*
X107365155Y-89027000D01*
X106172000Y-89027000D01*
X106172000Y-89047000D01*
X105918000Y-89047000D01*
X105918000Y-89027000D01*
X105898000Y-89027000D01*
X105898000Y-88773000D01*
X105918000Y-88773000D01*
X105918000Y-88753000D01*
X106172000Y-88753000D01*
X106172000Y-88773000D01*
X107365155Y-88773000D01*
X107486476Y-88543110D01*
X107468850Y-88484999D01*
X108452679Y-88484999D01*
X108490001Y-88488675D01*
X108527323Y-88484999D01*
X108527334Y-88484999D01*
X108638987Y-88474002D01*
X108726389Y-88447489D01*
X108726389Y-88851586D01*
G36*
X109623328Y-76408129D02*
G01*
X109623328Y-77698600D01*
X109635588Y-77823082D01*
X109671898Y-77942780D01*
X109689799Y-77976269D01*
X108525377Y-79140692D01*
X108496379Y-79164490D01*
X108472581Y-79193488D01*
X108472580Y-79193489D01*
X108401405Y-79280215D01*
X108330833Y-79412245D01*
X108287377Y-79555506D01*
X108272703Y-79704491D01*
X108276380Y-79741823D01*
X108276379Y-86863819D01*
X108175200Y-86964999D01*
X107393765Y-86964999D01*
X107441825Y-86864099D01*
X107486476Y-86716890D01*
X107365155Y-86487000D01*
X106172000Y-86487000D01*
X106172000Y-86507000D01*
X105918000Y-86507000D01*
X105918000Y-86487000D01*
X105898000Y-86487000D01*
X105898000Y-86233000D01*
X105918000Y-86233000D01*
X105918000Y-83947000D01*
X106172000Y-83947000D01*
X106172000Y-86233000D01*
X107365155Y-86233000D01*
X107486476Y-86003110D01*
X107441825Y-85855901D01*
X107316641Y-85593080D01*
X107142588Y-85359731D01*
X106926355Y-85164822D01*
X106800745Y-85090000D01*
X106926355Y-85015178D01*
X107142588Y-84820269D01*
X107316641Y-84586920D01*
X107441825Y-84324099D01*
X107486476Y-84176890D01*
X107365155Y-83947000D01*
X106172000Y-83947000D01*
X105918000Y-83947000D01*
X105898000Y-83947000D01*
X105898000Y-83693000D01*
X105918000Y-83693000D01*
X105918000Y-81407000D01*
X106172000Y-81407000D01*
X106172000Y-83693000D01*
X107365155Y-83693000D01*
X107486476Y-83463110D01*
X107441825Y-83315901D01*
X107316641Y-83053080D01*
X107142588Y-82819731D01*
X106926355Y-82624822D01*
X106800745Y-82550000D01*
X106926355Y-82475178D01*
X107142588Y-82280269D01*
X107316641Y-82046920D01*
X107441825Y-81784099D01*
X107486476Y-81636890D01*
X107365155Y-81407000D01*
X106172000Y-81407000D01*
X105918000Y-81407000D01*
X105898000Y-81407000D01*
X105898000Y-81153000D01*
X105918000Y-81153000D01*
X105918000Y-78867000D01*
X106172000Y-78867000D01*
X106172000Y-81153000D01*
X107365155Y-81153000D01*
X107486476Y-80923110D01*
X107441825Y-80775901D01*
X107316641Y-80513080D01*
X107142588Y-80279731D01*
X106926355Y-80084822D01*
X106800745Y-80010000D01*
X106926355Y-79935178D01*
X107142588Y-79740269D01*
X107316641Y-79506920D01*
X107441825Y-79244099D01*
X107486476Y-79096890D01*
X107365155Y-78867000D01*
X106172000Y-78867000D01*
X105918000Y-78867000D01*
X105898000Y-78867000D01*
X105898000Y-78613000D01*
X105918000Y-78613000D01*
X105918000Y-76327000D01*
X106172000Y-76327000D01*
X106172000Y-78613000D01*
X107365155Y-78613000D01*
X107486476Y-78383110D01*
X107441825Y-78235901D01*
X107316641Y-77973080D01*
X107142588Y-77739731D01*
X106926355Y-77544822D01*
X106800745Y-77470000D01*
X106926355Y-77395178D01*
X107142588Y-77200269D01*
X107316641Y-76966920D01*
X107441825Y-76704099D01*
X107486476Y-76556890D01*
X107365155Y-76327000D01*
X106172000Y-76327000D01*
X105918000Y-76327000D01*
X105898000Y-76327000D01*
X105898000Y-76073000D01*
X105918000Y-76073000D01*
X105918000Y-76053000D01*
X106172000Y-76053000D01*
X106172000Y-76073000D01*
X107365155Y-76073000D01*
X107486476Y-75843110D01*
X107468850Y-75784999D01*
X109000198Y-75784999D01*
X109623328Y-76408129D01*
G37*
X109623328Y-76408129D02*
X109623328Y-77698600D01*
X109635588Y-77823082D01*
X109671898Y-77942780D01*
X109689799Y-77976269D01*
X108525377Y-79140692D01*
X108496379Y-79164490D01*
X108472581Y-79193488D01*
X108472580Y-79193489D01*
X108401405Y-79280215D01*
X108330833Y-79412245D01*
X108287377Y-79555506D01*
X108272703Y-79704491D01*
X108276380Y-79741823D01*
X108276379Y-86863819D01*
X108175200Y-86964999D01*
X107393765Y-86964999D01*
X107441825Y-86864099D01*
X107486476Y-86716890D01*
X107365155Y-86487000D01*
X106172000Y-86487000D01*
X106172000Y-86507000D01*
X105918000Y-86507000D01*
X105918000Y-86487000D01*
X105898000Y-86487000D01*
X105898000Y-86233000D01*
X105918000Y-86233000D01*
X105918000Y-83947000D01*
X106172000Y-83947000D01*
X106172000Y-86233000D01*
X107365155Y-86233000D01*
X107486476Y-86003110D01*
X107441825Y-85855901D01*
X107316641Y-85593080D01*
X107142588Y-85359731D01*
X106926355Y-85164822D01*
X106800745Y-85090000D01*
X106926355Y-85015178D01*
X107142588Y-84820269D01*
X107316641Y-84586920D01*
X107441825Y-84324099D01*
X107486476Y-84176890D01*
X107365155Y-83947000D01*
X106172000Y-83947000D01*
X105918000Y-83947000D01*
X105898000Y-83947000D01*
X105898000Y-83693000D01*
X105918000Y-83693000D01*
X105918000Y-81407000D01*
X106172000Y-81407000D01*
X106172000Y-83693000D01*
X107365155Y-83693000D01*
X107486476Y-83463110D01*
X107441825Y-83315901D01*
X107316641Y-83053080D01*
X107142588Y-82819731D01*
X106926355Y-82624822D01*
X106800745Y-82550000D01*
X106926355Y-82475178D01*
X107142588Y-82280269D01*
X107316641Y-82046920D01*
X107441825Y-81784099D01*
X107486476Y-81636890D01*
X107365155Y-81407000D01*
X106172000Y-81407000D01*
X105918000Y-81407000D01*
X105898000Y-81407000D01*
X105898000Y-81153000D01*
X105918000Y-81153000D01*
X105918000Y-78867000D01*
X106172000Y-78867000D01*
X106172000Y-81153000D01*
X107365155Y-81153000D01*
X107486476Y-80923110D01*
X107441825Y-80775901D01*
X107316641Y-80513080D01*
X107142588Y-80279731D01*
X106926355Y-80084822D01*
X106800745Y-80010000D01*
X106926355Y-79935178D01*
X107142588Y-79740269D01*
X107316641Y-79506920D01*
X107441825Y-79244099D01*
X107486476Y-79096890D01*
X107365155Y-78867000D01*
X106172000Y-78867000D01*
X105918000Y-78867000D01*
X105898000Y-78867000D01*
X105898000Y-78613000D01*
X105918000Y-78613000D01*
X105918000Y-76327000D01*
X106172000Y-76327000D01*
X106172000Y-78613000D01*
X107365155Y-78613000D01*
X107486476Y-78383110D01*
X107441825Y-78235901D01*
X107316641Y-77973080D01*
X107142588Y-77739731D01*
X106926355Y-77544822D01*
X106800745Y-77470000D01*
X106926355Y-77395178D01*
X107142588Y-77200269D01*
X107316641Y-76966920D01*
X107441825Y-76704099D01*
X107486476Y-76556890D01*
X107365155Y-76327000D01*
X106172000Y-76327000D01*
X105918000Y-76327000D01*
X105898000Y-76327000D01*
X105898000Y-76073000D01*
X105918000Y-76073000D01*
X105918000Y-76053000D01*
X106172000Y-76053000D01*
X106172000Y-76073000D01*
X107365155Y-76073000D01*
X107486476Y-75843110D01*
X107468850Y-75784999D01*
X109000198Y-75784999D01*
X109623328Y-76408129D01*
G36*
X145389513Y-48920666D02*
G01*
X145390000Y-48925301D01*
X145390001Y-74749806D01*
X145201231Y-74688374D01*
X144324605Y-75565000D01*
X145201231Y-76441626D01*
X145390001Y-76380194D01*
X145390001Y-82305148D01*
X145328768Y-82213507D01*
X145116493Y-82001232D01*
X144866885Y-81834449D01*
X144589534Y-81719566D01*
X144295101Y-81661000D01*
X143994899Y-81661000D01*
X143700466Y-81719566D01*
X143423115Y-81834449D01*
X143173507Y-82001232D01*
X142961232Y-82213507D01*
X142875000Y-82342562D01*
X142788768Y-82213507D01*
X142576493Y-82001232D01*
X142326885Y-81834449D01*
X142049534Y-81719566D01*
X141755101Y-81661000D01*
X141454899Y-81661000D01*
X141160466Y-81719566D01*
X140883115Y-81834449D01*
X140633507Y-82001232D01*
X140421232Y-82213507D01*
X140335000Y-82342562D01*
X140248768Y-82213507D01*
X140036493Y-82001232D01*
X139786885Y-81834449D01*
X139509534Y-81719566D01*
X139215101Y-81661000D01*
X138914899Y-81661000D01*
X138620466Y-81719566D01*
X138343115Y-81834449D01*
X138093507Y-82001232D01*
X137881232Y-82213507D01*
X137875001Y-82222832D01*
X137875001Y-80637323D01*
X137878677Y-80600000D01*
X137875001Y-80562677D01*
X137875001Y-80562668D01*
X137864004Y-80451015D01*
X137820547Y-80307754D01*
X137799453Y-80268290D01*
X137749975Y-80175724D01*
X137678800Y-80088998D01*
X137655002Y-80060000D01*
X137626005Y-80036203D01*
X137373731Y-79783930D01*
X137425000Y-79526184D01*
X137425000Y-79223816D01*
X137366011Y-78927257D01*
X137250299Y-78647905D01*
X137172833Y-78531969D01*
X138665425Y-77039377D01*
X138914899Y-77089000D01*
X139215101Y-77089000D01*
X139509534Y-77030434D01*
X139786885Y-76915551D01*
X140036493Y-76748768D01*
X140164030Y-76621231D01*
X143268374Y-76621231D01*
X143350727Y-76874289D01*
X143621418Y-77004086D01*
X143912230Y-77078580D01*
X144211988Y-77094908D01*
X144509171Y-77052443D01*
X144792359Y-76952816D01*
X144939273Y-76874289D01*
X145021626Y-76621231D01*
X144145000Y-75744605D01*
X143268374Y-76621231D01*
X140164030Y-76621231D01*
X140248768Y-76536493D01*
X140415551Y-76286885D01*
X140530434Y-76009534D01*
X140589000Y-75715101D01*
X140589000Y-75631988D01*
X142615092Y-75631988D01*
X142657557Y-75929171D01*
X142757184Y-76212359D01*
X142835711Y-76359273D01*
X143088769Y-76441626D01*
X143965395Y-75565000D01*
X143088769Y-74688374D01*
X142835711Y-74770727D01*
X142705914Y-75041418D01*
X142631420Y-75332230D01*
X142615092Y-75631988D01*
X140589000Y-75631988D01*
X140589000Y-75414899D01*
X140530434Y-75120466D01*
X140415551Y-74843115D01*
X140248768Y-74593507D01*
X140164030Y-74508769D01*
X143268374Y-74508769D01*
X144145000Y-75385395D01*
X145021626Y-74508769D01*
X144939273Y-74255711D01*
X144668582Y-74125914D01*
X144377770Y-74051420D01*
X144078012Y-74035092D01*
X143780829Y-74077557D01*
X143497641Y-74177184D01*
X143350727Y-74255711D01*
X143268374Y-74508769D01*
X140164030Y-74508769D01*
X140036493Y-74381232D01*
X139786885Y-74214449D01*
X139509534Y-74099566D01*
X139215101Y-74041000D01*
X138914899Y-74041000D01*
X138620466Y-74099566D01*
X138343115Y-74214449D01*
X138093507Y-74381232D01*
X137998492Y-74476247D01*
X138012919Y-74428688D01*
X138025001Y-74306018D01*
X138029041Y-74265000D01*
X138025001Y-74223981D01*
X138025001Y-70899872D01*
X140005000Y-70899872D01*
X140005000Y-71340128D01*
X140090890Y-71771925D01*
X140259369Y-72178669D01*
X140503962Y-72544729D01*
X140815271Y-72856038D01*
X141181331Y-73100631D01*
X141588075Y-73269110D01*
X142019872Y-73355000D01*
X142460128Y-73355000D01*
X142891925Y-73269110D01*
X143298669Y-73100631D01*
X143664729Y-72856038D01*
X143976038Y-72544729D01*
X144220631Y-72178669D01*
X144389110Y-71771925D01*
X144475000Y-71340128D01*
X144475000Y-70899872D01*
X144389110Y-70468075D01*
X144220631Y-70061331D01*
X143976038Y-69695271D01*
X143664729Y-69383962D01*
X143298669Y-69139369D01*
X142891925Y-68970890D01*
X142460128Y-68885000D01*
X142019872Y-68885000D01*
X141588075Y-68970890D01*
X141181331Y-69139369D01*
X140815271Y-69383962D01*
X140503962Y-69695271D01*
X140259369Y-70061331D01*
X140090890Y-70468075D01*
X140005000Y-70899872D01*
X138025001Y-70899872D01*
X138025001Y-68072000D01*
X144780000Y-68072000D01*
X144804776Y-68069560D01*
X144828601Y-68062333D01*
X144850557Y-68050597D01*
X144869803Y-68034803D01*
X144885597Y-68015557D01*
X144897333Y-67993601D01*
X144904560Y-67969776D01*
X144907000Y-67945000D01*
X144907000Y-51435000D01*
X144904560Y-51410224D01*
X144897333Y-51386399D01*
X144885597Y-51364443D01*
X144869803Y-51345197D01*
X144850557Y-51329403D01*
X144828601Y-51317667D01*
X144804776Y-51310440D01*
X144780000Y-51308000D01*
X140666880Y-51308000D01*
X140760240Y-51214640D01*
X141267484Y-50455496D01*
X141616880Y-49611980D01*
X141754523Y-48920000D01*
X145382725Y-48920000D01*
X145389513Y-48920666D01*
G37*
X145389513Y-48920666D02*
X145390000Y-48925301D01*
X145390001Y-74749806D01*
X145201231Y-74688374D01*
X144324605Y-75565000D01*
X145201231Y-76441626D01*
X145390001Y-76380194D01*
X145390001Y-82305148D01*
X145328768Y-82213507D01*
X145116493Y-82001232D01*
X144866885Y-81834449D01*
X144589534Y-81719566D01*
X144295101Y-81661000D01*
X143994899Y-81661000D01*
X143700466Y-81719566D01*
X143423115Y-81834449D01*
X143173507Y-82001232D01*
X142961232Y-82213507D01*
X142875000Y-82342562D01*
X142788768Y-82213507D01*
X142576493Y-82001232D01*
X142326885Y-81834449D01*
X142049534Y-81719566D01*
X141755101Y-81661000D01*
X141454899Y-81661000D01*
X141160466Y-81719566D01*
X140883115Y-81834449D01*
X140633507Y-82001232D01*
X140421232Y-82213507D01*
X140335000Y-82342562D01*
X140248768Y-82213507D01*
X140036493Y-82001232D01*
X139786885Y-81834449D01*
X139509534Y-81719566D01*
X139215101Y-81661000D01*
X138914899Y-81661000D01*
X138620466Y-81719566D01*
X138343115Y-81834449D01*
X138093507Y-82001232D01*
X137881232Y-82213507D01*
X137875001Y-82222832D01*
X137875001Y-80637323D01*
X137878677Y-80600000D01*
X137875001Y-80562677D01*
X137875001Y-80562668D01*
X137864004Y-80451015D01*
X137820547Y-80307754D01*
X137799453Y-80268290D01*
X137749975Y-80175724D01*
X137678800Y-80088998D01*
X137655002Y-80060000D01*
X137626005Y-80036203D01*
X137373731Y-79783930D01*
X137425000Y-79526184D01*
X137425000Y-79223816D01*
X137366011Y-78927257D01*
X137250299Y-78647905D01*
X137172833Y-78531969D01*
X138665425Y-77039377D01*
X138914899Y-77089000D01*
X139215101Y-77089000D01*
X139509534Y-77030434D01*
X139786885Y-76915551D01*
X140036493Y-76748768D01*
X140164030Y-76621231D01*
X143268374Y-76621231D01*
X143350727Y-76874289D01*
X143621418Y-77004086D01*
X143912230Y-77078580D01*
X144211988Y-77094908D01*
X144509171Y-77052443D01*
X144792359Y-76952816D01*
X144939273Y-76874289D01*
X145021626Y-76621231D01*
X144145000Y-75744605D01*
X143268374Y-76621231D01*
X140164030Y-76621231D01*
X140248768Y-76536493D01*
X140415551Y-76286885D01*
X140530434Y-76009534D01*
X140589000Y-75715101D01*
X140589000Y-75631988D01*
X142615092Y-75631988D01*
X142657557Y-75929171D01*
X142757184Y-76212359D01*
X142835711Y-76359273D01*
X143088769Y-76441626D01*
X143965395Y-75565000D01*
X143088769Y-74688374D01*
X142835711Y-74770727D01*
X142705914Y-75041418D01*
X142631420Y-75332230D01*
X142615092Y-75631988D01*
X140589000Y-75631988D01*
X140589000Y-75414899D01*
X140530434Y-75120466D01*
X140415551Y-74843115D01*
X140248768Y-74593507D01*
X140164030Y-74508769D01*
X143268374Y-74508769D01*
X144145000Y-75385395D01*
X145021626Y-74508769D01*
X144939273Y-74255711D01*
X144668582Y-74125914D01*
X144377770Y-74051420D01*
X144078012Y-74035092D01*
X143780829Y-74077557D01*
X143497641Y-74177184D01*
X143350727Y-74255711D01*
X143268374Y-74508769D01*
X140164030Y-74508769D01*
X140036493Y-74381232D01*
X139786885Y-74214449D01*
X139509534Y-74099566D01*
X139215101Y-74041000D01*
X138914899Y-74041000D01*
X138620466Y-74099566D01*
X138343115Y-74214449D01*
X138093507Y-74381232D01*
X137998492Y-74476247D01*
X138012919Y-74428688D01*
X138025001Y-74306018D01*
X138029041Y-74265000D01*
X138025001Y-74223981D01*
X138025001Y-70899872D01*
X140005000Y-70899872D01*
X140005000Y-71340128D01*
X140090890Y-71771925D01*
X140259369Y-72178669D01*
X140503962Y-72544729D01*
X140815271Y-72856038D01*
X141181331Y-73100631D01*
X141588075Y-73269110D01*
X142019872Y-73355000D01*
X142460128Y-73355000D01*
X142891925Y-73269110D01*
X143298669Y-73100631D01*
X143664729Y-72856038D01*
X143976038Y-72544729D01*
X144220631Y-72178669D01*
X144389110Y-71771925D01*
X144475000Y-71340128D01*
X144475000Y-70899872D01*
X144389110Y-70468075D01*
X144220631Y-70061331D01*
X143976038Y-69695271D01*
X143664729Y-69383962D01*
X143298669Y-69139369D01*
X142891925Y-68970890D01*
X142460128Y-68885000D01*
X142019872Y-68885000D01*
X141588075Y-68970890D01*
X141181331Y-69139369D01*
X140815271Y-69383962D01*
X140503962Y-69695271D01*
X140259369Y-70061331D01*
X140090890Y-70468075D01*
X140005000Y-70899872D01*
X138025001Y-70899872D01*
X138025001Y-68072000D01*
X144780000Y-68072000D01*
X144804776Y-68069560D01*
X144828601Y-68062333D01*
X144850557Y-68050597D01*
X144869803Y-68034803D01*
X144885597Y-68015557D01*
X144897333Y-67993601D01*
X144904560Y-67969776D01*
X144907000Y-67945000D01*
X144907000Y-51435000D01*
X144904560Y-51410224D01*
X144897333Y-51386399D01*
X144885597Y-51364443D01*
X144869803Y-51345197D01*
X144850557Y-51329403D01*
X144828601Y-51317667D01*
X144804776Y-51310440D01*
X144780000Y-51308000D01*
X140666880Y-51308000D01*
X140760240Y-51214640D01*
X141267484Y-50455496D01*
X141616880Y-49611980D01*
X141754523Y-48920000D01*
X145382725Y-48920000D01*
X145389513Y-48920666D01*
G36*
X114235000Y-69718514D02*
G01*
X114235000Y-69981486D01*
X114286304Y-70239405D01*
X114386939Y-70482359D01*
X114533038Y-70701013D01*
X114718987Y-70886962D01*
X114937641Y-71033061D01*
X115147530Y-71120000D01*
X114937641Y-71206939D01*
X114718987Y-71353038D01*
X114533038Y-71538987D01*
X114386939Y-71757641D01*
X114286304Y-72000595D01*
X114235000Y-72258514D01*
X114235000Y-72521486D01*
X114286304Y-72779405D01*
X114386939Y-73022359D01*
X114533038Y-73241013D01*
X114718987Y-73426962D01*
X114937641Y-73573061D01*
X115180595Y-73673696D01*
X115438514Y-73725000D01*
X115701486Y-73725000D01*
X115959405Y-73673696D01*
X116202359Y-73573061D01*
X116421013Y-73426962D01*
X116606962Y-73241013D01*
X116753061Y-73022359D01*
X116853696Y-72779405D01*
X116905000Y-72521486D01*
X116905000Y-72258514D01*
X116883645Y-72151157D01*
X117106005Y-71928797D01*
X117135002Y-71905000D01*
X117229975Y-71789275D01*
X117300547Y-71657246D01*
X117301591Y-71653804D01*
X117835395Y-71120000D01*
X117821253Y-71105858D01*
X118000858Y-70926253D01*
X118015000Y-70940395D01*
X118029143Y-70926253D01*
X118208748Y-71105858D01*
X118194605Y-71120000D01*
X118208748Y-71134143D01*
X118029143Y-71313748D01*
X118015000Y-71299605D01*
X117344841Y-71969764D01*
X117392148Y-72193348D01*
X117613516Y-72294237D01*
X117850313Y-72350000D01*
X118093438Y-72358495D01*
X118333549Y-72319395D01*
X118561418Y-72234202D01*
X118637852Y-72193348D01*
X118685158Y-71969766D01*
X118802264Y-72086872D01*
X118860142Y-72028994D01*
X118884463Y-72074494D01*
X118963815Y-72171185D01*
X119060506Y-72250537D01*
X119170820Y-72309502D01*
X119255000Y-72335038D01*
X119255000Y-72599679D01*
X119251324Y-72637002D01*
X119255000Y-72674324D01*
X119255000Y-72674334D01*
X119265997Y-72785987D01*
X119297947Y-72891313D01*
X119309454Y-72929248D01*
X119380026Y-73061278D01*
X119412323Y-73100631D01*
X119474999Y-73177003D01*
X119504003Y-73200806D01*
X121585111Y-75281914D01*
X121518038Y-75348987D01*
X121371939Y-75567641D01*
X121271304Y-75810595D01*
X121220000Y-76068514D01*
X121220000Y-76331486D01*
X121241355Y-76438843D01*
X119065199Y-78615000D01*
X114959535Y-78615000D01*
X114829039Y-78419698D01*
X114620302Y-78210961D01*
X114454897Y-78100441D01*
X114553488Y-78041817D01*
X114771854Y-77845293D01*
X114947684Y-77609944D01*
X115074222Y-77344814D01*
X115119958Y-77194026D01*
X114998817Y-76962000D01*
X113792000Y-76962000D01*
X113792000Y-76982000D01*
X113538000Y-76982000D01*
X113538000Y-76962000D01*
X113518000Y-76962000D01*
X113518000Y-76708000D01*
X113538000Y-76708000D01*
X113538000Y-75500536D01*
X113792000Y-75500536D01*
X113792000Y-76708000D01*
X114998817Y-76708000D01*
X115119958Y-76475974D01*
X115074222Y-76325186D01*
X114947684Y-76060056D01*
X114771854Y-75824707D01*
X114553488Y-75628183D01*
X114300978Y-75478036D01*
X114024027Y-75380037D01*
X113792000Y-75500536D01*
X113538000Y-75500536D01*
X113305973Y-75380037D01*
X113036235Y-75475484D01*
X113019147Y-75419152D01*
X112993034Y-75370298D01*
X112948575Y-75287122D01*
X112877400Y-75200396D01*
X112853602Y-75171398D01*
X112824604Y-75147600D01*
X111590996Y-73913993D01*
X111567193Y-73884989D01*
X111451468Y-73790016D01*
X111319439Y-73719444D01*
X111176178Y-73675987D01*
X111064525Y-73664990D01*
X111064514Y-73664990D01*
X111027192Y-73661314D01*
X110989870Y-73664990D01*
X109630423Y-73664990D01*
X109852359Y-73573061D01*
X110071013Y-73426962D01*
X110256962Y-73241013D01*
X110403061Y-73022359D01*
X110503696Y-72779405D01*
X110555000Y-72521486D01*
X110555000Y-72258514D01*
X110533645Y-72151157D01*
X110756005Y-71928797D01*
X110785002Y-71905000D01*
X110879975Y-71789275D01*
X110950547Y-71657246D01*
X110994004Y-71513985D01*
X111005001Y-71402332D01*
X111005001Y-71402323D01*
X111008677Y-71365000D01*
X111005001Y-71327677D01*
X111005001Y-69774800D01*
X111060000Y-69719801D01*
X111060000Y-69981486D01*
X111111304Y-70239405D01*
X111211939Y-70482359D01*
X111358038Y-70701013D01*
X111543987Y-70886962D01*
X111762641Y-71033061D01*
X111972530Y-71120000D01*
X111762641Y-71206939D01*
X111543987Y-71353038D01*
X111358038Y-71538987D01*
X111211939Y-71757641D01*
X111111304Y-72000595D01*
X111060000Y-72258514D01*
X111060000Y-72521486D01*
X111111304Y-72779405D01*
X111211939Y-73022359D01*
X111358038Y-73241013D01*
X111543987Y-73426962D01*
X111762641Y-73573061D01*
X112005595Y-73673696D01*
X112263514Y-73725000D01*
X112526486Y-73725000D01*
X112784405Y-73673696D01*
X113027359Y-73573061D01*
X113246013Y-73426962D01*
X113431962Y-73241013D01*
X113578061Y-73022359D01*
X113678696Y-72779405D01*
X113730000Y-72521486D01*
X113730000Y-72258514D01*
X113678696Y-72000595D01*
X113578061Y-71757641D01*
X113431962Y-71538987D01*
X113246013Y-71353038D01*
X113027359Y-71206939D01*
X112817470Y-71120000D01*
X113027359Y-71033061D01*
X113246013Y-70886962D01*
X113431962Y-70701013D01*
X113578061Y-70482359D01*
X113678696Y-70239405D01*
X113730000Y-69981486D01*
X113730000Y-69718514D01*
X113703442Y-69584999D01*
X114261558Y-69584999D01*
X114235000Y-69718514D01*
G37*
X114235000Y-69718514D02*
X114235000Y-69981486D01*
X114286304Y-70239405D01*
X114386939Y-70482359D01*
X114533038Y-70701013D01*
X114718987Y-70886962D01*
X114937641Y-71033061D01*
X115147530Y-71120000D01*
X114937641Y-71206939D01*
X114718987Y-71353038D01*
X114533038Y-71538987D01*
X114386939Y-71757641D01*
X114286304Y-72000595D01*
X114235000Y-72258514D01*
X114235000Y-72521486D01*
X114286304Y-72779405D01*
X114386939Y-73022359D01*
X114533038Y-73241013D01*
X114718987Y-73426962D01*
X114937641Y-73573061D01*
X115180595Y-73673696D01*
X115438514Y-73725000D01*
X115701486Y-73725000D01*
X115959405Y-73673696D01*
X116202359Y-73573061D01*
X116421013Y-73426962D01*
X116606962Y-73241013D01*
X116753061Y-73022359D01*
X116853696Y-72779405D01*
X116905000Y-72521486D01*
X116905000Y-72258514D01*
X116883645Y-72151157D01*
X117106005Y-71928797D01*
X117135002Y-71905000D01*
X117229975Y-71789275D01*
X117300547Y-71657246D01*
X117301591Y-71653804D01*
X117835395Y-71120000D01*
X117821253Y-71105858D01*
X118000858Y-70926253D01*
X118015000Y-70940395D01*
X118029143Y-70926253D01*
X118208748Y-71105858D01*
X118194605Y-71120000D01*
X118208748Y-71134143D01*
X118029143Y-71313748D01*
X118015000Y-71299605D01*
X117344841Y-71969764D01*
X117392148Y-72193348D01*
X117613516Y-72294237D01*
X117850313Y-72350000D01*
X118093438Y-72358495D01*
X118333549Y-72319395D01*
X118561418Y-72234202D01*
X118637852Y-72193348D01*
X118685158Y-71969766D01*
X118802264Y-72086872D01*
X118860142Y-72028994D01*
X118884463Y-72074494D01*
X118963815Y-72171185D01*
X119060506Y-72250537D01*
X119170820Y-72309502D01*
X119255000Y-72335038D01*
X119255000Y-72599679D01*
X119251324Y-72637002D01*
X119255000Y-72674324D01*
X119255000Y-72674334D01*
X119265997Y-72785987D01*
X119297947Y-72891313D01*
X119309454Y-72929248D01*
X119380026Y-73061278D01*
X119412323Y-73100631D01*
X119474999Y-73177003D01*
X119504003Y-73200806D01*
X121585111Y-75281914D01*
X121518038Y-75348987D01*
X121371939Y-75567641D01*
X121271304Y-75810595D01*
X121220000Y-76068514D01*
X121220000Y-76331486D01*
X121241355Y-76438843D01*
X119065199Y-78615000D01*
X114959535Y-78615000D01*
X114829039Y-78419698D01*
X114620302Y-78210961D01*
X114454897Y-78100441D01*
X114553488Y-78041817D01*
X114771854Y-77845293D01*
X114947684Y-77609944D01*
X115074222Y-77344814D01*
X115119958Y-77194026D01*
X114998817Y-76962000D01*
X113792000Y-76962000D01*
X113792000Y-76982000D01*
X113538000Y-76982000D01*
X113538000Y-76962000D01*
X113518000Y-76962000D01*
X113518000Y-76708000D01*
X113538000Y-76708000D01*
X113538000Y-75500536D01*
X113792000Y-75500536D01*
X113792000Y-76708000D01*
X114998817Y-76708000D01*
X115119958Y-76475974D01*
X115074222Y-76325186D01*
X114947684Y-76060056D01*
X114771854Y-75824707D01*
X114553488Y-75628183D01*
X114300978Y-75478036D01*
X114024027Y-75380037D01*
X113792000Y-75500536D01*
X113538000Y-75500536D01*
X113305973Y-75380037D01*
X113036235Y-75475484D01*
X113019147Y-75419152D01*
X112993034Y-75370298D01*
X112948575Y-75287122D01*
X112877400Y-75200396D01*
X112853602Y-75171398D01*
X112824604Y-75147600D01*
X111590996Y-73913993D01*
X111567193Y-73884989D01*
X111451468Y-73790016D01*
X111319439Y-73719444D01*
X111176178Y-73675987D01*
X111064525Y-73664990D01*
X111064514Y-73664990D01*
X111027192Y-73661314D01*
X110989870Y-73664990D01*
X109630423Y-73664990D01*
X109852359Y-73573061D01*
X110071013Y-73426962D01*
X110256962Y-73241013D01*
X110403061Y-73022359D01*
X110503696Y-72779405D01*
X110555000Y-72521486D01*
X110555000Y-72258514D01*
X110533645Y-72151157D01*
X110756005Y-71928797D01*
X110785002Y-71905000D01*
X110879975Y-71789275D01*
X110950547Y-71657246D01*
X110994004Y-71513985D01*
X111005001Y-71402332D01*
X111005001Y-71402323D01*
X111008677Y-71365000D01*
X111005001Y-71327677D01*
X111005001Y-69774800D01*
X111060000Y-69719801D01*
X111060000Y-69981486D01*
X111111304Y-70239405D01*
X111211939Y-70482359D01*
X111358038Y-70701013D01*
X111543987Y-70886962D01*
X111762641Y-71033061D01*
X111972530Y-71120000D01*
X111762641Y-71206939D01*
X111543987Y-71353038D01*
X111358038Y-71538987D01*
X111211939Y-71757641D01*
X111111304Y-72000595D01*
X111060000Y-72258514D01*
X111060000Y-72521486D01*
X111111304Y-72779405D01*
X111211939Y-73022359D01*
X111358038Y-73241013D01*
X111543987Y-73426962D01*
X111762641Y-73573061D01*
X112005595Y-73673696D01*
X112263514Y-73725000D01*
X112526486Y-73725000D01*
X112784405Y-73673696D01*
X113027359Y-73573061D01*
X113246013Y-73426962D01*
X113431962Y-73241013D01*
X113578061Y-73022359D01*
X113678696Y-72779405D01*
X113730000Y-72521486D01*
X113730000Y-72258514D01*
X113678696Y-72000595D01*
X113578061Y-71757641D01*
X113431962Y-71538987D01*
X113246013Y-71353038D01*
X113027359Y-71206939D01*
X112817470Y-71120000D01*
X113027359Y-71033061D01*
X113246013Y-70886962D01*
X113431962Y-70701013D01*
X113578061Y-70482359D01*
X113678696Y-70239405D01*
X113730000Y-69981486D01*
X113730000Y-69718514D01*
X113703442Y-69584999D01*
X114261558Y-69584999D01*
X114235000Y-69718514D01*
G36*
X121177750Y-69649960D02*
G01*
X121165188Y-69922492D01*
X121206035Y-70192238D01*
X121298723Y-70448832D01*
X121359140Y-70561863D01*
X121598007Y-70627388D01*
X122375395Y-69850000D01*
X122361253Y-69835858D01*
X122540858Y-69656253D01*
X122555000Y-69670395D01*
X122569143Y-69656253D01*
X122748748Y-69835858D01*
X122734605Y-69850000D01*
X123511993Y-70627388D01*
X123750860Y-70561863D01*
X123825164Y-70403523D01*
X123867629Y-70506043D01*
X124019201Y-70732886D01*
X124212114Y-70925799D01*
X124438957Y-71077371D01*
X124691011Y-71181775D01*
X124958589Y-71235000D01*
X125231411Y-71235000D01*
X125498989Y-71181775D01*
X125751043Y-71077371D01*
X125977886Y-70925799D01*
X126170799Y-70732886D01*
X126248555Y-70616517D01*
X126259188Y-70724482D01*
X126295498Y-70844180D01*
X126354463Y-70954494D01*
X126433815Y-71051185D01*
X126530506Y-71130537D01*
X126640820Y-71189502D01*
X126760518Y-71225812D01*
X126885000Y-71238072D01*
X128145001Y-71238072D01*
X128145001Y-71440197D01*
X127710200Y-71874999D01*
X123617323Y-71874999D01*
X123580000Y-71871323D01*
X123542677Y-71874999D01*
X123542668Y-71874999D01*
X123431015Y-71885996D01*
X123287754Y-71929453D01*
X123155725Y-72000025D01*
X123040000Y-72094998D01*
X123016202Y-72123996D01*
X122793843Y-72346355D01*
X122686486Y-72325000D01*
X122423514Y-72325000D01*
X122165595Y-72376304D01*
X121922641Y-72476939D01*
X121703987Y-72623038D01*
X121518038Y-72808987D01*
X121415398Y-72962599D01*
X120784849Y-72332050D01*
X120859180Y-72309502D01*
X120969494Y-72250537D01*
X121066185Y-72171185D01*
X121145537Y-72074494D01*
X121204502Y-71964180D01*
X121240812Y-71844482D01*
X121253072Y-71720000D01*
X121253072Y-70806993D01*
X121777612Y-70806993D01*
X121843137Y-71045860D01*
X122090116Y-71161760D01*
X122354960Y-71227250D01*
X122627492Y-71239812D01*
X122897238Y-71198965D01*
X123153832Y-71106277D01*
X123266863Y-71045860D01*
X123332388Y-70806993D01*
X122555000Y-70029605D01*
X121777612Y-70806993D01*
X121253072Y-70806993D01*
X121253072Y-70520000D01*
X121240812Y-70395518D01*
X121204502Y-70275820D01*
X121145537Y-70165506D01*
X121066185Y-70068815D01*
X120969494Y-69989463D01*
X120859180Y-69930498D01*
X120739482Y-69894188D01*
X120615000Y-69881928D01*
X119415000Y-69881928D01*
X119290518Y-69894188D01*
X119170820Y-69930498D01*
X119060506Y-69989463D01*
X118963815Y-70068815D01*
X118884463Y-70165506D01*
X118860142Y-70211006D01*
X118802264Y-70153128D01*
X118685158Y-70270234D01*
X118637852Y-70046652D01*
X118416484Y-69945763D01*
X118179687Y-69890000D01*
X117936562Y-69881505D01*
X117696451Y-69920605D01*
X117468582Y-70005798D01*
X117392148Y-70046652D01*
X117355001Y-70222217D01*
X117355001Y-69774800D01*
X117594803Y-69534999D01*
X121206177Y-69534999D01*
X121177750Y-69649960D01*
G37*
X121177750Y-69649960D02*
X121165188Y-69922492D01*
X121206035Y-70192238D01*
X121298723Y-70448832D01*
X121359140Y-70561863D01*
X121598007Y-70627388D01*
X122375395Y-69850000D01*
X122361253Y-69835858D01*
X122540858Y-69656253D01*
X122555000Y-69670395D01*
X122569143Y-69656253D01*
X122748748Y-69835858D01*
X122734605Y-69850000D01*
X123511993Y-70627388D01*
X123750860Y-70561863D01*
X123825164Y-70403523D01*
X123867629Y-70506043D01*
X124019201Y-70732886D01*
X124212114Y-70925799D01*
X124438957Y-71077371D01*
X124691011Y-71181775D01*
X124958589Y-71235000D01*
X125231411Y-71235000D01*
X125498989Y-71181775D01*
X125751043Y-71077371D01*
X125977886Y-70925799D01*
X126170799Y-70732886D01*
X126248555Y-70616517D01*
X126259188Y-70724482D01*
X126295498Y-70844180D01*
X126354463Y-70954494D01*
X126433815Y-71051185D01*
X126530506Y-71130537D01*
X126640820Y-71189502D01*
X126760518Y-71225812D01*
X126885000Y-71238072D01*
X128145001Y-71238072D01*
X128145001Y-71440197D01*
X127710200Y-71874999D01*
X123617323Y-71874999D01*
X123580000Y-71871323D01*
X123542677Y-71874999D01*
X123542668Y-71874999D01*
X123431015Y-71885996D01*
X123287754Y-71929453D01*
X123155725Y-72000025D01*
X123040000Y-72094998D01*
X123016202Y-72123996D01*
X122793843Y-72346355D01*
X122686486Y-72325000D01*
X122423514Y-72325000D01*
X122165595Y-72376304D01*
X121922641Y-72476939D01*
X121703987Y-72623038D01*
X121518038Y-72808987D01*
X121415398Y-72962599D01*
X120784849Y-72332050D01*
X120859180Y-72309502D01*
X120969494Y-72250537D01*
X121066185Y-72171185D01*
X121145537Y-72074494D01*
X121204502Y-71964180D01*
X121240812Y-71844482D01*
X121253072Y-71720000D01*
X121253072Y-70806993D01*
X121777612Y-70806993D01*
X121843137Y-71045860D01*
X122090116Y-71161760D01*
X122354960Y-71227250D01*
X122627492Y-71239812D01*
X122897238Y-71198965D01*
X123153832Y-71106277D01*
X123266863Y-71045860D01*
X123332388Y-70806993D01*
X122555000Y-70029605D01*
X121777612Y-70806993D01*
X121253072Y-70806993D01*
X121253072Y-70520000D01*
X121240812Y-70395518D01*
X121204502Y-70275820D01*
X121145537Y-70165506D01*
X121066185Y-70068815D01*
X120969494Y-69989463D01*
X120859180Y-69930498D01*
X120739482Y-69894188D01*
X120615000Y-69881928D01*
X119415000Y-69881928D01*
X119290518Y-69894188D01*
X119170820Y-69930498D01*
X119060506Y-69989463D01*
X118963815Y-70068815D01*
X118884463Y-70165506D01*
X118860142Y-70211006D01*
X118802264Y-70153128D01*
X118685158Y-70270234D01*
X118637852Y-70046652D01*
X118416484Y-69945763D01*
X118179687Y-69890000D01*
X117936562Y-69881505D01*
X117696451Y-69920605D01*
X117468582Y-70005798D01*
X117392148Y-70046652D01*
X117355001Y-70222217D01*
X117355001Y-69774800D01*
X117594803Y-69534999D01*
X121206177Y-69534999D01*
X121177750Y-69649960D01*
G36*
X132703120Y-49611980D02*
G01*
X133052516Y-50455496D01*
X133559760Y-51214640D01*
X133653120Y-51308000D01*
X117475000Y-51308000D01*
X117450224Y-51310440D01*
X117426399Y-51317667D01*
X117404443Y-51329403D01*
X117385197Y-51345197D01*
X117369403Y-51364443D01*
X117357667Y-51386399D01*
X117350440Y-51410224D01*
X117348000Y-51435000D01*
X117348000Y-59016659D01*
X117327047Y-59067244D01*
X117245000Y-59479721D01*
X117245000Y-59900279D01*
X117327047Y-60312756D01*
X117348000Y-60363341D01*
X117348000Y-64252323D01*
X117230713Y-64315015D01*
X117114988Y-64409988D01*
X117091189Y-64438987D01*
X116740178Y-64789999D01*
X115128749Y-64789999D01*
X115217378Y-64508863D01*
X115090570Y-64262000D01*
X113792000Y-64262000D01*
X113792000Y-64282000D01*
X113538000Y-64282000D01*
X113538000Y-64262000D01*
X113518000Y-64262000D01*
X113518000Y-64008000D01*
X113538000Y-64008000D01*
X113538000Y-62664406D01*
X113792000Y-62664406D01*
X113792000Y-64008000D01*
X115090570Y-64008000D01*
X115217378Y-63761137D01*
X115123879Y-63464554D01*
X114974316Y-63191911D01*
X114774437Y-62953685D01*
X114531923Y-62759031D01*
X114256094Y-62615429D01*
X114037980Y-62544437D01*
X113792000Y-62664406D01*
X113538000Y-62664406D01*
X113292020Y-62544437D01*
X113073906Y-62615429D01*
X112798077Y-62759031D01*
X112555563Y-62953685D01*
X112400163Y-63138899D01*
X112252963Y-62959537D01*
X112011234Y-62761155D01*
X111735448Y-62613745D01*
X111436203Y-62522970D01*
X111125000Y-62492319D01*
X110813796Y-62522970D01*
X110514551Y-62613745D01*
X110238765Y-62761155D01*
X110112905Y-62864446D01*
X110068037Y-62780506D01*
X109988685Y-62683815D01*
X109891994Y-62604463D01*
X109781680Y-62545498D01*
X109661982Y-62509188D01*
X109537500Y-62496928D01*
X107632500Y-62496928D01*
X107508018Y-62509188D01*
X107388320Y-62545498D01*
X107278006Y-62604463D01*
X107181315Y-62683815D01*
X107101963Y-62780506D01*
X107042998Y-62890820D01*
X107006688Y-63010518D01*
X106994428Y-63135000D01*
X106994428Y-65135000D01*
X107004467Y-65236928D01*
X106515000Y-65236928D01*
X106390518Y-65249188D01*
X106270820Y-65285498D01*
X106160506Y-65344463D01*
X106063815Y-65423815D01*
X105984463Y-65520506D01*
X105925498Y-65630820D01*
X105889188Y-65750518D01*
X105876928Y-65875000D01*
X105876928Y-67224605D01*
X105451326Y-66799003D01*
X105427523Y-66769999D01*
X105311798Y-66675026D01*
X105179769Y-66604454D01*
X105036508Y-66560997D01*
X104991257Y-66556540D01*
X104990000Y-66325750D01*
X104831250Y-66167000D01*
X103632000Y-66167000D01*
X103632000Y-66187000D01*
X103378000Y-66187000D01*
X103378000Y-66167000D01*
X103358000Y-66167000D01*
X103358000Y-65913000D01*
X103378000Y-65913000D01*
X103378000Y-65893000D01*
X103632000Y-65893000D01*
X103632000Y-65913000D01*
X104831250Y-65913000D01*
X104990000Y-65754250D01*
X104993072Y-65190000D01*
X104980812Y-65065518D01*
X104944502Y-64945820D01*
X104885537Y-64835506D01*
X104806185Y-64738815D01*
X104709494Y-64659463D01*
X104599180Y-64600498D01*
X104526620Y-64578487D01*
X104658475Y-64446632D01*
X104820990Y-64203411D01*
X104932932Y-63933158D01*
X104990000Y-63646260D01*
X104990000Y-63353740D01*
X104932932Y-63066842D01*
X104820990Y-62796589D01*
X104658475Y-62553368D01*
X104451632Y-62346525D01*
X104277240Y-62230000D01*
X104451632Y-62113475D01*
X104505106Y-62060001D01*
X108105161Y-62060001D01*
X108169999Y-62066387D01*
X108234837Y-62060001D01*
X108273877Y-62056156D01*
X108428764Y-62040901D01*
X108514148Y-62015000D01*
X108677585Y-61965422D01*
X108906900Y-61842851D01*
X109107896Y-61677898D01*
X109149236Y-61627525D01*
X110390229Y-60386533D01*
X110534727Y-60326680D01*
X110769759Y-60169637D01*
X110969637Y-59969759D01*
X111125000Y-59737241D01*
X111280363Y-59969759D01*
X111480241Y-60169637D01*
X111715273Y-60326680D01*
X111976426Y-60434853D01*
X112253665Y-60490000D01*
X112536335Y-60490000D01*
X112813574Y-60434853D01*
X113074727Y-60326680D01*
X113309759Y-60169637D01*
X113509637Y-59969759D01*
X113665000Y-59737241D01*
X113820363Y-59969759D01*
X114020241Y-60169637D01*
X114255273Y-60326680D01*
X114516426Y-60434853D01*
X114793665Y-60490000D01*
X115076335Y-60490000D01*
X115353574Y-60434853D01*
X115614727Y-60326680D01*
X115849759Y-60169637D01*
X116049637Y-59969759D01*
X116206680Y-59734727D01*
X116314853Y-59473574D01*
X116370000Y-59196335D01*
X116370000Y-58913665D01*
X116314853Y-58636426D01*
X116206680Y-58375273D01*
X116049637Y-58140241D01*
X115849759Y-57940363D01*
X115614727Y-57783320D01*
X115353574Y-57675147D01*
X115076335Y-57620000D01*
X114963711Y-57620000D01*
X114678980Y-57335270D01*
X114808000Y-57206250D01*
X114808000Y-56007000D01*
X115062000Y-56007000D01*
X115062000Y-57206250D01*
X115220750Y-57365000D01*
X115785000Y-57368072D01*
X115909482Y-57355812D01*
X116029180Y-57319502D01*
X116139494Y-57260537D01*
X116236185Y-57181185D01*
X116315537Y-57084494D01*
X116374502Y-56974180D01*
X116410812Y-56854482D01*
X116423072Y-56730000D01*
X116420000Y-56165750D01*
X116261250Y-56007000D01*
X115062000Y-56007000D01*
X114808000Y-56007000D01*
X114788000Y-56007000D01*
X114788000Y-55753000D01*
X114808000Y-55753000D01*
X114808000Y-55733000D01*
X115062000Y-55733000D01*
X115062000Y-55753000D01*
X116261250Y-55753000D01*
X116420000Y-55594250D01*
X116423072Y-55030000D01*
X116410812Y-54905518D01*
X116374502Y-54785820D01*
X116315537Y-54675506D01*
X116236185Y-54578815D01*
X116139494Y-54499463D01*
X116029180Y-54440498D01*
X115956620Y-54418487D01*
X116088475Y-54286632D01*
X116250990Y-54043411D01*
X116362932Y-53773158D01*
X116420000Y-53486260D01*
X116420000Y-53193740D01*
X116362932Y-52906842D01*
X116250990Y-52636589D01*
X116088475Y-52393368D01*
X115881632Y-52186525D01*
X115638411Y-52024010D01*
X115368158Y-51912068D01*
X115081260Y-51855000D01*
X114788740Y-51855000D01*
X114501842Y-51912068D01*
X114231589Y-52024010D01*
X113988368Y-52186525D01*
X113781525Y-52393368D01*
X113619010Y-52636589D01*
X113507068Y-52906842D01*
X113467990Y-53103297D01*
X113245000Y-53326288D01*
X113245000Y-53193740D01*
X113187932Y-52906842D01*
X113075990Y-52636589D01*
X112913475Y-52393368D01*
X112706632Y-52186525D01*
X112463411Y-52024010D01*
X112193158Y-51912068D01*
X112119116Y-51897340D01*
X112174640Y-51860240D01*
X112820240Y-51214640D01*
X113327484Y-50455496D01*
X113676880Y-49611980D01*
X113814523Y-48920000D01*
X132565477Y-48920000D01*
X132703120Y-49611980D01*
G37*
X132703120Y-49611980D02*
X133052516Y-50455496D01*
X133559760Y-51214640D01*
X133653120Y-51308000D01*
X117475000Y-51308000D01*
X117450224Y-51310440D01*
X117426399Y-51317667D01*
X117404443Y-51329403D01*
X117385197Y-51345197D01*
X117369403Y-51364443D01*
X117357667Y-51386399D01*
X117350440Y-51410224D01*
X117348000Y-51435000D01*
X117348000Y-59016659D01*
X117327047Y-59067244D01*
X117245000Y-59479721D01*
X117245000Y-59900279D01*
X117327047Y-60312756D01*
X117348000Y-60363341D01*
X117348000Y-64252323D01*
X117230713Y-64315015D01*
X117114988Y-64409988D01*
X117091189Y-64438987D01*
X116740178Y-64789999D01*
X115128749Y-64789999D01*
X115217378Y-64508863D01*
X115090570Y-64262000D01*
X113792000Y-64262000D01*
X113792000Y-64282000D01*
X113538000Y-64282000D01*
X113538000Y-64262000D01*
X113518000Y-64262000D01*
X113518000Y-64008000D01*
X113538000Y-64008000D01*
X113538000Y-62664406D01*
X113792000Y-62664406D01*
X113792000Y-64008000D01*
X115090570Y-64008000D01*
X115217378Y-63761137D01*
X115123879Y-63464554D01*
X114974316Y-63191911D01*
X114774437Y-62953685D01*
X114531923Y-62759031D01*
X114256094Y-62615429D01*
X114037980Y-62544437D01*
X113792000Y-62664406D01*
X113538000Y-62664406D01*
X113292020Y-62544437D01*
X113073906Y-62615429D01*
X112798077Y-62759031D01*
X112555563Y-62953685D01*
X112400163Y-63138899D01*
X112252963Y-62959537D01*
X112011234Y-62761155D01*
X111735448Y-62613745D01*
X111436203Y-62522970D01*
X111125000Y-62492319D01*
X110813796Y-62522970D01*
X110514551Y-62613745D01*
X110238765Y-62761155D01*
X110112905Y-62864446D01*
X110068037Y-62780506D01*
X109988685Y-62683815D01*
X109891994Y-62604463D01*
X109781680Y-62545498D01*
X109661982Y-62509188D01*
X109537500Y-62496928D01*
X107632500Y-62496928D01*
X107508018Y-62509188D01*
X107388320Y-62545498D01*
X107278006Y-62604463D01*
X107181315Y-62683815D01*
X107101963Y-62780506D01*
X107042998Y-62890820D01*
X107006688Y-63010518D01*
X106994428Y-63135000D01*
X106994428Y-65135000D01*
X107004467Y-65236928D01*
X106515000Y-65236928D01*
X106390518Y-65249188D01*
X106270820Y-65285498D01*
X106160506Y-65344463D01*
X106063815Y-65423815D01*
X105984463Y-65520506D01*
X105925498Y-65630820D01*
X105889188Y-65750518D01*
X105876928Y-65875000D01*
X105876928Y-67224605D01*
X105451326Y-66799003D01*
X105427523Y-66769999D01*
X105311798Y-66675026D01*
X105179769Y-66604454D01*
X105036508Y-66560997D01*
X104991257Y-66556540D01*
X104990000Y-66325750D01*
X104831250Y-66167000D01*
X103632000Y-66167000D01*
X103632000Y-66187000D01*
X103378000Y-66187000D01*
X103378000Y-66167000D01*
X103358000Y-66167000D01*
X103358000Y-65913000D01*
X103378000Y-65913000D01*
X103378000Y-65893000D01*
X103632000Y-65893000D01*
X103632000Y-65913000D01*
X104831250Y-65913000D01*
X104990000Y-65754250D01*
X104993072Y-65190000D01*
X104980812Y-65065518D01*
X104944502Y-64945820D01*
X104885537Y-64835506D01*
X104806185Y-64738815D01*
X104709494Y-64659463D01*
X104599180Y-64600498D01*
X104526620Y-64578487D01*
X104658475Y-64446632D01*
X104820990Y-64203411D01*
X104932932Y-63933158D01*
X104990000Y-63646260D01*
X104990000Y-63353740D01*
X104932932Y-63066842D01*
X104820990Y-62796589D01*
X104658475Y-62553368D01*
X104451632Y-62346525D01*
X104277240Y-62230000D01*
X104451632Y-62113475D01*
X104505106Y-62060001D01*
X108105161Y-62060001D01*
X108169999Y-62066387D01*
X108234837Y-62060001D01*
X108273877Y-62056156D01*
X108428764Y-62040901D01*
X108514148Y-62015000D01*
X108677585Y-61965422D01*
X108906900Y-61842851D01*
X109107896Y-61677898D01*
X109149236Y-61627525D01*
X110390229Y-60386533D01*
X110534727Y-60326680D01*
X110769759Y-60169637D01*
X110969637Y-59969759D01*
X111125000Y-59737241D01*
X111280363Y-59969759D01*
X111480241Y-60169637D01*
X111715273Y-60326680D01*
X111976426Y-60434853D01*
X112253665Y-60490000D01*
X112536335Y-60490000D01*
X112813574Y-60434853D01*
X113074727Y-60326680D01*
X113309759Y-60169637D01*
X113509637Y-59969759D01*
X113665000Y-59737241D01*
X113820363Y-59969759D01*
X114020241Y-60169637D01*
X114255273Y-60326680D01*
X114516426Y-60434853D01*
X114793665Y-60490000D01*
X115076335Y-60490000D01*
X115353574Y-60434853D01*
X115614727Y-60326680D01*
X115849759Y-60169637D01*
X116049637Y-59969759D01*
X116206680Y-59734727D01*
X116314853Y-59473574D01*
X116370000Y-59196335D01*
X116370000Y-58913665D01*
X116314853Y-58636426D01*
X116206680Y-58375273D01*
X116049637Y-58140241D01*
X115849759Y-57940363D01*
X115614727Y-57783320D01*
X115353574Y-57675147D01*
X115076335Y-57620000D01*
X114963711Y-57620000D01*
X114678980Y-57335270D01*
X114808000Y-57206250D01*
X114808000Y-56007000D01*
X115062000Y-56007000D01*
X115062000Y-57206250D01*
X115220750Y-57365000D01*
X115785000Y-57368072D01*
X115909482Y-57355812D01*
X116029180Y-57319502D01*
X116139494Y-57260537D01*
X116236185Y-57181185D01*
X116315537Y-57084494D01*
X116374502Y-56974180D01*
X116410812Y-56854482D01*
X116423072Y-56730000D01*
X116420000Y-56165750D01*
X116261250Y-56007000D01*
X115062000Y-56007000D01*
X114808000Y-56007000D01*
X114788000Y-56007000D01*
X114788000Y-55753000D01*
X114808000Y-55753000D01*
X114808000Y-55733000D01*
X115062000Y-55733000D01*
X115062000Y-55753000D01*
X116261250Y-55753000D01*
X116420000Y-55594250D01*
X116423072Y-55030000D01*
X116410812Y-54905518D01*
X116374502Y-54785820D01*
X116315537Y-54675506D01*
X116236185Y-54578815D01*
X116139494Y-54499463D01*
X116029180Y-54440498D01*
X115956620Y-54418487D01*
X116088475Y-54286632D01*
X116250990Y-54043411D01*
X116362932Y-53773158D01*
X116420000Y-53486260D01*
X116420000Y-53193740D01*
X116362932Y-52906842D01*
X116250990Y-52636589D01*
X116088475Y-52393368D01*
X115881632Y-52186525D01*
X115638411Y-52024010D01*
X115368158Y-51912068D01*
X115081260Y-51855000D01*
X114788740Y-51855000D01*
X114501842Y-51912068D01*
X114231589Y-52024010D01*
X113988368Y-52186525D01*
X113781525Y-52393368D01*
X113619010Y-52636589D01*
X113507068Y-52906842D01*
X113467990Y-53103297D01*
X113245000Y-53326288D01*
X113245000Y-53193740D01*
X113187932Y-52906842D01*
X113075990Y-52636589D01*
X112913475Y-52393368D01*
X112706632Y-52186525D01*
X112463411Y-52024010D01*
X112193158Y-51912068D01*
X112119116Y-51897340D01*
X112174640Y-51860240D01*
X112820240Y-51214640D01*
X113327484Y-50455496D01*
X113676880Y-49611980D01*
X113814523Y-48920000D01*
X132565477Y-48920000D01*
X132703120Y-49611980D01*
M02*
