G04 #@! TF.GenerationSoftware,KiCad,Pcbnew,(5.1.6-0-10_14)*
G04 #@! TF.CreationDate,2021-04-15T17:51:28+01:00*
G04 #@! TF.ProjectId,WiFive55,57694669-7665-4353-952e-6b696361645f,0.11*
G04 #@! TF.SameCoordinates,Original*
G04 #@! TF.FileFunction,Copper,L2,Bot*
G04 #@! TF.FilePolarity,Positive*
%FSLAX46Y46*%
G04 Gerber Fmt 4.6, Leading zero omitted, Abs format (unit mm)*
G04 Created by KiCad (PCBNEW (5.1.6-0-10_14)) date 2021-04-15 17:51:28*
%MOMM*%
%LPD*%
G01*
G04 APERTURE LIST*
G04 #@! TA.AperFunction,EtchedComponent*
%ADD10C,0.100000*%
G04 #@! TD*
G04 #@! TA.AperFunction,ComponentPad*
%ADD11C,2.000000*%
G04 #@! TD*
G04 #@! TA.AperFunction,ComponentPad*
%ADD12C,1.600000*%
G04 #@! TD*
G04 #@! TA.AperFunction,ComponentPad*
%ADD13R,1.600000X1.600000*%
G04 #@! TD*
G04 #@! TA.AperFunction,ComponentPad*
%ADD14C,1.200000*%
G04 #@! TD*
G04 #@! TA.AperFunction,ComponentPad*
%ADD15R,1.200000X1.200000*%
G04 #@! TD*
G04 #@! TA.AperFunction,ComponentPad*
%ADD16O,1.400000X1.400000*%
G04 #@! TD*
G04 #@! TA.AperFunction,ComponentPad*
%ADD17C,1.400000*%
G04 #@! TD*
G04 #@! TA.AperFunction,ComponentPad*
%ADD18C,0.900000*%
G04 #@! TD*
G04 #@! TA.AperFunction,ComponentPad*
%ADD19C,8.000000*%
G04 #@! TD*
G04 #@! TA.AperFunction,ComponentPad*
%ADD20O,1.905000X2.000000*%
G04 #@! TD*
G04 #@! TA.AperFunction,ComponentPad*
%ADD21R,1.905000X2.000000*%
G04 #@! TD*
G04 #@! TA.AperFunction,ComponentPad*
%ADD22R,1.500000X1.500000*%
G04 #@! TD*
G04 #@! TA.AperFunction,ComponentPad*
%ADD23C,1.500000*%
G04 #@! TD*
G04 #@! TA.AperFunction,SMDPad,CuDef*
%ADD24C,0.100000*%
G04 #@! TD*
G04 #@! TA.AperFunction,ComponentPad*
%ADD25O,1.700000X1.700000*%
G04 #@! TD*
G04 #@! TA.AperFunction,ComponentPad*
%ADD26R,1.700000X1.700000*%
G04 #@! TD*
G04 #@! TA.AperFunction,ComponentPad*
%ADD27O,1.727200X1.727200*%
G04 #@! TD*
G04 #@! TA.AperFunction,ComponentPad*
%ADD28R,1.727200X1.727200*%
G04 #@! TD*
G04 #@! TA.AperFunction,ComponentPad*
%ADD29O,1.600000X1.600000*%
G04 #@! TD*
G04 #@! TA.AperFunction,SMDPad,CuDef*
%ADD30R,1.000000X1.500000*%
G04 #@! TD*
G04 #@! TA.AperFunction,ComponentPad*
%ADD31C,1.800000*%
G04 #@! TD*
G04 #@! TA.AperFunction,ComponentPad*
%ADD32R,1.800000X1.800000*%
G04 #@! TD*
G04 #@! TA.AperFunction,ComponentPad*
%ADD33C,3.000000*%
G04 #@! TD*
G04 #@! TA.AperFunction,ComponentPad*
%ADD34R,3.000000X3.000000*%
G04 #@! TD*
G04 #@! TA.AperFunction,ComponentPad*
%ADD35O,1.800000X1.800000*%
G04 #@! TD*
G04 #@! TA.AperFunction,ComponentPad*
%ADD36C,1.778000*%
G04 #@! TD*
G04 #@! TA.AperFunction,ViaPad*
%ADD37C,0.600000*%
G04 #@! TD*
G04 #@! TA.AperFunction,Conductor*
%ADD38C,0.400000*%
G04 #@! TD*
G04 #@! TA.AperFunction,Conductor*
%ADD39C,0.250000*%
G04 #@! TD*
G04 #@! TA.AperFunction,Conductor*
%ADD40C,0.800000*%
G04 #@! TD*
G04 #@! TA.AperFunction,Conductor*
%ADD41C,2.100000*%
G04 #@! TD*
G04 #@! TA.AperFunction,Conductor*
%ADD42C,1.370000*%
G04 #@! TD*
G04 #@! TA.AperFunction,Conductor*
%ADD43C,0.254000*%
G04 #@! TD*
G04 APERTURE END LIST*
D10*
G36*
X125965000Y-76500000D02*
G01*
X125465000Y-76500000D01*
X125465000Y-75900000D01*
X125965000Y-75900000D01*
X125965000Y-76500000D01*
G37*
G36*
X125465000Y-84790000D02*
G01*
X125965000Y-84790000D01*
X125965000Y-85390000D01*
X125465000Y-85390000D01*
X125465000Y-84790000D01*
G37*
G36*
X125480000Y-80345000D02*
G01*
X125980000Y-80345000D01*
X125980000Y-80945000D01*
X125480000Y-80945000D01*
X125480000Y-80345000D01*
G37*
G36*
X119645000Y-84790000D02*
G01*
X119145000Y-84790000D01*
X119145000Y-85390000D01*
X119645000Y-85390000D01*
X119645000Y-84790000D01*
G37*
D11*
X137795000Y-59690000D03*
X135255000Y-59690000D03*
X132715000Y-59690000D03*
X127635000Y-59690000D03*
X125095000Y-59690000D03*
X117475000Y-59690000D03*
D12*
X119340000Y-92075000D03*
D13*
X116840000Y-92075000D03*
D12*
X125135000Y-92075000D03*
D13*
X127635000Y-92075000D03*
D14*
X118015000Y-71120000D03*
D15*
X120015000Y-71120000D03*
D16*
X115570000Y-69850000D03*
D17*
X115570000Y-72390000D03*
D18*
X135673680Y-50381320D03*
X137795000Y-51260000D03*
X139916320Y-50381320D03*
X140795000Y-48260000D03*
X139916320Y-46138680D03*
X137795000Y-45260000D03*
X135673680Y-46138680D03*
X134795000Y-48260000D03*
D19*
X137795000Y-48260000D03*
D18*
X107733680Y-50381320D03*
X109855000Y-51260000D03*
X111976320Y-50381320D03*
X112855000Y-48260000D03*
X111976320Y-46138680D03*
X109855000Y-45260000D03*
X107733680Y-46138680D03*
X106855000Y-48260000D03*
D19*
X109855000Y-48260000D03*
D20*
X113030000Y-64135000D03*
X110490000Y-64135000D03*
D21*
X107950000Y-64135000D03*
D22*
X135255000Y-69850000D03*
D23*
X130175000Y-69850000D03*
X132715000Y-69850000D03*
D22*
X127635000Y-69850000D03*
D23*
X122555000Y-69850000D03*
X125095000Y-69850000D03*
G04 #@! TA.AperFunction,SMDPad,CuDef*
D24*
G36*
X111745000Y-62344398D02*
G01*
X111720466Y-62344398D01*
X111671635Y-62339588D01*
X111623510Y-62330016D01*
X111576555Y-62315772D01*
X111531222Y-62296995D01*
X111487949Y-62273864D01*
X111447150Y-62246604D01*
X111409221Y-62215476D01*
X111374524Y-62180779D01*
X111343396Y-62142850D01*
X111316136Y-62102051D01*
X111293005Y-62058778D01*
X111274228Y-62013445D01*
X111259984Y-61966490D01*
X111250412Y-61918365D01*
X111245602Y-61869534D01*
X111245602Y-61845000D01*
X111245000Y-61845000D01*
X111245000Y-61345000D01*
X111245602Y-61345000D01*
X111245602Y-61320466D01*
X111250412Y-61271635D01*
X111259984Y-61223510D01*
X111274228Y-61176555D01*
X111293005Y-61131222D01*
X111316136Y-61087949D01*
X111343396Y-61047150D01*
X111374524Y-61009221D01*
X111409221Y-60974524D01*
X111447150Y-60943396D01*
X111487949Y-60916136D01*
X111531222Y-60893005D01*
X111576555Y-60874228D01*
X111623510Y-60859984D01*
X111671635Y-60850412D01*
X111720466Y-60845602D01*
X111745000Y-60845602D01*
X111745000Y-60845000D01*
X112245000Y-60845000D01*
X112245000Y-62345000D01*
X111745000Y-62345000D01*
X111745000Y-62344398D01*
G37*
G04 #@! TD.AperFunction*
G04 #@! TA.AperFunction,SMDPad,CuDef*
G36*
X112545000Y-60845000D02*
G01*
X113045000Y-60845000D01*
X113045000Y-60845602D01*
X113069534Y-60845602D01*
X113118365Y-60850412D01*
X113166490Y-60859984D01*
X113213445Y-60874228D01*
X113258778Y-60893005D01*
X113302051Y-60916136D01*
X113342850Y-60943396D01*
X113380779Y-60974524D01*
X113415476Y-61009221D01*
X113446604Y-61047150D01*
X113473864Y-61087949D01*
X113496995Y-61131222D01*
X113515772Y-61176555D01*
X113530016Y-61223510D01*
X113539588Y-61271635D01*
X113544398Y-61320466D01*
X113544398Y-61345000D01*
X113545000Y-61345000D01*
X113545000Y-61845000D01*
X113544398Y-61845000D01*
X113544398Y-61869534D01*
X113539588Y-61918365D01*
X113530016Y-61966490D01*
X113515772Y-62013445D01*
X113496995Y-62058778D01*
X113473864Y-62102051D01*
X113446604Y-62142850D01*
X113415476Y-62180779D01*
X113380779Y-62215476D01*
X113342850Y-62246604D01*
X113302051Y-62273864D01*
X113258778Y-62296995D01*
X113213445Y-62315772D01*
X113166490Y-62330016D01*
X113118365Y-62339588D01*
X113069534Y-62344398D01*
X113045000Y-62344398D01*
X113045000Y-62345000D01*
X112545000Y-62345000D01*
X112545000Y-60845000D01*
G37*
G04 #@! TD.AperFunction*
D25*
X111760000Y-53340000D03*
D26*
X111760000Y-55880000D03*
D25*
X114935000Y-53340000D03*
D26*
X114935000Y-55880000D03*
D16*
X122555000Y-85090000D03*
D17*
X122555000Y-87630000D03*
D16*
X122555000Y-73660000D03*
D17*
X122555000Y-76200000D03*
D16*
X128905000Y-73660000D03*
D17*
X128905000Y-76200000D03*
D16*
X128905000Y-79375000D03*
D17*
X128905000Y-81915000D03*
D16*
X128905000Y-85090000D03*
D17*
X128905000Y-87630000D03*
D16*
X112395000Y-69850000D03*
D17*
X112395000Y-72390000D03*
D16*
X122555000Y-79375000D03*
D17*
X122555000Y-81915000D03*
D16*
X109220000Y-69850000D03*
D17*
X109220000Y-72390000D03*
G04 #@! TA.AperFunction,SMDPad,CuDef*
D24*
G36*
X125565000Y-76950000D02*
G01*
X125065000Y-76950000D01*
X125065000Y-76949398D01*
X125040466Y-76949398D01*
X124991635Y-76944588D01*
X124943510Y-76935016D01*
X124896555Y-76920772D01*
X124851222Y-76901995D01*
X124807949Y-76878864D01*
X124767150Y-76851604D01*
X124729221Y-76820476D01*
X124694524Y-76785779D01*
X124663396Y-76747850D01*
X124636136Y-76707051D01*
X124613005Y-76663778D01*
X124594228Y-76618445D01*
X124579984Y-76571490D01*
X124570412Y-76523365D01*
X124565602Y-76474534D01*
X124565602Y-76450000D01*
X124565000Y-76450000D01*
X124565000Y-75950000D01*
X124565602Y-75950000D01*
X124565602Y-75925466D01*
X124570412Y-75876635D01*
X124579984Y-75828510D01*
X124594228Y-75781555D01*
X124613005Y-75736222D01*
X124636136Y-75692949D01*
X124663396Y-75652150D01*
X124694524Y-75614221D01*
X124729221Y-75579524D01*
X124767150Y-75548396D01*
X124807949Y-75521136D01*
X124851222Y-75498005D01*
X124896555Y-75479228D01*
X124943510Y-75464984D01*
X124991635Y-75455412D01*
X125040466Y-75450602D01*
X125065000Y-75450602D01*
X125065000Y-75450000D01*
X125565000Y-75450000D01*
X125565000Y-76950000D01*
G37*
G04 #@! TD.AperFunction*
G04 #@! TA.AperFunction,SMDPad,CuDef*
G36*
X126365000Y-75450602D02*
G01*
X126389534Y-75450602D01*
X126438365Y-75455412D01*
X126486490Y-75464984D01*
X126533445Y-75479228D01*
X126578778Y-75498005D01*
X126622051Y-75521136D01*
X126662850Y-75548396D01*
X126700779Y-75579524D01*
X126735476Y-75614221D01*
X126766604Y-75652150D01*
X126793864Y-75692949D01*
X126816995Y-75736222D01*
X126835772Y-75781555D01*
X126850016Y-75828510D01*
X126859588Y-75876635D01*
X126864398Y-75925466D01*
X126864398Y-75950000D01*
X126865000Y-75950000D01*
X126865000Y-76450000D01*
X126864398Y-76450000D01*
X126864398Y-76474534D01*
X126859588Y-76523365D01*
X126850016Y-76571490D01*
X126835772Y-76618445D01*
X126816995Y-76663778D01*
X126793864Y-76707051D01*
X126766604Y-76747850D01*
X126735476Y-76785779D01*
X126700779Y-76820476D01*
X126662850Y-76851604D01*
X126622051Y-76878864D01*
X126578778Y-76901995D01*
X126533445Y-76920772D01*
X126486490Y-76935016D01*
X126438365Y-76944588D01*
X126389534Y-76949398D01*
X126365000Y-76949398D01*
X126365000Y-76950000D01*
X125865000Y-76950000D01*
X125865000Y-75450000D01*
X126365000Y-75450000D01*
X126365000Y-75450602D01*
G37*
G04 #@! TD.AperFunction*
G04 #@! TA.AperFunction,SMDPad,CuDef*
G36*
X125865000Y-84340000D02*
G01*
X126365000Y-84340000D01*
X126365000Y-84340602D01*
X126389534Y-84340602D01*
X126438365Y-84345412D01*
X126486490Y-84354984D01*
X126533445Y-84369228D01*
X126578778Y-84388005D01*
X126622051Y-84411136D01*
X126662850Y-84438396D01*
X126700779Y-84469524D01*
X126735476Y-84504221D01*
X126766604Y-84542150D01*
X126793864Y-84582949D01*
X126816995Y-84626222D01*
X126835772Y-84671555D01*
X126850016Y-84718510D01*
X126859588Y-84766635D01*
X126864398Y-84815466D01*
X126864398Y-84840000D01*
X126865000Y-84840000D01*
X126865000Y-85340000D01*
X126864398Y-85340000D01*
X126864398Y-85364534D01*
X126859588Y-85413365D01*
X126850016Y-85461490D01*
X126835772Y-85508445D01*
X126816995Y-85553778D01*
X126793864Y-85597051D01*
X126766604Y-85637850D01*
X126735476Y-85675779D01*
X126700779Y-85710476D01*
X126662850Y-85741604D01*
X126622051Y-85768864D01*
X126578778Y-85791995D01*
X126533445Y-85810772D01*
X126486490Y-85825016D01*
X126438365Y-85834588D01*
X126389534Y-85839398D01*
X126365000Y-85839398D01*
X126365000Y-85840000D01*
X125865000Y-85840000D01*
X125865000Y-84340000D01*
G37*
G04 #@! TD.AperFunction*
G04 #@! TA.AperFunction,SMDPad,CuDef*
G36*
X125065000Y-85839398D02*
G01*
X125040466Y-85839398D01*
X124991635Y-85834588D01*
X124943510Y-85825016D01*
X124896555Y-85810772D01*
X124851222Y-85791995D01*
X124807949Y-85768864D01*
X124767150Y-85741604D01*
X124729221Y-85710476D01*
X124694524Y-85675779D01*
X124663396Y-85637850D01*
X124636136Y-85597051D01*
X124613005Y-85553778D01*
X124594228Y-85508445D01*
X124579984Y-85461490D01*
X124570412Y-85413365D01*
X124565602Y-85364534D01*
X124565602Y-85340000D01*
X124565000Y-85340000D01*
X124565000Y-84840000D01*
X124565602Y-84840000D01*
X124565602Y-84815466D01*
X124570412Y-84766635D01*
X124579984Y-84718510D01*
X124594228Y-84671555D01*
X124613005Y-84626222D01*
X124636136Y-84582949D01*
X124663396Y-84542150D01*
X124694524Y-84504221D01*
X124729221Y-84469524D01*
X124767150Y-84438396D01*
X124807949Y-84411136D01*
X124851222Y-84388005D01*
X124896555Y-84369228D01*
X124943510Y-84354984D01*
X124991635Y-84345412D01*
X125040466Y-84340602D01*
X125065000Y-84340602D01*
X125065000Y-84340000D01*
X125565000Y-84340000D01*
X125565000Y-85840000D01*
X125065000Y-85840000D01*
X125065000Y-85839398D01*
G37*
G04 #@! TD.AperFunction*
G04 #@! TA.AperFunction,SMDPad,CuDef*
G36*
X125880000Y-79895000D02*
G01*
X126380000Y-79895000D01*
X126380000Y-79895602D01*
X126404534Y-79895602D01*
X126453365Y-79900412D01*
X126501490Y-79909984D01*
X126548445Y-79924228D01*
X126593778Y-79943005D01*
X126637051Y-79966136D01*
X126677850Y-79993396D01*
X126715779Y-80024524D01*
X126750476Y-80059221D01*
X126781604Y-80097150D01*
X126808864Y-80137949D01*
X126831995Y-80181222D01*
X126850772Y-80226555D01*
X126865016Y-80273510D01*
X126874588Y-80321635D01*
X126879398Y-80370466D01*
X126879398Y-80395000D01*
X126880000Y-80395000D01*
X126880000Y-80895000D01*
X126879398Y-80895000D01*
X126879398Y-80919534D01*
X126874588Y-80968365D01*
X126865016Y-81016490D01*
X126850772Y-81063445D01*
X126831995Y-81108778D01*
X126808864Y-81152051D01*
X126781604Y-81192850D01*
X126750476Y-81230779D01*
X126715779Y-81265476D01*
X126677850Y-81296604D01*
X126637051Y-81323864D01*
X126593778Y-81346995D01*
X126548445Y-81365772D01*
X126501490Y-81380016D01*
X126453365Y-81389588D01*
X126404534Y-81394398D01*
X126380000Y-81394398D01*
X126380000Y-81395000D01*
X125880000Y-81395000D01*
X125880000Y-79895000D01*
G37*
G04 #@! TD.AperFunction*
G04 #@! TA.AperFunction,SMDPad,CuDef*
G36*
X125080000Y-81394398D02*
G01*
X125055466Y-81394398D01*
X125006635Y-81389588D01*
X124958510Y-81380016D01*
X124911555Y-81365772D01*
X124866222Y-81346995D01*
X124822949Y-81323864D01*
X124782150Y-81296604D01*
X124744221Y-81265476D01*
X124709524Y-81230779D01*
X124678396Y-81192850D01*
X124651136Y-81152051D01*
X124628005Y-81108778D01*
X124609228Y-81063445D01*
X124594984Y-81016490D01*
X124585412Y-80968365D01*
X124580602Y-80919534D01*
X124580602Y-80895000D01*
X124580000Y-80895000D01*
X124580000Y-80395000D01*
X124580602Y-80395000D01*
X124580602Y-80370466D01*
X124585412Y-80321635D01*
X124594984Y-80273510D01*
X124609228Y-80226555D01*
X124628005Y-80181222D01*
X124651136Y-80137949D01*
X124678396Y-80097150D01*
X124709524Y-80059221D01*
X124744221Y-80024524D01*
X124782150Y-79993396D01*
X124822949Y-79966136D01*
X124866222Y-79943005D01*
X124911555Y-79924228D01*
X124958510Y-79909984D01*
X125006635Y-79900412D01*
X125055466Y-79895602D01*
X125080000Y-79895602D01*
X125080000Y-79895000D01*
X125580000Y-79895000D01*
X125580000Y-81395000D01*
X125080000Y-81395000D01*
X125080000Y-81394398D01*
G37*
G04 #@! TD.AperFunction*
D22*
X131445000Y-93345000D03*
D23*
X136525000Y-93345000D03*
X133985000Y-93345000D03*
G04 #@! TA.AperFunction,SMDPad,CuDef*
D24*
G36*
X132730000Y-79895602D02*
G01*
X132754534Y-79895602D01*
X132803365Y-79900412D01*
X132851490Y-79909984D01*
X132898445Y-79924228D01*
X132943778Y-79943005D01*
X132987051Y-79966136D01*
X133027850Y-79993396D01*
X133065779Y-80024524D01*
X133100476Y-80059221D01*
X133131604Y-80097150D01*
X133158864Y-80137949D01*
X133181995Y-80181222D01*
X133200772Y-80226555D01*
X133215016Y-80273510D01*
X133224588Y-80321635D01*
X133229398Y-80370466D01*
X133229398Y-80395000D01*
X133230000Y-80395000D01*
X133230000Y-80895000D01*
X133229398Y-80895000D01*
X133229398Y-80919534D01*
X133224588Y-80968365D01*
X133215016Y-81016490D01*
X133200772Y-81063445D01*
X133181995Y-81108778D01*
X133158864Y-81152051D01*
X133131604Y-81192850D01*
X133100476Y-81230779D01*
X133065779Y-81265476D01*
X133027850Y-81296604D01*
X132987051Y-81323864D01*
X132943778Y-81346995D01*
X132898445Y-81365772D01*
X132851490Y-81380016D01*
X132803365Y-81389588D01*
X132754534Y-81394398D01*
X132730000Y-81394398D01*
X132730000Y-81395000D01*
X132230000Y-81395000D01*
X132230000Y-79895000D01*
X132730000Y-79895000D01*
X132730000Y-79895602D01*
G37*
G04 #@! TD.AperFunction*
G04 #@! TA.AperFunction,SMDPad,CuDef*
G36*
X131930000Y-81395000D02*
G01*
X131430000Y-81395000D01*
X131430000Y-81394398D01*
X131405466Y-81394398D01*
X131356635Y-81389588D01*
X131308510Y-81380016D01*
X131261555Y-81365772D01*
X131216222Y-81346995D01*
X131172949Y-81323864D01*
X131132150Y-81296604D01*
X131094221Y-81265476D01*
X131059524Y-81230779D01*
X131028396Y-81192850D01*
X131001136Y-81152051D01*
X130978005Y-81108778D01*
X130959228Y-81063445D01*
X130944984Y-81016490D01*
X130935412Y-80968365D01*
X130930602Y-80919534D01*
X130930602Y-80895000D01*
X130930000Y-80895000D01*
X130930000Y-80395000D01*
X130930602Y-80395000D01*
X130930602Y-80370466D01*
X130935412Y-80321635D01*
X130944984Y-80273510D01*
X130959228Y-80226555D01*
X130978005Y-80181222D01*
X131001136Y-80137949D01*
X131028396Y-80097150D01*
X131059524Y-80059221D01*
X131094221Y-80024524D01*
X131132150Y-79993396D01*
X131172949Y-79966136D01*
X131216222Y-79943005D01*
X131261555Y-79924228D01*
X131308510Y-79909984D01*
X131356635Y-79900412D01*
X131405466Y-79895602D01*
X131430000Y-79895602D01*
X131430000Y-79895000D01*
X131930000Y-79895000D01*
X131930000Y-81395000D01*
G37*
G04 #@! TD.AperFunction*
G04 #@! TA.AperFunction,SMDPad,CuDef*
G36*
X132730000Y-75450602D02*
G01*
X132754534Y-75450602D01*
X132803365Y-75455412D01*
X132851490Y-75464984D01*
X132898445Y-75479228D01*
X132943778Y-75498005D01*
X132987051Y-75521136D01*
X133027850Y-75548396D01*
X133065779Y-75579524D01*
X133100476Y-75614221D01*
X133131604Y-75652150D01*
X133158864Y-75692949D01*
X133181995Y-75736222D01*
X133200772Y-75781555D01*
X133215016Y-75828510D01*
X133224588Y-75876635D01*
X133229398Y-75925466D01*
X133229398Y-75950000D01*
X133230000Y-75950000D01*
X133230000Y-76450000D01*
X133229398Y-76450000D01*
X133229398Y-76474534D01*
X133224588Y-76523365D01*
X133215016Y-76571490D01*
X133200772Y-76618445D01*
X133181995Y-76663778D01*
X133158864Y-76707051D01*
X133131604Y-76747850D01*
X133100476Y-76785779D01*
X133065779Y-76820476D01*
X133027850Y-76851604D01*
X132987051Y-76878864D01*
X132943778Y-76901995D01*
X132898445Y-76920772D01*
X132851490Y-76935016D01*
X132803365Y-76944588D01*
X132754534Y-76949398D01*
X132730000Y-76949398D01*
X132730000Y-76950000D01*
X132230000Y-76950000D01*
X132230000Y-75450000D01*
X132730000Y-75450000D01*
X132730000Y-75450602D01*
G37*
G04 #@! TD.AperFunction*
G04 #@! TA.AperFunction,SMDPad,CuDef*
G36*
X131930000Y-76950000D02*
G01*
X131430000Y-76950000D01*
X131430000Y-76949398D01*
X131405466Y-76949398D01*
X131356635Y-76944588D01*
X131308510Y-76935016D01*
X131261555Y-76920772D01*
X131216222Y-76901995D01*
X131172949Y-76878864D01*
X131132150Y-76851604D01*
X131094221Y-76820476D01*
X131059524Y-76785779D01*
X131028396Y-76747850D01*
X131001136Y-76707051D01*
X130978005Y-76663778D01*
X130959228Y-76618445D01*
X130944984Y-76571490D01*
X130935412Y-76523365D01*
X130930602Y-76474534D01*
X130930602Y-76450000D01*
X130930000Y-76450000D01*
X130930000Y-75950000D01*
X130930602Y-75950000D01*
X130930602Y-75925466D01*
X130935412Y-75876635D01*
X130944984Y-75828510D01*
X130959228Y-75781555D01*
X130978005Y-75736222D01*
X131001136Y-75692949D01*
X131028396Y-75652150D01*
X131059524Y-75614221D01*
X131094221Y-75579524D01*
X131132150Y-75548396D01*
X131172949Y-75521136D01*
X131216222Y-75498005D01*
X131261555Y-75479228D01*
X131308510Y-75464984D01*
X131356635Y-75455412D01*
X131405466Y-75450602D01*
X131430000Y-75450602D01*
X131430000Y-75450000D01*
X131930000Y-75450000D01*
X131930000Y-76950000D01*
G37*
G04 #@! TD.AperFunction*
D25*
X105410000Y-76200000D03*
X105410000Y-78740000D03*
X105410000Y-81280000D03*
X105410000Y-83820000D03*
X105410000Y-86360000D03*
X105410000Y-88900000D03*
X105410000Y-91440000D03*
D26*
X105410000Y-93980000D03*
D25*
X102870000Y-76200000D03*
X102870000Y-78740000D03*
X102870000Y-81280000D03*
X102870000Y-83820000D03*
X102870000Y-86360000D03*
X102870000Y-88900000D03*
X102870000Y-91440000D03*
D26*
X102870000Y-93980000D03*
D25*
X102870000Y-55880000D03*
X102870000Y-58420000D03*
X102870000Y-60960000D03*
X102870000Y-63500000D03*
D26*
X102870000Y-66040000D03*
D27*
X113665000Y-84455000D03*
X111125000Y-84455000D03*
X113665000Y-81915000D03*
X111125000Y-81915000D03*
X113665000Y-79375000D03*
X111125000Y-79375000D03*
X113665000Y-76835000D03*
D28*
X111125000Y-76835000D03*
D12*
X113665000Y-93305000D03*
X113665000Y-90805000D03*
D29*
X106680000Y-59055000D03*
X114300000Y-66675000D03*
X109220000Y-59055000D03*
X111760000Y-66675000D03*
X111760000Y-59055000D03*
X109220000Y-66675000D03*
X114300000Y-59055000D03*
D13*
X106680000Y-66675000D03*
G04 #@! TA.AperFunction,SMDPad,CuDef*
D24*
G36*
X119495000Y-84340000D02*
G01*
X120045000Y-84340000D01*
X120045000Y-84340602D01*
X120069534Y-84340602D01*
X120118365Y-84345412D01*
X120166490Y-84354984D01*
X120213445Y-84369228D01*
X120258778Y-84388005D01*
X120302051Y-84411136D01*
X120342850Y-84438396D01*
X120380779Y-84469524D01*
X120415476Y-84504221D01*
X120446604Y-84542150D01*
X120473864Y-84582949D01*
X120496995Y-84626222D01*
X120515772Y-84671555D01*
X120530016Y-84718510D01*
X120539588Y-84766635D01*
X120544398Y-84815466D01*
X120544398Y-84840000D01*
X120545000Y-84840000D01*
X120545000Y-85340000D01*
X120544398Y-85340000D01*
X120544398Y-85364534D01*
X120539588Y-85413365D01*
X120530016Y-85461490D01*
X120515772Y-85508445D01*
X120496995Y-85553778D01*
X120473864Y-85597051D01*
X120446604Y-85637850D01*
X120415476Y-85675779D01*
X120380779Y-85710476D01*
X120342850Y-85741604D01*
X120302051Y-85768864D01*
X120258778Y-85791995D01*
X120213445Y-85810772D01*
X120166490Y-85825016D01*
X120118365Y-85834588D01*
X120069534Y-85839398D01*
X120045000Y-85839398D01*
X120045000Y-85840000D01*
X119495000Y-85840000D01*
X119495000Y-84340000D01*
G37*
G04 #@! TD.AperFunction*
D30*
X118745000Y-85090000D03*
G04 #@! TA.AperFunction,SMDPad,CuDef*
D24*
G36*
X117445000Y-85839398D02*
G01*
X117420466Y-85839398D01*
X117371635Y-85834588D01*
X117323510Y-85825016D01*
X117276555Y-85810772D01*
X117231222Y-85791995D01*
X117187949Y-85768864D01*
X117147150Y-85741604D01*
X117109221Y-85710476D01*
X117074524Y-85675779D01*
X117043396Y-85637850D01*
X117016136Y-85597051D01*
X116993005Y-85553778D01*
X116974228Y-85508445D01*
X116959984Y-85461490D01*
X116950412Y-85413365D01*
X116945602Y-85364534D01*
X116945602Y-85340000D01*
X116945000Y-85340000D01*
X116945000Y-84840000D01*
X116945602Y-84840000D01*
X116945602Y-84815466D01*
X116950412Y-84766635D01*
X116959984Y-84718510D01*
X116974228Y-84671555D01*
X116993005Y-84626222D01*
X117016136Y-84582949D01*
X117043396Y-84542150D01*
X117074524Y-84504221D01*
X117109221Y-84469524D01*
X117147150Y-84438396D01*
X117187949Y-84411136D01*
X117231222Y-84388005D01*
X117276555Y-84369228D01*
X117323510Y-84354984D01*
X117371635Y-84345412D01*
X117420466Y-84340602D01*
X117445000Y-84340602D01*
X117445000Y-84340000D01*
X117995000Y-84340000D01*
X117995000Y-85840000D01*
X117445000Y-85840000D01*
X117445000Y-85839398D01*
G37*
G04 #@! TD.AperFunction*
D31*
X103505000Y-53340000D03*
D32*
X106045000Y-53340000D03*
D33*
X143192500Y-64770000D03*
X143192500Y-59690000D03*
D34*
X143192500Y-54610000D03*
D35*
X135890000Y-73025000D03*
D32*
X135890000Y-75565000D03*
D35*
X135890000Y-85090000D03*
D32*
X135890000Y-87630000D03*
D35*
X135890000Y-79375000D03*
D32*
X135890000Y-81915000D03*
D30*
X118745000Y-80645000D03*
G04 #@! TA.AperFunction,SMDPad,CuDef*
D24*
G36*
X120045000Y-79895602D02*
G01*
X120069534Y-79895602D01*
X120118365Y-79900412D01*
X120166490Y-79909984D01*
X120213445Y-79924228D01*
X120258778Y-79943005D01*
X120302051Y-79966136D01*
X120342850Y-79993396D01*
X120380779Y-80024524D01*
X120415476Y-80059221D01*
X120446604Y-80097150D01*
X120473864Y-80137949D01*
X120496995Y-80181222D01*
X120515772Y-80226555D01*
X120530016Y-80273510D01*
X120539588Y-80321635D01*
X120544398Y-80370466D01*
X120544398Y-80395000D01*
X120545000Y-80395000D01*
X120545000Y-80895000D01*
X120544398Y-80895000D01*
X120544398Y-80919534D01*
X120539588Y-80968365D01*
X120530016Y-81016490D01*
X120515772Y-81063445D01*
X120496995Y-81108778D01*
X120473864Y-81152051D01*
X120446604Y-81192850D01*
X120415476Y-81230779D01*
X120380779Y-81265476D01*
X120342850Y-81296604D01*
X120302051Y-81323864D01*
X120258778Y-81346995D01*
X120213445Y-81365772D01*
X120166490Y-81380016D01*
X120118365Y-81389588D01*
X120069534Y-81394398D01*
X120045000Y-81394398D01*
X120045000Y-81395000D01*
X119495000Y-81395000D01*
X119495000Y-79895000D01*
X120045000Y-79895000D01*
X120045000Y-79895602D01*
G37*
G04 #@! TD.AperFunction*
G04 #@! TA.AperFunction,SMDPad,CuDef*
G36*
X117995000Y-81395000D02*
G01*
X117445000Y-81395000D01*
X117445000Y-81394398D01*
X117420466Y-81394398D01*
X117371635Y-81389588D01*
X117323510Y-81380016D01*
X117276555Y-81365772D01*
X117231222Y-81346995D01*
X117187949Y-81323864D01*
X117147150Y-81296604D01*
X117109221Y-81265476D01*
X117074524Y-81230779D01*
X117043396Y-81192850D01*
X117016136Y-81152051D01*
X116993005Y-81108778D01*
X116974228Y-81063445D01*
X116959984Y-81016490D01*
X116950412Y-80968365D01*
X116945602Y-80919534D01*
X116945602Y-80895000D01*
X116945000Y-80895000D01*
X116945000Y-80395000D01*
X116945602Y-80395000D01*
X116945602Y-80370466D01*
X116950412Y-80321635D01*
X116959984Y-80273510D01*
X116974228Y-80226555D01*
X116993005Y-80181222D01*
X117016136Y-80137949D01*
X117043396Y-80097150D01*
X117074524Y-80059221D01*
X117109221Y-80024524D01*
X117147150Y-79993396D01*
X117187949Y-79966136D01*
X117231222Y-79943005D01*
X117276555Y-79924228D01*
X117323510Y-79909984D01*
X117371635Y-79900412D01*
X117420466Y-79895602D01*
X117445000Y-79895602D01*
X117445000Y-79895000D01*
X117995000Y-79895000D01*
X117995000Y-81395000D01*
G37*
G04 #@! TD.AperFunction*
D30*
X118745000Y-76200000D03*
G04 #@! TA.AperFunction,SMDPad,CuDef*
D24*
G36*
X117445000Y-76949398D02*
G01*
X117420466Y-76949398D01*
X117371635Y-76944588D01*
X117323510Y-76935016D01*
X117276555Y-76920772D01*
X117231222Y-76901995D01*
X117187949Y-76878864D01*
X117147150Y-76851604D01*
X117109221Y-76820476D01*
X117074524Y-76785779D01*
X117043396Y-76747850D01*
X117016136Y-76707051D01*
X116993005Y-76663778D01*
X116974228Y-76618445D01*
X116959984Y-76571490D01*
X116950412Y-76523365D01*
X116945602Y-76474534D01*
X116945602Y-76450000D01*
X116945000Y-76450000D01*
X116945000Y-75950000D01*
X116945602Y-75950000D01*
X116945602Y-75925466D01*
X116950412Y-75876635D01*
X116959984Y-75828510D01*
X116974228Y-75781555D01*
X116993005Y-75736222D01*
X117016136Y-75692949D01*
X117043396Y-75652150D01*
X117074524Y-75614221D01*
X117109221Y-75579524D01*
X117147150Y-75548396D01*
X117187949Y-75521136D01*
X117231222Y-75498005D01*
X117276555Y-75479228D01*
X117323510Y-75464984D01*
X117371635Y-75455412D01*
X117420466Y-75450602D01*
X117445000Y-75450602D01*
X117445000Y-75450000D01*
X117995000Y-75450000D01*
X117995000Y-76950000D01*
X117445000Y-76950000D01*
X117445000Y-76949398D01*
G37*
G04 #@! TD.AperFunction*
G04 #@! TA.AperFunction,SMDPad,CuDef*
G36*
X119495000Y-75450000D02*
G01*
X120045000Y-75450000D01*
X120045000Y-75450602D01*
X120069534Y-75450602D01*
X120118365Y-75455412D01*
X120166490Y-75464984D01*
X120213445Y-75479228D01*
X120258778Y-75498005D01*
X120302051Y-75521136D01*
X120342850Y-75548396D01*
X120380779Y-75579524D01*
X120415476Y-75614221D01*
X120446604Y-75652150D01*
X120473864Y-75692949D01*
X120496995Y-75736222D01*
X120515772Y-75781555D01*
X120530016Y-75828510D01*
X120539588Y-75876635D01*
X120544398Y-75925466D01*
X120544398Y-75950000D01*
X120545000Y-75950000D01*
X120545000Y-76450000D01*
X120544398Y-76450000D01*
X120544398Y-76474534D01*
X120539588Y-76523365D01*
X120530016Y-76571490D01*
X120515772Y-76618445D01*
X120496995Y-76663778D01*
X120473864Y-76707051D01*
X120446604Y-76747850D01*
X120415476Y-76785779D01*
X120380779Y-76820476D01*
X120342850Y-76851604D01*
X120302051Y-76878864D01*
X120258778Y-76901995D01*
X120213445Y-76920772D01*
X120166490Y-76935016D01*
X120118365Y-76944588D01*
X120069534Y-76949398D01*
X120045000Y-76949398D01*
X120045000Y-76950000D01*
X119495000Y-76950000D01*
X119495000Y-75450000D01*
G37*
G04 #@! TD.AperFunction*
G04 #@! TA.AperFunction,SMDPad,CuDef*
G36*
X131430000Y-85839398D02*
G01*
X131405466Y-85839398D01*
X131356635Y-85834588D01*
X131308510Y-85825016D01*
X131261555Y-85810772D01*
X131216222Y-85791995D01*
X131172949Y-85768864D01*
X131132150Y-85741604D01*
X131094221Y-85710476D01*
X131059524Y-85675779D01*
X131028396Y-85637850D01*
X131001136Y-85597051D01*
X130978005Y-85553778D01*
X130959228Y-85508445D01*
X130944984Y-85461490D01*
X130935412Y-85413365D01*
X130930602Y-85364534D01*
X130930602Y-85340000D01*
X130930000Y-85340000D01*
X130930000Y-84840000D01*
X130930602Y-84840000D01*
X130930602Y-84815466D01*
X130935412Y-84766635D01*
X130944984Y-84718510D01*
X130959228Y-84671555D01*
X130978005Y-84626222D01*
X131001136Y-84582949D01*
X131028396Y-84542150D01*
X131059524Y-84504221D01*
X131094221Y-84469524D01*
X131132150Y-84438396D01*
X131172949Y-84411136D01*
X131216222Y-84388005D01*
X131261555Y-84369228D01*
X131308510Y-84354984D01*
X131356635Y-84345412D01*
X131405466Y-84340602D01*
X131430000Y-84340602D01*
X131430000Y-84340000D01*
X131930000Y-84340000D01*
X131930000Y-85840000D01*
X131430000Y-85840000D01*
X131430000Y-85839398D01*
G37*
G04 #@! TD.AperFunction*
G04 #@! TA.AperFunction,SMDPad,CuDef*
G36*
X132230000Y-84340000D02*
G01*
X132730000Y-84340000D01*
X132730000Y-84340602D01*
X132754534Y-84340602D01*
X132803365Y-84345412D01*
X132851490Y-84354984D01*
X132898445Y-84369228D01*
X132943778Y-84388005D01*
X132987051Y-84411136D01*
X133027850Y-84438396D01*
X133065779Y-84469524D01*
X133100476Y-84504221D01*
X133131604Y-84542150D01*
X133158864Y-84582949D01*
X133181995Y-84626222D01*
X133200772Y-84671555D01*
X133215016Y-84718510D01*
X133224588Y-84766635D01*
X133229398Y-84815466D01*
X133229398Y-84840000D01*
X133230000Y-84840000D01*
X133230000Y-85340000D01*
X133229398Y-85340000D01*
X133229398Y-85364534D01*
X133224588Y-85413365D01*
X133215016Y-85461490D01*
X133200772Y-85508445D01*
X133181995Y-85553778D01*
X133158864Y-85597051D01*
X133131604Y-85637850D01*
X133100476Y-85675779D01*
X133065779Y-85710476D01*
X133027850Y-85741604D01*
X132987051Y-85768864D01*
X132943778Y-85791995D01*
X132898445Y-85810772D01*
X132851490Y-85825016D01*
X132803365Y-85834588D01*
X132754534Y-85839398D01*
X132730000Y-85839398D01*
X132730000Y-85840000D01*
X132230000Y-85840000D01*
X132230000Y-84340000D01*
G37*
G04 #@! TD.AperFunction*
D36*
X144145000Y-86360000D03*
X141605000Y-86360000D03*
X139065000Y-86360000D03*
X139065000Y-93980000D03*
X144145000Y-93980000D03*
X139065000Y-83185000D03*
X141605000Y-83185000D03*
X144145000Y-83185000D03*
X144145000Y-75565000D03*
X139065000Y-75565000D03*
D33*
X120015000Y-59690000D03*
X122015000Y-53690000D03*
X134215000Y-53690000D03*
X134215000Y-65690000D03*
X122015000Y-65690000D03*
D12*
X130850000Y-89535000D03*
X133350000Y-89535000D03*
D37*
X144145000Y-50165000D03*
X102235000Y-50165000D03*
D38*
X131430000Y-85090000D02*
X128905000Y-85090000D01*
X128905000Y-85090000D02*
X128905000Y-81915000D01*
X130005001Y-77300001D02*
X128905000Y-76200000D01*
X130005001Y-80814999D02*
X130005001Y-77300001D01*
X128905000Y-81915000D02*
X130005001Y-80814999D01*
X132050001Y-88235001D02*
X132050001Y-90140001D01*
X128905000Y-85090000D02*
X132050001Y-88235001D01*
X133985000Y-92075000D02*
X133985000Y-93345000D01*
X132050001Y-90140001D02*
X133985000Y-92075000D01*
X110509999Y-85070001D02*
X104120001Y-85070001D01*
X111125000Y-84455000D02*
X110509999Y-85070001D01*
X114935000Y-92075000D02*
X113665000Y-90805000D01*
X116840000Y-92075000D02*
X114935000Y-92075000D01*
X104120001Y-85070001D02*
X102870000Y-83820000D01*
X145434001Y-76854001D02*
X144145000Y-75565000D01*
X113665000Y-76835000D02*
X112180001Y-75350001D01*
X145434001Y-92690999D02*
X144145000Y-93980000D01*
X145434001Y-76854001D02*
X145434001Y-92690999D01*
X100965000Y-93345000D02*
X101600000Y-93980000D01*
X105410000Y-88900000D02*
X105410000Y-91440000D01*
X105410000Y-91440000D02*
X105410000Y-93980000D01*
X109220000Y-95250000D02*
X106680000Y-95250000D01*
X109220000Y-95250000D02*
X108585000Y-95250000D01*
X112180001Y-75350001D02*
X108799999Y-75350001D01*
X108799999Y-75350001D02*
X106259999Y-75350001D01*
X108799999Y-75350001D02*
X108164999Y-75350001D01*
X109220000Y-95250000D02*
X113030000Y-95250000D01*
X100965000Y-74930000D02*
X100965000Y-93345000D01*
X100965000Y-67945000D02*
X100965000Y-74930000D01*
X119340000Y-92075000D02*
X119340000Y-94655000D01*
X119340000Y-94655000D02*
X118745000Y-95250000D01*
X113665000Y-94615000D02*
X114300000Y-95250000D01*
X113665000Y-93305000D02*
X113665000Y-94615000D01*
X114300000Y-95250000D02*
X118745000Y-95250000D01*
X113665000Y-94615000D02*
X113030000Y-95250000D01*
X105410000Y-93980000D02*
X106680000Y-95250000D01*
X101600000Y-93980000D02*
X102870000Y-93980000D01*
X102870000Y-93980000D02*
X105410000Y-93980000D01*
X106259999Y-75350001D02*
X105410000Y-76200000D01*
X104140000Y-74930000D02*
X105410000Y-76200000D01*
X100965000Y-74930000D02*
X104140000Y-74930000D01*
X100965000Y-67945000D02*
X102870000Y-66040000D01*
X115500001Y-67875001D02*
X116205000Y-68580000D01*
X116205000Y-68580000D02*
X121285000Y-68580000D01*
X121285000Y-68580000D02*
X122555000Y-69850000D01*
X115500001Y-56445001D02*
X114935000Y-55880000D01*
X115500001Y-57854999D02*
X115500001Y-56445001D01*
X115500001Y-57080001D02*
X115500001Y-57854999D01*
X115500001Y-57854999D02*
X115500001Y-67875001D01*
X102870000Y-66040000D02*
X100965000Y-64135000D01*
X100965000Y-64135000D02*
X100965000Y-51435000D01*
X100965000Y-51435000D02*
X102235000Y-50165000D01*
D39*
X120045000Y-85090000D02*
X122555000Y-85090000D01*
X122555000Y-85090000D02*
X122555000Y-81915000D01*
X117445000Y-76200000D02*
X115570000Y-78075000D01*
X111761410Y-76835000D02*
X111125000Y-76835000D01*
X113001410Y-78075000D02*
X111761410Y-76835000D01*
X115570000Y-78075000D02*
X113001410Y-78075000D01*
X112476399Y-78186399D02*
X113665000Y-79375000D01*
X109529197Y-77551399D02*
X110164197Y-78186399D01*
X110164197Y-78186399D02*
X112476399Y-78186399D01*
X114935000Y-80645000D02*
X113665000Y-79375000D01*
X117445000Y-80645000D02*
X114935000Y-80645000D01*
X117445000Y-80645000D02*
X117445000Y-85090000D01*
X104856399Y-77551399D02*
X109529197Y-77551399D01*
X104224599Y-77551399D02*
X104856399Y-77551399D01*
X102329999Y-90899999D02*
X102870000Y-91440000D01*
X101694999Y-78175999D02*
X101694999Y-90264999D01*
X101694999Y-90264999D02*
X102870000Y-91440000D01*
X102319599Y-77551399D02*
X101694999Y-78175999D01*
X103423601Y-77551399D02*
X102319599Y-77551399D01*
X102954599Y-77551399D02*
X103423601Y-77551399D01*
X103423601Y-77551399D02*
X104856399Y-77551399D01*
D38*
X136525000Y-90805000D02*
X136525000Y-93345000D01*
X135890000Y-75565000D02*
X137190001Y-76865001D01*
X136525000Y-94615000D02*
X135890000Y-95250000D01*
X136525000Y-93345000D02*
X136525000Y-94615000D01*
X137190001Y-90139999D02*
X136525000Y-90805000D01*
X137190001Y-76865001D02*
X137190001Y-90139999D01*
X133350000Y-85710000D02*
X132730000Y-85090000D01*
X133350000Y-87630000D02*
X133350000Y-85710000D01*
X136525000Y-90805000D02*
X133350000Y-87630000D01*
D40*
X111125000Y-55880000D02*
X102870000Y-55880000D01*
D38*
X127635000Y-92075000D02*
X127635000Y-94615000D01*
X127635000Y-94615000D02*
X128270000Y-95250000D01*
X128270000Y-95250000D02*
X135890000Y-95250000D01*
X105410000Y-57785000D02*
X103505000Y-55880000D01*
X105559999Y-67875001D02*
X105410000Y-67725002D01*
X105410000Y-67725002D02*
X105410000Y-57785000D01*
X105559999Y-67875001D02*
X108019999Y-67875001D01*
X108019999Y-67875001D02*
X109220000Y-66675000D01*
D40*
X111760000Y-55880000D02*
X111125000Y-55880000D01*
D38*
X139065000Y-94615000D02*
X139065000Y-93980000D01*
D39*
X125080000Y-80235364D02*
X125080000Y-80645000D01*
X110584999Y-82455001D02*
X111125000Y-81915000D01*
X109760001Y-82455001D02*
X110584999Y-82455001D01*
X109949999Y-82455001D02*
X109760001Y-82455001D01*
X109760001Y-82455001D02*
X106585001Y-82455001D01*
X106585001Y-82455001D02*
X105950001Y-82455001D01*
X125080000Y-82535000D02*
X125080000Y-80645000D01*
X126936204Y-83248796D02*
X125793796Y-83248796D01*
X128902997Y-86604999D02*
X127879999Y-85582001D01*
X127879999Y-85582001D02*
X127879999Y-84192591D01*
X127879999Y-84192591D02*
X126936204Y-83248796D01*
X130850000Y-89535000D02*
X130850000Y-88057998D01*
X129397001Y-86604999D02*
X128902997Y-86604999D01*
X125793796Y-83248796D02*
X125080000Y-82535000D01*
X130850000Y-88057998D02*
X129397001Y-86604999D01*
X104045001Y-82455001D02*
X102870000Y-81280000D01*
X104869999Y-82455001D02*
X104045001Y-82455001D01*
X106585001Y-82455001D02*
X104869999Y-82455001D01*
X104869999Y-82455001D02*
X104680001Y-82455001D01*
X110584999Y-79915001D02*
X111125000Y-79375000D01*
X112313601Y-80563601D02*
X111125000Y-79375000D01*
X114072731Y-80563601D02*
X112313601Y-80563601D01*
X117865001Y-88655001D02*
X116205000Y-86995000D01*
X123047001Y-88655001D02*
X117865001Y-88655001D01*
X116205000Y-82695870D02*
X114072731Y-80563601D01*
X116205000Y-86995000D02*
X116205000Y-82695870D01*
X125065000Y-86637002D02*
X123047001Y-88655001D01*
X125065000Y-85090000D02*
X125065000Y-86637002D01*
X105950001Y-79915001D02*
X106774999Y-79915001D01*
X106774999Y-79915001D02*
X110584999Y-79915001D01*
X104869999Y-79915001D02*
X104045001Y-79915001D01*
X104045001Y-79915001D02*
X102870000Y-78740000D01*
X106774999Y-79915001D02*
X104869999Y-79915001D01*
X104869999Y-79915001D02*
X104680001Y-79915001D01*
X120045000Y-80367998D02*
X120045000Y-80645000D01*
X104140000Y-67197478D02*
X105522522Y-68580000D01*
X105522522Y-68580000D02*
X107950000Y-68580000D01*
X107950000Y-68580000D02*
X109220000Y-69850000D01*
X109364999Y-65549999D02*
X110634999Y-65549999D01*
X110634999Y-65549999D02*
X111760000Y-66675000D01*
X107950000Y-64135000D02*
X109364999Y-65549999D01*
X109220000Y-69215000D02*
X109220000Y-69850000D01*
X111760000Y-66675000D02*
X109220000Y-69215000D01*
X121529999Y-74539999D02*
X121529999Y-79160001D01*
X120199991Y-73209991D02*
X121529999Y-74539999D01*
X121529999Y-79160001D02*
X120045000Y-80645000D01*
X118294991Y-73209991D02*
X120199991Y-73209991D01*
X114300000Y-70097002D02*
X115077999Y-70875001D01*
X115960001Y-70875001D02*
X118294991Y-73209991D01*
X115077999Y-70875001D02*
X115960001Y-70875001D01*
X114300000Y-66675000D02*
X114300000Y-70097002D01*
X104140000Y-59690000D02*
X102870000Y-58420000D01*
X104140000Y-65405000D02*
X104140000Y-59690000D01*
X104140000Y-65024998D02*
X104140000Y-65405000D01*
X104140000Y-65405000D02*
X104140000Y-67197478D01*
D41*
X136886300Y-54239980D02*
X142822480Y-54239980D01*
X136336320Y-53690000D02*
X136886300Y-54239980D01*
X142822480Y-54239980D02*
X143192500Y-54610000D01*
X134215000Y-53690000D02*
X136336320Y-53690000D01*
D39*
X125730000Y-73660000D02*
X128905000Y-73660000D01*
X125065000Y-76200000D02*
X125065000Y-74325000D01*
X125065000Y-74325000D02*
X125730000Y-73660000D01*
X118745000Y-85090000D02*
X118745000Y-84090000D01*
X120530002Y-69850000D02*
X115570000Y-69850000D01*
X123580001Y-79867001D02*
X123580001Y-72899999D01*
X120402998Y-82550000D02*
X122113999Y-80838999D01*
X122113999Y-80838999D02*
X122608003Y-80838999D01*
X119380000Y-82550000D02*
X120402998Y-82550000D01*
X122608003Y-80838999D02*
X123580001Y-79867001D01*
X118745000Y-83185000D02*
X119380000Y-82550000D01*
X123580001Y-72899999D02*
X120530002Y-69850000D01*
X118745000Y-85090000D02*
X118745000Y-83185000D01*
X127635000Y-80645000D02*
X128905000Y-79375000D01*
X126380000Y-80645000D02*
X127635000Y-80645000D01*
X126365000Y-85090000D02*
X128905000Y-87630000D01*
X111410003Y-54515001D02*
X107855001Y-54515001D01*
X113174999Y-69070001D02*
X112395000Y-69850000D01*
X113174999Y-65844172D02*
X113174999Y-69070001D01*
X114307510Y-64711661D02*
X113174999Y-65844172D01*
X113030000Y-59450002D02*
X114307510Y-60727512D01*
X113030000Y-54864998D02*
X113030000Y-59450002D01*
X114307510Y-60727512D02*
X114307510Y-64711661D01*
X112680003Y-54515001D02*
X113030000Y-54864998D01*
X107220001Y-54515001D02*
X112680003Y-54515001D01*
X106045000Y-53340000D02*
X107220001Y-54515001D01*
X118745000Y-76200000D02*
X118745000Y-74295000D01*
X118745000Y-74295000D02*
X118110000Y-73660000D01*
X113665000Y-73660000D02*
X118110000Y-73660000D01*
X113665000Y-73660000D02*
X112395000Y-72390000D01*
X131430000Y-76200000D02*
X130810000Y-76820000D01*
X135890000Y-81280000D02*
X135890000Y-81915000D01*
X132715000Y-78105000D02*
X135890000Y-81280000D01*
X131445000Y-78105000D02*
X130810000Y-77470000D01*
X130810000Y-76820000D02*
X130810000Y-77470000D01*
X131445000Y-78105000D02*
X132715000Y-78105000D01*
X135890000Y-85090000D02*
X135890000Y-85725000D01*
X134435009Y-83635009D02*
X135890000Y-85090000D01*
X132730000Y-80645000D02*
X134435009Y-82350009D01*
X134435009Y-82350009D02*
X134435009Y-83635009D01*
D41*
X142272500Y-65690000D02*
X143192500Y-64770000D01*
X134850000Y-65690000D02*
X142272500Y-65690000D01*
X134850000Y-65690000D02*
X134270000Y-65690000D01*
X133635000Y-65690000D02*
X134215000Y-65690000D01*
X127635000Y-59690000D02*
X133635000Y-65690000D01*
X125095000Y-59690000D02*
X127635000Y-59690000D01*
D39*
X113045000Y-60340000D02*
X111760000Y-59055000D01*
X113045000Y-61595000D02*
X113045000Y-60340000D01*
X135890000Y-73025000D02*
X134990001Y-72125001D01*
X127635000Y-69850000D02*
X129910001Y-72125001D01*
X134990001Y-72125001D02*
X129910001Y-72125001D01*
D42*
X109220000Y-61859498D02*
X109220000Y-59055000D01*
X110490000Y-63129498D02*
X109220000Y-61859498D01*
X110490000Y-64135000D02*
X110490000Y-63129498D01*
D39*
X119410000Y-78075000D02*
X120045000Y-78075000D01*
X118745000Y-78740000D02*
X119410000Y-78075000D01*
X118745000Y-80645000D02*
X118745000Y-78740000D01*
X120045000Y-76200000D02*
X120650000Y-76805000D01*
X120650000Y-76805000D02*
X120650000Y-77470000D01*
X120650000Y-77470000D02*
X120045000Y-78075000D01*
X107805001Y-57929999D02*
X106680000Y-59055000D01*
X109760001Y-57929999D02*
X107805001Y-57929999D01*
X110345001Y-58514999D02*
X109760001Y-57929999D01*
X110345001Y-60195001D02*
X110345001Y-59199999D01*
X110345001Y-59199999D02*
X110345001Y-58514999D01*
X111745000Y-61595000D02*
X110345001Y-60195001D01*
X110345001Y-59545001D02*
X110345001Y-59199999D01*
X131430000Y-80645000D02*
X130810000Y-81265000D01*
X133985000Y-85725000D02*
X135890000Y-87630000D01*
X131445000Y-82550000D02*
X130810000Y-81915000D01*
X130810000Y-81265000D02*
X130810000Y-81915000D01*
X133985000Y-83820000D02*
X132715000Y-82550000D01*
X131445000Y-82550000D02*
X132715000Y-82550000D01*
X133985000Y-83820000D02*
X133985000Y-85725000D01*
X135890000Y-79360000D02*
X135890000Y-79375000D01*
X132730000Y-76200000D02*
X133350000Y-76200000D01*
X135890000Y-78740000D02*
X135890000Y-79375000D01*
X133350000Y-76200000D02*
X135890000Y-78740000D01*
X127390001Y-75174999D02*
X129295001Y-75174999D01*
X126365000Y-76200000D02*
X127390001Y-75174999D01*
X129295001Y-75174999D02*
X130810000Y-73660000D01*
X130810000Y-73660000D02*
X132715000Y-73660000D01*
X132715000Y-73660000D02*
X133350000Y-74295000D01*
X133350000Y-75580000D02*
X132730000Y-76200000D01*
X133350000Y-74295000D02*
X133350000Y-75580000D01*
D41*
X117475000Y-59690000D02*
X120015000Y-59690000D01*
X140242490Y-56739990D02*
X143192500Y-59690000D01*
X122965010Y-56739990D02*
X140242490Y-56739990D01*
X120015000Y-59690000D02*
X122965010Y-56739990D01*
D43*
G36*
X142961232Y-87331493D02*
G01*
X143173507Y-87543768D01*
X143423115Y-87710551D01*
X143700466Y-87825434D01*
X143994899Y-87884000D01*
X144295101Y-87884000D01*
X144589534Y-87825434D01*
X144866885Y-87710551D01*
X145116493Y-87543768D01*
X145328768Y-87331493D01*
X145390001Y-87239852D01*
X145390001Y-93164806D01*
X145201231Y-93103374D01*
X144324605Y-93980000D01*
X145201231Y-94856626D01*
X145390001Y-94795194D01*
X145390001Y-95217715D01*
X145389335Y-95224513D01*
X145384699Y-95225000D01*
X144960195Y-95225000D01*
X145021626Y-95036231D01*
X144145000Y-94159605D01*
X143268374Y-95036231D01*
X143329805Y-95225000D01*
X139944853Y-95225000D01*
X140036493Y-95163768D01*
X140248768Y-94951493D01*
X140415551Y-94701885D01*
X140530434Y-94424534D01*
X140589000Y-94130101D01*
X140589000Y-94046988D01*
X142615092Y-94046988D01*
X142657557Y-94344171D01*
X142757184Y-94627359D01*
X142835711Y-94774273D01*
X143088769Y-94856626D01*
X143965395Y-93980000D01*
X143088769Y-93103374D01*
X142835711Y-93185727D01*
X142705914Y-93456418D01*
X142631420Y-93747230D01*
X142615092Y-94046988D01*
X140589000Y-94046988D01*
X140589000Y-93829899D01*
X140530434Y-93535466D01*
X140415551Y-93258115D01*
X140248768Y-93008507D01*
X140164030Y-92923769D01*
X143268374Y-92923769D01*
X144145000Y-93800395D01*
X145021626Y-92923769D01*
X144939273Y-92670711D01*
X144668582Y-92540914D01*
X144377770Y-92466420D01*
X144078012Y-92450092D01*
X143780829Y-92492557D01*
X143497641Y-92592184D01*
X143350727Y-92670711D01*
X143268374Y-92923769D01*
X140164030Y-92923769D01*
X140036493Y-92796232D01*
X139786885Y-92629449D01*
X139509534Y-92514566D01*
X139215101Y-92456000D01*
X138914899Y-92456000D01*
X138620466Y-92514566D01*
X138343115Y-92629449D01*
X138093507Y-92796232D01*
X137881232Y-93008507D01*
X137872731Y-93021229D01*
X137856775Y-92941011D01*
X137752371Y-92688957D01*
X137600799Y-92462114D01*
X137407886Y-92269201D01*
X137360000Y-92237205D01*
X137360000Y-91150867D01*
X137751427Y-90759441D01*
X137783292Y-90733290D01*
X137887637Y-90606145D01*
X137965173Y-90461086D01*
X138012919Y-90303688D01*
X138025001Y-90181018D01*
X138025001Y-90181008D01*
X138029040Y-90140000D01*
X138025001Y-90098992D01*
X138025001Y-87475262D01*
X138093507Y-87543768D01*
X138343115Y-87710551D01*
X138620466Y-87825434D01*
X138914899Y-87884000D01*
X139215101Y-87884000D01*
X139509534Y-87825434D01*
X139786885Y-87710551D01*
X140036493Y-87543768D01*
X140248768Y-87331493D01*
X140335000Y-87202438D01*
X140421232Y-87331493D01*
X140633507Y-87543768D01*
X140883115Y-87710551D01*
X141160466Y-87825434D01*
X141454899Y-87884000D01*
X141755101Y-87884000D01*
X142049534Y-87825434D01*
X142326885Y-87710551D01*
X142576493Y-87543768D01*
X142788768Y-87331493D01*
X142875000Y-87202438D01*
X142961232Y-87331493D01*
G37*
X142961232Y-87331493D02*
X143173507Y-87543768D01*
X143423115Y-87710551D01*
X143700466Y-87825434D01*
X143994899Y-87884000D01*
X144295101Y-87884000D01*
X144589534Y-87825434D01*
X144866885Y-87710551D01*
X145116493Y-87543768D01*
X145328768Y-87331493D01*
X145390001Y-87239852D01*
X145390001Y-93164806D01*
X145201231Y-93103374D01*
X144324605Y-93980000D01*
X145201231Y-94856626D01*
X145390001Y-94795194D01*
X145390001Y-95217715D01*
X145389335Y-95224513D01*
X145384699Y-95225000D01*
X144960195Y-95225000D01*
X145021626Y-95036231D01*
X144145000Y-94159605D01*
X143268374Y-95036231D01*
X143329805Y-95225000D01*
X139944853Y-95225000D01*
X140036493Y-95163768D01*
X140248768Y-94951493D01*
X140415551Y-94701885D01*
X140530434Y-94424534D01*
X140589000Y-94130101D01*
X140589000Y-94046988D01*
X142615092Y-94046988D01*
X142657557Y-94344171D01*
X142757184Y-94627359D01*
X142835711Y-94774273D01*
X143088769Y-94856626D01*
X143965395Y-93980000D01*
X143088769Y-93103374D01*
X142835711Y-93185727D01*
X142705914Y-93456418D01*
X142631420Y-93747230D01*
X142615092Y-94046988D01*
X140589000Y-94046988D01*
X140589000Y-93829899D01*
X140530434Y-93535466D01*
X140415551Y-93258115D01*
X140248768Y-93008507D01*
X140164030Y-92923769D01*
X143268374Y-92923769D01*
X144145000Y-93800395D01*
X145021626Y-92923769D01*
X144939273Y-92670711D01*
X144668582Y-92540914D01*
X144377770Y-92466420D01*
X144078012Y-92450092D01*
X143780829Y-92492557D01*
X143497641Y-92592184D01*
X143350727Y-92670711D01*
X143268374Y-92923769D01*
X140164030Y-92923769D01*
X140036493Y-92796232D01*
X139786885Y-92629449D01*
X139509534Y-92514566D01*
X139215101Y-92456000D01*
X138914899Y-92456000D01*
X138620466Y-92514566D01*
X138343115Y-92629449D01*
X138093507Y-92796232D01*
X137881232Y-93008507D01*
X137872731Y-93021229D01*
X137856775Y-92941011D01*
X137752371Y-92688957D01*
X137600799Y-92462114D01*
X137407886Y-92269201D01*
X137360000Y-92237205D01*
X137360000Y-91150867D01*
X137751427Y-90759441D01*
X137783292Y-90733290D01*
X137887637Y-90606145D01*
X137965173Y-90461086D01*
X138012919Y-90303688D01*
X138025001Y-90181018D01*
X138025001Y-90181008D01*
X138029040Y-90140000D01*
X138025001Y-90098992D01*
X138025001Y-87475262D01*
X138093507Y-87543768D01*
X138343115Y-87710551D01*
X138620466Y-87825434D01*
X138914899Y-87884000D01*
X139215101Y-87884000D01*
X139509534Y-87825434D01*
X139786885Y-87710551D01*
X140036493Y-87543768D01*
X140248768Y-87331493D01*
X140335000Y-87202438D01*
X140421232Y-87331493D01*
X140633507Y-87543768D01*
X140883115Y-87710551D01*
X141160466Y-87825434D01*
X141454899Y-87884000D01*
X141755101Y-87884000D01*
X142049534Y-87825434D01*
X142326885Y-87710551D01*
X142576493Y-87543768D01*
X142788768Y-87331493D01*
X142875000Y-87202438D01*
X142961232Y-87331493D01*
G36*
X115445001Y-83010673D02*
G01*
X115445000Y-86957677D01*
X115441324Y-86995000D01*
X115445000Y-87032322D01*
X115445000Y-87032332D01*
X115455997Y-87143985D01*
X115485114Y-87239973D01*
X115499454Y-87287246D01*
X115570026Y-87419276D01*
X115608628Y-87466312D01*
X115664999Y-87535001D01*
X115694003Y-87558804D01*
X117301202Y-89166004D01*
X117325000Y-89195002D01*
X117353998Y-89218800D01*
X117440724Y-89289975D01*
X117563115Y-89355395D01*
X117572754Y-89360547D01*
X117716015Y-89404004D01*
X117827668Y-89415001D01*
X117827678Y-89415001D01*
X117865001Y-89418677D01*
X117902324Y-89415001D01*
X123009679Y-89415001D01*
X123047001Y-89418677D01*
X123084323Y-89415001D01*
X123084334Y-89415001D01*
X123195987Y-89404004D01*
X123339248Y-89360547D01*
X123471277Y-89289975D01*
X123587002Y-89195002D01*
X123610805Y-89165998D01*
X125576003Y-87200801D01*
X125605001Y-87177003D01*
X125699974Y-87061278D01*
X125770546Y-86929249D01*
X125814003Y-86785988D01*
X125825000Y-86674335D01*
X125828677Y-86637002D01*
X125825000Y-86599669D01*
X125825000Y-86474132D01*
X125865000Y-86478072D01*
X126365000Y-86478072D01*
X126389450Y-86475664D01*
X126414009Y-86475664D01*
X126538490Y-86463404D01*
X126634623Y-86444282D01*
X126642186Y-86441988D01*
X127591355Y-87391157D01*
X127570000Y-87498514D01*
X127570000Y-87761486D01*
X127621304Y-88019405D01*
X127721939Y-88262359D01*
X127868038Y-88481013D01*
X128053987Y-88666962D01*
X128272641Y-88813061D01*
X128515595Y-88913696D01*
X128773514Y-88965000D01*
X129036486Y-88965000D01*
X129294405Y-88913696D01*
X129537359Y-88813061D01*
X129662311Y-88729571D01*
X129578320Y-88855273D01*
X129470147Y-89116426D01*
X129415000Y-89393665D01*
X129415000Y-89676335D01*
X129470147Y-89953574D01*
X129578320Y-90214727D01*
X129735363Y-90449759D01*
X129935241Y-90649637D01*
X130170273Y-90806680D01*
X130431426Y-90914853D01*
X130708665Y-90970000D01*
X130991335Y-90970000D01*
X131268574Y-90914853D01*
X131529727Y-90806680D01*
X131533375Y-90804242D01*
X133050223Y-92321092D01*
X132909201Y-92462114D01*
X132831445Y-92578483D01*
X132820812Y-92470518D01*
X132784502Y-92350820D01*
X132725537Y-92240506D01*
X132646185Y-92143815D01*
X132549494Y-92064463D01*
X132439180Y-92005498D01*
X132319482Y-91969188D01*
X132195000Y-91956928D01*
X131730750Y-91960000D01*
X131572000Y-92118750D01*
X131572000Y-93218000D01*
X131592000Y-93218000D01*
X131592000Y-93472000D01*
X131572000Y-93472000D01*
X131572000Y-93492000D01*
X131318000Y-93492000D01*
X131318000Y-93472000D01*
X130218750Y-93472000D01*
X130060000Y-93630750D01*
X130056928Y-94095000D01*
X130069188Y-94219482D01*
X130105498Y-94339180D01*
X130146025Y-94415000D01*
X128615868Y-94415000D01*
X128470000Y-94269132D01*
X128470000Y-93509625D01*
X128559482Y-93500812D01*
X128679180Y-93464502D01*
X128789494Y-93405537D01*
X128886185Y-93326185D01*
X128965537Y-93229494D01*
X129024502Y-93119180D01*
X129060812Y-92999482D01*
X129073072Y-92875000D01*
X129073072Y-92595000D01*
X130056928Y-92595000D01*
X130060000Y-93059250D01*
X130218750Y-93218000D01*
X131318000Y-93218000D01*
X131318000Y-92118750D01*
X131159250Y-91960000D01*
X130695000Y-91956928D01*
X130570518Y-91969188D01*
X130450820Y-92005498D01*
X130340506Y-92064463D01*
X130243815Y-92143815D01*
X130164463Y-92240506D01*
X130105498Y-92350820D01*
X130069188Y-92470518D01*
X130056928Y-92595000D01*
X129073072Y-92595000D01*
X129073072Y-91275000D01*
X129060812Y-91150518D01*
X129024502Y-91030820D01*
X128965537Y-90920506D01*
X128886185Y-90823815D01*
X128789494Y-90744463D01*
X128679180Y-90685498D01*
X128559482Y-90649188D01*
X128435000Y-90636928D01*
X126835000Y-90636928D01*
X126710518Y-90649188D01*
X126590820Y-90685498D01*
X126480506Y-90744463D01*
X126383815Y-90823815D01*
X126304463Y-90920506D01*
X126245498Y-91030820D01*
X126209188Y-91150518D01*
X126196928Y-91275000D01*
X126196928Y-91282215D01*
X126127702Y-91261903D01*
X125314605Y-92075000D01*
X126127702Y-92888097D01*
X126196928Y-92867785D01*
X126196928Y-92875000D01*
X126209188Y-92999482D01*
X126245498Y-93119180D01*
X126304463Y-93229494D01*
X126383815Y-93326185D01*
X126480506Y-93405537D01*
X126590820Y-93464502D01*
X126710518Y-93500812D01*
X126800001Y-93509625D01*
X126800001Y-94573972D01*
X126795960Y-94615000D01*
X126812082Y-94778688D01*
X126859828Y-94936086D01*
X126937364Y-95081145D01*
X126947605Y-95093624D01*
X127041710Y-95208291D01*
X127062070Y-95225000D01*
X106757295Y-95225000D01*
X106790537Y-95184494D01*
X106849502Y-95074180D01*
X106885812Y-94954482D01*
X106898072Y-94830000D01*
X106895174Y-94297702D01*
X112851903Y-94297702D01*
X112923486Y-94541671D01*
X113178996Y-94662571D01*
X113453184Y-94731300D01*
X113735512Y-94745217D01*
X114015130Y-94703787D01*
X114281292Y-94608603D01*
X114406514Y-94541671D01*
X114478097Y-94297702D01*
X113665000Y-93484605D01*
X112851903Y-94297702D01*
X106895174Y-94297702D01*
X106895000Y-94265750D01*
X106736250Y-94107000D01*
X105537000Y-94107000D01*
X105537000Y-94127000D01*
X105283000Y-94127000D01*
X105283000Y-94107000D01*
X102997000Y-94107000D01*
X102997000Y-94127000D01*
X102743000Y-94127000D01*
X102743000Y-94107000D01*
X101543750Y-94107000D01*
X101385000Y-94265750D01*
X101381928Y-94830000D01*
X101394188Y-94954482D01*
X101430498Y-95074180D01*
X101489463Y-95184494D01*
X101522705Y-95225000D01*
X100997275Y-95225000D01*
X100990487Y-95224335D01*
X100990000Y-95219699D01*
X100990000Y-90558268D01*
X101060025Y-90689275D01*
X101131200Y-90776001D01*
X101154999Y-90805000D01*
X101183997Y-90828798D01*
X101428791Y-91073592D01*
X101385000Y-91293740D01*
X101385000Y-91586260D01*
X101442068Y-91873158D01*
X101554010Y-92143411D01*
X101716525Y-92386632D01*
X101848380Y-92518487D01*
X101775820Y-92540498D01*
X101665506Y-92599463D01*
X101568815Y-92678815D01*
X101489463Y-92775506D01*
X101430498Y-92885820D01*
X101394188Y-93005518D01*
X101381928Y-93130000D01*
X101385000Y-93694250D01*
X101543750Y-93853000D01*
X102743000Y-93853000D01*
X102743000Y-93833000D01*
X102997000Y-93833000D01*
X102997000Y-93853000D01*
X105283000Y-93853000D01*
X105283000Y-91567000D01*
X105537000Y-91567000D01*
X105537000Y-93853000D01*
X106736250Y-93853000D01*
X106895000Y-93694250D01*
X106896735Y-93375512D01*
X112224783Y-93375512D01*
X112266213Y-93655130D01*
X112361397Y-93921292D01*
X112428329Y-94046514D01*
X112672298Y-94118097D01*
X113485395Y-93305000D01*
X112672298Y-92491903D01*
X112428329Y-92563486D01*
X112307429Y-92818996D01*
X112238700Y-93093184D01*
X112224783Y-93375512D01*
X106896735Y-93375512D01*
X106898072Y-93130000D01*
X106885812Y-93005518D01*
X106849502Y-92885820D01*
X106790537Y-92775506D01*
X106711185Y-92678815D01*
X106614494Y-92599463D01*
X106504180Y-92540498D01*
X106423534Y-92516034D01*
X106507588Y-92440269D01*
X106681641Y-92206920D01*
X106806825Y-91944099D01*
X106851476Y-91796890D01*
X106730155Y-91567000D01*
X105537000Y-91567000D01*
X105283000Y-91567000D01*
X105263000Y-91567000D01*
X105263000Y-91313000D01*
X105283000Y-91313000D01*
X105283000Y-89027000D01*
X105537000Y-89027000D01*
X105537000Y-91313000D01*
X106730155Y-91313000D01*
X106851476Y-91083110D01*
X106806825Y-90935901D01*
X106681641Y-90673080D01*
X106674619Y-90663665D01*
X112230000Y-90663665D01*
X112230000Y-90946335D01*
X112285147Y-91223574D01*
X112393320Y-91484727D01*
X112550363Y-91719759D01*
X112750241Y-91919637D01*
X112950869Y-92053692D01*
X112923486Y-92068329D01*
X112851903Y-92312298D01*
X113665000Y-93125395D01*
X113679143Y-93111253D01*
X113858748Y-93290858D01*
X113844605Y-93305000D01*
X114657702Y-94118097D01*
X114901671Y-94046514D01*
X115022571Y-93791004D01*
X115091300Y-93516816D01*
X115105217Y-93234488D01*
X115063787Y-92954870D01*
X115047741Y-92910000D01*
X115405375Y-92910000D01*
X115414188Y-92999482D01*
X115450498Y-93119180D01*
X115509463Y-93229494D01*
X115588815Y-93326185D01*
X115685506Y-93405537D01*
X115795820Y-93464502D01*
X115915518Y-93500812D01*
X116040000Y-93513072D01*
X117640000Y-93513072D01*
X117764482Y-93500812D01*
X117884180Y-93464502D01*
X117994494Y-93405537D01*
X118091185Y-93326185D01*
X118170537Y-93229494D01*
X118229502Y-93119180D01*
X118245117Y-93067702D01*
X118526903Y-93067702D01*
X118598486Y-93311671D01*
X118853996Y-93432571D01*
X119128184Y-93501300D01*
X119410512Y-93515217D01*
X119690130Y-93473787D01*
X119956292Y-93378603D01*
X120081514Y-93311671D01*
X120153097Y-93067702D01*
X124321903Y-93067702D01*
X124393486Y-93311671D01*
X124648996Y-93432571D01*
X124923184Y-93501300D01*
X125205512Y-93515217D01*
X125485130Y-93473787D01*
X125751292Y-93378603D01*
X125876514Y-93311671D01*
X125948097Y-93067702D01*
X125135000Y-92254605D01*
X124321903Y-93067702D01*
X120153097Y-93067702D01*
X119340000Y-92254605D01*
X118526903Y-93067702D01*
X118245117Y-93067702D01*
X118265812Y-92999482D01*
X118278072Y-92875000D01*
X118278072Y-92867785D01*
X118347298Y-92888097D01*
X119160395Y-92075000D01*
X119519605Y-92075000D01*
X120332702Y-92888097D01*
X120576671Y-92816514D01*
X120697571Y-92561004D01*
X120766300Y-92286816D01*
X120773265Y-92145512D01*
X123694783Y-92145512D01*
X123736213Y-92425130D01*
X123831397Y-92691292D01*
X123898329Y-92816514D01*
X124142298Y-92888097D01*
X124955395Y-92075000D01*
X124142298Y-91261903D01*
X123898329Y-91333486D01*
X123777429Y-91588996D01*
X123708700Y-91863184D01*
X123694783Y-92145512D01*
X120773265Y-92145512D01*
X120780217Y-92004488D01*
X120738787Y-91724870D01*
X120643603Y-91458708D01*
X120576671Y-91333486D01*
X120332702Y-91261903D01*
X119519605Y-92075000D01*
X119160395Y-92075000D01*
X118347298Y-91261903D01*
X118278072Y-91282215D01*
X118278072Y-91275000D01*
X118265812Y-91150518D01*
X118245118Y-91082298D01*
X118526903Y-91082298D01*
X119340000Y-91895395D01*
X120153097Y-91082298D01*
X124321903Y-91082298D01*
X125135000Y-91895395D01*
X125948097Y-91082298D01*
X125876514Y-90838329D01*
X125621004Y-90717429D01*
X125346816Y-90648700D01*
X125064488Y-90634783D01*
X124784870Y-90676213D01*
X124518708Y-90771397D01*
X124393486Y-90838329D01*
X124321903Y-91082298D01*
X120153097Y-91082298D01*
X120081514Y-90838329D01*
X119826004Y-90717429D01*
X119551816Y-90648700D01*
X119269488Y-90634783D01*
X118989870Y-90676213D01*
X118723708Y-90771397D01*
X118598486Y-90838329D01*
X118526903Y-91082298D01*
X118245118Y-91082298D01*
X118229502Y-91030820D01*
X118170537Y-90920506D01*
X118091185Y-90823815D01*
X117994494Y-90744463D01*
X117884180Y-90685498D01*
X117764482Y-90649188D01*
X117640000Y-90636928D01*
X116040000Y-90636928D01*
X115915518Y-90649188D01*
X115795820Y-90685498D01*
X115685506Y-90744463D01*
X115588815Y-90823815D01*
X115509463Y-90920506D01*
X115450498Y-91030820D01*
X115414188Y-91150518D01*
X115405375Y-91240000D01*
X115280868Y-91240000D01*
X115081286Y-91040418D01*
X115100000Y-90946335D01*
X115100000Y-90663665D01*
X115044853Y-90386426D01*
X114936680Y-90125273D01*
X114779637Y-89890241D01*
X114579759Y-89690363D01*
X114344727Y-89533320D01*
X114083574Y-89425147D01*
X113806335Y-89370000D01*
X113523665Y-89370000D01*
X113246426Y-89425147D01*
X112985273Y-89533320D01*
X112750241Y-89690363D01*
X112550363Y-89890241D01*
X112393320Y-90125273D01*
X112285147Y-90386426D01*
X112230000Y-90663665D01*
X106674619Y-90663665D01*
X106507588Y-90439731D01*
X106291355Y-90244822D01*
X106165745Y-90170000D01*
X106291355Y-90095178D01*
X106507588Y-89900269D01*
X106681641Y-89666920D01*
X106806825Y-89404099D01*
X106851476Y-89256890D01*
X106730155Y-89027000D01*
X105537000Y-89027000D01*
X105283000Y-89027000D01*
X105263000Y-89027000D01*
X105263000Y-88773000D01*
X105283000Y-88773000D01*
X105283000Y-86487000D01*
X105537000Y-86487000D01*
X105537000Y-88773000D01*
X106730155Y-88773000D01*
X106851476Y-88543110D01*
X106806825Y-88395901D01*
X106681641Y-88133080D01*
X106507588Y-87899731D01*
X106291355Y-87704822D01*
X106165745Y-87630000D01*
X106291355Y-87555178D01*
X106507588Y-87360269D01*
X106681641Y-87126920D01*
X106806825Y-86864099D01*
X106851476Y-86716890D01*
X106730155Y-86487000D01*
X105537000Y-86487000D01*
X105283000Y-86487000D01*
X105263000Y-86487000D01*
X105263000Y-86233000D01*
X105283000Y-86233000D01*
X105283000Y-86213000D01*
X105537000Y-86213000D01*
X105537000Y-86233000D01*
X106730155Y-86233000D01*
X106851476Y-86003110D01*
X106821718Y-85905001D01*
X110468981Y-85905001D01*
X110509999Y-85909041D01*
X110551017Y-85905001D01*
X110551018Y-85905001D01*
X110673688Y-85892919D01*
X110677570Y-85891741D01*
X110687875Y-85896010D01*
X110977401Y-85953600D01*
X111272599Y-85953600D01*
X111562125Y-85896010D01*
X111834853Y-85783042D01*
X112080302Y-85619039D01*
X112289039Y-85410302D01*
X112395000Y-85251719D01*
X112500961Y-85410302D01*
X112709698Y-85619039D01*
X112955147Y-85783042D01*
X113227875Y-85896010D01*
X113517401Y-85953600D01*
X113812599Y-85953600D01*
X114102125Y-85896010D01*
X114374853Y-85783042D01*
X114620302Y-85619039D01*
X114829039Y-85410302D01*
X114993042Y-85164853D01*
X115106010Y-84892125D01*
X115163600Y-84602599D01*
X115163600Y-84307401D01*
X115106010Y-84017875D01*
X114993042Y-83745147D01*
X114829039Y-83499698D01*
X114620302Y-83290961D01*
X114461719Y-83185000D01*
X114620302Y-83079039D01*
X114829039Y-82870302D01*
X114993042Y-82624853D01*
X115012414Y-82578085D01*
X115445001Y-83010673D01*
G37*
X115445001Y-83010673D02*
X115445000Y-86957677D01*
X115441324Y-86995000D01*
X115445000Y-87032322D01*
X115445000Y-87032332D01*
X115455997Y-87143985D01*
X115485114Y-87239973D01*
X115499454Y-87287246D01*
X115570026Y-87419276D01*
X115608628Y-87466312D01*
X115664999Y-87535001D01*
X115694003Y-87558804D01*
X117301202Y-89166004D01*
X117325000Y-89195002D01*
X117353998Y-89218800D01*
X117440724Y-89289975D01*
X117563115Y-89355395D01*
X117572754Y-89360547D01*
X117716015Y-89404004D01*
X117827668Y-89415001D01*
X117827678Y-89415001D01*
X117865001Y-89418677D01*
X117902324Y-89415001D01*
X123009679Y-89415001D01*
X123047001Y-89418677D01*
X123084323Y-89415001D01*
X123084334Y-89415001D01*
X123195987Y-89404004D01*
X123339248Y-89360547D01*
X123471277Y-89289975D01*
X123587002Y-89195002D01*
X123610805Y-89165998D01*
X125576003Y-87200801D01*
X125605001Y-87177003D01*
X125699974Y-87061278D01*
X125770546Y-86929249D01*
X125814003Y-86785988D01*
X125825000Y-86674335D01*
X125828677Y-86637002D01*
X125825000Y-86599669D01*
X125825000Y-86474132D01*
X125865000Y-86478072D01*
X126365000Y-86478072D01*
X126389450Y-86475664D01*
X126414009Y-86475664D01*
X126538490Y-86463404D01*
X126634623Y-86444282D01*
X126642186Y-86441988D01*
X127591355Y-87391157D01*
X127570000Y-87498514D01*
X127570000Y-87761486D01*
X127621304Y-88019405D01*
X127721939Y-88262359D01*
X127868038Y-88481013D01*
X128053987Y-88666962D01*
X128272641Y-88813061D01*
X128515595Y-88913696D01*
X128773514Y-88965000D01*
X129036486Y-88965000D01*
X129294405Y-88913696D01*
X129537359Y-88813061D01*
X129662311Y-88729571D01*
X129578320Y-88855273D01*
X129470147Y-89116426D01*
X129415000Y-89393665D01*
X129415000Y-89676335D01*
X129470147Y-89953574D01*
X129578320Y-90214727D01*
X129735363Y-90449759D01*
X129935241Y-90649637D01*
X130170273Y-90806680D01*
X130431426Y-90914853D01*
X130708665Y-90970000D01*
X130991335Y-90970000D01*
X131268574Y-90914853D01*
X131529727Y-90806680D01*
X131533375Y-90804242D01*
X133050223Y-92321092D01*
X132909201Y-92462114D01*
X132831445Y-92578483D01*
X132820812Y-92470518D01*
X132784502Y-92350820D01*
X132725537Y-92240506D01*
X132646185Y-92143815D01*
X132549494Y-92064463D01*
X132439180Y-92005498D01*
X132319482Y-91969188D01*
X132195000Y-91956928D01*
X131730750Y-91960000D01*
X131572000Y-92118750D01*
X131572000Y-93218000D01*
X131592000Y-93218000D01*
X131592000Y-93472000D01*
X131572000Y-93472000D01*
X131572000Y-93492000D01*
X131318000Y-93492000D01*
X131318000Y-93472000D01*
X130218750Y-93472000D01*
X130060000Y-93630750D01*
X130056928Y-94095000D01*
X130069188Y-94219482D01*
X130105498Y-94339180D01*
X130146025Y-94415000D01*
X128615868Y-94415000D01*
X128470000Y-94269132D01*
X128470000Y-93509625D01*
X128559482Y-93500812D01*
X128679180Y-93464502D01*
X128789494Y-93405537D01*
X128886185Y-93326185D01*
X128965537Y-93229494D01*
X129024502Y-93119180D01*
X129060812Y-92999482D01*
X129073072Y-92875000D01*
X129073072Y-92595000D01*
X130056928Y-92595000D01*
X130060000Y-93059250D01*
X130218750Y-93218000D01*
X131318000Y-93218000D01*
X131318000Y-92118750D01*
X131159250Y-91960000D01*
X130695000Y-91956928D01*
X130570518Y-91969188D01*
X130450820Y-92005498D01*
X130340506Y-92064463D01*
X130243815Y-92143815D01*
X130164463Y-92240506D01*
X130105498Y-92350820D01*
X130069188Y-92470518D01*
X130056928Y-92595000D01*
X129073072Y-92595000D01*
X129073072Y-91275000D01*
X129060812Y-91150518D01*
X129024502Y-91030820D01*
X128965537Y-90920506D01*
X128886185Y-90823815D01*
X128789494Y-90744463D01*
X128679180Y-90685498D01*
X128559482Y-90649188D01*
X128435000Y-90636928D01*
X126835000Y-90636928D01*
X126710518Y-90649188D01*
X126590820Y-90685498D01*
X126480506Y-90744463D01*
X126383815Y-90823815D01*
X126304463Y-90920506D01*
X126245498Y-91030820D01*
X126209188Y-91150518D01*
X126196928Y-91275000D01*
X126196928Y-91282215D01*
X126127702Y-91261903D01*
X125314605Y-92075000D01*
X126127702Y-92888097D01*
X126196928Y-92867785D01*
X126196928Y-92875000D01*
X126209188Y-92999482D01*
X126245498Y-93119180D01*
X126304463Y-93229494D01*
X126383815Y-93326185D01*
X126480506Y-93405537D01*
X126590820Y-93464502D01*
X126710518Y-93500812D01*
X126800001Y-93509625D01*
X126800001Y-94573972D01*
X126795960Y-94615000D01*
X126812082Y-94778688D01*
X126859828Y-94936086D01*
X126937364Y-95081145D01*
X126947605Y-95093624D01*
X127041710Y-95208291D01*
X127062070Y-95225000D01*
X106757295Y-95225000D01*
X106790537Y-95184494D01*
X106849502Y-95074180D01*
X106885812Y-94954482D01*
X106898072Y-94830000D01*
X106895174Y-94297702D01*
X112851903Y-94297702D01*
X112923486Y-94541671D01*
X113178996Y-94662571D01*
X113453184Y-94731300D01*
X113735512Y-94745217D01*
X114015130Y-94703787D01*
X114281292Y-94608603D01*
X114406514Y-94541671D01*
X114478097Y-94297702D01*
X113665000Y-93484605D01*
X112851903Y-94297702D01*
X106895174Y-94297702D01*
X106895000Y-94265750D01*
X106736250Y-94107000D01*
X105537000Y-94107000D01*
X105537000Y-94127000D01*
X105283000Y-94127000D01*
X105283000Y-94107000D01*
X102997000Y-94107000D01*
X102997000Y-94127000D01*
X102743000Y-94127000D01*
X102743000Y-94107000D01*
X101543750Y-94107000D01*
X101385000Y-94265750D01*
X101381928Y-94830000D01*
X101394188Y-94954482D01*
X101430498Y-95074180D01*
X101489463Y-95184494D01*
X101522705Y-95225000D01*
X100997275Y-95225000D01*
X100990487Y-95224335D01*
X100990000Y-95219699D01*
X100990000Y-90558268D01*
X101060025Y-90689275D01*
X101131200Y-90776001D01*
X101154999Y-90805000D01*
X101183997Y-90828798D01*
X101428791Y-91073592D01*
X101385000Y-91293740D01*
X101385000Y-91586260D01*
X101442068Y-91873158D01*
X101554010Y-92143411D01*
X101716525Y-92386632D01*
X101848380Y-92518487D01*
X101775820Y-92540498D01*
X101665506Y-92599463D01*
X101568815Y-92678815D01*
X101489463Y-92775506D01*
X101430498Y-92885820D01*
X101394188Y-93005518D01*
X101381928Y-93130000D01*
X101385000Y-93694250D01*
X101543750Y-93853000D01*
X102743000Y-93853000D01*
X102743000Y-93833000D01*
X102997000Y-93833000D01*
X102997000Y-93853000D01*
X105283000Y-93853000D01*
X105283000Y-91567000D01*
X105537000Y-91567000D01*
X105537000Y-93853000D01*
X106736250Y-93853000D01*
X106895000Y-93694250D01*
X106896735Y-93375512D01*
X112224783Y-93375512D01*
X112266213Y-93655130D01*
X112361397Y-93921292D01*
X112428329Y-94046514D01*
X112672298Y-94118097D01*
X113485395Y-93305000D01*
X112672298Y-92491903D01*
X112428329Y-92563486D01*
X112307429Y-92818996D01*
X112238700Y-93093184D01*
X112224783Y-93375512D01*
X106896735Y-93375512D01*
X106898072Y-93130000D01*
X106885812Y-93005518D01*
X106849502Y-92885820D01*
X106790537Y-92775506D01*
X106711185Y-92678815D01*
X106614494Y-92599463D01*
X106504180Y-92540498D01*
X106423534Y-92516034D01*
X106507588Y-92440269D01*
X106681641Y-92206920D01*
X106806825Y-91944099D01*
X106851476Y-91796890D01*
X106730155Y-91567000D01*
X105537000Y-91567000D01*
X105283000Y-91567000D01*
X105263000Y-91567000D01*
X105263000Y-91313000D01*
X105283000Y-91313000D01*
X105283000Y-89027000D01*
X105537000Y-89027000D01*
X105537000Y-91313000D01*
X106730155Y-91313000D01*
X106851476Y-91083110D01*
X106806825Y-90935901D01*
X106681641Y-90673080D01*
X106674619Y-90663665D01*
X112230000Y-90663665D01*
X112230000Y-90946335D01*
X112285147Y-91223574D01*
X112393320Y-91484727D01*
X112550363Y-91719759D01*
X112750241Y-91919637D01*
X112950869Y-92053692D01*
X112923486Y-92068329D01*
X112851903Y-92312298D01*
X113665000Y-93125395D01*
X113679143Y-93111253D01*
X113858748Y-93290858D01*
X113844605Y-93305000D01*
X114657702Y-94118097D01*
X114901671Y-94046514D01*
X115022571Y-93791004D01*
X115091300Y-93516816D01*
X115105217Y-93234488D01*
X115063787Y-92954870D01*
X115047741Y-92910000D01*
X115405375Y-92910000D01*
X115414188Y-92999482D01*
X115450498Y-93119180D01*
X115509463Y-93229494D01*
X115588815Y-93326185D01*
X115685506Y-93405537D01*
X115795820Y-93464502D01*
X115915518Y-93500812D01*
X116040000Y-93513072D01*
X117640000Y-93513072D01*
X117764482Y-93500812D01*
X117884180Y-93464502D01*
X117994494Y-93405537D01*
X118091185Y-93326185D01*
X118170537Y-93229494D01*
X118229502Y-93119180D01*
X118245117Y-93067702D01*
X118526903Y-93067702D01*
X118598486Y-93311671D01*
X118853996Y-93432571D01*
X119128184Y-93501300D01*
X119410512Y-93515217D01*
X119690130Y-93473787D01*
X119956292Y-93378603D01*
X120081514Y-93311671D01*
X120153097Y-93067702D01*
X124321903Y-93067702D01*
X124393486Y-93311671D01*
X124648996Y-93432571D01*
X124923184Y-93501300D01*
X125205512Y-93515217D01*
X125485130Y-93473787D01*
X125751292Y-93378603D01*
X125876514Y-93311671D01*
X125948097Y-93067702D01*
X125135000Y-92254605D01*
X124321903Y-93067702D01*
X120153097Y-93067702D01*
X119340000Y-92254605D01*
X118526903Y-93067702D01*
X118245117Y-93067702D01*
X118265812Y-92999482D01*
X118278072Y-92875000D01*
X118278072Y-92867785D01*
X118347298Y-92888097D01*
X119160395Y-92075000D01*
X119519605Y-92075000D01*
X120332702Y-92888097D01*
X120576671Y-92816514D01*
X120697571Y-92561004D01*
X120766300Y-92286816D01*
X120773265Y-92145512D01*
X123694783Y-92145512D01*
X123736213Y-92425130D01*
X123831397Y-92691292D01*
X123898329Y-92816514D01*
X124142298Y-92888097D01*
X124955395Y-92075000D01*
X124142298Y-91261903D01*
X123898329Y-91333486D01*
X123777429Y-91588996D01*
X123708700Y-91863184D01*
X123694783Y-92145512D01*
X120773265Y-92145512D01*
X120780217Y-92004488D01*
X120738787Y-91724870D01*
X120643603Y-91458708D01*
X120576671Y-91333486D01*
X120332702Y-91261903D01*
X119519605Y-92075000D01*
X119160395Y-92075000D01*
X118347298Y-91261903D01*
X118278072Y-91282215D01*
X118278072Y-91275000D01*
X118265812Y-91150518D01*
X118245118Y-91082298D01*
X118526903Y-91082298D01*
X119340000Y-91895395D01*
X120153097Y-91082298D01*
X124321903Y-91082298D01*
X125135000Y-91895395D01*
X125948097Y-91082298D01*
X125876514Y-90838329D01*
X125621004Y-90717429D01*
X125346816Y-90648700D01*
X125064488Y-90634783D01*
X124784870Y-90676213D01*
X124518708Y-90771397D01*
X124393486Y-90838329D01*
X124321903Y-91082298D01*
X120153097Y-91082298D01*
X120081514Y-90838329D01*
X119826004Y-90717429D01*
X119551816Y-90648700D01*
X119269488Y-90634783D01*
X118989870Y-90676213D01*
X118723708Y-90771397D01*
X118598486Y-90838329D01*
X118526903Y-91082298D01*
X118245118Y-91082298D01*
X118229502Y-91030820D01*
X118170537Y-90920506D01*
X118091185Y-90823815D01*
X117994494Y-90744463D01*
X117884180Y-90685498D01*
X117764482Y-90649188D01*
X117640000Y-90636928D01*
X116040000Y-90636928D01*
X115915518Y-90649188D01*
X115795820Y-90685498D01*
X115685506Y-90744463D01*
X115588815Y-90823815D01*
X115509463Y-90920506D01*
X115450498Y-91030820D01*
X115414188Y-91150518D01*
X115405375Y-91240000D01*
X115280868Y-91240000D01*
X115081286Y-91040418D01*
X115100000Y-90946335D01*
X115100000Y-90663665D01*
X115044853Y-90386426D01*
X114936680Y-90125273D01*
X114779637Y-89890241D01*
X114579759Y-89690363D01*
X114344727Y-89533320D01*
X114083574Y-89425147D01*
X113806335Y-89370000D01*
X113523665Y-89370000D01*
X113246426Y-89425147D01*
X112985273Y-89533320D01*
X112750241Y-89690363D01*
X112550363Y-89890241D01*
X112393320Y-90125273D01*
X112285147Y-90386426D01*
X112230000Y-90663665D01*
X106674619Y-90663665D01*
X106507588Y-90439731D01*
X106291355Y-90244822D01*
X106165745Y-90170000D01*
X106291355Y-90095178D01*
X106507588Y-89900269D01*
X106681641Y-89666920D01*
X106806825Y-89404099D01*
X106851476Y-89256890D01*
X106730155Y-89027000D01*
X105537000Y-89027000D01*
X105283000Y-89027000D01*
X105263000Y-89027000D01*
X105263000Y-88773000D01*
X105283000Y-88773000D01*
X105283000Y-86487000D01*
X105537000Y-86487000D01*
X105537000Y-88773000D01*
X106730155Y-88773000D01*
X106851476Y-88543110D01*
X106806825Y-88395901D01*
X106681641Y-88133080D01*
X106507588Y-87899731D01*
X106291355Y-87704822D01*
X106165745Y-87630000D01*
X106291355Y-87555178D01*
X106507588Y-87360269D01*
X106681641Y-87126920D01*
X106806825Y-86864099D01*
X106851476Y-86716890D01*
X106730155Y-86487000D01*
X105537000Y-86487000D01*
X105283000Y-86487000D01*
X105263000Y-86487000D01*
X105263000Y-86233000D01*
X105283000Y-86233000D01*
X105283000Y-86213000D01*
X105537000Y-86213000D01*
X105537000Y-86233000D01*
X106730155Y-86233000D01*
X106851476Y-86003110D01*
X106821718Y-85905001D01*
X110468981Y-85905001D01*
X110509999Y-85909041D01*
X110551017Y-85905001D01*
X110551018Y-85905001D01*
X110673688Y-85892919D01*
X110677570Y-85891741D01*
X110687875Y-85896010D01*
X110977401Y-85953600D01*
X111272599Y-85953600D01*
X111562125Y-85896010D01*
X111834853Y-85783042D01*
X112080302Y-85619039D01*
X112289039Y-85410302D01*
X112395000Y-85251719D01*
X112500961Y-85410302D01*
X112709698Y-85619039D01*
X112955147Y-85783042D01*
X113227875Y-85896010D01*
X113517401Y-85953600D01*
X113812599Y-85953600D01*
X114102125Y-85896010D01*
X114374853Y-85783042D01*
X114620302Y-85619039D01*
X114829039Y-85410302D01*
X114993042Y-85164853D01*
X115106010Y-84892125D01*
X115163600Y-84602599D01*
X115163600Y-84307401D01*
X115106010Y-84017875D01*
X114993042Y-83745147D01*
X114829039Y-83499698D01*
X114620302Y-83290961D01*
X114461719Y-83185000D01*
X114620302Y-83079039D01*
X114829039Y-82870302D01*
X114993042Y-82624853D01*
X115012414Y-82578085D01*
X115445001Y-83010673D01*
G36*
X133543748Y-89520858D02*
G01*
X133529605Y-89535000D01*
X134342702Y-90348097D01*
X134586671Y-90276514D01*
X134660216Y-90121084D01*
X135690000Y-91150868D01*
X135690001Y-92237204D01*
X135642114Y-92269201D01*
X135449201Y-92462114D01*
X135297629Y-92688957D01*
X135255000Y-92791873D01*
X135212371Y-92688957D01*
X135060799Y-92462114D01*
X134867886Y-92269201D01*
X134820000Y-92237205D01*
X134820000Y-92116018D01*
X134824040Y-92075000D01*
X134807918Y-91911311D01*
X134760172Y-91753913D01*
X134682636Y-91608854D01*
X134604439Y-91513570D01*
X134604437Y-91513568D01*
X134578291Y-91481709D01*
X134546433Y-91455564D01*
X133939170Y-90848302D01*
X133966292Y-90838603D01*
X134091514Y-90771671D01*
X134163097Y-90527702D01*
X133350000Y-89714605D01*
X133335858Y-89728748D01*
X133156253Y-89549143D01*
X133170395Y-89535000D01*
X133156253Y-89520858D01*
X133335858Y-89341253D01*
X133350000Y-89355395D01*
X133364143Y-89341253D01*
X133543748Y-89520858D01*
G37*
X133543748Y-89520858D02*
X133529605Y-89535000D01*
X134342702Y-90348097D01*
X134586671Y-90276514D01*
X134660216Y-90121084D01*
X135690000Y-91150868D01*
X135690001Y-92237204D01*
X135642114Y-92269201D01*
X135449201Y-92462114D01*
X135297629Y-92688957D01*
X135255000Y-92791873D01*
X135212371Y-92688957D01*
X135060799Y-92462114D01*
X134867886Y-92269201D01*
X134820000Y-92237205D01*
X134820000Y-92116018D01*
X134824040Y-92075000D01*
X134807918Y-91911311D01*
X134760172Y-91753913D01*
X134682636Y-91608854D01*
X134604439Y-91513570D01*
X134604437Y-91513568D01*
X134578291Y-91481709D01*
X134546433Y-91455564D01*
X133939170Y-90848302D01*
X133966292Y-90838603D01*
X134091514Y-90771671D01*
X134163097Y-90527702D01*
X133350000Y-89714605D01*
X133335858Y-89728748D01*
X133156253Y-89549143D01*
X133170395Y-89535000D01*
X133156253Y-89520858D01*
X133335858Y-89341253D01*
X133350000Y-89355395D01*
X133364143Y-89341253D01*
X133543748Y-89520858D01*
G36*
X123941928Y-80895000D02*
G01*
X123944336Y-80919450D01*
X123944336Y-80944009D01*
X123956596Y-81068490D01*
X123975718Y-81164623D01*
X124012027Y-81284319D01*
X124049536Y-81374875D01*
X124108502Y-81485192D01*
X124162958Y-81566691D01*
X124242310Y-81663382D01*
X124311618Y-81732690D01*
X124320000Y-81739569D01*
X124320000Y-82497677D01*
X124316324Y-82535000D01*
X124320000Y-82572322D01*
X124320000Y-82572332D01*
X124330997Y-82683985D01*
X124358389Y-82774285D01*
X124374454Y-82827246D01*
X124445026Y-82959276D01*
X124484871Y-83007826D01*
X124539999Y-83075001D01*
X124569002Y-83098803D01*
X125172126Y-83701928D01*
X125065000Y-83701928D01*
X125040550Y-83704336D01*
X125015991Y-83704336D01*
X124891510Y-83716596D01*
X124795377Y-83735718D01*
X124675681Y-83772027D01*
X124585125Y-83809536D01*
X124474808Y-83868502D01*
X124393309Y-83922958D01*
X124296618Y-84002310D01*
X124227310Y-84071618D01*
X124147958Y-84168309D01*
X124093502Y-84249808D01*
X124034536Y-84360125D01*
X123997027Y-84450681D01*
X123960718Y-84570377D01*
X123941596Y-84666510D01*
X123929336Y-84790991D01*
X123929336Y-84815550D01*
X123926928Y-84840000D01*
X123926928Y-85340000D01*
X123929336Y-85364450D01*
X123929336Y-85389009D01*
X123941596Y-85513490D01*
X123960718Y-85609623D01*
X123997027Y-85729319D01*
X124034536Y-85819875D01*
X124093502Y-85930192D01*
X124147958Y-86011691D01*
X124227310Y-86108382D01*
X124296618Y-86177690D01*
X124305001Y-86184569D01*
X124305001Y-86322199D01*
X123685615Y-86941585D01*
X123476269Y-86888336D01*
X122734605Y-87630000D01*
X122748748Y-87644143D01*
X122569143Y-87823748D01*
X122555000Y-87809605D01*
X122540858Y-87823748D01*
X122361253Y-87644143D01*
X122375395Y-87630000D01*
X121633731Y-86888336D01*
X121399963Y-86947797D01*
X121289066Y-87186242D01*
X121226817Y-87441740D01*
X121215610Y-87704473D01*
X121245131Y-87895001D01*
X118179803Y-87895001D01*
X116965000Y-86680199D01*
X116965000Y-86370397D01*
X116965125Y-86370464D01*
X117055681Y-86407973D01*
X117175377Y-86444282D01*
X117271510Y-86463404D01*
X117395991Y-86475664D01*
X117420550Y-86475664D01*
X117445000Y-86478072D01*
X117995000Y-86478072D01*
X118119482Y-86465812D01*
X118120000Y-86465655D01*
X118120518Y-86465812D01*
X118245000Y-86478072D01*
X119245000Y-86478072D01*
X119369482Y-86465812D01*
X119370000Y-86465655D01*
X119370518Y-86465812D01*
X119495000Y-86478072D01*
X120045000Y-86478072D01*
X120069450Y-86475664D01*
X120094009Y-86475664D01*
X120218490Y-86463404D01*
X120314623Y-86444282D01*
X120434319Y-86407973D01*
X120524875Y-86370464D01*
X120635192Y-86311498D01*
X120716691Y-86257042D01*
X120813382Y-86177690D01*
X120882690Y-86108382D01*
X120962042Y-86011691D01*
X121016498Y-85930192D01*
X121059362Y-85850000D01*
X121457225Y-85850000D01*
X121518038Y-85941013D01*
X121703987Y-86126962D01*
X121922641Y-86273061D01*
X122136444Y-86361621D01*
X121973634Y-86421065D01*
X121872797Y-86474963D01*
X121813336Y-86708731D01*
X122555000Y-87450395D01*
X123296664Y-86708731D01*
X123237203Y-86474963D01*
X122998758Y-86364066D01*
X122979173Y-86359294D01*
X123187359Y-86273061D01*
X123406013Y-86126962D01*
X123591962Y-85941013D01*
X123738061Y-85722359D01*
X123838696Y-85479405D01*
X123890000Y-85221486D01*
X123890000Y-84958514D01*
X123838696Y-84700595D01*
X123738061Y-84457641D01*
X123591962Y-84238987D01*
X123406013Y-84053038D01*
X123315000Y-83992225D01*
X123315000Y-83012775D01*
X123406013Y-82951962D01*
X123591962Y-82766013D01*
X123738061Y-82547359D01*
X123838696Y-82304405D01*
X123890000Y-82046486D01*
X123890000Y-81783514D01*
X123838696Y-81525595D01*
X123738061Y-81282641D01*
X123591962Y-81063987D01*
X123524889Y-80996914D01*
X123941928Y-80579876D01*
X123941928Y-80895000D01*
G37*
X123941928Y-80895000D02*
X123944336Y-80919450D01*
X123944336Y-80944009D01*
X123956596Y-81068490D01*
X123975718Y-81164623D01*
X124012027Y-81284319D01*
X124049536Y-81374875D01*
X124108502Y-81485192D01*
X124162958Y-81566691D01*
X124242310Y-81663382D01*
X124311618Y-81732690D01*
X124320000Y-81739569D01*
X124320000Y-82497677D01*
X124316324Y-82535000D01*
X124320000Y-82572322D01*
X124320000Y-82572332D01*
X124330997Y-82683985D01*
X124358389Y-82774285D01*
X124374454Y-82827246D01*
X124445026Y-82959276D01*
X124484871Y-83007826D01*
X124539999Y-83075001D01*
X124569002Y-83098803D01*
X125172126Y-83701928D01*
X125065000Y-83701928D01*
X125040550Y-83704336D01*
X125015991Y-83704336D01*
X124891510Y-83716596D01*
X124795377Y-83735718D01*
X124675681Y-83772027D01*
X124585125Y-83809536D01*
X124474808Y-83868502D01*
X124393309Y-83922958D01*
X124296618Y-84002310D01*
X124227310Y-84071618D01*
X124147958Y-84168309D01*
X124093502Y-84249808D01*
X124034536Y-84360125D01*
X123997027Y-84450681D01*
X123960718Y-84570377D01*
X123941596Y-84666510D01*
X123929336Y-84790991D01*
X123929336Y-84815550D01*
X123926928Y-84840000D01*
X123926928Y-85340000D01*
X123929336Y-85364450D01*
X123929336Y-85389009D01*
X123941596Y-85513490D01*
X123960718Y-85609623D01*
X123997027Y-85729319D01*
X124034536Y-85819875D01*
X124093502Y-85930192D01*
X124147958Y-86011691D01*
X124227310Y-86108382D01*
X124296618Y-86177690D01*
X124305001Y-86184569D01*
X124305001Y-86322199D01*
X123685615Y-86941585D01*
X123476269Y-86888336D01*
X122734605Y-87630000D01*
X122748748Y-87644143D01*
X122569143Y-87823748D01*
X122555000Y-87809605D01*
X122540858Y-87823748D01*
X122361253Y-87644143D01*
X122375395Y-87630000D01*
X121633731Y-86888336D01*
X121399963Y-86947797D01*
X121289066Y-87186242D01*
X121226817Y-87441740D01*
X121215610Y-87704473D01*
X121245131Y-87895001D01*
X118179803Y-87895001D01*
X116965000Y-86680199D01*
X116965000Y-86370397D01*
X116965125Y-86370464D01*
X117055681Y-86407973D01*
X117175377Y-86444282D01*
X117271510Y-86463404D01*
X117395991Y-86475664D01*
X117420550Y-86475664D01*
X117445000Y-86478072D01*
X117995000Y-86478072D01*
X118119482Y-86465812D01*
X118120000Y-86465655D01*
X118120518Y-86465812D01*
X118245000Y-86478072D01*
X119245000Y-86478072D01*
X119369482Y-86465812D01*
X119370000Y-86465655D01*
X119370518Y-86465812D01*
X119495000Y-86478072D01*
X120045000Y-86478072D01*
X120069450Y-86475664D01*
X120094009Y-86475664D01*
X120218490Y-86463404D01*
X120314623Y-86444282D01*
X120434319Y-86407973D01*
X120524875Y-86370464D01*
X120635192Y-86311498D01*
X120716691Y-86257042D01*
X120813382Y-86177690D01*
X120882690Y-86108382D01*
X120962042Y-86011691D01*
X121016498Y-85930192D01*
X121059362Y-85850000D01*
X121457225Y-85850000D01*
X121518038Y-85941013D01*
X121703987Y-86126962D01*
X121922641Y-86273061D01*
X122136444Y-86361621D01*
X121973634Y-86421065D01*
X121872797Y-86474963D01*
X121813336Y-86708731D01*
X122555000Y-87450395D01*
X123296664Y-86708731D01*
X123237203Y-86474963D01*
X122998758Y-86364066D01*
X122979173Y-86359294D01*
X123187359Y-86273061D01*
X123406013Y-86126962D01*
X123591962Y-85941013D01*
X123738061Y-85722359D01*
X123838696Y-85479405D01*
X123890000Y-85221486D01*
X123890000Y-84958514D01*
X123838696Y-84700595D01*
X123738061Y-84457641D01*
X123591962Y-84238987D01*
X123406013Y-84053038D01*
X123315000Y-83992225D01*
X123315000Y-83012775D01*
X123406013Y-82951962D01*
X123591962Y-82766013D01*
X123738061Y-82547359D01*
X123838696Y-82304405D01*
X123890000Y-82046486D01*
X123890000Y-81783514D01*
X123838696Y-81525595D01*
X123738061Y-81282641D01*
X123591962Y-81063987D01*
X123524889Y-80996914D01*
X123941928Y-80579876D01*
X123941928Y-80895000D01*
G36*
X110169698Y-83290961D02*
G01*
X109960961Y-83499698D01*
X109796958Y-83745147D01*
X109683990Y-84017875D01*
X109640801Y-84235001D01*
X106833850Y-84235001D01*
X106851476Y-84176890D01*
X106730155Y-83947000D01*
X105537000Y-83947000D01*
X105537000Y-83967000D01*
X105283000Y-83967000D01*
X105283000Y-83947000D01*
X105263000Y-83947000D01*
X105263000Y-83693000D01*
X105283000Y-83693000D01*
X105283000Y-83673000D01*
X105537000Y-83673000D01*
X105537000Y-83693000D01*
X106730155Y-83693000D01*
X106851476Y-83463110D01*
X106806825Y-83315901D01*
X106758765Y-83215001D01*
X110283381Y-83215001D01*
X110169698Y-83290961D01*
G37*
X110169698Y-83290961D02*
X109960961Y-83499698D01*
X109796958Y-83745147D01*
X109683990Y-84017875D01*
X109640801Y-84235001D01*
X106833850Y-84235001D01*
X106851476Y-84176890D01*
X106730155Y-83947000D01*
X105537000Y-83947000D01*
X105537000Y-83967000D01*
X105283000Y-83967000D01*
X105283000Y-83947000D01*
X105263000Y-83947000D01*
X105263000Y-83693000D01*
X105283000Y-83693000D01*
X105283000Y-83673000D01*
X105537000Y-83673000D01*
X105537000Y-83693000D01*
X106730155Y-83693000D01*
X106851476Y-83463110D01*
X106806825Y-83315901D01*
X106758765Y-83215001D01*
X110283381Y-83215001D01*
X110169698Y-83290961D01*
G36*
X133338120Y-49611980D02*
G01*
X133687516Y-50455496D01*
X134194760Y-51214640D01*
X134288120Y-51308000D01*
X116840000Y-51308000D01*
X116815224Y-51310440D01*
X116791399Y-51317667D01*
X116769443Y-51329403D01*
X116750197Y-51345197D01*
X116734403Y-51364443D01*
X116722667Y-51386399D01*
X116715440Y-51410224D01*
X116713000Y-51435000D01*
X116713000Y-58186698D01*
X116534335Y-58282196D01*
X116277761Y-58492761D01*
X116067196Y-58749335D01*
X115910732Y-59042059D01*
X115814381Y-59359682D01*
X115781848Y-59690000D01*
X115814381Y-60020318D01*
X115910732Y-60337941D01*
X116067196Y-60630665D01*
X116277761Y-60887239D01*
X116534335Y-61097804D01*
X116713000Y-61193302D01*
X116713000Y-67945000D01*
X116715440Y-67969776D01*
X116722667Y-67993601D01*
X116734403Y-68015557D01*
X116750197Y-68034803D01*
X116769443Y-68050597D01*
X116791399Y-68062333D01*
X116815224Y-68069560D01*
X116840000Y-68072000D01*
X144780000Y-68072000D01*
X144804776Y-68069560D01*
X144828601Y-68062333D01*
X144850557Y-68050597D01*
X144869803Y-68034803D01*
X144885597Y-68015557D01*
X144897333Y-67993601D01*
X144904560Y-67969776D01*
X144907000Y-67945000D01*
X144907000Y-66046968D01*
X145084512Y-65781302D01*
X145245453Y-65392756D01*
X145327500Y-64980279D01*
X145327500Y-64559721D01*
X145245453Y-64147244D01*
X145084512Y-63758698D01*
X144907000Y-63493032D01*
X144907000Y-60966968D01*
X145084512Y-60701302D01*
X145245453Y-60312756D01*
X145327500Y-59900279D01*
X145327500Y-59479721D01*
X145245453Y-59067244D01*
X145084512Y-58678698D01*
X144907000Y-58413032D01*
X144907000Y-56708505D01*
X144936680Y-56699502D01*
X145046994Y-56640537D01*
X145143685Y-56561185D01*
X145223037Y-56464494D01*
X145282002Y-56354180D01*
X145318312Y-56234482D01*
X145330572Y-56110000D01*
X145330572Y-53110000D01*
X145318312Y-52985518D01*
X145282002Y-52865820D01*
X145223037Y-52755506D01*
X145143685Y-52658815D01*
X145046994Y-52579463D01*
X144936680Y-52520498D01*
X144907000Y-52511495D01*
X144907000Y-51435000D01*
X144904560Y-51410224D01*
X144897333Y-51386399D01*
X144885597Y-51364443D01*
X144869803Y-51345197D01*
X144850557Y-51329403D01*
X144828601Y-51317667D01*
X144804776Y-51310440D01*
X144780000Y-51308000D01*
X141301880Y-51308000D01*
X141395240Y-51214640D01*
X141902484Y-50455496D01*
X142251880Y-49611980D01*
X142389523Y-48920000D01*
X145382725Y-48920000D01*
X145389513Y-48920666D01*
X145390000Y-48925301D01*
X145390001Y-74749806D01*
X145201231Y-74688374D01*
X144324605Y-75565000D01*
X145201231Y-76441626D01*
X145390001Y-76380194D01*
X145390001Y-82305148D01*
X145328768Y-82213507D01*
X145116493Y-82001232D01*
X144866885Y-81834449D01*
X144589534Y-81719566D01*
X144295101Y-81661000D01*
X143994899Y-81661000D01*
X143700466Y-81719566D01*
X143423115Y-81834449D01*
X143173507Y-82001232D01*
X142961232Y-82213507D01*
X142875000Y-82342562D01*
X142788768Y-82213507D01*
X142576493Y-82001232D01*
X142326885Y-81834449D01*
X142049534Y-81719566D01*
X141755101Y-81661000D01*
X141454899Y-81661000D01*
X141160466Y-81719566D01*
X140883115Y-81834449D01*
X140633507Y-82001232D01*
X140421232Y-82213507D01*
X140335000Y-82342562D01*
X140248768Y-82213507D01*
X140036493Y-82001232D01*
X139786885Y-81834449D01*
X139509534Y-81719566D01*
X139215101Y-81661000D01*
X138914899Y-81661000D01*
X138620466Y-81719566D01*
X138343115Y-81834449D01*
X138093507Y-82001232D01*
X138025001Y-82069738D01*
X138025001Y-76906019D01*
X138029041Y-76865000D01*
X138012919Y-76701312D01*
X137998492Y-76653753D01*
X138093507Y-76748768D01*
X138343115Y-76915551D01*
X138620466Y-77030434D01*
X138914899Y-77089000D01*
X139215101Y-77089000D01*
X139509534Y-77030434D01*
X139786885Y-76915551D01*
X140036493Y-76748768D01*
X140164030Y-76621231D01*
X143268374Y-76621231D01*
X143350727Y-76874289D01*
X143621418Y-77004086D01*
X143912230Y-77078580D01*
X144211988Y-77094908D01*
X144509171Y-77052443D01*
X144792359Y-76952816D01*
X144939273Y-76874289D01*
X145021626Y-76621231D01*
X144145000Y-75744605D01*
X143268374Y-76621231D01*
X140164030Y-76621231D01*
X140248768Y-76536493D01*
X140415551Y-76286885D01*
X140530434Y-76009534D01*
X140589000Y-75715101D01*
X140589000Y-75631988D01*
X142615092Y-75631988D01*
X142657557Y-75929171D01*
X142757184Y-76212359D01*
X142835711Y-76359273D01*
X143088769Y-76441626D01*
X143965395Y-75565000D01*
X143088769Y-74688374D01*
X142835711Y-74770727D01*
X142705914Y-75041418D01*
X142631420Y-75332230D01*
X142615092Y-75631988D01*
X140589000Y-75631988D01*
X140589000Y-75414899D01*
X140530434Y-75120466D01*
X140415551Y-74843115D01*
X140248768Y-74593507D01*
X140164030Y-74508769D01*
X143268374Y-74508769D01*
X144145000Y-75385395D01*
X145021626Y-74508769D01*
X144939273Y-74255711D01*
X144668582Y-74125914D01*
X144377770Y-74051420D01*
X144078012Y-74035092D01*
X143780829Y-74077557D01*
X143497641Y-74177184D01*
X143350727Y-74255711D01*
X143268374Y-74508769D01*
X140164030Y-74508769D01*
X140036493Y-74381232D01*
X139786885Y-74214449D01*
X139509534Y-74099566D01*
X139215101Y-74041000D01*
X138914899Y-74041000D01*
X138620466Y-74099566D01*
X138343115Y-74214449D01*
X138093507Y-74381232D01*
X137881232Y-74593507D01*
X137714449Y-74843115D01*
X137599566Y-75120466D01*
X137541000Y-75414899D01*
X137541000Y-75715101D01*
X137599566Y-76009534D01*
X137659079Y-76153212D01*
X137428072Y-75922204D01*
X137428072Y-74665000D01*
X137415812Y-74540518D01*
X137379502Y-74420820D01*
X137320537Y-74310506D01*
X137241185Y-74213815D01*
X137144494Y-74134463D01*
X137034180Y-74075498D01*
X137015873Y-74069944D01*
X137082312Y-74003505D01*
X137250299Y-73752095D01*
X137366011Y-73472743D01*
X137425000Y-73176184D01*
X137425000Y-72873816D01*
X137366011Y-72577257D01*
X137250299Y-72297905D01*
X137082312Y-72046495D01*
X136868505Y-71832688D01*
X136617095Y-71664701D01*
X136337743Y-71548989D01*
X136041184Y-71490000D01*
X135738816Y-71490000D01*
X135477565Y-71541966D01*
X135414277Y-71490027D01*
X135282248Y-71419455D01*
X135138987Y-71375998D01*
X135027334Y-71365001D01*
X135027323Y-71365001D01*
X134990001Y-71361325D01*
X134952679Y-71365001D01*
X130224803Y-71365001D01*
X130094802Y-71235000D01*
X130311411Y-71235000D01*
X130578989Y-71181775D01*
X130831043Y-71077371D01*
X131057886Y-70925799D01*
X131250799Y-70732886D01*
X131402371Y-70506043D01*
X131445000Y-70403127D01*
X131487629Y-70506043D01*
X131639201Y-70732886D01*
X131832114Y-70925799D01*
X132058957Y-71077371D01*
X132311011Y-71181775D01*
X132578589Y-71235000D01*
X132851411Y-71235000D01*
X133118989Y-71181775D01*
X133371043Y-71077371D01*
X133597886Y-70925799D01*
X133790799Y-70732886D01*
X133868555Y-70616517D01*
X133879188Y-70724482D01*
X133915498Y-70844180D01*
X133974463Y-70954494D01*
X134053815Y-71051185D01*
X134150506Y-71130537D01*
X134260820Y-71189502D01*
X134380518Y-71225812D01*
X134505000Y-71238072D01*
X136005000Y-71238072D01*
X136129482Y-71225812D01*
X136249180Y-71189502D01*
X136359494Y-71130537D01*
X136456185Y-71051185D01*
X136535537Y-70954494D01*
X136564733Y-70899872D01*
X140005000Y-70899872D01*
X140005000Y-71340128D01*
X140090890Y-71771925D01*
X140259369Y-72178669D01*
X140503962Y-72544729D01*
X140815271Y-72856038D01*
X141181331Y-73100631D01*
X141588075Y-73269110D01*
X142019872Y-73355000D01*
X142460128Y-73355000D01*
X142891925Y-73269110D01*
X143298669Y-73100631D01*
X143664729Y-72856038D01*
X143976038Y-72544729D01*
X144220631Y-72178669D01*
X144389110Y-71771925D01*
X144475000Y-71340128D01*
X144475000Y-70899872D01*
X144389110Y-70468075D01*
X144220631Y-70061331D01*
X143976038Y-69695271D01*
X143664729Y-69383962D01*
X143298669Y-69139369D01*
X142891925Y-68970890D01*
X142460128Y-68885000D01*
X142019872Y-68885000D01*
X141588075Y-68970890D01*
X141181331Y-69139369D01*
X140815271Y-69383962D01*
X140503962Y-69695271D01*
X140259369Y-70061331D01*
X140090890Y-70468075D01*
X140005000Y-70899872D01*
X136564733Y-70899872D01*
X136594502Y-70844180D01*
X136630812Y-70724482D01*
X136643072Y-70600000D01*
X136643072Y-69100000D01*
X136630812Y-68975518D01*
X136594502Y-68855820D01*
X136535537Y-68745506D01*
X136456185Y-68648815D01*
X136359494Y-68569463D01*
X136249180Y-68510498D01*
X136129482Y-68474188D01*
X136005000Y-68461928D01*
X134505000Y-68461928D01*
X134380518Y-68474188D01*
X134260820Y-68510498D01*
X134150506Y-68569463D01*
X134053815Y-68648815D01*
X133974463Y-68745506D01*
X133915498Y-68855820D01*
X133879188Y-68975518D01*
X133868555Y-69083483D01*
X133790799Y-68967114D01*
X133597886Y-68774201D01*
X133371043Y-68622629D01*
X133118989Y-68518225D01*
X132851411Y-68465000D01*
X132578589Y-68465000D01*
X132311011Y-68518225D01*
X132058957Y-68622629D01*
X131832114Y-68774201D01*
X131639201Y-68967114D01*
X131487629Y-69193957D01*
X131445000Y-69296873D01*
X131402371Y-69193957D01*
X131250799Y-68967114D01*
X131057886Y-68774201D01*
X130831043Y-68622629D01*
X130578989Y-68518225D01*
X130311411Y-68465000D01*
X130038589Y-68465000D01*
X129771011Y-68518225D01*
X129518957Y-68622629D01*
X129292114Y-68774201D01*
X129099201Y-68967114D01*
X129021445Y-69083483D01*
X129010812Y-68975518D01*
X128974502Y-68855820D01*
X128915537Y-68745506D01*
X128836185Y-68648815D01*
X128739494Y-68569463D01*
X128629180Y-68510498D01*
X128509482Y-68474188D01*
X128385000Y-68461928D01*
X126885000Y-68461928D01*
X126760518Y-68474188D01*
X126640820Y-68510498D01*
X126530506Y-68569463D01*
X126433815Y-68648815D01*
X126354463Y-68745506D01*
X126295498Y-68855820D01*
X126259188Y-68975518D01*
X126248555Y-69083483D01*
X126170799Y-68967114D01*
X125977886Y-68774201D01*
X125751043Y-68622629D01*
X125498989Y-68518225D01*
X125231411Y-68465000D01*
X124958589Y-68465000D01*
X124691011Y-68518225D01*
X124438957Y-68622629D01*
X124212114Y-68774201D01*
X124019201Y-68967114D01*
X123867629Y-69193957D01*
X123826489Y-69293279D01*
X123811277Y-69251168D01*
X123750860Y-69138137D01*
X123511993Y-69072612D01*
X122734605Y-69850000D01*
X123511993Y-70627388D01*
X123750860Y-70561863D01*
X123825164Y-70403523D01*
X123867629Y-70506043D01*
X124019201Y-70732886D01*
X124212114Y-70925799D01*
X124438957Y-71077371D01*
X124691011Y-71181775D01*
X124958589Y-71235000D01*
X125231411Y-71235000D01*
X125498989Y-71181775D01*
X125751043Y-71077371D01*
X125977886Y-70925799D01*
X126170799Y-70732886D01*
X126248555Y-70616517D01*
X126259188Y-70724482D01*
X126295498Y-70844180D01*
X126354463Y-70954494D01*
X126433815Y-71051185D01*
X126530506Y-71130537D01*
X126640820Y-71189502D01*
X126760518Y-71225812D01*
X126885000Y-71238072D01*
X127948271Y-71238072D01*
X129035198Y-72325000D01*
X128773514Y-72325000D01*
X128515595Y-72376304D01*
X128272641Y-72476939D01*
X128053987Y-72623038D01*
X127868038Y-72808987D01*
X127807225Y-72900000D01*
X125767322Y-72900000D01*
X125729999Y-72896324D01*
X125692677Y-72900000D01*
X125692667Y-72900000D01*
X125581014Y-72910997D01*
X125437753Y-72954454D01*
X125305723Y-73025026D01*
X125261883Y-73061005D01*
X125189999Y-73119999D01*
X125166201Y-73148997D01*
X124553998Y-73761201D01*
X124525000Y-73784999D01*
X124501202Y-73813997D01*
X124501201Y-73813998D01*
X124430026Y-73900724D01*
X124359454Y-74032754D01*
X124340001Y-74096885D01*
X124340001Y-72937322D01*
X124343677Y-72899999D01*
X124340001Y-72862676D01*
X124340001Y-72862666D01*
X124329004Y-72751013D01*
X124285547Y-72607752D01*
X124254291Y-72549277D01*
X124214975Y-72475722D01*
X124143800Y-72388996D01*
X124120002Y-72359998D01*
X124091004Y-72336200D01*
X122938767Y-71183964D01*
X123153832Y-71106277D01*
X123266863Y-71045860D01*
X123332388Y-70806993D01*
X122555000Y-70029605D01*
X122540858Y-70043748D01*
X122361253Y-69864143D01*
X122375395Y-69850000D01*
X121598007Y-69072612D01*
X121359140Y-69138137D01*
X121243240Y-69385116D01*
X121222756Y-69467953D01*
X121093806Y-69339003D01*
X121070003Y-69309999D01*
X120954278Y-69215026D01*
X120822249Y-69144454D01*
X120678988Y-69100997D01*
X120567335Y-69090000D01*
X120567324Y-69090000D01*
X120530002Y-69086324D01*
X120492680Y-69090000D01*
X116667775Y-69090000D01*
X116606962Y-68998987D01*
X116500982Y-68893007D01*
X121777612Y-68893007D01*
X122555000Y-69670395D01*
X123332388Y-68893007D01*
X123266863Y-68654140D01*
X123019884Y-68538240D01*
X122755040Y-68472750D01*
X122482508Y-68460188D01*
X122212762Y-68501035D01*
X121956168Y-68593723D01*
X121843137Y-68654140D01*
X121777612Y-68893007D01*
X116500982Y-68893007D01*
X116421013Y-68813038D01*
X116202359Y-68666939D01*
X115959405Y-68566304D01*
X115701486Y-68515000D01*
X115438514Y-68515000D01*
X115180595Y-68566304D01*
X115060000Y-68616256D01*
X115060000Y-67893043D01*
X115214759Y-67789637D01*
X115414637Y-67589759D01*
X115571680Y-67354727D01*
X115679853Y-67093574D01*
X115735000Y-66816335D01*
X115735000Y-66533665D01*
X115679853Y-66256426D01*
X115571680Y-65995273D01*
X115414637Y-65760241D01*
X115214759Y-65560363D01*
X114979727Y-65403320D01*
X114775321Y-65318652D01*
X114818518Y-65275456D01*
X114847511Y-65251662D01*
X114871305Y-65222669D01*
X114871309Y-65222665D01*
X114942483Y-65135938D01*
X114942484Y-65135937D01*
X115013056Y-65003908D01*
X115056513Y-64860647D01*
X115067510Y-64748994D01*
X115067510Y-64748985D01*
X115071186Y-64711662D01*
X115067510Y-64674339D01*
X115067510Y-60764835D01*
X115071186Y-60727512D01*
X115067510Y-60690189D01*
X115067510Y-60690179D01*
X115056513Y-60578526D01*
X115013056Y-60435265D01*
X115009150Y-60427958D01*
X114959495Y-60335060D01*
X114979727Y-60326680D01*
X115214759Y-60169637D01*
X115414637Y-59969759D01*
X115571680Y-59734727D01*
X115679853Y-59473574D01*
X115735000Y-59196335D01*
X115735000Y-58913665D01*
X115679853Y-58636426D01*
X115571680Y-58375273D01*
X115414637Y-58140241D01*
X115214759Y-57940363D01*
X114979727Y-57783320D01*
X114718574Y-57675147D01*
X114441335Y-57620000D01*
X114158665Y-57620000D01*
X113881426Y-57675147D01*
X113790000Y-57713017D01*
X113790000Y-57292338D01*
X113840820Y-57319502D01*
X113960518Y-57355812D01*
X114085000Y-57368072D01*
X114649250Y-57365000D01*
X114808000Y-57206250D01*
X114808000Y-56007000D01*
X115062000Y-56007000D01*
X115062000Y-57206250D01*
X115220750Y-57365000D01*
X115785000Y-57368072D01*
X115909482Y-57355812D01*
X116029180Y-57319502D01*
X116139494Y-57260537D01*
X116236185Y-57181185D01*
X116315537Y-57084494D01*
X116374502Y-56974180D01*
X116410812Y-56854482D01*
X116423072Y-56730000D01*
X116420000Y-56165750D01*
X116261250Y-56007000D01*
X115062000Y-56007000D01*
X114808000Y-56007000D01*
X114788000Y-56007000D01*
X114788000Y-55753000D01*
X114808000Y-55753000D01*
X114808000Y-55733000D01*
X115062000Y-55733000D01*
X115062000Y-55753000D01*
X116261250Y-55753000D01*
X116420000Y-55594250D01*
X116423072Y-55030000D01*
X116410812Y-54905518D01*
X116374502Y-54785820D01*
X116315537Y-54675506D01*
X116236185Y-54578815D01*
X116139494Y-54499463D01*
X116029180Y-54440498D01*
X115956620Y-54418487D01*
X116088475Y-54286632D01*
X116250990Y-54043411D01*
X116362932Y-53773158D01*
X116420000Y-53486260D01*
X116420000Y-53193740D01*
X116362932Y-52906842D01*
X116250990Y-52636589D01*
X116088475Y-52393368D01*
X115881632Y-52186525D01*
X115638411Y-52024010D01*
X115368158Y-51912068D01*
X115081260Y-51855000D01*
X114788740Y-51855000D01*
X114501842Y-51912068D01*
X114231589Y-52024010D01*
X113988368Y-52186525D01*
X113781525Y-52393368D01*
X113619010Y-52636589D01*
X113507068Y-52906842D01*
X113450000Y-53193740D01*
X113450000Y-53486260D01*
X113507068Y-53773158D01*
X113619010Y-54043411D01*
X113781525Y-54286632D01*
X113913380Y-54418487D01*
X113840820Y-54440498D01*
X113730506Y-54499463D01*
X113706780Y-54518934D01*
X113664974Y-54440722D01*
X113570001Y-54324997D01*
X113540998Y-54301195D01*
X113243807Y-54004004D01*
X113220004Y-53975000D01*
X113133673Y-53904150D01*
X113187932Y-53773158D01*
X113245000Y-53486260D01*
X113245000Y-53193740D01*
X113187932Y-52906842D01*
X113075990Y-52636589D01*
X112913475Y-52393368D01*
X112706632Y-52186525D01*
X112513976Y-52057796D01*
X112809640Y-51860240D01*
X113455240Y-51214640D01*
X113962484Y-50455496D01*
X114311880Y-49611980D01*
X114449523Y-48920000D01*
X133200477Y-48920000D01*
X133338120Y-49611980D01*
G37*
X133338120Y-49611980D02*
X133687516Y-50455496D01*
X134194760Y-51214640D01*
X134288120Y-51308000D01*
X116840000Y-51308000D01*
X116815224Y-51310440D01*
X116791399Y-51317667D01*
X116769443Y-51329403D01*
X116750197Y-51345197D01*
X116734403Y-51364443D01*
X116722667Y-51386399D01*
X116715440Y-51410224D01*
X116713000Y-51435000D01*
X116713000Y-58186698D01*
X116534335Y-58282196D01*
X116277761Y-58492761D01*
X116067196Y-58749335D01*
X115910732Y-59042059D01*
X115814381Y-59359682D01*
X115781848Y-59690000D01*
X115814381Y-60020318D01*
X115910732Y-60337941D01*
X116067196Y-60630665D01*
X116277761Y-60887239D01*
X116534335Y-61097804D01*
X116713000Y-61193302D01*
X116713000Y-67945000D01*
X116715440Y-67969776D01*
X116722667Y-67993601D01*
X116734403Y-68015557D01*
X116750197Y-68034803D01*
X116769443Y-68050597D01*
X116791399Y-68062333D01*
X116815224Y-68069560D01*
X116840000Y-68072000D01*
X144780000Y-68072000D01*
X144804776Y-68069560D01*
X144828601Y-68062333D01*
X144850557Y-68050597D01*
X144869803Y-68034803D01*
X144885597Y-68015557D01*
X144897333Y-67993601D01*
X144904560Y-67969776D01*
X144907000Y-67945000D01*
X144907000Y-66046968D01*
X145084512Y-65781302D01*
X145245453Y-65392756D01*
X145327500Y-64980279D01*
X145327500Y-64559721D01*
X145245453Y-64147244D01*
X145084512Y-63758698D01*
X144907000Y-63493032D01*
X144907000Y-60966968D01*
X145084512Y-60701302D01*
X145245453Y-60312756D01*
X145327500Y-59900279D01*
X145327500Y-59479721D01*
X145245453Y-59067244D01*
X145084512Y-58678698D01*
X144907000Y-58413032D01*
X144907000Y-56708505D01*
X144936680Y-56699502D01*
X145046994Y-56640537D01*
X145143685Y-56561185D01*
X145223037Y-56464494D01*
X145282002Y-56354180D01*
X145318312Y-56234482D01*
X145330572Y-56110000D01*
X145330572Y-53110000D01*
X145318312Y-52985518D01*
X145282002Y-52865820D01*
X145223037Y-52755506D01*
X145143685Y-52658815D01*
X145046994Y-52579463D01*
X144936680Y-52520498D01*
X144907000Y-52511495D01*
X144907000Y-51435000D01*
X144904560Y-51410224D01*
X144897333Y-51386399D01*
X144885597Y-51364443D01*
X144869803Y-51345197D01*
X144850557Y-51329403D01*
X144828601Y-51317667D01*
X144804776Y-51310440D01*
X144780000Y-51308000D01*
X141301880Y-51308000D01*
X141395240Y-51214640D01*
X141902484Y-50455496D01*
X142251880Y-49611980D01*
X142389523Y-48920000D01*
X145382725Y-48920000D01*
X145389513Y-48920666D01*
X145390000Y-48925301D01*
X145390001Y-74749806D01*
X145201231Y-74688374D01*
X144324605Y-75565000D01*
X145201231Y-76441626D01*
X145390001Y-76380194D01*
X145390001Y-82305148D01*
X145328768Y-82213507D01*
X145116493Y-82001232D01*
X144866885Y-81834449D01*
X144589534Y-81719566D01*
X144295101Y-81661000D01*
X143994899Y-81661000D01*
X143700466Y-81719566D01*
X143423115Y-81834449D01*
X143173507Y-82001232D01*
X142961232Y-82213507D01*
X142875000Y-82342562D01*
X142788768Y-82213507D01*
X142576493Y-82001232D01*
X142326885Y-81834449D01*
X142049534Y-81719566D01*
X141755101Y-81661000D01*
X141454899Y-81661000D01*
X141160466Y-81719566D01*
X140883115Y-81834449D01*
X140633507Y-82001232D01*
X140421232Y-82213507D01*
X140335000Y-82342562D01*
X140248768Y-82213507D01*
X140036493Y-82001232D01*
X139786885Y-81834449D01*
X139509534Y-81719566D01*
X139215101Y-81661000D01*
X138914899Y-81661000D01*
X138620466Y-81719566D01*
X138343115Y-81834449D01*
X138093507Y-82001232D01*
X138025001Y-82069738D01*
X138025001Y-76906019D01*
X138029041Y-76865000D01*
X138012919Y-76701312D01*
X137998492Y-76653753D01*
X138093507Y-76748768D01*
X138343115Y-76915551D01*
X138620466Y-77030434D01*
X138914899Y-77089000D01*
X139215101Y-77089000D01*
X139509534Y-77030434D01*
X139786885Y-76915551D01*
X140036493Y-76748768D01*
X140164030Y-76621231D01*
X143268374Y-76621231D01*
X143350727Y-76874289D01*
X143621418Y-77004086D01*
X143912230Y-77078580D01*
X144211988Y-77094908D01*
X144509171Y-77052443D01*
X144792359Y-76952816D01*
X144939273Y-76874289D01*
X145021626Y-76621231D01*
X144145000Y-75744605D01*
X143268374Y-76621231D01*
X140164030Y-76621231D01*
X140248768Y-76536493D01*
X140415551Y-76286885D01*
X140530434Y-76009534D01*
X140589000Y-75715101D01*
X140589000Y-75631988D01*
X142615092Y-75631988D01*
X142657557Y-75929171D01*
X142757184Y-76212359D01*
X142835711Y-76359273D01*
X143088769Y-76441626D01*
X143965395Y-75565000D01*
X143088769Y-74688374D01*
X142835711Y-74770727D01*
X142705914Y-75041418D01*
X142631420Y-75332230D01*
X142615092Y-75631988D01*
X140589000Y-75631988D01*
X140589000Y-75414899D01*
X140530434Y-75120466D01*
X140415551Y-74843115D01*
X140248768Y-74593507D01*
X140164030Y-74508769D01*
X143268374Y-74508769D01*
X144145000Y-75385395D01*
X145021626Y-74508769D01*
X144939273Y-74255711D01*
X144668582Y-74125914D01*
X144377770Y-74051420D01*
X144078012Y-74035092D01*
X143780829Y-74077557D01*
X143497641Y-74177184D01*
X143350727Y-74255711D01*
X143268374Y-74508769D01*
X140164030Y-74508769D01*
X140036493Y-74381232D01*
X139786885Y-74214449D01*
X139509534Y-74099566D01*
X139215101Y-74041000D01*
X138914899Y-74041000D01*
X138620466Y-74099566D01*
X138343115Y-74214449D01*
X138093507Y-74381232D01*
X137881232Y-74593507D01*
X137714449Y-74843115D01*
X137599566Y-75120466D01*
X137541000Y-75414899D01*
X137541000Y-75715101D01*
X137599566Y-76009534D01*
X137659079Y-76153212D01*
X137428072Y-75922204D01*
X137428072Y-74665000D01*
X137415812Y-74540518D01*
X137379502Y-74420820D01*
X137320537Y-74310506D01*
X137241185Y-74213815D01*
X137144494Y-74134463D01*
X137034180Y-74075498D01*
X137015873Y-74069944D01*
X137082312Y-74003505D01*
X137250299Y-73752095D01*
X137366011Y-73472743D01*
X137425000Y-73176184D01*
X137425000Y-72873816D01*
X137366011Y-72577257D01*
X137250299Y-72297905D01*
X137082312Y-72046495D01*
X136868505Y-71832688D01*
X136617095Y-71664701D01*
X136337743Y-71548989D01*
X136041184Y-71490000D01*
X135738816Y-71490000D01*
X135477565Y-71541966D01*
X135414277Y-71490027D01*
X135282248Y-71419455D01*
X135138987Y-71375998D01*
X135027334Y-71365001D01*
X135027323Y-71365001D01*
X134990001Y-71361325D01*
X134952679Y-71365001D01*
X130224803Y-71365001D01*
X130094802Y-71235000D01*
X130311411Y-71235000D01*
X130578989Y-71181775D01*
X130831043Y-71077371D01*
X131057886Y-70925799D01*
X131250799Y-70732886D01*
X131402371Y-70506043D01*
X131445000Y-70403127D01*
X131487629Y-70506043D01*
X131639201Y-70732886D01*
X131832114Y-70925799D01*
X132058957Y-71077371D01*
X132311011Y-71181775D01*
X132578589Y-71235000D01*
X132851411Y-71235000D01*
X133118989Y-71181775D01*
X133371043Y-71077371D01*
X133597886Y-70925799D01*
X133790799Y-70732886D01*
X133868555Y-70616517D01*
X133879188Y-70724482D01*
X133915498Y-70844180D01*
X133974463Y-70954494D01*
X134053815Y-71051185D01*
X134150506Y-71130537D01*
X134260820Y-71189502D01*
X134380518Y-71225812D01*
X134505000Y-71238072D01*
X136005000Y-71238072D01*
X136129482Y-71225812D01*
X136249180Y-71189502D01*
X136359494Y-71130537D01*
X136456185Y-71051185D01*
X136535537Y-70954494D01*
X136564733Y-70899872D01*
X140005000Y-70899872D01*
X140005000Y-71340128D01*
X140090890Y-71771925D01*
X140259369Y-72178669D01*
X140503962Y-72544729D01*
X140815271Y-72856038D01*
X141181331Y-73100631D01*
X141588075Y-73269110D01*
X142019872Y-73355000D01*
X142460128Y-73355000D01*
X142891925Y-73269110D01*
X143298669Y-73100631D01*
X143664729Y-72856038D01*
X143976038Y-72544729D01*
X144220631Y-72178669D01*
X144389110Y-71771925D01*
X144475000Y-71340128D01*
X144475000Y-70899872D01*
X144389110Y-70468075D01*
X144220631Y-70061331D01*
X143976038Y-69695271D01*
X143664729Y-69383962D01*
X143298669Y-69139369D01*
X142891925Y-68970890D01*
X142460128Y-68885000D01*
X142019872Y-68885000D01*
X141588075Y-68970890D01*
X141181331Y-69139369D01*
X140815271Y-69383962D01*
X140503962Y-69695271D01*
X140259369Y-70061331D01*
X140090890Y-70468075D01*
X140005000Y-70899872D01*
X136564733Y-70899872D01*
X136594502Y-70844180D01*
X136630812Y-70724482D01*
X136643072Y-70600000D01*
X136643072Y-69100000D01*
X136630812Y-68975518D01*
X136594502Y-68855820D01*
X136535537Y-68745506D01*
X136456185Y-68648815D01*
X136359494Y-68569463D01*
X136249180Y-68510498D01*
X136129482Y-68474188D01*
X136005000Y-68461928D01*
X134505000Y-68461928D01*
X134380518Y-68474188D01*
X134260820Y-68510498D01*
X134150506Y-68569463D01*
X134053815Y-68648815D01*
X133974463Y-68745506D01*
X133915498Y-68855820D01*
X133879188Y-68975518D01*
X133868555Y-69083483D01*
X133790799Y-68967114D01*
X133597886Y-68774201D01*
X133371043Y-68622629D01*
X133118989Y-68518225D01*
X132851411Y-68465000D01*
X132578589Y-68465000D01*
X132311011Y-68518225D01*
X132058957Y-68622629D01*
X131832114Y-68774201D01*
X131639201Y-68967114D01*
X131487629Y-69193957D01*
X131445000Y-69296873D01*
X131402371Y-69193957D01*
X131250799Y-68967114D01*
X131057886Y-68774201D01*
X130831043Y-68622629D01*
X130578989Y-68518225D01*
X130311411Y-68465000D01*
X130038589Y-68465000D01*
X129771011Y-68518225D01*
X129518957Y-68622629D01*
X129292114Y-68774201D01*
X129099201Y-68967114D01*
X129021445Y-69083483D01*
X129010812Y-68975518D01*
X128974502Y-68855820D01*
X128915537Y-68745506D01*
X128836185Y-68648815D01*
X128739494Y-68569463D01*
X128629180Y-68510498D01*
X128509482Y-68474188D01*
X128385000Y-68461928D01*
X126885000Y-68461928D01*
X126760518Y-68474188D01*
X126640820Y-68510498D01*
X126530506Y-68569463D01*
X126433815Y-68648815D01*
X126354463Y-68745506D01*
X126295498Y-68855820D01*
X126259188Y-68975518D01*
X126248555Y-69083483D01*
X126170799Y-68967114D01*
X125977886Y-68774201D01*
X125751043Y-68622629D01*
X125498989Y-68518225D01*
X125231411Y-68465000D01*
X124958589Y-68465000D01*
X124691011Y-68518225D01*
X124438957Y-68622629D01*
X124212114Y-68774201D01*
X124019201Y-68967114D01*
X123867629Y-69193957D01*
X123826489Y-69293279D01*
X123811277Y-69251168D01*
X123750860Y-69138137D01*
X123511993Y-69072612D01*
X122734605Y-69850000D01*
X123511993Y-70627388D01*
X123750860Y-70561863D01*
X123825164Y-70403523D01*
X123867629Y-70506043D01*
X124019201Y-70732886D01*
X124212114Y-70925799D01*
X124438957Y-71077371D01*
X124691011Y-71181775D01*
X124958589Y-71235000D01*
X125231411Y-71235000D01*
X125498989Y-71181775D01*
X125751043Y-71077371D01*
X125977886Y-70925799D01*
X126170799Y-70732886D01*
X126248555Y-70616517D01*
X126259188Y-70724482D01*
X126295498Y-70844180D01*
X126354463Y-70954494D01*
X126433815Y-71051185D01*
X126530506Y-71130537D01*
X126640820Y-71189502D01*
X126760518Y-71225812D01*
X126885000Y-71238072D01*
X127948271Y-71238072D01*
X129035198Y-72325000D01*
X128773514Y-72325000D01*
X128515595Y-72376304D01*
X128272641Y-72476939D01*
X128053987Y-72623038D01*
X127868038Y-72808987D01*
X127807225Y-72900000D01*
X125767322Y-72900000D01*
X125729999Y-72896324D01*
X125692677Y-72900000D01*
X125692667Y-72900000D01*
X125581014Y-72910997D01*
X125437753Y-72954454D01*
X125305723Y-73025026D01*
X125261883Y-73061005D01*
X125189999Y-73119999D01*
X125166201Y-73148997D01*
X124553998Y-73761201D01*
X124525000Y-73784999D01*
X124501202Y-73813997D01*
X124501201Y-73813998D01*
X124430026Y-73900724D01*
X124359454Y-74032754D01*
X124340001Y-74096885D01*
X124340001Y-72937322D01*
X124343677Y-72899999D01*
X124340001Y-72862676D01*
X124340001Y-72862666D01*
X124329004Y-72751013D01*
X124285547Y-72607752D01*
X124254291Y-72549277D01*
X124214975Y-72475722D01*
X124143800Y-72388996D01*
X124120002Y-72359998D01*
X124091004Y-72336200D01*
X122938767Y-71183964D01*
X123153832Y-71106277D01*
X123266863Y-71045860D01*
X123332388Y-70806993D01*
X122555000Y-70029605D01*
X122540858Y-70043748D01*
X122361253Y-69864143D01*
X122375395Y-69850000D01*
X121598007Y-69072612D01*
X121359140Y-69138137D01*
X121243240Y-69385116D01*
X121222756Y-69467953D01*
X121093806Y-69339003D01*
X121070003Y-69309999D01*
X120954278Y-69215026D01*
X120822249Y-69144454D01*
X120678988Y-69100997D01*
X120567335Y-69090000D01*
X120567324Y-69090000D01*
X120530002Y-69086324D01*
X120492680Y-69090000D01*
X116667775Y-69090000D01*
X116606962Y-68998987D01*
X116500982Y-68893007D01*
X121777612Y-68893007D01*
X122555000Y-69670395D01*
X123332388Y-68893007D01*
X123266863Y-68654140D01*
X123019884Y-68538240D01*
X122755040Y-68472750D01*
X122482508Y-68460188D01*
X122212762Y-68501035D01*
X121956168Y-68593723D01*
X121843137Y-68654140D01*
X121777612Y-68893007D01*
X116500982Y-68893007D01*
X116421013Y-68813038D01*
X116202359Y-68666939D01*
X115959405Y-68566304D01*
X115701486Y-68515000D01*
X115438514Y-68515000D01*
X115180595Y-68566304D01*
X115060000Y-68616256D01*
X115060000Y-67893043D01*
X115214759Y-67789637D01*
X115414637Y-67589759D01*
X115571680Y-67354727D01*
X115679853Y-67093574D01*
X115735000Y-66816335D01*
X115735000Y-66533665D01*
X115679853Y-66256426D01*
X115571680Y-65995273D01*
X115414637Y-65760241D01*
X115214759Y-65560363D01*
X114979727Y-65403320D01*
X114775321Y-65318652D01*
X114818518Y-65275456D01*
X114847511Y-65251662D01*
X114871305Y-65222669D01*
X114871309Y-65222665D01*
X114942483Y-65135938D01*
X114942484Y-65135937D01*
X115013056Y-65003908D01*
X115056513Y-64860647D01*
X115067510Y-64748994D01*
X115067510Y-64748985D01*
X115071186Y-64711662D01*
X115067510Y-64674339D01*
X115067510Y-60764835D01*
X115071186Y-60727512D01*
X115067510Y-60690189D01*
X115067510Y-60690179D01*
X115056513Y-60578526D01*
X115013056Y-60435265D01*
X115009150Y-60427958D01*
X114959495Y-60335060D01*
X114979727Y-60326680D01*
X115214759Y-60169637D01*
X115414637Y-59969759D01*
X115571680Y-59734727D01*
X115679853Y-59473574D01*
X115735000Y-59196335D01*
X115735000Y-58913665D01*
X115679853Y-58636426D01*
X115571680Y-58375273D01*
X115414637Y-58140241D01*
X115214759Y-57940363D01*
X114979727Y-57783320D01*
X114718574Y-57675147D01*
X114441335Y-57620000D01*
X114158665Y-57620000D01*
X113881426Y-57675147D01*
X113790000Y-57713017D01*
X113790000Y-57292338D01*
X113840820Y-57319502D01*
X113960518Y-57355812D01*
X114085000Y-57368072D01*
X114649250Y-57365000D01*
X114808000Y-57206250D01*
X114808000Y-56007000D01*
X115062000Y-56007000D01*
X115062000Y-57206250D01*
X115220750Y-57365000D01*
X115785000Y-57368072D01*
X115909482Y-57355812D01*
X116029180Y-57319502D01*
X116139494Y-57260537D01*
X116236185Y-57181185D01*
X116315537Y-57084494D01*
X116374502Y-56974180D01*
X116410812Y-56854482D01*
X116423072Y-56730000D01*
X116420000Y-56165750D01*
X116261250Y-56007000D01*
X115062000Y-56007000D01*
X114808000Y-56007000D01*
X114788000Y-56007000D01*
X114788000Y-55753000D01*
X114808000Y-55753000D01*
X114808000Y-55733000D01*
X115062000Y-55733000D01*
X115062000Y-55753000D01*
X116261250Y-55753000D01*
X116420000Y-55594250D01*
X116423072Y-55030000D01*
X116410812Y-54905518D01*
X116374502Y-54785820D01*
X116315537Y-54675506D01*
X116236185Y-54578815D01*
X116139494Y-54499463D01*
X116029180Y-54440498D01*
X115956620Y-54418487D01*
X116088475Y-54286632D01*
X116250990Y-54043411D01*
X116362932Y-53773158D01*
X116420000Y-53486260D01*
X116420000Y-53193740D01*
X116362932Y-52906842D01*
X116250990Y-52636589D01*
X116088475Y-52393368D01*
X115881632Y-52186525D01*
X115638411Y-52024010D01*
X115368158Y-51912068D01*
X115081260Y-51855000D01*
X114788740Y-51855000D01*
X114501842Y-51912068D01*
X114231589Y-52024010D01*
X113988368Y-52186525D01*
X113781525Y-52393368D01*
X113619010Y-52636589D01*
X113507068Y-52906842D01*
X113450000Y-53193740D01*
X113450000Y-53486260D01*
X113507068Y-53773158D01*
X113619010Y-54043411D01*
X113781525Y-54286632D01*
X113913380Y-54418487D01*
X113840820Y-54440498D01*
X113730506Y-54499463D01*
X113706780Y-54518934D01*
X113664974Y-54440722D01*
X113570001Y-54324997D01*
X113540998Y-54301195D01*
X113243807Y-54004004D01*
X113220004Y-53975000D01*
X113133673Y-53904150D01*
X113187932Y-53773158D01*
X113245000Y-53486260D01*
X113245000Y-53193740D01*
X113187932Y-52906842D01*
X113075990Y-52636589D01*
X112913475Y-52393368D01*
X112706632Y-52186525D01*
X112513976Y-52057796D01*
X112809640Y-51860240D01*
X113455240Y-51214640D01*
X113962484Y-50455496D01*
X114311880Y-49611980D01*
X114449523Y-48920000D01*
X133200477Y-48920000D01*
X133338120Y-49611980D01*
G36*
X110169698Y-80750961D02*
G01*
X109960961Y-80959698D01*
X109796958Y-81205147D01*
X109683990Y-81477875D01*
X109640801Y-81695001D01*
X106833850Y-81695001D01*
X106851476Y-81636890D01*
X106730155Y-81407000D01*
X105537000Y-81407000D01*
X105537000Y-81427000D01*
X105283000Y-81427000D01*
X105283000Y-81407000D01*
X105263000Y-81407000D01*
X105263000Y-81153000D01*
X105283000Y-81153000D01*
X105283000Y-81133000D01*
X105537000Y-81133000D01*
X105537000Y-81153000D01*
X106730155Y-81153000D01*
X106851476Y-80923110D01*
X106806825Y-80775901D01*
X106758765Y-80675001D01*
X110283381Y-80675001D01*
X110169698Y-80750961D01*
G37*
X110169698Y-80750961D02*
X109960961Y-80959698D01*
X109796958Y-81205147D01*
X109683990Y-81477875D01*
X109640801Y-81695001D01*
X106833850Y-81695001D01*
X106851476Y-81636890D01*
X106730155Y-81407000D01*
X105537000Y-81407000D01*
X105537000Y-81427000D01*
X105283000Y-81427000D01*
X105283000Y-81407000D01*
X105263000Y-81407000D01*
X105263000Y-81153000D01*
X105283000Y-81153000D01*
X105283000Y-81133000D01*
X105537000Y-81133000D01*
X105537000Y-81153000D01*
X106730155Y-81153000D01*
X106851476Y-80923110D01*
X106806825Y-80775901D01*
X106758765Y-80675001D01*
X110283381Y-80675001D01*
X110169698Y-80750961D01*
G36*
X109600397Y-78697401D02*
G01*
X109624196Y-78726400D01*
X109734194Y-78816673D01*
X109683990Y-78937875D01*
X109640801Y-79155001D01*
X106833850Y-79155001D01*
X106851476Y-79096890D01*
X106730155Y-78867000D01*
X105537000Y-78867000D01*
X105537000Y-78887000D01*
X105283000Y-78887000D01*
X105283000Y-78867000D01*
X105263000Y-78867000D01*
X105263000Y-78613000D01*
X105283000Y-78613000D01*
X105283000Y-78593000D01*
X105537000Y-78593000D01*
X105537000Y-78613000D01*
X106730155Y-78613000D01*
X106851476Y-78383110D01*
X106829725Y-78311399D01*
X109214396Y-78311399D01*
X109600397Y-78697401D01*
G37*
X109600397Y-78697401D02*
X109624196Y-78726400D01*
X109734194Y-78816673D01*
X109683990Y-78937875D01*
X109640801Y-79155001D01*
X106833850Y-79155001D01*
X106851476Y-79096890D01*
X106730155Y-78867000D01*
X105537000Y-78867000D01*
X105537000Y-78887000D01*
X105283000Y-78887000D01*
X105283000Y-78867000D01*
X105263000Y-78867000D01*
X105263000Y-78613000D01*
X105283000Y-78613000D01*
X105283000Y-78593000D01*
X105537000Y-78593000D01*
X105537000Y-78613000D01*
X106730155Y-78613000D01*
X106851476Y-78383110D01*
X106829725Y-78311399D01*
X109214396Y-78311399D01*
X109600397Y-78697401D01*
G36*
X105398120Y-49611980D02*
G01*
X105747516Y-50455496D01*
X106254760Y-51214640D01*
X106842048Y-51801928D01*
X105145000Y-51801928D01*
X105020518Y-51814188D01*
X104900820Y-51850498D01*
X104790506Y-51909463D01*
X104693815Y-51988815D01*
X104614463Y-52085506D01*
X104555498Y-52195820D01*
X104549944Y-52214127D01*
X104483505Y-52147688D01*
X104232095Y-51979701D01*
X103952743Y-51863989D01*
X103656184Y-51805000D01*
X103353816Y-51805000D01*
X103057257Y-51863989D01*
X102777905Y-51979701D01*
X102526495Y-52147688D01*
X102312688Y-52361495D01*
X102144701Y-52612905D01*
X102028989Y-52892257D01*
X101970000Y-53188816D01*
X101970000Y-53491184D01*
X102028989Y-53787743D01*
X102144701Y-54067095D01*
X102312688Y-54318505D01*
X102444690Y-54450507D01*
X102436842Y-54452068D01*
X102166589Y-54564010D01*
X101923368Y-54726525D01*
X101716525Y-54933368D01*
X101554010Y-55176589D01*
X101442068Y-55446842D01*
X101385000Y-55733740D01*
X101385000Y-56026260D01*
X101442068Y-56313158D01*
X101554010Y-56583411D01*
X101716525Y-56826632D01*
X101923368Y-57033475D01*
X102097760Y-57150000D01*
X101923368Y-57266525D01*
X101716525Y-57473368D01*
X101554010Y-57716589D01*
X101442068Y-57986842D01*
X101385000Y-58273740D01*
X101385000Y-58566260D01*
X101442068Y-58853158D01*
X101554010Y-59123411D01*
X101716525Y-59366632D01*
X101923368Y-59573475D01*
X102097760Y-59690000D01*
X101923368Y-59806525D01*
X101716525Y-60013368D01*
X101554010Y-60256589D01*
X101442068Y-60526842D01*
X101385000Y-60813740D01*
X101385000Y-61106260D01*
X101442068Y-61393158D01*
X101554010Y-61663411D01*
X101716525Y-61906632D01*
X101923368Y-62113475D01*
X102097760Y-62230000D01*
X101923368Y-62346525D01*
X101716525Y-62553368D01*
X101554010Y-62796589D01*
X101442068Y-63066842D01*
X101385000Y-63353740D01*
X101385000Y-63646260D01*
X101442068Y-63933158D01*
X101554010Y-64203411D01*
X101716525Y-64446632D01*
X101848380Y-64578487D01*
X101775820Y-64600498D01*
X101665506Y-64659463D01*
X101568815Y-64738815D01*
X101489463Y-64835506D01*
X101430498Y-64945820D01*
X101394188Y-65065518D01*
X101381928Y-65190000D01*
X101385000Y-65754250D01*
X101543750Y-65913000D01*
X102743000Y-65913000D01*
X102743000Y-65893000D01*
X102997000Y-65893000D01*
X102997000Y-65913000D01*
X103017000Y-65913000D01*
X103017000Y-66167000D01*
X102997000Y-66167000D01*
X102997000Y-67366250D01*
X103155750Y-67525000D01*
X103454178Y-67526625D01*
X103505026Y-67621754D01*
X103576201Y-67708480D01*
X103600000Y-67737479D01*
X103628998Y-67761277D01*
X104871621Y-69003901D01*
X104791925Y-68970890D01*
X104360128Y-68885000D01*
X103919872Y-68885000D01*
X103488075Y-68970890D01*
X103081331Y-69139369D01*
X102715271Y-69383962D01*
X102403962Y-69695271D01*
X102159369Y-70061331D01*
X101990890Y-70468075D01*
X101905000Y-70899872D01*
X101905000Y-71340128D01*
X101990890Y-71771925D01*
X102159369Y-72178669D01*
X102403962Y-72544729D01*
X102715271Y-72856038D01*
X103081331Y-73100631D01*
X103488075Y-73269110D01*
X103919872Y-73355000D01*
X104360128Y-73355000D01*
X104791925Y-73269110D01*
X105198669Y-73100631D01*
X105564729Y-72856038D01*
X105876038Y-72544729D01*
X106120631Y-72178669D01*
X106289110Y-71771925D01*
X106375000Y-71340128D01*
X106375000Y-70899872D01*
X106289110Y-70468075D01*
X106120631Y-70061331D01*
X105876038Y-69695271D01*
X105564729Y-69383962D01*
X105501310Y-69341587D01*
X105522521Y-69343676D01*
X105559844Y-69340000D01*
X107635199Y-69340000D01*
X107906355Y-69611156D01*
X107885000Y-69718514D01*
X107885000Y-69981486D01*
X107936304Y-70239405D01*
X108036939Y-70482359D01*
X108183038Y-70701013D01*
X108368987Y-70886962D01*
X108587641Y-71033061D01*
X108797530Y-71120000D01*
X108587641Y-71206939D01*
X108368987Y-71353038D01*
X108183038Y-71538987D01*
X108036939Y-71757641D01*
X107936304Y-72000595D01*
X107885000Y-72258514D01*
X107885000Y-72521486D01*
X107936304Y-72779405D01*
X108036939Y-73022359D01*
X108183038Y-73241013D01*
X108368987Y-73426962D01*
X108587641Y-73573061D01*
X108830595Y-73673696D01*
X109088514Y-73725000D01*
X109351486Y-73725000D01*
X109609405Y-73673696D01*
X109852359Y-73573061D01*
X110071013Y-73426962D01*
X110256962Y-73241013D01*
X110403061Y-73022359D01*
X110503696Y-72779405D01*
X110555000Y-72521486D01*
X110555000Y-72258514D01*
X110503696Y-72000595D01*
X110403061Y-71757641D01*
X110256962Y-71538987D01*
X110071013Y-71353038D01*
X109852359Y-71206939D01*
X109642470Y-71120000D01*
X109852359Y-71033061D01*
X110071013Y-70886962D01*
X110256962Y-70701013D01*
X110403061Y-70482359D01*
X110503696Y-70239405D01*
X110555000Y-69981486D01*
X110555000Y-69718514D01*
X110503696Y-69460595D01*
X110403061Y-69217641D01*
X110358641Y-69151161D01*
X111436114Y-68073688D01*
X111618665Y-68110000D01*
X111901335Y-68110000D01*
X112178574Y-68054853D01*
X112415000Y-67956922D01*
X112415000Y-68515000D01*
X112263514Y-68515000D01*
X112005595Y-68566304D01*
X111762641Y-68666939D01*
X111543987Y-68813038D01*
X111358038Y-68998987D01*
X111211939Y-69217641D01*
X111111304Y-69460595D01*
X111060000Y-69718514D01*
X111060000Y-69981486D01*
X111111304Y-70239405D01*
X111211939Y-70482359D01*
X111358038Y-70701013D01*
X111543987Y-70886962D01*
X111762641Y-71033061D01*
X111972530Y-71120000D01*
X111762641Y-71206939D01*
X111543987Y-71353038D01*
X111358038Y-71538987D01*
X111211939Y-71757641D01*
X111111304Y-72000595D01*
X111060000Y-72258514D01*
X111060000Y-72521486D01*
X111111304Y-72779405D01*
X111211939Y-73022359D01*
X111358038Y-73241013D01*
X111543987Y-73426962D01*
X111762641Y-73573061D01*
X112005595Y-73673696D01*
X112263514Y-73725000D01*
X112526486Y-73725000D01*
X112633843Y-73703645D01*
X113101200Y-74171002D01*
X113124999Y-74200001D01*
X113240724Y-74294974D01*
X113372753Y-74365546D01*
X113516014Y-74409003D01*
X113627667Y-74420000D01*
X113627676Y-74420000D01*
X113664999Y-74423676D01*
X113702322Y-74420000D01*
X117795199Y-74420000D01*
X117985001Y-74609802D01*
X117985001Y-74811928D01*
X117445000Y-74811928D01*
X117420550Y-74814336D01*
X117395991Y-74814336D01*
X117271510Y-74826596D01*
X117175377Y-74845718D01*
X117055681Y-74882027D01*
X116965125Y-74919536D01*
X116854808Y-74978502D01*
X116773309Y-75032958D01*
X116676618Y-75112310D01*
X116607310Y-75181618D01*
X116527958Y-75278309D01*
X116473502Y-75359808D01*
X116414536Y-75470125D01*
X116377027Y-75560681D01*
X116340718Y-75680377D01*
X116321596Y-75776510D01*
X116309336Y-75900991D01*
X116309336Y-75925550D01*
X116306928Y-75950000D01*
X116306928Y-76263270D01*
X115255199Y-77315000D01*
X115083265Y-77315000D01*
X115119958Y-77194026D01*
X114998817Y-76962000D01*
X113792000Y-76962000D01*
X113792000Y-76982000D01*
X113538000Y-76982000D01*
X113538000Y-76962000D01*
X113518000Y-76962000D01*
X113518000Y-76708000D01*
X113538000Y-76708000D01*
X113538000Y-75500536D01*
X113792000Y-75500536D01*
X113792000Y-76708000D01*
X114998817Y-76708000D01*
X115119958Y-76475974D01*
X115074222Y-76325186D01*
X114947684Y-76060056D01*
X114771854Y-75824707D01*
X114553488Y-75628183D01*
X114300978Y-75478036D01*
X114024027Y-75380037D01*
X113792000Y-75500536D01*
X113538000Y-75500536D01*
X113305973Y-75380037D01*
X113029022Y-75478036D01*
X112776512Y-75628183D01*
X112597053Y-75789692D01*
X112578102Y-75727220D01*
X112519137Y-75616906D01*
X112439785Y-75520215D01*
X112343094Y-75440863D01*
X112232780Y-75381898D01*
X112113082Y-75345588D01*
X111988600Y-75333328D01*
X110261400Y-75333328D01*
X110136918Y-75345588D01*
X110017220Y-75381898D01*
X109906906Y-75440863D01*
X109810215Y-75520215D01*
X109730863Y-75616906D01*
X109671898Y-75727220D01*
X109635588Y-75846918D01*
X109623328Y-75971400D01*
X109623328Y-76796993D01*
X109566530Y-76791399D01*
X109566519Y-76791399D01*
X109529197Y-76787723D01*
X109491875Y-76791399D01*
X106765243Y-76791399D01*
X106806825Y-76704099D01*
X106851476Y-76556890D01*
X106730155Y-76327000D01*
X105537000Y-76327000D01*
X105537000Y-76347000D01*
X105283000Y-76347000D01*
X105283000Y-76327000D01*
X105263000Y-76327000D01*
X105263000Y-76073000D01*
X105283000Y-76073000D01*
X105283000Y-74879186D01*
X105537000Y-74879186D01*
X105537000Y-76073000D01*
X106730155Y-76073000D01*
X106851476Y-75843110D01*
X106806825Y-75695901D01*
X106681641Y-75433080D01*
X106507588Y-75199731D01*
X106291355Y-75004822D01*
X106041252Y-74855843D01*
X105766891Y-74758519D01*
X105537000Y-74879186D01*
X105283000Y-74879186D01*
X105053109Y-74758519D01*
X104778748Y-74855843D01*
X104528645Y-75004822D01*
X104312412Y-75199731D01*
X104141100Y-75429406D01*
X104023475Y-75253368D01*
X103816632Y-75046525D01*
X103573411Y-74884010D01*
X103303158Y-74772068D01*
X103016260Y-74715000D01*
X102723740Y-74715000D01*
X102436842Y-74772068D01*
X102166589Y-74884010D01*
X101923368Y-75046525D01*
X101716525Y-75253368D01*
X101554010Y-75496589D01*
X101442068Y-75766842D01*
X101385000Y-76053740D01*
X101385000Y-76346260D01*
X101442068Y-76633158D01*
X101554010Y-76903411D01*
X101689704Y-77106492D01*
X101184001Y-77612196D01*
X101154998Y-77635998D01*
X101112388Y-77687919D01*
X101060025Y-77751723D01*
X100993383Y-77876400D01*
X100990000Y-77882730D01*
X100990000Y-66890000D01*
X101381928Y-66890000D01*
X101394188Y-67014482D01*
X101430498Y-67134180D01*
X101489463Y-67244494D01*
X101568815Y-67341185D01*
X101665506Y-67420537D01*
X101775820Y-67479502D01*
X101895518Y-67515812D01*
X102020000Y-67528072D01*
X102584250Y-67525000D01*
X102743000Y-67366250D01*
X102743000Y-66167000D01*
X101543750Y-66167000D01*
X101385000Y-66325750D01*
X101381928Y-66890000D01*
X100990000Y-66890000D01*
X100990000Y-48927275D01*
X100990666Y-48920487D01*
X100995301Y-48920000D01*
X105260477Y-48920000D01*
X105398120Y-49611980D01*
G37*
X105398120Y-49611980D02*
X105747516Y-50455496D01*
X106254760Y-51214640D01*
X106842048Y-51801928D01*
X105145000Y-51801928D01*
X105020518Y-51814188D01*
X104900820Y-51850498D01*
X104790506Y-51909463D01*
X104693815Y-51988815D01*
X104614463Y-52085506D01*
X104555498Y-52195820D01*
X104549944Y-52214127D01*
X104483505Y-52147688D01*
X104232095Y-51979701D01*
X103952743Y-51863989D01*
X103656184Y-51805000D01*
X103353816Y-51805000D01*
X103057257Y-51863989D01*
X102777905Y-51979701D01*
X102526495Y-52147688D01*
X102312688Y-52361495D01*
X102144701Y-52612905D01*
X102028989Y-52892257D01*
X101970000Y-53188816D01*
X101970000Y-53491184D01*
X102028989Y-53787743D01*
X102144701Y-54067095D01*
X102312688Y-54318505D01*
X102444690Y-54450507D01*
X102436842Y-54452068D01*
X102166589Y-54564010D01*
X101923368Y-54726525D01*
X101716525Y-54933368D01*
X101554010Y-55176589D01*
X101442068Y-55446842D01*
X101385000Y-55733740D01*
X101385000Y-56026260D01*
X101442068Y-56313158D01*
X101554010Y-56583411D01*
X101716525Y-56826632D01*
X101923368Y-57033475D01*
X102097760Y-57150000D01*
X101923368Y-57266525D01*
X101716525Y-57473368D01*
X101554010Y-57716589D01*
X101442068Y-57986842D01*
X101385000Y-58273740D01*
X101385000Y-58566260D01*
X101442068Y-58853158D01*
X101554010Y-59123411D01*
X101716525Y-59366632D01*
X101923368Y-59573475D01*
X102097760Y-59690000D01*
X101923368Y-59806525D01*
X101716525Y-60013368D01*
X101554010Y-60256589D01*
X101442068Y-60526842D01*
X101385000Y-60813740D01*
X101385000Y-61106260D01*
X101442068Y-61393158D01*
X101554010Y-61663411D01*
X101716525Y-61906632D01*
X101923368Y-62113475D01*
X102097760Y-62230000D01*
X101923368Y-62346525D01*
X101716525Y-62553368D01*
X101554010Y-62796589D01*
X101442068Y-63066842D01*
X101385000Y-63353740D01*
X101385000Y-63646260D01*
X101442068Y-63933158D01*
X101554010Y-64203411D01*
X101716525Y-64446632D01*
X101848380Y-64578487D01*
X101775820Y-64600498D01*
X101665506Y-64659463D01*
X101568815Y-64738815D01*
X101489463Y-64835506D01*
X101430498Y-64945820D01*
X101394188Y-65065518D01*
X101381928Y-65190000D01*
X101385000Y-65754250D01*
X101543750Y-65913000D01*
X102743000Y-65913000D01*
X102743000Y-65893000D01*
X102997000Y-65893000D01*
X102997000Y-65913000D01*
X103017000Y-65913000D01*
X103017000Y-66167000D01*
X102997000Y-66167000D01*
X102997000Y-67366250D01*
X103155750Y-67525000D01*
X103454178Y-67526625D01*
X103505026Y-67621754D01*
X103576201Y-67708480D01*
X103600000Y-67737479D01*
X103628998Y-67761277D01*
X104871621Y-69003901D01*
X104791925Y-68970890D01*
X104360128Y-68885000D01*
X103919872Y-68885000D01*
X103488075Y-68970890D01*
X103081331Y-69139369D01*
X102715271Y-69383962D01*
X102403962Y-69695271D01*
X102159369Y-70061331D01*
X101990890Y-70468075D01*
X101905000Y-70899872D01*
X101905000Y-71340128D01*
X101990890Y-71771925D01*
X102159369Y-72178669D01*
X102403962Y-72544729D01*
X102715271Y-72856038D01*
X103081331Y-73100631D01*
X103488075Y-73269110D01*
X103919872Y-73355000D01*
X104360128Y-73355000D01*
X104791925Y-73269110D01*
X105198669Y-73100631D01*
X105564729Y-72856038D01*
X105876038Y-72544729D01*
X106120631Y-72178669D01*
X106289110Y-71771925D01*
X106375000Y-71340128D01*
X106375000Y-70899872D01*
X106289110Y-70468075D01*
X106120631Y-70061331D01*
X105876038Y-69695271D01*
X105564729Y-69383962D01*
X105501310Y-69341587D01*
X105522521Y-69343676D01*
X105559844Y-69340000D01*
X107635199Y-69340000D01*
X107906355Y-69611156D01*
X107885000Y-69718514D01*
X107885000Y-69981486D01*
X107936304Y-70239405D01*
X108036939Y-70482359D01*
X108183038Y-70701013D01*
X108368987Y-70886962D01*
X108587641Y-71033061D01*
X108797530Y-71120000D01*
X108587641Y-71206939D01*
X108368987Y-71353038D01*
X108183038Y-71538987D01*
X108036939Y-71757641D01*
X107936304Y-72000595D01*
X107885000Y-72258514D01*
X107885000Y-72521486D01*
X107936304Y-72779405D01*
X108036939Y-73022359D01*
X108183038Y-73241013D01*
X108368987Y-73426962D01*
X108587641Y-73573061D01*
X108830595Y-73673696D01*
X109088514Y-73725000D01*
X109351486Y-73725000D01*
X109609405Y-73673696D01*
X109852359Y-73573061D01*
X110071013Y-73426962D01*
X110256962Y-73241013D01*
X110403061Y-73022359D01*
X110503696Y-72779405D01*
X110555000Y-72521486D01*
X110555000Y-72258514D01*
X110503696Y-72000595D01*
X110403061Y-71757641D01*
X110256962Y-71538987D01*
X110071013Y-71353038D01*
X109852359Y-71206939D01*
X109642470Y-71120000D01*
X109852359Y-71033061D01*
X110071013Y-70886962D01*
X110256962Y-70701013D01*
X110403061Y-70482359D01*
X110503696Y-70239405D01*
X110555000Y-69981486D01*
X110555000Y-69718514D01*
X110503696Y-69460595D01*
X110403061Y-69217641D01*
X110358641Y-69151161D01*
X111436114Y-68073688D01*
X111618665Y-68110000D01*
X111901335Y-68110000D01*
X112178574Y-68054853D01*
X112415000Y-67956922D01*
X112415000Y-68515000D01*
X112263514Y-68515000D01*
X112005595Y-68566304D01*
X111762641Y-68666939D01*
X111543987Y-68813038D01*
X111358038Y-68998987D01*
X111211939Y-69217641D01*
X111111304Y-69460595D01*
X111060000Y-69718514D01*
X111060000Y-69981486D01*
X111111304Y-70239405D01*
X111211939Y-70482359D01*
X111358038Y-70701013D01*
X111543987Y-70886962D01*
X111762641Y-71033061D01*
X111972530Y-71120000D01*
X111762641Y-71206939D01*
X111543987Y-71353038D01*
X111358038Y-71538987D01*
X111211939Y-71757641D01*
X111111304Y-72000595D01*
X111060000Y-72258514D01*
X111060000Y-72521486D01*
X111111304Y-72779405D01*
X111211939Y-73022359D01*
X111358038Y-73241013D01*
X111543987Y-73426962D01*
X111762641Y-73573061D01*
X112005595Y-73673696D01*
X112263514Y-73725000D01*
X112526486Y-73725000D01*
X112633843Y-73703645D01*
X113101200Y-74171002D01*
X113124999Y-74200001D01*
X113240724Y-74294974D01*
X113372753Y-74365546D01*
X113516014Y-74409003D01*
X113627667Y-74420000D01*
X113627676Y-74420000D01*
X113664999Y-74423676D01*
X113702322Y-74420000D01*
X117795199Y-74420000D01*
X117985001Y-74609802D01*
X117985001Y-74811928D01*
X117445000Y-74811928D01*
X117420550Y-74814336D01*
X117395991Y-74814336D01*
X117271510Y-74826596D01*
X117175377Y-74845718D01*
X117055681Y-74882027D01*
X116965125Y-74919536D01*
X116854808Y-74978502D01*
X116773309Y-75032958D01*
X116676618Y-75112310D01*
X116607310Y-75181618D01*
X116527958Y-75278309D01*
X116473502Y-75359808D01*
X116414536Y-75470125D01*
X116377027Y-75560681D01*
X116340718Y-75680377D01*
X116321596Y-75776510D01*
X116309336Y-75900991D01*
X116309336Y-75925550D01*
X116306928Y-75950000D01*
X116306928Y-76263270D01*
X115255199Y-77315000D01*
X115083265Y-77315000D01*
X115119958Y-77194026D01*
X114998817Y-76962000D01*
X113792000Y-76962000D01*
X113792000Y-76982000D01*
X113538000Y-76982000D01*
X113538000Y-76962000D01*
X113518000Y-76962000D01*
X113518000Y-76708000D01*
X113538000Y-76708000D01*
X113538000Y-75500536D01*
X113792000Y-75500536D01*
X113792000Y-76708000D01*
X114998817Y-76708000D01*
X115119958Y-76475974D01*
X115074222Y-76325186D01*
X114947684Y-76060056D01*
X114771854Y-75824707D01*
X114553488Y-75628183D01*
X114300978Y-75478036D01*
X114024027Y-75380037D01*
X113792000Y-75500536D01*
X113538000Y-75500536D01*
X113305973Y-75380037D01*
X113029022Y-75478036D01*
X112776512Y-75628183D01*
X112597053Y-75789692D01*
X112578102Y-75727220D01*
X112519137Y-75616906D01*
X112439785Y-75520215D01*
X112343094Y-75440863D01*
X112232780Y-75381898D01*
X112113082Y-75345588D01*
X111988600Y-75333328D01*
X110261400Y-75333328D01*
X110136918Y-75345588D01*
X110017220Y-75381898D01*
X109906906Y-75440863D01*
X109810215Y-75520215D01*
X109730863Y-75616906D01*
X109671898Y-75727220D01*
X109635588Y-75846918D01*
X109623328Y-75971400D01*
X109623328Y-76796993D01*
X109566530Y-76791399D01*
X109566519Y-76791399D01*
X109529197Y-76787723D01*
X109491875Y-76791399D01*
X106765243Y-76791399D01*
X106806825Y-76704099D01*
X106851476Y-76556890D01*
X106730155Y-76327000D01*
X105537000Y-76327000D01*
X105537000Y-76347000D01*
X105283000Y-76347000D01*
X105283000Y-76327000D01*
X105263000Y-76327000D01*
X105263000Y-76073000D01*
X105283000Y-76073000D01*
X105283000Y-74879186D01*
X105537000Y-74879186D01*
X105537000Y-76073000D01*
X106730155Y-76073000D01*
X106851476Y-75843110D01*
X106806825Y-75695901D01*
X106681641Y-75433080D01*
X106507588Y-75199731D01*
X106291355Y-75004822D01*
X106041252Y-74855843D01*
X105766891Y-74758519D01*
X105537000Y-74879186D01*
X105283000Y-74879186D01*
X105053109Y-74758519D01*
X104778748Y-74855843D01*
X104528645Y-75004822D01*
X104312412Y-75199731D01*
X104141100Y-75429406D01*
X104023475Y-75253368D01*
X103816632Y-75046525D01*
X103573411Y-74884010D01*
X103303158Y-74772068D01*
X103016260Y-74715000D01*
X102723740Y-74715000D01*
X102436842Y-74772068D01*
X102166589Y-74884010D01*
X101923368Y-75046525D01*
X101716525Y-75253368D01*
X101554010Y-75496589D01*
X101442068Y-75766842D01*
X101385000Y-76053740D01*
X101385000Y-76346260D01*
X101442068Y-76633158D01*
X101554010Y-76903411D01*
X101689704Y-77106492D01*
X101184001Y-77612196D01*
X101154998Y-77635998D01*
X101112388Y-77687919D01*
X101060025Y-77751723D01*
X100993383Y-77876400D01*
X100990000Y-77882730D01*
X100990000Y-66890000D01*
X101381928Y-66890000D01*
X101394188Y-67014482D01*
X101430498Y-67134180D01*
X101489463Y-67244494D01*
X101568815Y-67341185D01*
X101665506Y-67420537D01*
X101775820Y-67479502D01*
X101895518Y-67515812D01*
X102020000Y-67528072D01*
X102584250Y-67525000D01*
X102743000Y-67366250D01*
X102743000Y-66167000D01*
X101543750Y-66167000D01*
X101385000Y-66325750D01*
X101381928Y-66890000D01*
X100990000Y-66890000D01*
X100990000Y-48927275D01*
X100990666Y-48920487D01*
X100995301Y-48920000D01*
X105260477Y-48920000D01*
X105398120Y-49611980D01*
G36*
X118208748Y-71105858D02*
G01*
X118194605Y-71120000D01*
X118208748Y-71134143D01*
X118029143Y-71313748D01*
X118015000Y-71299605D01*
X118000858Y-71313748D01*
X117821253Y-71134143D01*
X117835395Y-71120000D01*
X117821253Y-71105858D01*
X118000858Y-70926253D01*
X118015000Y-70940395D01*
X118029143Y-70926253D01*
X118208748Y-71105858D01*
G37*
X118208748Y-71105858D02*
X118194605Y-71120000D01*
X118208748Y-71134143D01*
X118029143Y-71313748D01*
X118015000Y-71299605D01*
X118000858Y-71313748D01*
X117821253Y-71134143D01*
X117835395Y-71120000D01*
X117821253Y-71105858D01*
X118000858Y-70926253D01*
X118015000Y-70940395D01*
X118029143Y-70926253D01*
X118208748Y-71105858D01*
G36*
X113157000Y-64008000D02*
G01*
X113177000Y-64008000D01*
X113177000Y-64262000D01*
X113157000Y-64262000D01*
X113157000Y-64282000D01*
X112903000Y-64282000D01*
X112903000Y-64262000D01*
X112883000Y-64262000D01*
X112883000Y-64008000D01*
X112903000Y-64008000D01*
X112903000Y-63988000D01*
X113157000Y-63988000D01*
X113157000Y-64008000D01*
G37*
X113157000Y-64008000D02*
X113177000Y-64008000D01*
X113177000Y-64262000D01*
X113157000Y-64262000D01*
X113157000Y-64282000D01*
X112903000Y-64282000D01*
X112903000Y-64262000D01*
X112883000Y-64262000D01*
X112883000Y-64008000D01*
X112903000Y-64008000D01*
X112903000Y-63988000D01*
X113157000Y-63988000D01*
X113157000Y-64008000D01*
M02*
