M48
INCH,TZ
T1C0.0236
T2C0.0276
T3C0.0315
T4C0.0354
T5C0.0394
T6C0.0400
T7C0.0433
T8C0.0450
T9C0.0472
T10C0.0512
T11C0.0598
T12C0.1575
%
G90
G05
T1
X52819Y-19000
X53165Y-18165
X53165Y-19835
X54000Y-17819
X54000Y-20181
X54835Y-18165
X54835Y-19835
X55181Y-19000
X46463Y-28000
X47250Y-28000
X41819Y-19000
X42165Y-18165
X42165Y-19835
X43000Y-17819
X43000Y-20181
X43835Y-18165
X43835Y-19835
X44181Y-19000
T2
X48250Y-35750
X48250Y-36750
X48250Y-29000
X48250Y-30000
X44250Y-27500
X44250Y-28500
X43000Y-27500
X43000Y-28500
X50750Y-33500
X50750Y-34500
X48250Y-33500
X48250Y-34500
X45500Y-27500
X45500Y-28500
X50750Y-31250
X50750Y-32250
X50750Y-29000
X50750Y-30000
X48250Y-31250
X48250Y-32250
T3
X42250Y-23250
X42250Y-26250
X43250Y-23250
X43250Y-26250
X44250Y-23250
X44250Y-26250
X45250Y-23250
X45250Y-26250
X44750Y-35750
X44750Y-36734
X51516Y-35250
X52500Y-35250
X48250Y-27500
X49250Y-27500
X50250Y-27500
X51250Y-27500
X52250Y-27500
X53250Y-27500
X46000Y-36250
X46984Y-36250
X51750Y-36750
X52750Y-36750
X53750Y-36750
X49266Y-36250
X50250Y-36250
T4
X53500Y-33500
X53500Y-34500
X53500Y-28750
X53500Y-29750
X41000Y-21000
X42000Y-21000
X53500Y-31250
X53500Y-32250
T5
X40750Y-22000
X40750Y-23000
X40750Y-24000
X40750Y-25000
X40750Y-26000
X41750Y-30000
X41750Y-31000
X41750Y-32000
X41750Y-33000
X41750Y-34000
X41750Y-35000
X41750Y-36000
X41750Y-37000
X44000Y-21000
X44000Y-22000
X45250Y-21000
X45250Y-22000
X40750Y-30000
X40750Y-31000
X40750Y-32000
X40750Y-33000
X40750Y-34000
X40750Y-35000
X40750Y-36000
X40750Y-37000
T6
X43750Y-30250
X43750Y-31250
X43750Y-32250
X43750Y-33250
X44750Y-30250
X44750Y-31250
X44750Y-32250
X44750Y-33250
T7
X42750Y-25250
X43750Y-25250
X44750Y-25250
T8
X54750Y-34000
X54750Y-37000
X55750Y-34000
X56750Y-34000
X56750Y-37000
X54750Y-29750
X54750Y-32750
X55750Y-32750
X56750Y-29750
X56750Y-32750
T9
X47000Y-23500
X49000Y-23500
X52000Y-23500
X53000Y-23500
T10
X47000Y-23500
X47787Y-21138
X47787Y-25862
X52591Y-21138
X52591Y-25862
T11
X56000Y-21500
X56000Y-23500
X56000Y-25500
T12
X54000Y-19000
X43000Y-19000
T0
M30
