G04 #@! TF.GenerationSoftware,KiCad,Pcbnew,(5.1.6-0-10_14)*
G04 #@! TF.CreationDate,2021-04-02T14:20:53+01:00*
G04 #@! TF.ProjectId,WiFive55,57694669-7665-4353-952e-6b696361645f,0.10*
G04 #@! TF.SameCoordinates,Original*
G04 #@! TF.FileFunction,Soldermask,Top*
G04 #@! TF.FilePolarity,Negative*
%FSLAX46Y46*%
G04 Gerber Fmt 4.6, Leading zero omitted, Abs format (unit mm)*
G04 Created by KiCad (PCBNEW (5.1.6-0-10_14)) date 2021-04-02 14:20:53*
%MOMM*%
%LPD*%
G01*
G04 APERTURE LIST*
%ADD10C,1.600000*%
%ADD11R,1.600000X1.600000*%
%ADD12C,1.200000*%
%ADD13R,1.200000X1.200000*%
%ADD14O,1.400000X1.400000*%
%ADD15C,1.400000*%
%ADD16C,0.900000*%
%ADD17C,8.000000*%
%ADD18O,1.905000X2.000000*%
%ADD19R,1.905000X2.000000*%
%ADD20R,1.500000X1.500000*%
%ADD21C,1.500000*%
%ADD22O,1.700000X1.700000*%
%ADD23R,1.700000X1.700000*%
%ADD24C,1.000000*%
%ADD25O,1.727200X1.727200*%
%ADD26R,1.727200X1.727200*%
%ADD27C,3.200000*%
%ADD28O,1.600000X1.600000*%
%ADD29C,1.800000*%
%ADD30R,1.800000X1.800000*%
%ADD31C,3.000000*%
%ADD32R,3.000000X3.000000*%
%ADD33O,1.800000X1.800000*%
%ADD34O,2.000000X3.000000*%
%ADD35R,2.000000X3.000000*%
%ADD36C,1.778000*%
G04 APERTURE END LIST*
D10*
X119340000Y-92075000D03*
D11*
X116840000Y-92075000D03*
D10*
X125135000Y-92075000D03*
D11*
X127635000Y-92075000D03*
D12*
X118015000Y-71120000D03*
D13*
X120015000Y-71120000D03*
D14*
X122555000Y-90805000D03*
D15*
X122555000Y-93345000D03*
D14*
X115570000Y-69850000D03*
D15*
X115570000Y-72390000D03*
D16*
X135038680Y-50381320D03*
X137160000Y-51260000D03*
X139281320Y-50381320D03*
X140160000Y-48260000D03*
X139281320Y-46138680D03*
X137160000Y-45260000D03*
X135038680Y-46138680D03*
X134160000Y-48260000D03*
D17*
X137160000Y-48260000D03*
D16*
X107098680Y-50381320D03*
X109220000Y-51260000D03*
X111341320Y-50381320D03*
X112220000Y-48260000D03*
X111341320Y-46138680D03*
X109220000Y-45260000D03*
X107098680Y-46138680D03*
X106220000Y-48260000D03*
D17*
X109220000Y-48260000D03*
G36*
G01*
X109700000Y-52590000D02*
X109700000Y-54090000D01*
G75*
G02*
X109450000Y-54340000I-250000J0D01*
G01*
X108950000Y-54340000D01*
G75*
G02*
X108700000Y-54090000I0J250000D01*
G01*
X108700000Y-52590000D01*
G75*
G02*
X108950000Y-52340000I250000J0D01*
G01*
X109450000Y-52340000D01*
G75*
G02*
X109700000Y-52590000I0J-250000D01*
G01*
G37*
G36*
G01*
X137025000Y-52590000D02*
X137025000Y-54090000D01*
G75*
G02*
X136775000Y-54340000I-250000J0D01*
G01*
X136275000Y-54340000D01*
G75*
G02*
X136025000Y-54090000I0J250000D01*
G01*
X136025000Y-52590000D01*
G75*
G02*
X136275000Y-52340000I250000J0D01*
G01*
X136775000Y-52340000D01*
G75*
G02*
X137025000Y-52590000I0J-250000D01*
G01*
G37*
D18*
X113665000Y-64135000D03*
X111125000Y-64135000D03*
D19*
X108585000Y-64135000D03*
D20*
X135255000Y-69850000D03*
D21*
X130175000Y-69850000D03*
X132715000Y-69850000D03*
D20*
X127635000Y-69850000D03*
D21*
X122555000Y-69850000D03*
X125095000Y-69850000D03*
D22*
X111760000Y-53340000D03*
D23*
X111760000Y-55880000D03*
D22*
X114935000Y-53340000D03*
D23*
X114935000Y-55880000D03*
D14*
X122555000Y-85090000D03*
D15*
X122555000Y-87630000D03*
D14*
X122555000Y-73660000D03*
D15*
X122555000Y-76200000D03*
D14*
X128905000Y-73660000D03*
D15*
X128905000Y-76200000D03*
D14*
X128905000Y-79375000D03*
D15*
X128905000Y-81915000D03*
D14*
X128905000Y-85090000D03*
D15*
X128905000Y-87630000D03*
D14*
X112395000Y-69850000D03*
D15*
X112395000Y-72390000D03*
D14*
X122555000Y-79375000D03*
D15*
X122555000Y-81915000D03*
D14*
X109220000Y-69850000D03*
D15*
X109220000Y-72390000D03*
D24*
X139065000Y-56515000D03*
X108585000Y-92075000D03*
X139065000Y-92075000D03*
D20*
X131445000Y-93345000D03*
D21*
X136525000Y-93345000D03*
X133985000Y-93345000D03*
D22*
X106045000Y-76200000D03*
X106045000Y-78740000D03*
X106045000Y-81280000D03*
X106045000Y-83820000D03*
X106045000Y-86360000D03*
X106045000Y-88900000D03*
X106045000Y-91440000D03*
D23*
X106045000Y-93980000D03*
D22*
X103505000Y-76200000D03*
X103505000Y-78740000D03*
X103505000Y-81280000D03*
X103505000Y-83820000D03*
X103505000Y-86360000D03*
X103505000Y-88900000D03*
X103505000Y-91440000D03*
D23*
X103505000Y-93980000D03*
D22*
X103505000Y-55880000D03*
X103505000Y-58420000D03*
X103505000Y-60960000D03*
X103505000Y-63500000D03*
D23*
X103505000Y-66040000D03*
D25*
X113665000Y-84455000D03*
X111125000Y-84455000D03*
X113665000Y-81915000D03*
X111125000Y-81915000D03*
X113665000Y-79375000D03*
X111125000Y-79375000D03*
X113665000Y-76835000D03*
D26*
X111125000Y-76835000D03*
D27*
X142240000Y-71120000D03*
X104140000Y-71120000D03*
D10*
X113665000Y-93305000D03*
X113665000Y-90805000D03*
D28*
X107315000Y-59055000D03*
X114935000Y-66675000D03*
X109855000Y-59055000D03*
X112395000Y-66675000D03*
X112395000Y-59055000D03*
X109855000Y-66675000D03*
X114935000Y-59055000D03*
D11*
X107315000Y-66675000D03*
D29*
X104140000Y-53340000D03*
D30*
X106680000Y-53340000D03*
D31*
X142240000Y-64770000D03*
X142240000Y-59690000D03*
D32*
X142240000Y-54610000D03*
D33*
X135890000Y-73025000D03*
D30*
X135890000Y-75565000D03*
D33*
X135890000Y-85090000D03*
D30*
X135890000Y-87630000D03*
D33*
X135890000Y-79375000D03*
D30*
X135890000Y-81915000D03*
D34*
X134620000Y-59690000D03*
X132080000Y-59690000D03*
X124460000Y-59690000D03*
D35*
X119380000Y-59690000D03*
D36*
X144145000Y-86360000D03*
X141605000Y-86360000D03*
X139065000Y-86360000D03*
X139065000Y-93980000D03*
X144145000Y-93980000D03*
X139065000Y-83185000D03*
X141605000Y-83185000D03*
X144145000Y-83185000D03*
X144145000Y-75565000D03*
X139065000Y-75565000D03*
D31*
X119380000Y-59690000D03*
X121380000Y-53690000D03*
X133580000Y-53690000D03*
X133580000Y-65690000D03*
X121380000Y-65690000D03*
D10*
X130850000Y-89535000D03*
X133350000Y-89535000D03*
M02*
